<?xml version="1.0" encoding="utf-8"?>
<!-- Generator: Adobe Illustrator 28.1.0, SVG Export Plug-In . SVG Version: 6.00 Build 0)  -->
<svg version="1.1" xmlns="http://www.w3.org/2000/svg" xmlns:xlink="http://www.w3.org/1999/xlink" x="0px" y="0px"
	 viewBox="0 0 868.2 491" style="enable-background:new 0 0 868.2 491;" xml:space="preserve">
<style type="text/css">
	.st0{fill:#FFFFFF;}
</style>
<g id="Vrstva_3">
</g>
<g id="Layer_1">
	<path class="st0" d="M2.2,411.5c0.6-4.2,1.1-8,1.7-11.9c0.1-0.1,0.4-0.4,0.7-0.4c10.9-2.5,11.5-2,11.7,9.1c0.1,4.6,0,9.3,0,13.1
		c5.7-1.5,11.4-3,17.6-4c2.6,0.8,4.7,1.1,6.8,1.4c0,0,0.3,0,0.5,0.4c1.2,0.9,2.2,1.3,3.2,1.7c0,0-0.1,0.1-0.1,0.4c2,2.1,4,3.9,6,5.7
		c0,0,0.2,0.2,0.1,0.8c-0.1,1.1-0.2,1.6,0,2c3.1,7.9,4.6,15.9,0.2,23.9c-0.5,0.9-0.2,2.3-0.2,3.4c0,0-0.1-0.1-0.3,0.1
		c-3.7,3-7.1,6-10.7,8.6c-2.5,1.9-5.4,3.3-8,4.9c-12.5,1.3-20.8-2.3-25.7-11.8c-0.4-0.8-0.6-1.1-0.8-1.4c0,0,0-0.4-0.1-0.8
		c-0.4-1.3-0.7-2.2-1-3.1c0,0,0-0.4,0-1c-0.1-2.8-0.1-5-0.3-7.1c-0.3-3.8-0.7-7.7-1.1-11.5C2.2,426.6,2.2,419.3,2.2,411.5
		 M16.2,447.2c0.4,7.1,3,11.4,7.7,12.6c5,1.3,11.1-0.7,13.6-5.1c3.1-5.6,4.7-11.6,2.7-18.2c-2.1-6.7-7-10.1-13.4-9
		c-7.4,1.2-10.7,5.1-10.6,12.3C16.2,442,16.2,444.1,16.2,447.2z"/>
	<path class="st0" d="M683.8,1c3.2,1.4,6.1,2.7,8.9,4.1c5.5,2.9,11,6,16.2,9.4c-2.5-0.6-4.6-1.7-6.8-2.7c-4.9-2.2-9.7-4.6-14.7-6.6
		c-4.6-1.8-9.4,1.8-13.1,8.9c-3.5,6.7-7.4,13.2-11.2,19.8c-1.3,2.2-2.9,4.2-4.4,6.3c2-4.4,3.5-9.1,6-13.2c5.2-8.6,11-16.8,16.5-25.5
		C681.9,1,682.7,1,683.8,1z"/>
	<path class="st0" d="M862.5,54.9c0.6,1.2,1.4,2.3,1.6,3.6c0.6,3.3,1,6.7,1.8,10.3c0.3,5.9,0.3,11.6,0.3,17.8
		c-0.4,0.5-0.9,0.5-1.6,0.1C863.6,75.7,863.1,65.3,862.5,54.9z"/>
	<path class="st0" d="M2.2,434.5c0.4,3.4,0.8,7.2,1.1,11c0.2,2.2,0.2,4.3,0.2,6.9c-0.2,0.5-0.4,0.5-0.9,0.6
		C2.2,447,2.2,441,2.2,434.5z"/>
	<path class="st0" d="M601.2,85c0.4,13.9-7.4,25.3-11.3,37.9c-4,12.8-9.1,25.3-13.6,38c-3.8,10.6-7.7,21.3-11.2,32
		c-0.7,2.1-0.5,4.9,0.3,7c4.6,13,9.4,25.9,14.2,38.8c1.4,3.9,3.3,7.6,4.5,11.5c0.5,1.5-0.3,3.4-0.5,5.8c5.2,3.2,7.4,9.6,9.7,15.8
		c7.8,20.5,15.3,41.1,22.9,61.6c1.6,4.3,0,6.6-5.4,6.7c-7.5,0.1-15-0.2-22.5-0.4c-1,0-2-0.2-3-0.2c-8.4,0-9.1-0.3-12-8.3
		c-7.1-20-14.1-40.1-21.1-60.2c-7.1-20.6-14.2-41.1-21.4-61.7c-0.6-1.7-1.8-3.2-2.7-4.7c-0.5,0.1-1,0.3-1.4,0.4c0,2.4,0,4.8,0,7.2
		c0.4,26,0.9,51.9,1.3,77.9c0.2,13.1,0.6,26.3,0.8,39.4c0.2,8.5-8.2,14.4-16.1,12.1c-3.4-1-7.2-1.1-10.8-0.8
		c-9.7,0.9-13.4-2.1-13.5-11.8c0-16.2-0.1-32.3,0-48.5c0-2.5,1-4.9,1.4-6.8c-0.6-2-1.5-3.8-1.5-5.5c-0.4-21.5-0.7-43.1-0.9-64.6
		c-0.2-22.6-0.3-45.3-0.3-67.9c0-22.2,0-44.4,0-66.6c0-8,2-10.1,10-10.1c6.3,0,12.7-0.2,19,0.1c7.2,0.3,9.7,3.2,9.7,10.4
		c0.2,36.3,0.5,72.5,0.7,108.8c0,1.8,0.2,3.6,1.3,5.8c0.9-1.7,2.1-3.4,2.7-5.2c5-14.8,9.8-29.7,14.8-44.4c0.9-2.7,2.5-5.2,3.3-6.9
		c0.7-3.8,0.7-7,1.9-9.7c5.9-13,11.1-26.2,14.2-40.2c0.5-2.4,1.4-4.8,2.4-7.1c2.8-6.4,5.3-12.7,14.8-11.5c6.9,0.9,14-0.2,21-0.2
		c9-0.1,9.9,1.5,5.3,10C602.8,73.3,603.9,79.9,601.2,85z"/>
	<path class="st0" d="M102.9,95.3c3.2,21,6.4,41.5,9.6,62c4.8,31,9.7,62,14.6,93.1c3.9,24.6,7.7,49.2,11.5,73.9
		c0.4,2.8,0.5,5.6,0.5,8.4c0.1,5.8-1.7,7.9-7.6,8.1c-7.6,0.3-15.4,0.6-23-0.2c-2.3-0.2-5.4-3.3-6.3-5.8c-1.7-4.4-2.5-9.3-3-14.1
		c-1.9-17.2-3.5-34.4-5.2-52.4c-14.6,0-29,0-43.4,0c-2.6,18.6-5,36.3-7.6,54.1c-0.6,4.4-2.2,8.7-2.8,13.1c-0.6,4.1-3.2,5.3-6.6,5.3
		c-7.7,0.2-15.3,0.2-23,0c-4.8-0.1-8.1-4.3-7.4-9.3c2.4-17,4.7-33.9,7.4-50.8c2.6-16.9,6-33.7,8.3-50.7
		c5.3-39.9,10.1-79.8,15.3-119.6c1.8-14.2,4.1-28.3,6.2-42.4c1-6.7,3.6-8.9,10.3-9c12.8-0.1,25.7-0.1,38.5,0
		c6.1,0.1,8.3,2.2,9.2,8.2C100,76.5,101.4,85.7,102.9,95.3 M66.2,130.6c-2.9,24.1-5.7,48.2-8.6,72.3c-1.2,9.9-2.4,19.7-3.7,30.3
		c10.9,0,21.1,0.1,31.4-0.2c0.8,0,2.4-2.5,2.3-3.8c-0.6-6.9-1.6-13.9-2.6-20.8c-3.6-25.8-7.1-51.7-10.8-77.5
		c-1.1-7.6-2.3-15.2-3.4-22.8c-0.6,0-1.1,0-1.7-0.1C68.2,115.3,67.2,122.5,66.2,130.6z"/>
	<path class="st0" d="M333.2,223.7c-0.8,0-1.5,0.1-2.7-0.1c-0.7-0.1-1,0-1.3,0.1c-1.4,0.1-2.8,0.1-4.6-0.3c-2.6-3.2-4.4-3.8-5.5,0.3
		c-0.8,1.5-2.2,3.1-2.2,4.6c-0.2,12.4,0,24.9-0.2,37.3c0,2.4-1,4.7-1.4,7.1c-0.2,1.1-0.5,2.3-0.2,3.3c3.7,13.7,1.3,27.6,1.9,41.4
		c0,0.8-1.3,1.6-2.4,2.2c-0.6-0.1-0.9,0-1.2,0c0.2,0.1,0.5,0.2,0.7,0.3c1.3,4.2,5,8.6-1,12.1c2.7,7.3,1.8,8.6-6.1,8.7
		c-6.7,0.1-13.3,0.2-20,0c-7.1-0.2-8.9-2.7-8.8-9.7c0.1-19-0.1-38,0-56.9c0.2-35.2,0.5-70.5,1-105.7c0.4-34.1,1.1-68.2,1.8-102.3
		c0.1-4.7,3.4-6.3,7.3-6.3c19.1,0.3,38.3,0.3,57.4,1.3c28.5,1.5,47.2,19.3,50.4,47.8c2.9,25.4,3.3,50.8-3.9,75.7
		c-1.4,4.8-3.7,9.2-6.2,14.1c-1.8,0.6-3.4,0.7-4.1,1.5c-3,3.4-5.9,6.9-8.6,10.6c-0.9,1.2-1.3,2.9-1.9,4.4c0,0-0.2-0.1-0.5-0.1
		c-5.7,1.6-11,3.2-16.4,4.6c-4.6,1.2-9.3,2.3-14,3.3C338.1,223.4,335.6,223.5,333.2,223.7 M317.4,156.5c0,10,0,20,0,30.5
		c4.2,0.3,8.6,0.4,13,0.8c16.3,1.3,26.3-5.8,27.7-21.8c1.3-15,1-30.2,0.7-45.4c-0.1-5-2-10.1-4-14.8c-2.5-6-7.3-9.2-14.1-9.1
		c-4,0.1-7.9-0.6-11.9-0.8c-3.3-0.1-6.6,0-11.4,0C317.4,116.3,317.4,136,317.4,156.5z"/>
	<path class="st0" d="M163.3,339c-1.1-2-2.5-3.8-2.5-5.6c0.2-8.8,0.7-17.5,1.1-26.3c0-1,0.2-2,0.1-3c-0.5-8.2-1.4-16.5-1.4-24.7
		c-0.2-59.2-0.3-118.5-0.2-177.7c0-10.5,1.1-21,1.7-31.5c0-0.7,0-1.3,0-2c-0.8-8.4-0.1-9.4,8.3-9.3c4.8,0.1,9.6,1,14.3,1.3
		c2.3,0.1,4.7-0.1,6.9-0.8c3.4-0.9,4.9,0.9,5.3,3.6c0.6,3.7,1,7.5,1,11.2c-0.1,42.3-0.3,84.6-0.4,126.9c0,14.3,1.2,28.7,0.2,42.9
		c-1.4,20.5,0.7,41-1.2,61.8c1.7,0.2,2.9,0.5,4.2,0.5c13.6,0,27.3-0.1,40.9-0.2c3.1,0,6.3-0.1,9.4-0.8c3.7-0.8,5.9,1,6.1,4
		c0.4,8.6,0.4,17.2,0,25.8c-0.2,3.6-2.9,5.1-6.7,5c-18.3-0.3-36.6-0.4-54.9-0.4c-8.1,0-16.3,0.9-24.4,1
		C168.8,340.9,166.2,339.8,163.3,339z"/>
	<path class="st0" d="M457.1,315c0,2,0.1,4.1-0.3,6.8c-0.8,2.8-1.5,5-1.6,7.2c-0.2,8.2-4.1,11.1-11.7,8.4c-1.4-0.5-2.9-0.3-4.4-0.4
		c-0.4,0-0.9-0.1-2,0c-7.2,3.6-12.3,2.9-15.6-1.3c0-4.3,0-7.6,0-11c0-1.6-0.2-3.3-0.1-4.9c0.4-4,1.4-8,1.3-12.1
		c-0.2-11.6-1.2-23.3-1.3-34.9c-0.1-14.2,0.5-28.3,0.6-42.5c0.1-20,0-40,0-60c0-3.9,0-7.9,0.1-11.8c0-5,0-10,0.1-15
		c0.1-5.6,0.6-11.3,0.4-16.9c-0.2-5.6,3.1-10.8,0.8-16.9c-1.8-5-2.1-10.7-2.2-16c-0.1-7.1,0.6-14.1,0.8-21.2c0.2-7.3,0.6-7.9,7.5-10
		c0.6-0.2,1.2-0.7,1.8-0.8c5.9-0.2,11.9-0.5,17.8-0.5c2.8,0,5.6,0.7,8.4,1c0,0,0,0.1-0.1,0.7c-0.2,28.5-0.3,56.5-0.3,84.5
		c0,1.1,1.2,2.3,1.8,3.4c-0.1,0.5-0.2,0.9-0.8,1.9c-0.7,1.3-1.1,2-1.1,2.8c0,15.4-0.1,30.7,0,46.1c0,1.1,0.5,2.1,0.8,3.2
		c0,0.8,0,1.5-0.3,3c-0.4,1.7-0.6,2.6-0.6,3.6c-0.4,12.7-0.8,25.4-1,38.2c-0.1,3.5,0.8,6.9,0.8,10.4c0,4.4-0.5,8.9-0.9,13.3
		c-0.3,3.7-1,7.4-1,11.1c0,3.5-3.1,7.8,1.7,10.5c0.1,0.7,0.1,1.5-0.2,2.7C456.6,303.8,456.9,309.4,457.1,315z"/>
	<path class="st0" d="M658.5,40.4c1.6-2.4,3.3-4.4,4.6-6.6c3.8-6.5,7.7-13.1,11.2-19.8c3.7-7.1,8.5-10.7,13.1-8.9
		c5,2,9.8,4.3,14.7,6.6c2.2,1,4.3,2.1,6.9,3c0.4-0.1,0.4-0.1,0.4,0.3c9.9,9.1,20.1,17.5,25,30.4c0.4,1.1,2.2,1.7,3.3,2.6
		c0.1,0.2,0.1,0.4,0.2,1.2c0.1,1.5,0.1,2.3,0.3,3.1c1.9,9.2,3.9,18.5,5.9,27.7c0.6,3,1.3,6,2,9.3c0,1.1,0.1,1.8-0.1,2.6
		c0,0.4,0.1,0.6,0.2,1.3c0,0.8,0,1.2,0,2.1c-0.3,3.1-0.6,5.8-1,8.9c-3.4,3.3-3.2,7-2,11.2c-1,4.1-2,7.9-3.2,12
		c-0.7,2.8-1.3,5.2-2,7.9c-0.7,0.4-1.3,0.6-2,0.4c-1.5-2.7-2.7-5.2-4.2-7.4c-4.6-6.6-9.9-12.8-13.9-19.8
		c-4.7-8.1-8.5-16.7-12.3-25.3c-4.1-9.4-7.7-19.1-11.6-28.6c-1.7-4.2-3.4-8.3-5.1-12.4c-0.5,0.1-1.1,0.2-1.6,0.3
		c0.3,1.8,0.3,3.7,0.8,5.5c0.4,1.4,1.5,2.6,2,3.9c5.5,13.6,10.5,27.5,16.5,40.8c4.1,9.2,9.6,17.7,14.6,26.5
		c3.1,5.4,6.6,10.6,9.6,15.9c-1.1,0.1-1.9,0.1-3.1,0.1c-4.4-0.4-8.3-0.5-12.2-1.1c-3-0.4-6-1.4-9-2.1c-9.5-3.6-19.7-6.2-28.5-11.1
		c-16-8.9-27.3-21.4-28.2-41.3c-0.5-10.1,1.1-19.6,3.5-29.2C654.2,47,656.6,43.9,658.5,40.4z"/>
	<path class="st0" d="M736.6,179.9c0-0.2-0.1-0.4-0.1-1.2c-0.2-1.7-0.3-2.8-0.5-3.8c-0.1-1.1-0.3-2.2-0.2-3.9
		c0.3-4.4,0.3-8.1,0.4-12.3c-0.3-2.2-0.7-3.9-1-6.1c0-1.5,0-2.5,0.3-3.8c3.8-1.5,2.8-4.1,1.5-6.2c-0.4-0.7-2.5-0.4-3.8-0.9
		c0-0.5,0-0.7,0.1-1.1c1.1-1.1,2-1.9,3.3-2.7c1.1,0.4,1.9,0.7,2.7,1.4c10,12.1,16.1,26.1,22.3,40c-0.7-4.8-1.5-9.6-3.6-13.6
		c-4.9-9.1-10.4-17.9-15.5-26.9c0.4-0.4,0.6-0.7,1.2-0.9c3.8,0.6,7.2,0.9,10.6,1.7c6.8,1.6,13.4,3.4,20.5,5.2c2.8,1,5.2,2,7.6,2.9
		c0.2,0.1,0.3,0.2,0.7,0.7c1,0.8,1.8,1.2,2.6,1.5c12.3,7.6,16.5,19.1,15.4,33.6c-0.9,12.2-6.7,22.3-13.3,32.1
		c-0.1,0.1-0.2,0.3-0.3,0.4c-2.8,3.8-5.6,7.6-8.4,11.3c-5.5-2.2-11.4-3.7-16.5-6.6c-14.4-8.3-22.5-21.1-25.1-38.2
		C737.1,181.4,736.8,180.7,736.6,179.9z"/>
	<path class="st0" d="M780.2,285c3.8-6,7.5-11.7,11.6-18c-10.2,0-19.6,0-29,0c-6.1,0-6.8-0.7-6.8-6.9c-0.2-15.7-0.1-12.8,12.7-13.1
		c13.3-0.3,26.6-0.6,39.9-0.9c6.8-0.2,7.2,0.8,8,7.7c1,8.6-1.5,15.9-5.8,23.1c-7.3,12.1-14.3,24.3-21.2,36.5c-1,1.7-1,3.9-1.7,7.1
		c8.7,0,16.7,0.2,24.8-0.1c4-0.1,5.9,1.4,6.2,5.3c0,0.2,0.1,0.3,0.1,0.5c2.1,13.6,1,14.9-12.5,14.9c-13.6-0.1-27.3-0.1-40.9,0.1
		c-4.2,0-5.4-1.4-5.9-5.7c-1.2-10.4,1.9-19.2,7.3-27.7C771.4,300.3,775.6,292.8,780.2,285z"/>
	<path class="st0" d="M722,317.6c0.7-3.8,1.6-7.7,1.9-11.5c0.3-3.6,1.7-5.1,5.3-4.8c3.5,0.2,7,0.2,10.5,0.2c3.4,0,5,1.7,5.3,5.2
		c2,20.6-13.6,36.9-34.3,35c-6.8-0.6-13.5-3.1-20.4-5.5c-3.3-4.1-5-9.4-11-9.2c-0.4-0.5-0.7-0.9-0.8-1.9
		c-0.3-13.2-0.8-25.8-1.4-38.4c0-0.9-0.7-1.8-1-2.9c-0.3-1.2-0.6-2.2-0.8-3.1c0-1.2,0-2.4,0.4-4.1c1.1-3.5,1.8-6.5,2.8-9.5
		c0.7-0.3,1.2-0.6,1.6-1.3c2-8.4,6.6-13.4,15.1-14.8c1.8-0.3,3.2-2.6,4.9-4c0,0,0.1,0.1,0.5,0.1c3.2,0,6.1-0.4,8.9,0.1
		c4.7,0.8,10.7-3.1,13.9,3.6c0.1,0.3,1,0.1,1.4,0.3c2.3,1,4.6,2,6.9,3c2.2,1,4.4,1.9,6.6,2.9c0,0-0.1,0.1-0.1,0.4
		c0,1-0.2,1.9,0.1,2.3c3.8,5.2,3.9,11.4,4.2,17.4c0.1,1.8-1.1,4.8-2.5,5.5c-6.2,3.2-13.1-0.8-13.8-7.8c-0.4-4-2-7.7-5.2-9.4
		c-12.3-6.4-27.1,0.9-27.7,15.5c-0.4,9.6-0.1,19.3,0.4,28.9c0.3,5.2,1.3,10.7,8.3,11.4c5.5,0.6,10.9,1.4,16.4,1.6
		C721.7,322.9,722.6,320.5,722,317.6z"/>
	<path class="st0" d="M735.2,149c0,1.1,0,2.1-0.3,3.8c-1.5,4.2-2.6,7.8-4,11.3c-1.4,3.6-3.1,7.2-4.5,10.8c-0.8,2-1.4,4.1-2.2,6.5
		c0,0.7-0.1,1.1-0.1,1.5c-8.7,13.7-22.5,17.9-37.5,19.5c-1.4,0.2-4-0.9-4.4-2c-5.2-14.2-9.4-28.6-5.3-44.1
		c3.3-12.4,11.9-18.5,23.6-21.4c2-0.5,3.9-1.5,5.9-2.6c3.1,0.3,6.1,1.3,9.1,1.7c3.9,0.6,7.8,0.7,12.2,1.4c1.1,2.4,1.8,4.5,2.4,6.8
		c0,0.4,0,0.6-0.4,0.8c-5.2,1.7-8.6,5.1-11.5,8.8c0.4,0.4,0.8,0.9,1.1,1.3c3.6-3.4,7.2-6.7,11.1-10.1c1.1,0,1.9,0,2.6,0.4
		C733.8,145.5,734.5,147.2,735.2,149 M703.8,169c0.7-0.7,1.4-1.3,2.1-2c-0.4-0.3-0.8-0.6-1.3-0.9c-0.5,1-1,1.9-2.1,3
		c-0.3,0.3-0.6,0.6-1,0.9c0.2,0.2,0.4,0.4,0.6,0.6C702.6,170,702.9,169.5,703.8,169 M713.2,159.5c1.4-1.5,2.7-2.9,3.2-3.4
		c-2.6,2.3-6,5.3-9.5,8.3c0.6,0.6,1.2,1.2,1.8,1.8C710,164.2,711.3,162.1,713.2,159.5z"/>
	<path class="st0" d="M646.2,399c0.2,0,0.3-0.1,0.5-0.1c9.4-1.9,10.2-1.3,10.4,8.3c0.1,4.8,0,9.6,0,15.3c7.9-5.3,16-7.8,24.5-3.8
		c5,2.4,7.5,7.2,8.6,13.3c0,0.8,0,1,0.1,1.1c0.2,1.1,0.4,2.2,0.3,3.9c-0.4,6.7-0.6,12.7-0.5,18.7c0,1.5,0.5,3.8,1.6,4.5
		c2.7,1.7,3.8,4.3,1.8,5.9c-2,1.6-4.7,4.6-8.3,2c-1.1-0.8-2.7-0.7-4.1-1c0,0,0.1-0.1,0.1-0.4c-0.9-4-2.2-7.6-2.4-11.3
		c-0.3-6.7,0.3-13.5,0.4-20.2c0-3.2-1-5.9-4.9-6.1c0,0-0.1,0-0.1-0.4c-3.4-0.8-6.8-1.1-10.1-1.6c-5.1-0.8-7.7,1.9-7.8,6.6
		c-0.3,9.9-0.2,19.9-0.5,29.8c0,1.3-0.7,3.3-1.6,3.8c-2.1,1-4.6,1.7-6.8,1.4c-1-0.1-2.3-2.8-2.4-4.4c-0.2-3.6,0.3-7.2,0.3-10.7
		c0-15.8,0-31.7,0-47.5C645.2,403.6,645.8,401.3,646.2,399 M649.4,467.1c-0.4,0.1-0.9,0.2-1.3,0.4c0.1,0.2,0.2,0.4,0.3,0.6
		C648.9,467.8,649.4,467.4,649.4,467.1z"/>
	<path class="st0" d="M734.1,470.8c-2.4,0.1-4.7,0.1-7.6-0.2c-1.8-1.4-3-3-4.4-3.4c-5.9-1.9-11.3-4.1-13.3-10.9
		c-0.2-0.6-1.9-0.8-2.9-1.1c0,0,0.1-0.1,0.1-0.5c-0.2-2.3-0.7-4.3-0.6-6.2c0.4-5.4-0.6-11.6,1.9-15.9c7.5-13,19.6-16.9,35.5-10.4
		c1.3,0.5,2.8,0.6,4.2,0.9c0,0,0,0,0,0.4c0.8,2.3,1.2,4.8,2.6,5.9c5.2,4.1,4.6,9.9,5.2,15.3c0.4,3.4-0.5,6.8-0.9,10.3
		c0,0,0.1,0.1-0.3,0.1c-1.1,0.4-2.3,0.6-2.4,1.1c-2.1,6.2-7,8.9-12.7,11.1C736.9,467.8,735.6,469.5,734.1,470.8 M725.9,428.1
		c-9.1,3.9-12.2,19.2-5.5,27.3c3.4,4.1,7.8,5.5,13,4.4c4.9-1,8-4.2,8.6-9.1c0.5-4.2,0.7-8.6-0.1-12.8
		C740.7,431.8,733.8,425.5,725.9,428.1z"/>
	<path class="st0" d="M781.1,481c0,1.2,0,1.8,0,2.5c0,7.6,0,7.4-7.5,7.5c-4,0-5.6-1.5-5.6-5.5c0.1-21.1,0.1-42.3,0-63.4
		c0-3.6,1.6-4.8,4.8-4.7c3.9,0.1,9-1.8,8.7,5.7c3-1.8,5.5-3.6,8.3-4.8c9.6-4,20.1-0.4,25.6,8.5c6.5,10.5,5.7,31.7-8.3,40.6
		c-6.4,4.1-13.3,4.7-20.6,2.5c-1.5-0.5-3-0.9-5.4-1.5C781.1,472.9,781.1,476.7,781.1,481 M789.1,464.3c-2.1-1-4.3-3-6.2-2.8
		c-2.9,0.3-3.5-0.7-3.8-3c-0.3-2.1-0.6-4.2-0.9-6.3c-0.8-5.2,2.6-11.3-4.4-15c0.4-0.3,0.7-0.6,1.1-1c2.1,0.9,4.1,1.9,6.3,3.8
		c0,4.3,0.3,8.7,0,13c-0.3,4.6,2.1,6.3,5.9,7c5.6,1.1,11.2,0.2,14.5-4.4c4.6-6.3,6.1-13.4,2.8-21.2c-3.1-7.4-13.5-9.4-19.3-2.5
		c-1.4,1.6-2.5,3.5-4.3,4.9c-0.7-3.4-1.4-6.9-2.1-10.3c-1.4-6.3-1.7-6.4-8-4.7c0,21.5,0,43,0,64.5c0.5,0,1.1,0.1,1.6,0.1
		c0-5,0-10,0-15c0.6,0,1.2-0.1,1.9-0.1c0.3,1.4,0.9,2.9,1,4.3c0.2,2.7-0.2,5.3,0.1,8c0.1,1.1,1.3,2.2,2,3.2c0.6-1,1.8-1.9,1.8-2.9
		c0.2-3.7,0.4-7.3,0-11c-0.8-8-0.9-8,7.2-7.2c4,1.2,7.7,5.5,12.4,1.4c1.7-1.5,3.5-3.4,5.6-4c4.9-1.4,6.7-5.2,7.7-9.4
		c1.2-5.1,1.8-10.4,2.6-15.6c0.7-4.4-4-12.2-8.9-13.8c0.9,3.4,2.1,6.3,2.4,9.3c0.7,5.1,2.2,10.7,0.9,15.4c-1.2,4.2-2.7,9.2-8.3,12
		C796.9,463,793.7,465.5,789.1,464.3z"/>
	<path class="st0" d="M132.6,420.8c0,0,0.3,0,0.5,0.4c0.9,0.8,1.6,1.2,2.3,1.6c0,0-0.2,0.1-0.1,0.4c0.7,1.9,1.1,3.7,2.2,5
		c6.9,7.8,7.2,19,1.9,28c-5,8.3-11.7,12.7-21.2,12.7c-3,0-6.4-0.6-8.9-2.1c-4.1-2.5-7.6-5.9-11.1-9.2c-0.8-0.8-0.1-3.8-0.7-4
		c-5.5-1.6-3.1-6-3.2-9.1c0-5.9,0-11.9,5.5-16.2c1.3-1.1,1.5-3.7,2.1-5.6c0,0,0.1,0.2,0.5,0.2c4.1-1,7.8-2.1,11.6-2.7
		c3.1-0.6,6.4-0.9,9.6-0.8C126.6,419.5,129.6,420.3,132.6,420.8 M106.9,435.5c-2.5,5.7-1.9,11.4,0.4,16.9c1.9,4.6,5.3,7.4,10.5,7.9
		c5.2,0.4,10-1.4,11.4-6c1.6-5.1,1.6-11,1-16.5c-0.6-6.1-5.3-9.5-11.2-10.2C113.6,427,109.5,429.6,106.9,435.5z"/>
	<path class="st0" d="M623.4,442.9c0,0,0.4,0,0.6,0.4c0.9,0.8,1.6,1.2,2.3,1.5c0,0-0.2,0.1-0.1,0.4c0.6,1.8,1.1,3.3,1.9,4.6
		c3.1,5.3,1.2,12.5-4.1,15.5c-3,1.7-5.9,3.6-8.8,5.4c-6.5,0.3-12.9,0.4-18.6-3.8c-2.9-2.2-3.1-4.9-1.9-7.4c0.4-0.9,3.5-0.8,5.4-0.7
		c4.7,0.2,9.5,1,14.2,0.9c1.3,0,3.8-2.5,3.7-3.6c-0.2-1.7-1.8-3.9-3.4-4.7c-2.8-1.4-6-1.8-9-2.8c-4.7-1.7-9.3-3.7-11.3-9.8
		c0-2.2,0-3.5,0-4.8c0-7.8,2.8-13,10.3-14.6c5-1.1,10.8-2.5,16,1.2c1.1,0.8,3.3,0,5-0.1c0,0-0.1,0.2-0.1,0.4
		c0.6,0.8,1.2,1.4,1.9,2.3c2.2,2.4,3,5.2,0.5,6.7c-1.7,1-4.7-0.2-7.1-0.8c-0.8-0.2-1.4-1.4-2.2-2c-4.3-3.2-9-2.8-12.9,0.9
		c-3,2.9-2.8,9.5,0.7,10.3C612,439.8,617,444.2,623.4,442.9z"/>
	<path class="st0" d="M457.5,62.1c-2.7,0-5.5-0.7-8.3-0.7c-5.9,0-11.9,0.3-17.8,0.5c-0.6,0-1.2,0.6-1.8,0.8c-6.9,2.1-7.3,2.7-7.5,10
		c-0.2,7.1-1,14.1-0.8,21.2c0.1,5.4,0.4,11.1,2.2,16c2.2,6.1-1.1,11.2-0.8,16.9c0.2,5.6-0.3,11.3-0.4,16.9c-0.1,5,0,10-0.1,15
		c0,3.9-0.1,7.9-0.1,11.8c0,20,0.1,40,0,60c-0.1,14.2-0.7,28.4-0.6,42.5c0.1,11.6,1,23.3,1.3,34.9c0.1,4-0.9,8-1.3,12.1
		c-0.2,1.6,0.1,3.3,0.1,4.9c0,3.3,0,6.7,0,11c3.3,4.1,8.3,4.9,15.2,1.3c0.9,0.9,1.5,1.9,2.3,3.3c-5.4,2.2-10.8,2.3-16,0.6
		c-5.3-1.7-4-6.7-4.3-10.6c-0.3-4.2-0.2-8.5,0-12.8c0.4-8.4,1-16.8,1.3-25.2c0-1.3-1.3-2.6-1.3-3.9c0-3.1,0.5-6.3,0.6-9.4
		c0.2-16.5,0.4-33,0.5-49.5c0.1-18.8-0.1-37.6,0.1-56.5c0.1-8.1,1-16.2,1.1-24.3c0.1-6.2-0.7-12.5-0.7-18.8c0-3.4,0.9-6.8,1.2-10.3
		c0.1-1.3-0.2-2.6-0.5-5.2c0.5-1,4.6-3.5-1-5.6c-0.5-0.2-0.6-2.1-0.6-3.2c0.2-11.4,0.6-22.9,0.9-34.3c0-0.3,0.2-0.7,0.2-1
		c-0.4-8.7,1.3-10.9,10.2-11.4c7.5-0.4,15-0.3,22.4,0C454.4,59.2,455.9,60.8,457.5,62.1z"/>
	<path class="st0" d="M452.4,440.8c0.1,0.5,0.2,0.9,0,1.9c-1,3.4-1.5,6.4-2.2,9.7c-2.9,3.9-5.6,7.6-8.6,11c-0.8,0.9-2.6,1-3.9,1.7
		c-3.8,2-9.4,0.6-11.6,5.8c-0.4,0-0.9,0.1-1.6-0.4c-1-1.4-1.5-3.1-2.2-3.3c-7.3-1.3-13-4-16.9-11.4c-3.2-6.2-4.4-14-0.9-19.8
		c2.4-4,3.7-8.8,5.5-13.2c0,0,0.1,0.2,0.4,0.2c1.2-0.1,2.2,0.1,2.8-0.3c7.4-5,15.2-4.9,23.3-1.8c2.2,0.8,4.6,1.3,6.8,1.9
		c0,0-0.1,0.1-0.1,0.4C446.3,429.3,449.4,435.1,452.4,440.8 M413.1,452.7c-0.2,3.1,0.5,5.5,4,6.5c2,0.6,3.9,1.6,5.7,2.5
		c4.6,2.2,14.4-0.8,16.4-5.3c3.8-8.8,3.1-17.5-1.8-25.6c-4.7-7.7-16.9-7.9-22.1-0.8C410.2,436.8,409.7,444.1,413.1,452.7z"/>
	<path class="st0" d="M782.2,147.4c-2.4-0.5-4.8-1.5-7.6-2.9c1.5-3.4,6.8-4,10.9-3.1c5,1.1,10.4,1.6,15.5,1.2
		c5.6-0.5,11-3.4,16.5-3.3c10.5,0.2,17.9-6.2,25-11.6c4.4-3.3,10.1-8.2,10.7-15.3c0.1-1.1,0.7-2.2,1.4-3.2
		c5.7-8.5,7.3-18.4,7.3-28.2c-0.1-11.8-1.8-23.6-3.2-35.3c-0.4-3.7-2.1-7.2-3.1-10.9c-0.9-3.4-1.4-7-2.7-10.3c-1-2.6-2.6-6.8-4.3-7
		c-6.6-0.8-14.5-2.4-19.6,0.4c-7.6,4.1-18,0.1-23.3,9c-0.1,0.1-0.3,0.1-0.5,0.1c-7.2,0.9-13.4,3.8-18.4,9.2
		c-0.5,0.6-1.8,0.5-2.7,0.5c0-0.7,0-1,0-1.4c5.5-6.3,12.9-9.2,20.3-12.8c5.8-2.7,11.6-4.2,17.5-5.6c6.3-1.5,13-1.5,19.5-2.1
		c1.5-0.1,3.1,0.4,4.4,0c5.4-1.9,7.4,0.6,8.4,5.6c2.4,11.3,5.2,22.6,7.9,34.2c0.7,10.8,1.3,21.2,1.9,32.1
		c-0.4,12.6-5.5,23.4-11,33.6c-3.6,6.6-10.2,11.3-17,15c-15.5,8.5-32.2,10.6-49.5,9.9C785.2,145,783.7,146.3,782.2,147.4z"/>
	<path class="st0" d="M334.6,433.5c-0.1,2.7-0.1,5.1-0.5,7.3c-1.2,6.2-3.2,7.9-9.5,8c-6.5,0.1-13-0.1-19.5,0.1
		c-1.3,0-3.3,0.8-3.6,1.6c-0.4,1.1,0.3,3.1,1.2,4c5.5,5.5,12.1,7.4,19.7,5c1.9-0.6,3.8-1,5.6-1.5c3.1,6.2,2.1,9.2-4.3,11.4
		c-15.3,5.2-33.4-0.1-36.9-19.3c-2-11.2,0.5-21.6,9.9-28.6c8.5-6.3,18.3-6.5,27.9-2.3C330.6,421.8,333.8,426.7,334.6,433.5
		 M298.6,465c9.5,3.1,19,6.1,29.5-2.4c-2.6-0.5-4-1.1-5.4-0.9c-2.2,0.2-4.4,1.4-6.6,1.3c-2.9-0.2-5.6-1.5-8.5-1.8
		c-5.7-0.4-10.2-5.4-8.5-10.7c0.7-2.1,3.4-3.5,5.1-5.1c7.5,3.2,15.2,1.2,22.6,1.5c0.6,0,1.4-0.8,1.9-1.4c4.3-4.4,3.1-18.4-1.8-22.3
		c-5.7-4.6-12.3-4.8-18.9-3.9c-7.5,1.1-11.9,7.3-17.3,11.8c-0.3,0.3-0.4,0.9-0.5,1.4C288.5,444.2,286.9,456,298.6,465z"/>
	<path class="st0" d="M235,438.9c0.6-1.9,0.9-4,2-5.6c1-1.6,2.8-2.6,4.2-3.9c1.6,1.8,4.8,4,4.5,5.5c-1,5.4-2.6,10.9-5,15.9
		c-2.9,5.9-2.8,7.2,3.7,8.6c3.3,0.7,6.4,1.3,5.9,5.7c-0.5,4.3-3.2,6.3-7.2,5.9c-4-0.5-8.3-1.1-11.7-3c-3.2-1.8-5.6-1.8-8.7-0.2
		c-9.3,4.7-19,5-28.5,1c-12.9-5.4-14.8-22.1-3.5-30.4c4-3,4.2-5.3,1.9-9.4c-5.3-9.4-3.2-22,7.9-26c0.5,0.1,0.7,0.3,0.6,0.6
		c-1,1.3-1.8,2.6-2.9,3.1c-4.3,1.7-5.7,6.5-5.7,9.3c0,5.2,3.1,10.3,4.1,15.6c0.6,3.5-0.2,7.2-0.4,10.8c-0.5,0-1,0-1.5,0
		c-0.5-1-1-2.1-2-4.1c-1.7,3.2-2.9,5.6-4.3,7.9c-4.3,7.6-2.8,14.3,4.4,19.1c8.5,5.6,17.3,4.4,25.9,0.6c5-2.2,9.5-3.4,14.8-0.8
		c2.9,1.4,6.5,1.6,9.9,2c1.1,0.1,2.3-1.1,3.5-1.7c-0.8-1.2-1.3-2.8-2.3-3.5c-0.9-0.7-2.5-0.6-3.8-0.7c-4.4-0.5-6.3-3.7-4.4-7.6
		c1-2.1,2.5-3.9,3.6-5.9c2.5-4.4,5-8.8,2.2-14.3c-2.5,2.2-4.8,4.1-7.1,6C235.2,439,235,438.9,235,438.9z"/>
	<path class="st0" d="M644.8,341.7c-2.3,0-4.1,0-5.9-0.2c-3.5-0.4-5.3-2.1-4.9-6c0.4-4,0.2-8,0.2-12c0-3.5,2-5.3,5.2-5.5
		c5-0.3,10-0.7,14.9-0.3c1.4,0.1,3.5,2.5,3.7,4c0.5,4.9,0.4,10,0.1,14.9c-0.2,4-3,5.1-6.6,4.8C649.4,341.4,647.3,341.6,644.8,341.7z
		"/>
	<path class="st0" d="M66.2,423c0-0.4-0.1-0.9,0.4-1.6c4.7-2.3,9.1-4.6,11.1,2.4c0.4,1.4,0.4,2.9,0.4,4.4c0,8.1-0.2,16.3,0.2,24.4
		c0.2,3.2,1.5,6.5,2.9,9.5c1.4,3.1,0.2,6.7-2.8,6.9c-6.4,0.4-11.1-4.2-11.2-10.8c0-10,0-19.9,0-29.9C67.1,426.4,66.6,424.7,66.2,423
		z"/>
	<path class="st0" d="M366.3,450.9c-4.3-1.3-6.4,0-6.8,4.7c-0.3,4.6-0.1,9.2-0.1,13.5c-0.8,0.4-1.1,0.7-1.4,0.7
		c-14.2,0.8-12,0.8-12-10.5c-0.1-18,0-35.9,0-53.9c0-2,0-3.9,0-5.6c0.8-0.5,1.1-0.7,1.3-0.8c11.1-2.6,12-1.9,12,9.3
		c0,7.5-0.1,15,0,22.4c0,1.9,0.4,3.8,0.7,7.5c5.1-4.3,9.3-7.6,13.2-11.3c2.4-2.2,4.4-4.9,6.4-7.6c1.8-2.5,3.7-3.1,6.3-0.9
		c0.1,0.3,0.2,0.3,0.3,0.2c6.3,2.2,6.6,6,0.4,12.1c-0.4,0-0.6-0.2-0.6-0.6c0.9-2.4,1.8-4.5,2.7-6.5c-4.7-3.4-7.4-3.3-9.5,0.5
		c-4.3,8.3-11.9,12.4-20.5,16.8c-1-2.7-2.4-4.7-2.4-6.8c0-9.5,0.4-19,0.8-28.6c0.2-3.5-0.7-5-4.6-5c-4.1,0-4.6,1.7-4.5,5.1
		c0.1,15.1,0.1,30.3,0,45.4c0,4.1-0.3,8.2,5.9,8.5c-0.8,0.7-1.5,0.8-1.8,1.2c-1.4,1.3-2.6,2.7-3.9,4.1c1.6,0.6,3.4,2,4.8,1.7
		c1.5-0.3,3.6-2,3.8-3.3c0.5-3.6,0.2-7.2,0.2-11.6c0.7-0.7,2.2-2.5,4.1-3.7c2.4-1.6,5.3-3.2,6,1.9
		C366.8,450.6,366.6,450.8,366.3,450.9z"/>
	<path class="st0" d="M507.2,419c8.9-3.6,17.6-3.4,25.7,2c6.9,4.7,9.5,15.3,6,22.8c-1.5,3.3-4,5.1-7.8,5.1c-8.1-0.1-16.3,0-24.4,0
		c0.1,5.3,3.3,9.8,8.5,10.5c4.6,0.7,9.4-0.1,14.2-0.2c1.7,0,3.5,0.4,5.2,0.6c-0.4,2.4-0.2,6.4-1.5,7c-4.3,2.1-9.2,3-13.9,4.3
		c-0.6,0.2-1.3,0-2.5-0.4c-2.1-1.2-3.8-1.9-5.1-2.9c2.1-0.1,4.1-0.2,5.8,0.4c2.9,1.1,12.9-1.2,14.4-3.8c0.3-0.5-0.4-1.7-0.6-2.5
		c-9,3-17.1,0.4-24.4-3.8c-2.4-1.4-5.2-5.1-2.9-8.5c1.1-1.6,4.3-2.3,6.7-2.5c6-0.3,12-0.3,18,0c3.7,0.2,5.7-1.6,7.6-4.4
		c3.7-5.3,1.1-9.8-1.1-14.6c-2.5-5.1-13.8-10.5-19.2-8.9c-0.2,0-0.3,0.1-0.5,0.1c-2.7,0.6-5.3,1.1-8,1.4
		C507.2,419.9,507.2,419.4,507.2,419z"/>
	<path class="st0" d="M721.7,317.8c0.9,2.7,0,5.2-3.2,5c-5.5-0.2-11-1-16.4-1.6c-7-0.7-8-6.2-8.3-11.4c-0.6-9.6-0.9-19.3-0.4-28.9
		c0.6-14.6,15.4-22,27.7-15.5c3.2,1.6,4.7,5.4,5.2,9.4c0.8,7,7.6,11,13.8,7.8c1.5-0.7,2.7-3.7,2.5-5.5c-0.4-6-0.4-12.2-4.2-17.4
		c-0.3-0.4-0.1-1.3-0.1-2.4c5.8,6.1,7.4,13.9,7.2,22.3c-0.1,3.1-1.6,4.5-4.7,4.5c-3.8,0-7.7-0.1-11.5,0.3c-3.6,0.4-5-1.2-4.9-4.4
		c0.1-5.5-0.2-10.9-6.1-13.6c-6.6-3-12.2,0.2-17.7,3.5c-5.9,3.5-4.7,9.7-5.1,14.8c-0.7,7.9,0.1,15.9,0,23.8
		c-0.1,4.7,2.1,7.9,5.8,10.3C708,323,716.4,322.7,721.7,317.8z"/>
	<path class="st0" d="M101.6,422.8c-0.3,1.9-0.5,4.5-1.8,5.5c-5.5,4.3-5.6,10.3-5.5,16.2c0,3.1-2.3,7.5,3.2,9.1
		c0.6,0.2-0.1,3.2,0.7,4c3.5,3.3,7.1,6.7,11.1,9.2c2.5,1.5,5.9,2.1,8.9,2.1c9.5,0,16.3-4.3,21.2-12.7c5.4-9,5-20.2-1.9-28
		c-1.1-1.2-1.5-3.1-2.2-5.1c1.6,1,3.5,2.1,4.7,3.7c8.9,12.6,5.7,32.7-6.4,40c-10.2,6.1-20.6,6.4-30.6-0.2c-10.1-6.7-12-17-10.4-28.2
		C93.5,432.2,95.7,426.6,101.6,422.8z"/>
	<path class="st0" d="M567.2,432.1c1.8,0,3.1,0,4.5,0c9.2,0,10.1,1.2,7.8,11c-8.1,0-16.4,0.2-24.6-0.2c-1.2-0.1-3-3.2-3.1-4.9
		c-0.1-2.2-0.6-5.8,3.5-5.8C559,432.1,562.9,432.1,567.2,432.1z"/>
	<path class="st0" d="M201,402.8c7.8-4.6,19.6-2.3,24.2,4c3.8,5.2,5.5,11.1,1.7,16.7c-3.1,4.7-7.4,8.6-11.6,13.4
		c3.8,3.5,8.1,7.4,13,11.9c2.3-3.6,4.3-6.6,6.5-9.8c0.3-0.2,0.5,0,0.5,0.5c0.6,6.5-2.9,9.9-8.6,12.6c-3.5-3.8-7-7.7-10.5-11.6
		c-4.4-5-4-6.8,1.1-10.8c3.1-2.4,6.4-5.3,8.1-8.7c1.9-3.9,1.3-7.9-2.4-11.9c-6.3-6.7-6.1-7.1-12.8-2.1c-1.4-4.8-5.2-4.2-8.9-3.9
		C201.3,403.2,201.1,402.9,201,402.8z"/>
	<path class="st0" d="M645.8,399c0,2.3-0.6,4.6-0.6,6.9c-0.1,15.8,0,31.7,0,47.5c0,3.6-0.5,7.2-0.3,10.7c0.1,1.6,1.4,4.3,2.4,4.4
		c2.2,0.3,4.7-0.5,6.8-1.4c1-0.5,1.6-2.5,1.6-3.8c0.2-9.9,0.1-19.9,0.5-29.8c0.2-4.7,2.7-7.3,7.8-6.6c3.3,0.5,6.7,0.8,10.1,1.6
		c-1.5,0.1-3.2-0.4-4.8-0.5c-7.8-0.8-12.1,3.2-12.1,10.9c0.1,8.8-0.1,17.6,0.2,26.4c0.1,4.4-2,5.4-5.8,5.2c-3.7-0.2-8.2,0.9-8.2-5.1
		c0.1-19.4,0.1-38.9,0.4-58.3C643.9,404.4,644.9,401.7,645.8,399z"/>
	<path class="st0" d="M66.2,423.4c0.4,1.3,1,3,1,4.7c0.1,10,0,19.9,0,29.9c0,6.7,4.8,11.3,11.2,10.8c3.1-0.2,4.3-3.8,2.8-6.9
		c-1.4-3-2.7-6.3-2.9-9.5c-0.4-8.1-0.1-16.3-0.2-24.4c0-1.5-0.1-3-0.4-4.4c-1.9-6.9-6.4-4.6-11-2.7c0.3-5.7,4.9-3.4,8-3.9
		c3.1-0.4,4.6,1.1,4.6,4.3c0,10.8,0.1,21.6,0.1,32.4c0,3.2,0.1,5.8,4.3,6.4c2.9,0.5,3.2,6.4,0,8c-3.4,1.7-8.2,3-11.5,1.8
		c-2.7-0.9-5.3-5.6-5.7-8.8c-0.8-8.4-0.4-16.9-0.4-25.4C66,431.9,66,427.9,66.2,423.4z"/>
	<path class="st0" d="M459.4,150.7c-0.9-0.8-2.1-2-2.1-3.1c0-28,0-56,0.3-84.4c0.6,1.1,1.4,2.7,1.5,4.3
		C459.3,95.1,459.5,122.7,459.4,150.7z"/>
	<path class="st0" d="M409.6,422.8c-1.4,4.4-2.7,9.1-5.1,13.2c-3.5,5.8-2.3,13.6,0.9,19.8c3.8,7.4,9.5,10.1,16.9,11.4
		c0.8,0.1,1.3,1.9,1.9,3.2c-12.7,0.4-22.7-9.1-24-22.7c-0.9-8.7,0.9-16.9,7.5-23.7c0.3-0.3,0.4-0.4,0.4-0.4
		C408.5,423.3,408.9,423.1,409.6,422.8z"/>
	<path class="st0" d="M457,294.6c-4.9-2.4-1.8-6.6-1.8-10.1c0-3.7,0.7-7.4,1-11.1c0.4-4.4,0.8-8.9,0.9-13.3c0-3.5-0.9-6.9-0.8-10.4
		c0.2-12.7,0.6-25.4,1-38.2c0-1,0.2-2,0.6-3.2c0.6,2.7,1.3,5.8,1.2,8.9c-0.4,9.2-1.6,18.3-1.7,27.5c-0.1,12.2,0.6,24.4,0.7,36.6
		C458.1,285.6,457.4,289.9,457,294.6z"/>
	<path class="st0" d="M623.2,442.6c-6.2,1.6-11.2-2.8-17-4c-3.5-0.7-3.8-7.4-0.7-10.3c3.9-3.8,8.6-4.1,12.9-0.9
		c0.8,0.6,1.4,1.8,2.2,2c2.4,0.5,5.4,1.7,7.1,0.8c2.5-1.4,1.7-4.3-0.2-6.7c0.4-0.4,0.6-0.4,0.8-0.4c3.1,2.2,4.5,5,1.6,8.2
		c-3.1,3.4-8.4,3.5-10.9,0.5c-0.4-0.5-0.6-1.5-1.1-1.6c-2.9-0.7-5.9-1.6-8.8-1.5c-1.1,0-3.3,3.1-3,3.7c1.2,2.1,2.9,4.4,5,5.5
		C614.9,439.6,619.1,440.8,623.2,442.6z"/>
	<path class="st0" d="M747,422.7c-1.3,0-2.8-0.1-4.1-0.6c-15.9-6.5-28-2.6-35.5,10.4c-2.5,4.2-1.5,10.5-1.9,15.9
		c-0.1,1.9,0.4,3.9,0.6,6.3c-8.3-13.6,1.5-35.2,17.4-37.5C731.8,416,740.1,416.1,747,422.7z"/>
	<path class="st0" d="M71.4,411.8c-5.3-1.8-7.1-4.6-6.1-9.2c0.9-4.4,4-5.5,7.8-5c3.9,0.5,6.7,2.5,6.8,7
		C79.9,409.2,77.9,411,71.4,411.8 M72.7,401c-1.1,1.2-2.6,2.2-3.3,3.6c-0.3,0.6,1,2.6,1.9,2.8c1.4,0.3,2.9-0.4,4.4-0.7
		C75,404.8,74.2,402.9,72.7,401z"/>
	<path class="st0" d="M458.3,204.7c-0.5-0.8-1.1-1.8-1.1-2.9c-0.1-15.4,0-30.7,0-46.1c0-0.8,0.4-1.6,0.9-2.5
		c0.5,5.2,0.8,10.6,1,16.1c0.3,8.6,0.7,17.2,0.7,25.8C459.8,198.2,459,201.3,458.3,204.7z"/>
	<path class="st0" d="M388.2,459.2c3.3,0,6.6,0.3,6.3,4.9c-0.3,4.2-2.4,6.6-6.9,6.8c-9.5,0.5-13.5-6.2-17.5-13.4
		c0-0.4,0.2-0.6,0.5-0.5c2.6,2.6,4.9,4.9,7,7.5c2.2,2.8,9.7,3.9,12,1.4c2-2.2,2.8-4.5-1.5-5.2C388.2,460,388.2,459.6,388.2,459.2z"
		/>
	<path class="st0" d="M387.8,459c0.3,0.5,0.3,0.9,0,1.6c-2.6-1-5.3-1.8-6.8-3.7c-2.7-3.2-5-7-6.9-10.8c-0.8-1.7-1-4.4-0.2-6
		c1.3-2.4,3.5-4.4,5.7-6.1c1.8-1.4,4.2-2.2,6.3-3.3c0,0,0.2,0.2,0.3,0.3c-2.4,2.7-4.6,5.5-7.3,7.7c-2.7,2.1-3.7,3.9-1.3,6.9
		C381.1,450,384.3,454.5,387.8,459z"/>
	<path class="st0" d="M426.6,470.9c1.8-5.3,7.3-3.9,11.2-5.9c1.3-0.6,3-0.7,3.9-1.7c3-3.4,5.7-7,8.8-10.8c0.4,0.4,0.6,0.9,0.8,1.5
		C447.3,465.4,439.4,470.9,426.6,470.9z"/>
	<path class="st0" d="M681.1,467.5c1.3,0,3-0.1,4.1,0.6c3.6,2.6,6.3-0.4,8.3-2c2-1.6,0.9-4.3-1.8-5.9c-1.1-0.7-1.6-2.9-1.6-4.5
		c-0.1-6,0.2-12.1,0.5-18.4c0.3,5.3,0.2,11,0.7,16.6c0.1,1.9,1.2,4.7,2.5,5.2c3,1.1,4.3,3,3.4,5.6c-0.7,2.1-2.3,4.8-4.1,5.5
		C688.9,471.6,684.4,471.9,681.1,467.5z"/>
	<path class="st0" d="M676.1,284c0.3,0.9,1,1.8,1,2.6c0.6,12.6,1.1,25.3,1.4,38.1c-4.2-6.5-3.9-14-4.2-21.4c-0.1-2.5,0-5,0.4-8
		c0.4-1.7,0.4-2.9,0.4-4.1c-0.2-2.1-0.5-4.3-0.4-6.9C675.4,284,675.7,284,676.1,284z"/>
	<path class="st0" d="M625.3,420.4c-1.6,0.4-3.8,1.2-4.9,0.4c-5.2-3.7-11-2.3-16-1.2c-7.4,1.6-10.2,6.9-10.3,14.6c0,1.3,0,2.7,0,4.5
		c-5.1-8.7,0.3-18.4,7.9-20.5C609.8,416.1,617.8,415.4,625.3,420.4z"/>
	<path class="st0" d="M678.2,267c-0.7,3-1.4,6-2.5,9.1c0.6-3.9,1.5-8.1,2.5-12.2c0.1-0.4,0.8-0.7,0.9-1.1
		c1.5-11.9,11.3-13.4,20.6-16.1c-1.2,1.4-2.7,3.7-4.5,4c-8.5,1.4-13.1,6.5-15.4,14.9C679.1,266.4,678.6,266.7,678.2,267z"/>
	<path class="st0" d="M439.3,337.3c1.3-0.2,2.9-0.4,4.2,0.1c7.6,2.6,11.5-0.2,11.7-8.4c0-2.2,0.8-4.4,1.6-6.8c0.6,2.4,1,5.1,1,7.7
		c0,4.5,0.1,9.1-5.4,11.1C447.3,342.8,443,341.8,439.3,337.3z"/>
	<path class="st0" d="M615.6,470.9c2.5-1.9,5.4-3.8,8.4-5.5c5.3-3,7.2-10.2,4.1-15.5c-0.8-1.3-1.3-2.9-1.8-4.7
		c6.8,3.5,7.9,16.2,1.4,21C624.4,468.6,619.9,469.4,615.6,470.9z"/>
	<path class="st0" d="M738.3,256.6c-2.1-0.6-4.3-1.6-6.5-2.6c-2.3-1-4.6-2-6.9-3c-0.4-0.2-1.3,0-1.4-0.3c-3.2-6.7-9.2-2.8-13.9-3.6
		c-2.7-0.5-5.6-0.1-8.9-0.1C713.9,245.1,727.9,243.4,738.3,256.6z"/>
	<path class="st0" d="M333.6,223.8c2-0.3,4.5-0.4,6.9-0.8c4.7-0.9,9.4-2,14-3.3c5.4-1.4,10.7-3.1,16.5-4.6c-9.3,6.2-20,8.8-31.4,9
		C337.7,224.2,335.8,224,333.6,223.8z"/>
	<path class="st0" d="M443.2,422.5c-2.2-0.3-4.5-0.8-6.7-1.6c-8.1-3.1-15.8-3.3-23.3,1.8c-0.6,0.4-1.6,0.2-2.8,0.2
		c1.8-1.6,3.8-4,6.2-4.6C425.9,415.7,435.1,415.4,443.2,422.5z"/>
	<path class="st0" d="M674.3,429.4c3.8-0.1,4.8,2.6,4.8,5.8c0,6.7-0.6,13.5-0.4,20.2c0.1,3.7,1.5,7.3,2.3,11.4
		c-1.2-3.2-3.1-6.7-3.5-10.3c-0.6-4.9,0.3-10-0.2-14.9C677,437.5,675.4,433.6,674.3,429.4z"/>
	<path class="st0" d="M132.4,420.5c-2.8-0.2-5.8-1-8.9-1c-3.2-0.1-6.4,0.2-9.6,0.8c-3.8,0.7-7.5,1.8-11.6,2.6
		c2.2-4.9,7.2-5,11.6-5.8C120.3,416.1,126.5,416.9,132.4,420.5z"/>
	<path class="st0" d="M706,455.5c1,0,2.7,0.2,2.9,0.8c1.9,6.8,7.4,8.9,13.3,10.9c1.5,0.5,2.6,2,4,3.4
		C716.9,470.6,708.7,464.5,706,455.5z"/>
	<path class="st0" d="M734.5,470.8c1.1-1.3,2.4-3,4.1-3.7c5.6-2.2,10.6-4.9,12.7-11.1c0.2-0.5,1.3-0.7,2.4-1.1
		C752.2,463.3,744.4,469.7,734.5,470.8z"/>
	<path class="st0" d="M371.7,215.1c0.3-1.4,0.7-3.1,1.6-4.3c2.7-3.6,5.6-7.2,8.6-10.6c0.7-0.8,2.3-0.9,3.8-1.3
		C381.4,204.3,376.7,209.7,371.7,215.1z"/>
	<path class="st0" d="M754.4,454.7c0.1-3.2,1-6.7,0.6-10c-0.6-5.4,0-11.3-5.2-15.3c-1.4-1.1-1.8-3.6-2.6-5.9
		c9.5,6.7,9.9,16.7,8.6,27.2C755.7,451.9,755.1,453.2,754.4,454.7z"/>
	<path class="st0" d="M31.6,470.8c2.3-1.7,5.1-3.1,7.7-5c3.6-2.7,7-5.6,10.8-8.6C47.6,466.1,40.2,469.1,31.6,470.8z"/>
	<path class="st0" d="M736.1,159.1c-0.1,3.8-0.1,7.5-0.4,11.5c-1.7,1.2-3.4,1.9-4.6,3.1c-1.6,1.6-2.7,3.5-4.5,5.4
		c-0.4,0-0.6-0.1-0.6-0.5c1.8-3.7,3.5-7,5.3-10.4C733,165.2,734.6,162.1,736.1,159.1z"/>
	<path class="st0" d="M601.6,85c2.3-5.1,1.3-11.7,6.5-15.9C607.9,75.1,606.5,80.7,601.6,85z"/>
	<path class="st0" d="M452.6,440.4c-3.2-5.4-6.2-11.1-9.3-17.2C450,426.6,451.8,433.2,452.6,440.4z"/>
	<path class="st0" d="M494,455.2c-4.5-8.9-2.6-17.5,1.7-26.1c0.4-0.1,0.5,0.1,0.5,0.4c0,0.7,0,1.1-0.1,1.9c-0.1,1.2-0.1,1.9-0.5,2.8
		c-0.7,3.4-1.1,6.6-1.5,10.3c0,1.1,0,1.9-0.3,2.9c0.2,1.4,0.7,2.6,1.3,4.1c0,0.8,0,1.2-0.2,1.9C494.4,454,494.2,454.6,494,455.2z"/>
	<path class="st0" d="M50.6,457c-0.3-1-0.6-2.4-0.1-3.3c4.4-8,2.9-15.9-0.2-23.9c-0.2-0.4,0-1,0-1.9c5.7,6.5,4.1,14.4,3.2,22.2
		C53.4,452.4,51.9,454.6,50.6,457z"/>
	<path class="st0" d="M679.4,327.3c5.9-0.5,7.6,4.8,10.7,8.6C686.5,333.4,683,330.5,679.4,327.3z"/>
	<path class="st0" d="M457.3,314.6c-0.4-5.2-0.7-10.8-0.6-16.5C457.2,303.4,457.3,308.8,457.3,314.6z"/>
	<path class="st0" d="M511.2,468.1c1.6,0.7,3.2,1.5,4.9,2.5c-5.3,0.7-10.1-0.7-14.1-4.9c0-0.4,0.2-0.7,0.5-0.7c0.8,0,1.2,0,1.9,0
		c0.2,0,0.7,0,0.8,0.4c0.7,0.8,1.3,1.2,2.3,1.6C509,467.4,510.1,467.7,511.2,468.1z"/>
	<path class="st0" d="M501.8,465.4c-2.4-2.5-4.7-5-6.6-8c0.5-0.4,0.7-0.4,1.3-0.3c2.1,2,3.9,4,5.7,6.3c0,0.8,0,1.2,0,1.7
		C502.2,465,502,465.3,501.8,465.4z"/>
	<path class="st0" d="M451.4,453.7c-0.4-0.2-0.5-0.8-1-1.5c0.4-3.1,0.9-6,1.8-9.1C452.3,446.4,452,449.9,451.4,453.7z"/>
	<path class="st0" d="M50.2,426.6c-2-1.4-4-3.2-5.9-5.4C46.3,422.7,48.2,424.5,50.2,426.6z"/>
	<path class="st0" d="M319.5,223.8c0.7-4.2,2.5-3.6,4.7-0.5C322.8,223.7,321.4,223.8,319.5,223.8z"/>
	<path class="st0" d="M40.4,418.5c-1.9,0-4-0.3-6.1-1C36.2,417.4,38.2,417.8,40.4,418.5z"/>
	<path class="st0" d="M366.3,451.3c0.3-0.5,0.5-0.7,1-1.1c0.3-0.2,0.8-0.2,0.8,0.2c0.6,1.8,1.3,3.2,2,4.9c0.1,0.7,0.2,1.1,0.2,1.5
		c0,0-0.2,0.2-0.3,0.3C368.8,455.3,367.6,453.5,366.3,451.3z"/>
	<path class="st0" d="M496.1,457c-0.2,0-0.4,0-0.9,0c-0.3,0-0.3-0.2-0.3-0.6c-0.3-0.7-0.6-1-0.9-1.3c0,0,0.1,0.1,0,0.1
		c0.2-0.6,0.4-1.2,1.2-1.9C495.9,454.4,496,455.7,496.1,457z"/>
	<path class="st0" d="M496,428.9c0.7-1.3,1.5-2.6,2.7-3.9c0.4-0.1,0.5,0.1,0.5,0.4c0,0.7,0,1.2-0.3,1.8c-0.5,0.7-0.7,1.3-1.2,1.8
		c-0.7,0-1.1,0.1-1.5,0.1C496.2,429.1,496.1,428.9,496,428.9z"/>
	<path class="st0" d="M501.1,422.9c0.8-0.7,1.5-1.3,2.7-1.9c0.4,0,0.5,0.1,0.6,0.4c0.3,0.7,0.5,1.1,0.4,1.6
		c-0.8,0.1-1.2,0.1-1.9,0.1c-0.7,0-1.2,0.1-1.6,0C501.2,423,501.1,422.9,501.1,422.9z"/>
	<path class="st0" d="M506.8,419c0.3,0.4,0.3,0.9,0.3,1.7c0,0.3,0,0.3-0.4,0.3c-1.1,0-1.8,0.1-2.5,0.1c0,0-0.1-0.1-0.2-0.2
		C504.8,420.2,505.7,419.6,506.8,419z"/>
	<path class="st0" d="M724.5,182.9c-0.3-0.4-0.3-0.8,0-1.7c0.7-1.1,1.2-1.7,1.6-2.3c0,0,0.2,0.2,0.3,0.3
		C725.9,180.5,725.4,181.7,724.5,182.9z"/>
	<path class="st0" d="M44.2,420.5c-0.9-0.1-1.9-0.5-3-1.3C42.2,419.3,43.2,419.8,44.2,420.5z"/>
	<path class="st0" d="M676.1,283.7c-0.4,0.3-0.7,0.3-1.4,0.3c-0.2-1,0-2,0.3-3.2C675.5,281.5,675.8,282.4,676.1,283.7z"/>
	<path class="st0" d="M628.2,422.6c-0.1,0.3-0.3,0.3-0.8,0.4c-0.9-0.5-1.5-1.1-2-2C626.3,421.3,627.2,421.8,628.2,422.6z"/>
	<path class="st0" d="M785.5,149.8c-0.7-0.1-1.5-0.4-2.3-1.1C783.9,148.8,784.7,149.2,785.5,149.8z"/>
	<path class="st0" d="M674.9,291.7c0.1,0.8,0.1,2-0.2,3.3C674.6,294,674.7,293,674.9,291.7z"/>
	<path class="st0" d="M735.8,175.2c0.3,0.8,0.5,1.8,0.6,3.3C736.1,177.7,735.9,176.6,735.8,175.2z"/>
	<path class="st0" d="M499,424.9c0.4-0.7,0.9-1.3,1.7-1.9c0.3-0.1,0.4,0,0.4,0.4c-0.6,0.8-1.3,1.3-1.9,1.7
		C499.2,425.1,499.1,424.9,499,424.9z"/>
	<path class="st0" d="M135.3,422.5c-0.6-0.1-1.3-0.5-2.1-1.2C133.9,421.4,134.5,421.8,135.3,422.5z"/>
	<path class="st0" d="M626.3,444.5c-0.6-0.1-1.3-0.4-2.1-1.1C624.9,443.5,625.6,443.9,626.3,444.5z"/>
	<path class="st0" d="M736.5,180.2c0.4,0.4,0.6,1.2,0.8,2.2C736.9,182,736.6,181.3,736.5,180.2z"/>
	<path class="st0" d="M3.4,454c0.4,0.5,0.7,1.3,1,2.5C4.1,456.1,3.7,455.2,3.4,454z"/>
	<path class="st0" d="M329.4,223.8c0-0.2,0.3-0.3,0.6-0.2C330,223.7,329.8,223.8,329.4,223.8z"/>
	<path class="st0" d="M408,423.6c0.1,0,0,0.1,0,0.1C408,423.7,407.9,423.5,408,423.6z"/>
	<path class="st0" d="M4.6,457.8c0.3,0,0.4,0.3,0.6,0.8C5,458.6,4.8,458.4,4.6,457.8z"/>
	<path class="st0" d="M494.1,455.4c0.2,0,0.5,0.3,0.9,0.9C494.7,456.3,494.4,456,494.1,455.4z"/>
	<path class="st0" d="M690.4,432.9c-0.1-0.1-0.2-0.2-0.2-0.6C690.5,432.2,690.6,432.5,690.4,432.9z"/>
	<path class="st0" d="M745.2,103.9c0.3-2.7,0.6-5.4,1.3-8.5c1.4-3.1,2.5-5.7,3.6-8.4c2.9-6.6,5.4-13.5,8.8-19.9
		c3.4-6.2,7.7-12,11.9-18c0.4-0.1,0.5,0,0.5,0.3c0,0.7,0,1.2-0.3,1.8c-2.5,4.1-4.9,8-7,12c-1.8,3.4-3.3,7-4.9,10.4
		c-0.4,0.9-0.6,2.2-1.3,2.6c-4.8,3.1-4.6,8.3-5.6,13C751,94.7,749.6,100,745.2,103.9z"/>
	<path class="st0" d="M737.8,47.7c-1.2-0.5-3-1.1-3.4-2.2c-4.9-12.9-15.2-21.3-25-30.4c2.1,0.7,4.5,1.5,6.4,3
		C725.8,25.9,733.1,35.7,737.8,47.7z"/>
	<path class="st0" d="M746,89.1c-0.6-3-1.3-6-1.9-9c-2-9.2-3.9-18.5-5.9-27.7c-0.2-0.8-0.1-1.6-0.2-2.9c2.3,7.1,5,14.5,6.8,22.2
		c1.1,4.6,0.9,9.5,1.3,15.1C746.2,88.2,746.1,88.6,746,89.1z"/>
	<path class="st0" d="M746,89.5c0.1-0.8,0.1-1.3,0.3-2.2c1-0.4,2-0.3,3.4-0.3c-0.7,2.6-1.7,5.3-3.2,8c-0.4-0.4-0.4-0.8-0.3-1.9
		c0-0.8,0-0.9-0.1-1.1C746.1,91.3,746.1,90.5,746,89.5z"/>
	<path class="st0" d="M775.2,43.1c0,0,0.3-0.2,0.8-0.2c1.7-0.6,2.9-1.3,4.1-1.5c-1.6,1.5-3.3,2.6-4.9,3.3
		C775.2,44,775.2,43.5,775.2,43.1z"/>
	<path class="st0" d="M774.9,43.2c0.3,0.4,0.3,0.8,0.3,1.5c0,0.3,0,0.3-0.3,0.5c-1.4,1.4-2.5,2.6-3.6,3.9c0,0-0.1-0.1-0.2-0.1
		C772.2,47,773.4,45.1,774.9,43.2z"/>
	<path class="st0" d="M780.1,41c-1.2,0.6-2.4,1.3-4,1.9c0.8-1.3,2-2.6,3.7-3.8c0.4,0,0.7,0.3,0.6,0.5
		C780.2,40.2,780.2,40.6,780.1,41z"/>
	<path class="st0" d="M780.1,39c0.4-0.7,0.8-1.3,1.7-1.9c0.4,0,0.6,0.2,0.5,0.5c-0.7,0.8-1.3,1.2-1.9,1.7
		C780.5,39.3,780.2,39.1,780.1,39z"/>
	<path class="st0" d="M783.9,35.2c0.3,0.4,0.3,0.7,0,1.4c-0.7,0.4-1.1,0.5-1.4,0.6c0,0-0.2-0.2-0.3-0.3
		C782.5,36.3,783,35.8,783.9,35.2z"/>
	<path class="st0" d="M314.2,320c-0.2-0.1-0.5-0.2-0.7-0.3c0.3-0.1,0.6-0.1,0.8,0.1C314.2,320,314.2,320,314.2,320z"/>
	<path class="st0" d="M782.3,37.5c0.5-0.4,0.9-0.5,1.5-0.6c1.2-0.3,2.5-0.2,3-0.8c5-5.4,11.2-8.3,18.4-9.2c0.2,0,0.4,0,0.5-0.1
		c5.3-8.9,15.8-4.9,23.3-9c5.2-2.8,13.1-1.1,19.6-0.4c1.7,0.2,3.3,4.4,4.3,7c1.2,3.3,1.7,6.9,2.7,10.3c1,3.6,2.7,7.2,3.1,10.9
		c1.4,11.7,3.1,23.5,3.2,35.3c0.1,9.7-1.6,19.6-7.3,28.2c-0.6,1-1.3,2.1-1.4,3.2c-0.6,7.2-6.4,12-10.7,15.3
		c-7.1,5.4-14.5,11.8-25,11.6c-5.5-0.1-10.9,2.9-16.5,3.3c-5.1,0.4-10.5-0.1-15.5-1.2c-4.1-0.9-9.4-0.3-11.3,3.1
		c-6.7-1.4-13.4-3.2-20.2-4.8c-3.3-0.8-6.8-1.1-10.4-2c0.4-0.9,1-1.4,1.7-1.9c10-7.3,20.7-13.8,30-22c9.9-8.8,18.7-18.9,27.5-28.7
		c8.6-9.6,16.7-19.5,24.9-29.4c1.1-1.4,1.7-3.2,2.5-4.8c-11.4,11.4-21.7,23.4-32.3,35.3c-4.3,4.9-9.2,9.3-13.9,13.5
		c-0.5-0.6-1.3-1.3-1.4-1.2c-4.4,4-8.7,8.2-13.2,12.1c-3.3,2.9-6.5,7.1-10.4,8c-5.3,1.3-6.9,5.3-9.9,8.4c0,0,0,0-0.2,0.1
		c-0.5,0.3-0.7,0.6-0.9,1.2c-3.4,2.4-6.6,4.5-9.9,6.7c0.5-2.4,1.1-4.9,2.1-7.7c1.6-1.3,3.3-2.1,3.6-3.3c0.7-3,4.3-6.4-0.7-9
		c-1.2-3.8-1.5-7.4,1.9-10.8c4.4-4.3,5.8-9.5,7-15c1-4.7,0.8-9.9,5.6-13c0.7-0.5,0.9-1.7,1.3-2.6c1.6-3.5,3.1-7,4.9-10.4
		c2.1-4,4.4-7.8,7.3-12c1.7-2.2,2.8-4.2,3.9-6.2c0,0,0,0,0,0c1.6-1.1,3.3-2.2,4.9-3.6c0.1-0.8,0.1-1.1,0.3-1.8
		C781,38.8,781.6,38.3,782.3,37.5 M785.7,39.7c-0.6-0.1-1.1-0.2-1.7-0.3c0,0.4,0,0.8,0,1.2C784.5,40.5,785.1,40.4,785.7,39.7z"/>
	<path class="st0" d="M738,135.3c3.4-2.4,6.6-4.5,10.3-7c0.7-0.6,0.8-0.9,0.9-1.2c0,0,0,0,0.4,0c1.6-0.3,3.1-0.4,4.1-1.1
		c5.8-4,11.8-7.8,17.2-12.3c4.8-4.1,8.9-9,13.3-13.6c4.6-4.6,9.5-9,13.8-13.9c10.6-11.8,20.9-23.9,32.3-35.3
		c-0.8,1.6-1.3,3.5-2.5,4.8c-8.2,9.9-16.3,19.9-24.9,29.4c-8.9,9.9-17.6,20-27.5,28.7c-9.2,8.2-19.9,14.7-30,22
		c-0.7,0.5-1.3,1-2.1,1.8c-0.3,0.6-0.5,0.8-1.2,1.1c-1.3,0.1-2.1,0.2-2.9,0.2c-0.8-0.3-1.6-0.7-2.7-1.3c-0.3-0.5-0.3-0.6-0.4-1
		c0-0.2,0-0.7,0-0.7C736.7,135.8,737.3,135.7,738,135.3z"/>
	<path class="st0" d="M736,135.6c0.1,0.3,0.1,0.8-0.2,1c-1.8-0.4-3.2-1.1-4.6-1.8c-3.3-5.3-6.8-10.4-9.9-15.8
		c-5-8.7-10.5-17.3-14.6-26.5c-6-13.4-11-27.2-16.5-40.8c-0.5-1.4-1.6-2.5-2-3.9c-0.5-1.8-0.6-3.7-0.8-5.5c0.5-0.1,1.1-0.2,1.6-0.3
		c1.7,4.1,3.5,8.3,5.1,12.4c3.9,9.6,7.5,19.2,11.6,28.6c3.8,8.6,7.6,17.2,12.3,25.3c4,7,9.3,13.2,13.9,19.8
		C733.4,130.4,734.5,132.9,736,135.6z"/>
	<path class="st0" d="M730.8,134.9c1.8,0.6,3.2,1.3,5,2c0.3,0.2,0.4,0.4,0.4,0.8c-0.9,1.1-1.8,1.9-3.2,3c-1.2,0.6-2,0.9-2.8,1.3
		c-0.6-2-1.3-4.1-2-6.5C728.9,135.1,729.7,135,730.8,134.9z"/>
	<path class="st0" d="M743.2,115.4c5,2.2,1.4,5.6,0.7,8.6c-0.3,1.2-2,2-3.4,3C741.2,123.3,742.2,119.5,743.2,115.4z"/>
	<path class="st0" d="M746,92.1c0.2,0.1,0.2,0.2,0.2,0.7C746,92.7,745.9,92.4,746,92.1z"/>
	<path class="st0" d="M739.2,139.4c0.8-0.4,1.6-0.5,2.7-0.4c5.5,9,11.1,17.7,16,26.9c2.2,4,3,8.8,3.6,13.6
		C755.3,165.4,749.2,151.5,739.2,139.4z"/>
	<path class="st0" d="M726.1,178.6c-0.5,0.9-1,1.5-1.7,2.3c0.5-1.9,1.1-4,1.9-6c1.4-3.6,3.1-7.1,4.5-10.8c1.3-3.5,2.4-7.2,4-10.9
		c0.7,1.6,1,3.3,1.3,5.5c-1.6,3.4-3.2,6.5-4.8,9.5C729.7,171.5,728,174.9,726.1,178.6z"/>
	<path class="st0" d="M735.5,148.8c-1-1.6-1.7-3.3-2.3-5.7c0-0.6,0-1.1,0-1.1c1.3,0.2,3.4-0.1,3.8,0.6
		C738.3,144.8,739.3,147.3,735.5,148.8z"/>
	<path class="st0" d="M733.2,141.8c0,0.3,0,0.8,0,1c-0.8,0.2-1.5,0.2-2.6,0.2c-0.4,0-0.4,0-0.4,0c0-0.2,0-0.3,0-0.8
		c0.8-0.6,1.6-0.9,2.7-1.2C733.2,141.1,733.2,141.3,733.2,141.8z"/>
	<path class="st0" d="M678.5,267c0.2-0.3,0.6-0.6,1.3-0.9C679.7,266.3,679.2,266.6,678.5,267z"/>
	<path class="st0" d="M730.2,143c-3.6,3.4-7.2,6.8-10.8,10.1c-0.4-0.4-0.8-0.9-1.1-1.3c3-3.8,6.3-7.1,11.5-8.8
		C730.2,143,730.2,143,730.2,143z"/>
	<path class="st0" d="M712.9,159.7c-1.6,2.3-2.9,4.4-4.2,6.5c-0.6-0.6-1.2-1.2-1.8-1.8c3.5-3,6.9-6.1,9.5-8.3
		C715.9,156.6,714.5,158.1,712.9,159.7z"/>
	<path class="st0" d="M703.2,169c0.5-1,1-1.9,1.5-2.9c0.4,0.3,0.8,0.6,1.3,0.9c-0.7,0.7-1.4,1.3-2.5,2
		C703.2,169,703.2,169,703.2,169z"/>
	<path class="st0" d="M703.2,169c-0.3,0.5-0.6,1-0.9,1.5c-0.2-0.2-0.4-0.4-0.6-0.6c0.3-0.3,0.6-0.6,1.3-1
		C703.2,169,703.2,169,703.2,169z"/>
	<path class="st0" d="M649.7,467.1c-0.2,0.3-0.8,0.7-1.3,1c-0.1-0.2-0.2-0.4-0.3-0.6C648.6,467.3,649,467.2,649.7,467.1z"/>
	<path class="st0" d="M781.1,436.9c0.2,0.6,0.2,1.1,0,1.8c-2.2-0.6-4.2-1.6-6.3-2.5c-0.4,0.3-0.7,0.6-1.1,1c7.1,3.7,3.6,9.8,4.4,15
		c0.3,2.1,0.6,4.2,0.9,6.3c0.3,2.3,0.9,3.4,3.8,3c1.9-0.2,4.1,1.8,5.9,3.2c-1.1,0.4-1.9,0.4-2.6,0.4c-7.9,0-7.8,0-7,8
		c0.3,3.6,0.2,7.3,0,11c-0.1,1-1.2,1.9-1.8,2.9c-0.7-1.1-1.9-2.1-2-3.2c-0.3-2.6,0-5.3-0.1-8c-0.1-1.5-0.6-2.9-1-4.3
		c-0.6,0-1.2,0.1-1.9,0.1c0,5,0,10,0,15c-0.5,0-1.1-0.1-1.6-0.1c0-21.5,0-43,0-64.5c6.4-1.7,6.6-1.6,8,4.7
		C779.5,429.8,780.1,433.3,781.1,436.9z"/>
	<path class="st0" d="M786.2,465.4c0.7-0.4,1.5-0.4,2.6-0.4c4.9,0.5,8.1-2,11.9-3.9c5.6-2.7,7.1-7.7,8.3-12
		c1.3-4.7-0.2-10.3-0.9-15.4c-0.4-3-1.5-5.9-2.4-9.3c4.9,1.6,9.5,9.4,8.9,13.8c-0.8,5.2-1.4,10.5-2.6,15.6c-1,4.2-2.7,8-7.7,9.4
		c-2.1,0.6-3.9,2.5-5.6,4C794,471.3,790.3,466.9,786.2,465.4z"/>
	<path class="st0" d="M413.1,452.3c-3.4-8.1-2.8-15.5,2.3-22.3c5.2-7,17.4-6.8,22.1,0.8c4.9,8,5.6,16.8,1.8,25.6
		c-2,4.6-11.8,7.5-16.4,5.3c-1.9-0.9-3.8-1.9-5.7-2.5C413.7,458.2,412.9,455.8,413.1,452.3 M414.4,437.1c0.3,5-0.2,10.3,1.1,15
		c1.3,4.9,5.5,7.7,10.9,8c5,0.3,9.7-2.1,10.8-6.4c1.4-5.5,1.4-11.8,0.3-17.4c-1.1-5.2-5.4-8.6-11.4-8.6
		C420.3,427.8,416.6,431,414.4,437.1z"/>
	<path class="st0" d="M298.3,464.8c-11.4-8.9-9.7-20.7-8-32.4c0.1-0.5,0.1-1.1,0.5-1.4c5.4-4.5,9.9-10.7,17.3-11.8
		c6.6-0.9,13.2-0.7,18.9,3.9c4.9,3.9,6.1,17.9,1.8,22.3c-0.6,0.6-1.3,1.4-1.9,1.4c-7.5-0.3-15.1,1.7-22.6-1.5
		c-1.7,1.6-4.4,3-5.1,5.1c-1.7,5.3,2.8,10.3,8.5,10.7c2.9,0.2,5.7,1.6,8.5,1.8c2.1,0.1,4.3-1,6.6-1.3c1.4-0.1,2.8,0.5,5.4,0.9
		C317.6,471,308.1,468.1,298.3,464.8 M322.1,432.5c0.3-3.4,0-7.1-4-7.3c-6.2-0.3-13-1.7-17.3,5.2c-1.6,2.6-5,4.7-2.5,8.1
		c2.1,2.9,5.1,4.2,9.1,2.8c1.9-0.7,4.3-0.2,6.4-0.2c4,0,7.9,0,11.9,0c0.1-0.5,0.3-1,0.4-1.4c-1.3-1.6-2.7-3.1-4.2-5.2
		C322,434.1,322,433.8,322.1,432.5z"/>
	<path class="st0" d="M201.2,403.5c3.8-0.6,7.5-1.2,9,3.6c6.7-5.1,6.6-4.6,12.8,2.1c3.7,3.9,4.3,7.9,2.4,11.9
		c-1.7,3.4-5,6.3-8.1,8.7c-5.1,4-5.5,5.8-1.1,10.8c3.5,3.9,7,7.8,10.5,11.6c5.7-2.8,9.2-6.1,8.7-12.5c2.3-2.3,4.5-4.3,7.1-6.5
		c2.8,5.5,0.3,9.9-2.2,14.3c-1.1,2-2.6,3.8-3.6,5.9c-1.9,3.9-0.1,7.1,4.4,7.6c1.3,0.2,2.9,0,3.8,0.7c1.1,0.8,1.6,2.3,2.3,3.5
		c-1.2,0.6-2.4,1.8-3.5,1.7c-3.3-0.3-6.9-0.5-9.9-2c-5.3-2.6-9.8-1.4-14.8,0.8c-8.6,3.8-17.4,5-25.9-0.6c-7.2-4.8-8.7-11.5-4.4-19.1
		c1.3-2.3,2.5-4.7,4.3-7.9c1,2.1,1.5,3.1,2,4.1c0.5,0,1,0,1.5,0c0.2-3.6,1-7.3,0.4-10.8c-1-5.3-4.1-10.4-4.1-15.6
		c0-2.7,1.4-7.6,5.7-9.3C199.4,406.1,200.2,404.8,201.2,403.5 M208,446.5c-1.3-1.8-2.4-3.8-4-5.3c-0.3-0.3-2.4,1.4-3.9,1.8
		c0,0,0.3,0.3-0.5,0.1c-1.4,0.6-3.7,1-4,2c-1.1,3.7-1.6,7.5-2.4,11.7c1.4,0,3.3,0,5,0.2c0,0,0.1-0.2,0.1,0.6
		c0.3,4.4,2.6,6.2,7.1,5.4c1.6-0.3,3.4,0.4,4.9-0.2c2.7-1,6.8-0.5,6.9-5.6c0,0,0.3-0.3,0.9-0.4c-2-3.1-3.8-6.4-6.1-9.3
		c-0.5-0.7-2.6-0.2-3.9-0.4C208,447.2,207.9,447.3,208,446.5 M213.5,412.2c-3.5-1.9-6.7-1.9-9.2,1.6c-2.1,2.9-0.9,11.5,2.1,13.3
		c1,0.6,3.2,0.2,4.3-0.6C215.1,423.3,216.2,418.1,213.5,412.2z"/>
	<path class="st0" d="M368.2,450c0,0-0.5,0-0.7-0.1c-1-5-3.9-3.3-6.3-1.7c-1.9,1.2-3.4,3-4.1,3.7c0,4.3,0.4,8-0.2,11.6
		c-0.2,1.3-2.3,3.1-3.8,3.3c-1.5,0.3-3.2-1.1-4.8-1.7c1.3-1.4,2.6-2.8,3.9-4.1c0.4-0.4,1-0.5,1.8-1.2c-6.2-0.2-5.9-4.4-5.9-8.5
		c0.1-15.1,0.1-30.3,0-45.4c0-3.4,0.5-5.1,4.5-5.1c3.9,0,4.8,1.5,4.6,5c-0.5,9.5-0.8,19-0.8,28.6c0,2.1,1.4,4.1,2.4,6.8
		c8.6-4.3,16.1-8.4,20.5-16.8c2-3.8,4.8-3.9,9.5-0.5c-0.9,2-1.8,4.1-2.7,6.5c-2.2,1.4-4.5,2.2-6.4,3.6c-2.2,1.7-4.4,3.7-5.7,6.1
		c-0.8,1.6-0.6,4.3,0.2,6c1.9,3.8,4.2,7.5,6.9,10.8c1.5,1.8,4.2,2.7,6.8,4c4.7,0.4,4,2.7,1.9,4.9c-2.4,2.5-9.8,1.4-12-1.4
		c-2.1-2.6-4.5-4.9-7-7.5c-0.4-0.5-0.4-0.9-0.3-1.8C369.8,453.1,369,451.5,368.2,450 M352.2,429.6c0-2,0-4,0-6
		c-0.4,0-0.9,0.1-1.3,0.1c0,4.9,0,9.7,0,14.6c0.4,0,0.9,0,1.3,0C352.2,435.7,352.2,433.1,352.2,429.6z"/>
	<path class="st0" d="M386.2,419c-0.1,0-0.1,0.1-0.1,0C386.2,418.9,386.2,419,386.2,419z"/>
	<path class="st0" d="M503.2,423c0.4,0,0.9,0,2-0.1c1.1-0.7,1.6-1.3,2-1.9c0,0,0,0,0,0c2.7-0.6,5.3-1.1,8-1.7c0.2,0,0.3-0.1,0.5-0.1
		c5.5-1.6,16.8,3.8,19.2,8.9c2.3,4.8,4.8,9.3,1.1,14.6c-1.9,2.8-3.9,4.6-7.6,4.4c-6-0.3-12-0.3-18,0c-2.3,0.1-5.5,0.8-6.7,2.5
		c-2.3,3.4,0.5,7.2,2.9,8.5c7.4,4.2,15.4,6.8,24.4,3.8c0.2,0.8,0.9,1.9,0.6,2.5c-1.5,2.6-11.5,4.9-14.4,3.8
		c-1.7-0.6-3.7-0.5-5.8-0.4c-1.3-0.1-2.5-0.4-3.8-1c0.1-0.6,0.3-1,0.6-1.3c-1-0.1-2.1-0.3-3.1-0.4c0,0-0.5,0-0.8-0.4
		c-0.9-0.8-1.6-1.2-2.2-1.7c-1.8-2-3.5-3.9-5.7-5.9c-0.5-1.4-0.6-2.7-1-4c-0.3-0.5-0.3-0.9-0.3-2.1c-0.3-1.8-0.7-2.9-1-3.9
		c0-0.8,0-1.5,0.2-3c0.7-3.8,1.2-6.9,1.7-10c0-0.8,0.1-1.5,0.5-2.7c0.8-1,1.2-1.7,1.6-2.3c0.2-0.6,0.4-1.1,1.2-1.8
		C501,425.7,502.1,424.3,503.2,423 M527,427.6c-2-4.5-6.1-2-9.3-2.6c-5.5-1-11.1,1.3-12.9,6.3c-1,2.8-0.5,6.7,0.6,9.6
		c1.1,3,4,2.2,6.2,0.5c0.3-0.2,1.1-0.3,1.4-0.1c5.3,3.8,10.2-1,15.4-0.6c1.9,0.1,4.3-1.8,2.4-5C529.6,433.4,528.5,430.8,527,427.6z"
		/>
	<path class="st0" d="M73.1,401c1.1,1.9,1.9,3.8,2.6,5.7c-1.5,0.3-3.1,1-4.4,0.7c-0.8-0.2-2.2-2.3-1.9-2.8
		C70.1,403.2,71.5,402.2,73.1,401z"/>
	<path class="st0" d="M495.6,434.1c-0.2,3-0.7,6.1-1.4,9.5C494.5,440.7,494.9,437.4,495.6,434.1z"/>
	<path class="st0" d="M493.9,447.3c0.6,0.9,0.9,1.9,1.3,3.4C494.6,449.8,494.1,448.7,493.9,447.3z"/>
	<path class="st0" d="M497.8,429c-0.1,0.6-0.5,1.3-1.3,1.9c-0.3-0.4-0.3-0.8-0.3-1.5C496.6,429,497,429,497.8,429z"/>
	<path class="st0" d="M505.2,465.4c1-0.2,2,0,3,0.1c-0.3,0.4-0.5,0.7-0.9,1.3C506.5,466.6,505.9,466.1,505.2,465.4z"/>
	<path class="st0" d="M502.2,463.3c0.6,0.1,1.3,0.6,2,1.3c-0.4,0.3-0.8,0.3-1.6,0.3C502.2,464.5,502.2,464.1,502.2,463.3z"/>
	<path class="st0" d="M368.2,450.4c0.8,1.2,1.6,2.7,2.2,4.4C369.5,453.6,368.8,452.2,368.2,450.4z"/>
	<path class="st0" d="M502.8,423c-0.8,1.3-1.9,2.6-3.3,4c-0.4-0.4-0.3-0.8-0.3-1.6c0.6-0.8,1.3-1.2,2-2
		C501.7,423.1,502.1,423,502.8,423z"/>
	<path class="st0" d="M506.8,421c-0.1,0.6-0.6,1.3-1.3,1.9c-0.6-0.4-0.8-0.9-1.1-1.5C505,421.1,505.7,421,506.8,421z"/>
	<path class="st0" d="M774.9,45.1c-0.8,1.8-1.9,3.8-3.3,5.8c-0.4-0.4-0.4-0.8-0.3-1.6C772.4,47.8,773.5,46.5,774.9,45.1z"/>
	<path class="st0" d="M784.1,99.7c-4.4,4.9-8.5,9.8-13.3,13.9c-5.4,4.5-11.4,8.3-17.2,12.3c-1,0.7-2.4,0.7-4.1,1.1
		c2.5-3.2,4.2-7.2,9.5-8.4c3.9-0.9,7.1-5.1,10.4-8c4.5-4,8.8-8.1,13.2-12.1C782.8,98.4,783.6,99.1,784.1,99.7z"/>
	<path class="st0" d="M785.7,40c-0.6,0.4-1.1,0.5-1.7,0.6c0-0.4,0-0.8,0-1.2C784.6,39.5,785.1,39.6,785.7,40z"/>
	<path class="st0" d="M749,127.1c0.1,0.2,0,0.5-0.5,0.8C748.3,127.7,748.5,127.4,749,127.1z"/>
	<path class="st0" d="M322,433c-2.5-4-5.9-6.6-11.4-5.5c-6.1,1.2-9.1,4.9-10.2,11.6c6.7,0,13,0.1,19.4-0.1c0.8,0,1.5-2,2.3-3.5
		c1.4,1.2,2.8,2.7,4.1,4.3c-0.1,0.5-0.3,1-0.4,1.4c-4,0-7.9,0-11.9,0c-2.2,0-4.5-0.5-6.4,0.2c-3.9,1.4-6.9,0.1-9.1-2.8
		c-2.5-3.4,0.8-5.6,2.5-8.1c4.3-6.8,11.1-5.5,17.3-5.2C322.1,425.4,322.4,429.1,322,433z"/>
	<path class="st0" d="M198.3,457.2c5.8,3.4,11.8,3.4,18.3,0.6c0.4,4.6-3.7,4.1-6.4,5.1c-1.5,0.5-3.3-0.1-4.9,0.2
		C200.9,463.8,198.7,462,198.3,457.2z"/>
	<path class="st0" d="M200.1,443.2c-2.2,4-4.3,8-1.7,13.2c-1.8,0.4-3.7,0.4-5.1,0.4c0.8-4.2,1.3-8.1,2.4-11.7
		C195.9,444.1,198.3,443.7,200.1,443.2z"/>
	<path class="st0" d="M217.7,457c-3.4-3-6.5-6-9.7-9.3c1.3-0.3,3.4-0.8,3.9-0.1C214.2,450.5,216,453.8,217.7,457z"/>
	<path class="st0" d="M208,446.9c-2.3-1-4.6-2.3-7.2-3.6c0.9-0.7,3-2.3,3.3-2.1C205.6,442.7,206.8,444.7,208,446.9z"/>
	<path class="st0" d="M352.2,430.1c0,3.1,0,5.6,0,8.2c-0.4,0-0.9,0-1.3,0c0-4.9,0-9.7,0-14.6c0.4,0,0.9-0.1,1.3-0.1
		C352.2,425.6,352.2,427.6,352.2,430.1z"/>
	<path class="st0" d="M527.2,428c1.4,2.8,2.4,5.4,3.8,7.8c1.9,3.2-0.5,5.1-2.4,5c-5.2-0.4-10.2,4.4-15.4,0.6
		c-0.3-0.2-1.1-0.1-1.4,0.1c-2.3,1.7-5.1,2.6-6.2-0.5c-1.1-2.9-1.7-6.8-0.6-9.6c1.8-5,7.4-7.3,12.9-6.3
		C520.9,425.6,525,423.1,527.2,428 M516.9,427.3c-8,1.9-10.3,4.3-10.8,11.8c5.5,0,11,0,16.5,0c1.3,0,2.6-0.3,3.8-0.4
		C527.7,431.3,525.4,428.3,516.9,427.3z"/>
</g>
</svg>
