<?xml version="1.0" encoding="utf-8"?>
<!-- Generator: Adobe Illustrator 28.1.0, SVG Export Plug-In . SVG Version: 6.00 Build 0)  -->
<svg version="1.1" id="Vrstva_1" xmlns="http://www.w3.org/2000/svg" xmlns:xlink="http://www.w3.org/1999/xlink" x="0px" y="0px"
	 viewBox="0 0 600 163" style="enable-background:new 0 0 600 163;" xml:space="preserve">
<style type="text/css">
	.st0{fill:#FFFFFF;}
</style>
<g transform="translate(0.000000,163.000000) scale(0.100000,-0.100000)">
	<path class="st0" d="M2177,1616c-128-46-227-181-327-444c-28-75-70-169-91-209c-119-216-300-388-373-355c-60,27-59,160,4,324
		c22,59,40,118,40,131c0,36-31,70-65,70c-43,0-79-48-109-143c-44-137-109-245-197-324c-60-54-95-58-116-16c-29,57-6,223,50,364
		c28,72,30,80,16,105c-10,18-24,27-48,29c-42,4-64-16-101-88C742,827,422,541,277,540c-96-1-159,109-136,236c26,139,110,236,206,236
		c54,0,69-21,55-79c-10-42-9-51,7-73c22-30,72-38,106-16c50,33,60,163,17,224c-58,80-217,104-321,47C46,1024-48,749,27,579
		c73-163,238-214,415-126c88,43,231,151,301,226c26,28,50,51,52,51c3,0,5-17,5-38c0-64,28-129,72-166c80-69,177-54,281,44l63,59
		l13-35c41-115,169-155,297-94c26,13,83,57,126,99l79,74l-7-112c-7-108-6-112,16-136c45-48,103-21,115,52c16,94,27,143,34,147
		c4,3,40-30,79-74c96-105,152-134,255-128c97,4,183,47,284,142c113,105,211,257,229,354c8,39,27,40,56,2c18-25,18-27-2-100
		c-33-120-42-182-35-224c27-173,227-191,406-36l55,48l-4-131c-7-211,31-361,109-431c50-46,94-54,153-28c52,24,97,85,121,166
		c20,66,19,218-1,285c-8,30-12,57-7,61c4,3,28,12,53,19c110,32,244,121,333,224c59,67,126,166,147,216c15,36,21,37,77,12
		c57-26,62-58,28-171c-63-209-47-337,48-387c70-36,164-11,261,70c32,26,51,37,54,29c9-29,55-72,98-92c38-19,58-22,123-18
		c64,4,91,11,153,42c42,21,104,63,138,94c53,47,64,53,71,39c40-70,143-132,240-143c136-15,308,49,448,168c132,112,163,167,117,212
		c-14,15-35,26-46,26c-13,0-53-32-104-82c-131-131-242-187-370-188c-56,0-77,5-112,25c-43,25-84,89-84,131c0,18,6,19,69,16
		c171-10,340,103,358,237c17,128-79,223-209,208c-160-19-304-168-343-354c-42-202-360-391-429-254c-20,39-28,95-17,123
		c8,22,15,25,68,25c70,1,150,30,215,78c130,95,144,247,32,324c-80,55-219,19-309-82c-67-73-101-146-144-304c-23-84-146-213-203-213
		c-38,0-37,83,2,220c17,58,30,127,30,154c0,100-63,175-175,206c-43,12-45,14-45,49c0,51-30,95-84,121c-55,26-102,22-135-14
		c-54-58-45-152,21-211l39-36l-27-47c-100-174-289-323-430-338c-47-5-52-3-105,41l-57,46l14,46c8,26,15,47,17,48c1,1,33,14,71,30
		c164,68,310,195,374,324c31,63,38,87,41,153c4,92-7,126-56,168c-28,25-42,30-84,30c-61,0-103-19-164-72c-79-69-191-258-260-437
		c-16-40-35-75-42-78c-22-8-82,17-103,44c-11,15-27,50-36,80c-16,55-35,73-78,73c-80,0-66-158,23-253c28-31,91-67,116-67
		c8,0,15-3,15-8c0-4-44-53-98-108c-101-104-160-140-213-132c-35,5-36,50-3,177c21,81,26,117,20,152c-9,60-57,116-130,155
		c-44,23-57,35-62,59c-10,48-51,112-88,134c-36,23-104,28-137,11c-23-13-49-61-49-91c0-47,41-110,96-146c30-20,54-39,54-42
		c0-4-10-35-21-70c-44-128-186-298-295-352c-65-32-128-32-172,0l-34,23l69,33c128,63,201,163,191,264c-17,180-246,202-416,41
		c-13-12-25-20-27-19c-2,2,7,35,19,74l22,70l50,11c145,32,305,151,370,274c13,24,18,57,19,105c0,84-24,126-89,156
		C2258,1633,2229,1634,2177,1616z M2265,1470c10-31-31-104-82-150c-49-42-142-100-163-100c-13,0,43,107,94,179
		C2169,1477,2251,1515,2265,1470z M3768,1370c7-90-89-223-224-312c-32-21-62-38-66-38c-9,0,43,117,83,187c71,123,161,221,194,210
		C3761,1415,3766,1394,3768,1370z M5550,1065c31-37-30-112-117-145c-66-24-121-26-130-4c-9,23,46,94,101,132
		C5458,1084,5527,1092,5550,1065z M4939,1036c27-33-36-102-120-131c-84-30-99-15-49,53C4824,1033,4909,1072,4939,1036z M2212,909
		c56-30-55-152-159-174c-40-8-93,2-93,19c0,21,114,124,160,145C2172,923,2184,924,2212,909z M3419,527c50-41,75-204,47-297
		c-21-72-40-97-60-81c-38,32-72,224-60,339c6,62,7,63,33,57C3393,541,3411,533,3419,527z"/>
</g>
</svg>
