<?xml version="1.0" encoding="utf-8"?>
<!-- Generator: Adobe Illustrator 28.1.0, SVG Export Plug-In . SVG Version: 6.00 Build 0)  -->
<svg version="1.1" id="Vrstva_1" xmlns="http://www.w3.org/2000/svg" xmlns:xlink="http://www.w3.org/1999/xlink" x="0px" y="0px"
	 viewBox="0 0 235 89" style="enable-background:new 0 0 235 89;" xml:space="preserve">
<style type="text/css">
	.st0{fill:#FFFFFF;}
</style>
<g transform="translate(0.000000,89.000000) scale(0.100000,-0.100000)">
	<path class="st0" d="M426,743c-20-82-39-157-43-168c-12-45,16,4,47,83c19,45,36,82,39,82c4,0,22-40,41-90c19-49,38-90,41-90
		c4,0-12,74-35,165c-22,91-43,165-47,165S446,824,426,743z"/>
	<path class="st0" d="M1553,833c-100-65-119-200-40-290c109-124,319-58,335,106c12,125-68,211-196,211C1606,860,1585,854,1553,833z
		 M1726,831c48-22,77-59,93-118c33-123-85-248-201-214c-129,39-172,197-80,295C1591,850,1655,863,1726,831z"/>
	<path class="st0" d="M1150,670c0-113,4-180,10-180s10,43,10,110v110h115h115V600c0-67,4-110,10-110s10,67,10,180s-4,180-10,180
		s-10-28-10-65v-65h-115h-115v65c0,37-4,65-10,65S1150,783,1150,670z"/>
	<path class="st0" d="M1890,670V490l133,2l132,2l-117,3l-118,4v174c0,149-2,175-15,175S1890,823,1890,670z"/>
	<path class="st0" d="M2140,737c56-106,60-118,60-180c0-38,4-67,10-67s10,28,10,65c0,60,4,73,61,180c33,63,56,115,50,115
		s-24-26-40-57c-16-32-40-78-54-102l-25-44l-51,101c-31,61-57,102-66,102C2084,850,2097,817,2140,737z"/>
	<path class="st0" d="M0,548c0-8,280-181,285-176c3,2-31,34-75,70l-79,65l67,7c37,3,85,6,107,7c36,1,37,1,13,9C288,539,0,555,0,548z
		"/>
	<path class="st0" d="M702,540c-104-8-133-20-51-21c30,0,76-4,103-7l49-7l-77-64c-42-35-74-66-72-69c3-2,60,30,128,73
		c183,116,174,105,88,103C829,548,753,544,702,540z"/>
	<path class="st0" d="M1574,385c3-9-29-85-75-176c-44-89-78-166-76-172c2-7,18,16,36,50l31,63h101h100l27-60c15-32,33-59,40-60
		c17,0,23-16-78,194c-47,98-91,176-99,176S1570,394,1574,385z M1638,255l42-85h-90h-90l42,85c23,47,45,85,48,85S1615,302,1638,255z"
		/>
	<path class="st0" d="M1150,210V30h85c95,0,125,12,151,61c28,54,10,122-40,149c-25,13-25,14-9,32c22,24,21,73-2,98
		c-15,17-31,20-102,20h-83V210z M1310,360c11-11,20-29,20-40c0-39-35-60-100-60h-60v60v60h60C1277,380,1294,376,1310,360z M1303,241
		c42-16,67-51,67-94c0-75-41-107-140-107h-60v105v105h54C1254,250,1290,246,1303,241z"/>
	<path class="st0" d="M1820,210V30h83c63,0,89,4,113,19c37,22,59,78,49,119c-8,32-53,82-74,82c-11,0-9,5,7,16s22,25,22,54
		c0,56-25,70-122,70h-78V210z M1980,360c11-11,20-29,20-40c0-39-35-60-100-60h-60v60v60h60C1947,380,1964,376,1980,360z M2011,212
		c31-35,37-74,17-117c-17-38-58-55-128-55h-60v106v106l71-4C1976,245,1985,242,2011,212z"/>
	<path class="st0" d="M2100,384c0-4,25-53,55-109c52-97,55-107,55-174c0-56,3-71,15-71s15,14,15,69c0,66,4,77,56,176
		c31,58,54,109,50,112c-8,9-8,9-60-94c-25-50-49-94-54-97s-30,40-57,95c-27,54-55,99-62,99S2100,387,2100,384z"/>
	<path class="st0" d="M292,293C268,246,178,9,182,4c4-4,79,55,232,183c51,42,23,33-67-22c-48-30-87-53-87-52s11,45,25,97
		C308,302,311,330,292,293z"/>
	<path class="st0" d="M630,305c0-6,11-51,24-102l23-91l-89,55c-49,31-91,54-93,51c-2-2,54-53,126-112C692,46,753,0,756,3
		c3,2-21,69-52,148C651,284,630,329,630,305z"/>
</g>
</svg>
