<?xml version="1.0" encoding="utf-8"?>
<!-- Generator: Adobe Illustrator 28.1.0, SVG Export Plug-In . SVG Version: 6.00 Build 0)  -->
<svg version="1.1" id="Vrstva_1" xmlns="http://www.w3.org/2000/svg" xmlns:xlink="http://www.w3.org/1999/xlink" x="0px" y="0px"
	 viewBox="0 0 675.8 151.1" style="enable-background:new 0 0 675.8 151.1;" xml:space="preserve">
<style type="text/css">
	.st0{fill-rule:evenodd;clip-rule:evenodd;fill:#FFFFFF;}
	.st1{fill:none;stroke:#FFFFFF;stroke-width:0.75;}
</style>
<path class="st0" d="M236.9,124.7c-0.7,1.4-1.5,2.7-2.5,3.9c-1.4,1.9-2.9,3.8-4.8,5.9c-1.8,2-3.7,4-5.6,5.8c-1.4,1.4-3,2.6-4.8,3.6
	V68.4c2.6-3.4,5.4-7,8.3-10.9c2.7-3.6,5.8-7,9.2-10V124.7z M238.8,43.2c-3.9,3.2-7.5,6.8-10.7,10.7c-2.7,3.4-5.3,6.7-7.6,9.8
	l-3.1,4.1v79c0.2-0.2,0.5-0.3,0.7-0.4l4.1,4.1c2.1-1,4-2.4,5.6-4c2.2-2,4.3-4.1,6.4-6.4c2.1-2.3,3.9-4.5,5.6-6.5
	c1.1-1.3,2.1-2.7,2.9-4.2V48.5l-3.9-3.9L238.8,43.2L238.8,43.2z M206.5,80.2c0.1,0,0.2,0.1,0.1,0.1L206.5,80.2z M164.5,123.1v0.9
	h21.6v-7.9l-6.3,6.4h-15.2C164.6,122.5,164.5,122.7,164.5,123.1z M140.5,106.4c0.7-1.5,1.6-2.8,2.7-4.1c1-1.2,2.2-2.3,3.4-3.1
	c1-0.8,2.2-1.2,3.4-1.2h36.1v-1.3h-45.3l-3.9-3.9h-1.2c2.2-3.3,4.4-6.2,6.4-8.8c2.1-2.5,3.9-4.7,5.5-6.4c1.6-1.8,3.4-3.6,5.3-5.4
	h42.6c1.7,0,3.5,0.8,5.5,2.3c1.9,1.4,3.5,3.2,4.8,5.3l0.9,0.7l0.6,0.4c1.2,1.2,2.2,2.5,3.1,3.9c0.7,1.1,1.1,2.5,1.2,3.8v48.3
	c-0.1,1.4-0.5,2.7-1.2,3.8c-0.8,1.4-1.9,2.7-3,3.8c-1.1,1.1-2.4,2.1-3.8,2.9c-1.1,0.7-2.4,1.1-3.7,1.2h-43.9c-1.5,0-2.9-0.4-4.2-1
	c-1.4-0.7-2.6-1.6-3.7-2.6l-1.9-1.9c-2-1.1-3.6-2.7-4.8-4.6c-1.2-1.8-1.9-3.8-1.9-5.9v-21.9C139.4,109.1,139.8,107.7,140.5,106.4z
	 M188.1,99.8h-38c-1,0.1-2,0.4-2.8,1c-1.1,0.7-2,1.6-2.9,2.6c-0.9,1.1-1.6,2.3-2.2,3.5c-0.5,1.1-0.8,2.3-0.9,3.5v21.9
	c0,1.2,0.3,2.5,0.9,3.6c0.6,1.2,1.4,2.3,2.3,3.3c1,1,2.1,1.8,3.3,2.4c1.1,0.6,2.4,0.9,3.7,0.9h43.9c1.1-0.1,2.3-0.4,3.2-1
	c1.2-0.7,2.3-1.6,3.3-2.6c1-1,1.9-2.1,2.6-3.3c0.7-1,1.1-2.2,1.1-3.4V84.2c-0.1-1.1-0.4-2.3-1-3.2c-0.7-1.2-1.5-2.3-2.5-3.3
	c-1-1-2.1-1.9-3.3-2.6c-1-0.7-2.1-1-3.3-1.1H153c-0.1,0-1.5,1.5-4.2,4.4c-3.5,3.9-6.7,8.1-9.5,12.4h48.8V99.8z M158.7,120
	c0-0.7,0.1-1.5,0.3-2.2c0.1-0.7,0.6-1.2,1.3-1.2h14.6l13.2-13.5v22.7h-27.8c-0.7,0-1.4-0.5-1.4-1.2c-0.1-0.7-0.2-1.4-0.2-2.1V120z
	 M135,73.9l2.9,2.9l1.3,1.9c-0.8,1.9-1.8,3.7-3.1,5.3c-1.6,2-3.2,4-4.9,5.8c-1.7,1.9-3.2,3.4-4.5,4.8c-0.7,0.7-1.4,1.4-2.2,2h-21.2
	v31.6c-0.8,1.5-1.7,2.9-2.9,4.2c-1.6,2.1-3.5,4.2-5.6,6.5c-2.1,2.3-4.2,4.4-6.4,6.4c-1.7,1.6-3.6,3-5.6,4l-4.1-4.1
	c-0.3,0.1-0.5,0.3-0.7,0.4V87.1c0-1.8,0.4-3.6,1-5.3c0.7-1.8,1.6-3.4,2.8-4.9c1.1-1.4,2.6-2.6,4.2-3.5c1.6-0.9,3.5-1.3,5.3-1.3h42.4
	L135,73.9z M91.3,73.9c-1.6,0-3.2,0.4-4.5,1.2c-1.4,0.8-2.6,1.8-3.6,3.1c-1,1.3-1.8,2.7-2.4,4.2c-0.6,1.5-0.9,3.1-0.9,4.7v55.7
	c1.8-0.9,3.4-2.2,4.8-3.6c1.9-1.8,3.8-3.7,5.6-5.8c1.8-2,3.4-4,4.8-5.9c1-1.2,1.8-2.5,2.5-3.9V90.8h22.7c0.7-0.5,1.4-1.2,2-1.8
	c1.2-1.2,2.6-2.7,4.2-4.5c1.6-1.8,3-3.6,4.5-5.5c1.2-1.5,2.2-3.2,2.8-5H91.3z M19.4,116.8v8c-0.7,1.4-1.5,2.7-2.5,3.9
	c-1.4,1.9-3,3.8-4.8,5.9c-1.8,2-3.7,4-5.6,5.8c-1.4,1.4-3,2.6-4.8,3.6V68.4c2.6-3.4,5.4-7,8.3-10.9c2.7-3.6,5.8-7,9.2-10V100h11
	l17.4-26.2h20.5l-23,34.5l23,34.4H47.8l-17.4-25.9H19.4z M46.9,144.6h0.6l3.9,3.9h24l-24-35.8l24-36l-4.1-4.1l0.4-0.7H46.9
	L29.4,98.1h-4.1V48.5l-3.9-3.9v-1.3c-3.9,3.2-7.5,6.8-10.7,10.7c-2.7,3.4-5.3,6.7-7.6,9.8L0,67.8v79.1c0.2-0.2,0.5-0.3,0.7-0.4
	l4.1,4.1c2.1-1,4-2.4,5.6-4c2.2-2,4.3-4.1,6.4-6.4c2.1-2.3,3.9-4.5,5.6-6.5c1.1-1.3,2.1-2.7,2.9-4.2v-6.7H32L46.9,144.6z"/>
<path class="st0" d="M153.4,49.9l-2.2-27h1.5l5.2,11.3c2-1.3,4.4-1.9,6.8-1.5l0.8-20.3h1.5l7.5,18.8h2.2l8.2-18.8h1.5l0.8,20.3
	c2-0.2,4.1,0,6,0.8l6-10.5h1.5l-2.2,27H153.4z"/>
<path class="st1" d="M153.4,49.9l-2.2-27h1.5l5.2,11.3c2-1.3,4.4-1.9,6.8-1.5l0.8-20.3h1.5l7.5,18.8h2.2l8.2-18.8h1.5l0.8,20.3
	c2-0.2,4.1,0,6,0.8l6-10.5h1.5l-2.2,27H153.4z"/>
<path class="st0" d="M148.9,11.3c-1.9,1-2.9,3.2-2.2,5.2c0.5,1.7,2,2.9,3.8,3c2.5,0,4.5-2,4.5-4.5C154.8,12.3,151.4,10.2,148.9,11.3
	z"/>
<path class="st1" d="M148.9,11.3c-1.9,1-2.9,3.2-2.2,5.2c0.5,1.7,2,2.9,3.8,3c2.5,0,4.5-2,4.5-4.5C154.8,12.3,151.4,10.2,148.9,11.3
	z"/>
<path class="st0" d="M164.7,0c-3.8,0.6-5.2,5.4-2.2,7.9c2.9,2.5,7.5,0.4,7.5-3.4C169.9,1.8,167.4-0.3,164.7,0z"/>
<path class="st1" d="M164.7,0c-3.8,0.6-5.2,5.4-2.2,7.9c2.9,2.5,7.5,0.4,7.5-3.4C169.9,1.8,167.4-0.3,164.7,0z"/>
<path class="st0" d="M187.9,0.8c-2.4-0.2-4.5,2.1-4.5,4.5c0,2.1,1.5,4.3,3.8,4.5c2.4,0.2,4.5-2.1,4.5-4.5
	C191.7,3.2,190.1,1,187.9,0.8z"/>
<path class="st1" d="M187.9,0.8c-2.4-0.2-4.5,2.1-4.5,4.5c0,2.1,1.5,4.3,3.8,4.5c2.4,0.2,4.5-2.1,4.5-4.5
	C191.7,3.2,190.1,1,187.9,0.8z"/>
<path class="st0" d="M203.7,11.3c-2.4-0.2-4.5,2.1-4.5,4.5c0,2.1,1.5,4.3,3.8,4.5c2.4,0.2,4.5-2.1,4.5-4.5
	C207.4,13.7,205.9,11.5,203.7,11.3z"/>
<path class="st1" d="M203.7,11.3c-2.4-0.2-4.5,2.1-4.5,4.5c0,2.1,1.5,4.3,3.8,4.5c2.4,0.2,4.5-2.1,4.5-4.5
	C207.4,13.7,205.9,11.5,203.7,11.3z"/>
<rect x="153.4" y="52.9" class="st1" width="45" height="9.7"/>
<path class="st0" d="M153.4,52.9v9.7h45v-9.7H153.4z M163.9,60.4c-1.5-0.2-2.5-1.5-2.3-3c0.2-1.5,1.6-2.5,3-2.2
	c1.2,0.2,2.1,1.1,2.2,2.2C167.1,59.1,165.6,60.6,163.9,60.4z M175.2,60.4c-3.4-0.5-2.7-5.7,0.8-5.2c1.2,0.2,2.1,1.1,2.2,2.2
	C178.3,59.1,176.9,60.6,175.2,60.4z M186.4,60.4c-3.4-0.5-2.7-5.7,0.8-5.2c1.2,0.2,2.1,1.1,2.2,2.2
	C189.6,59.1,188.1,60.6,186.4,60.4z"/>
<path class="st0" d="M627,132c-0.7,1.4-1.5,2.7-2.5,4c-1.4,1.9-2.9,3.8-4.8,5.8c-1.8,2-3.7,4-5.6,5.8c-1.4,1.4-3,2.6-4.8,3.6V92.9
	c0.1-1.1,0.4-2.2,0.8-3.2c0.6-1.4,1.3-2.7,2.1-3.9c0.8-1.2,1.8-2.3,2.8-3.3c0.8-0.8,2-1.3,3.1-1.4h48.6c1.2,0.1,2.2,0.6,3.1,1.4
	c1.1,1,2.1,2.1,2.9,3.3c0.9,1.2,1.6,2.6,2.1,3.9c0.5,1,0.7,2.1,0.8,3.2v56.9h-17.6V98.2H627L627,132L627,132z M582.5,81.1V150
	c1.8-0.9,3.4-2.2,4.8-3.6c1.9-1.8,3.8-3.7,5.6-5.8c1.8-2,3.4-4,4.8-5.8c1-1.2,1.8-2.5,2.5-4V81.1H582.5z M520.7,98.1h-17.6V132
	c-0.7,1.4-1.5,2.7-2.5,4c-1.4,1.9-3,3.8-4.8,5.8c-1.8,2-3.7,4-5.6,5.8c-1.4,1.4-3,2.6-4.8,3.6V92.8c0.1-1.1,0.4-2.2,0.8-3.2
	c0.6-1.4,1.3-2.7,2.1-3.9c0.8-1.2,1.8-2.3,2.9-3.3c0.8-0.8,2-1.3,3.1-1.4h69.8c1.2,0.1,2.3,0.6,3.1,1.4c1.1,1,2.1,2.1,2.9,3.3
	c0.9,1.2,1.6,2.6,2.1,3.9c0.5,1,0.7,2.1,0.8,3.2v57h-17.6V98.1h-17.4V132c-2.3,3.7-4.9,7.2-8,10.3c-3,3.1-6.2,6.1-9.6,8.9
	L520.7,98.1L520.7,98.1z M429.3,127.2c0-0.7,0.1-1.5,0.3-2.2c0.1-0.7,0.6-1.2,1.3-1.2h14.6l13.2-13.5V133h-27.8
	c-0.7,0-1.4-0.5-1.4-1.2c-0.1-0.7-0.2-1.4-0.2-2.1V127.2z M420.6,107c-1,0.1-2,0.4-2.9,1c-1.1,0.7-2,1.6-2.8,2.6
	c-0.9,1.1-1.6,2.3-2.2,3.5c-0.5,1.1-0.8,2.3-0.9,3.5v21.9c0,1.2,0.3,2.5,0.9,3.6c0.6,1.2,1.4,2.3,2.3,3.3c1,1,2.1,1.8,3.3,2.4
	c1.1,0.6,2.4,0.9,3.7,0.9H466c1.1-0.1,2.3-0.4,3.2-1c1.2-0.7,2.3-1.6,3.3-2.6c1-1,1.9-2.1,2.6-3.3c0.7-1,1.1-2.2,1.1-3.4V91.3
	c-0.1-1.1-0.4-2.3-1-3.2c-0.7-1.2-1.5-2.3-2.5-3.3c-1-1-2.1-1.9-3.3-2.6c-1-0.7-2.1-1-3.3-1.1h-42.6c-0.1,0-1.5,1.5-4.2,4.4
	c-3.5,3.9-6.7,8.1-9.5,12.4h48.8v9.1H420.6z M368.6,81.1h36.3c-0.7,1.8-1.6,3.5-2.8,5c-1.4,1.9-2.9,3.7-4.5,5.5
	c-1.6,1.8-2.9,3.2-4.2,4.5c-0.6,0.7-1.3,1.3-2,1.8h-22.8V133h36.3c-0.7,1.8-1.6,3.5-2.9,5c-1.4,1.9-2.9,3.7-4.5,5.5
	c-1.6,1.8-2.9,3.2-4.2,4.5c-0.6,0.7-1.3,1.3-2,1.8h-29c-1.6,0-3.2-0.4-4.5-1.2c-1.4-0.8-2.6-1.8-3.6-3c-1-1.2-1.9-2.7-2.4-4.2
	c-0.6-1.5-0.9-3.1-0.9-4.7V75.5c2.6-3.4,5.4-7,8.3-10.9c2.7-3.6,5.8-7,9.2-10L368.6,81.1L368.6,81.1z M324.1,81.1V150
	c1.8-0.9,3.4-2.2,4.8-3.6c1.9-1.8,3.8-3.7,5.6-5.8c1.8-2,3.4-4,4.8-5.8c1-1.2,1.8-2.5,2.5-4V81.1H324.1z M283.8,124.2l14.6-43.3
	h18.6l-20,60.6c-1.3,1.9-2.8,3.7-4.5,5.2c-1.5,1.3-3.3,2.4-5.1,3.1h-6.9c-1.8-0.9-3.4-2-4.9-3.3c-1.6-1.4-3-3.1-4-5l-20.9-60.5h18.6
	L283.8,124.2z"/>
<polygon class="st0" points="583.2,70.9 599.7,49.9 599.7,70.9 "/>
<polygon class="st0" points="325.2,70.9 341.7,49.9 341.7,70.9 "/>
</svg>
