<?xml version="1.0" encoding="utf-8"?>
<!-- Generator: Adobe Illustrator 28.1.0, SVG Export Plug-In . SVG Version: 6.00 Build 0)  -->
<svg version="1.1" id="Vrstva_1" xmlns="http://www.w3.org/2000/svg" xmlns:xlink="http://www.w3.org/1999/xlink" x="0px" y="0px"
	 viewBox="0 0 489.8 294.3" style="enable-background:new 0 0 489.8 294.3;" xml:space="preserve">
<style type="text/css">
	.st0{fill:#FFFFFF;}
</style>
<path class="st0" d="M344.7,294.3H0V140c5.3-40.1,38.3-71.2,78.4-74.1l315.3,0V26.4h26.4V0h43.2v26.4h26.4v43.2h-26.4V96H424v113
	C424,253.6,389.2,291,344.7,294.3L344.7,294.3z M3.3,291h341.3c42.7-3.1,76.1-39.1,76.1-81.9V92.7H460V66.3h26.4V29.7H460V3.3h-36.6
	v26.4H397v39.5H78.5c-38.5,2.8-70.2,32.7-75.2,71l0,1V291z"/>
<path class="st0" d="M83.3,168.8h21.4l35.5,95h-21.7l-7.2-21.2H75.8l-7.4,21.2H47.3L83.3,168.8z M81.3,227h24.6l-12-34.8h-0.3
	L81.3,227z"/>
<polygon class="st0" points="219.2,263.7 195.6,263.7 164.8,168.8 186.3,168.8 207.5,235.5 207.7,235.5 229.2,168.8 250.7,168.8 "/>
<polygon class="st0" points="51.3,147.9 51.3,98.5 58.4,98.5 58.4,142.6 81,142.6 81,147.9 "/>
<path class="st0" d="M88.3,147.9V98.5h28v5.2H95.4v15.9H113v5.2H95.4v17.9h22.4v5.2H88.3z M97.3,94.3l8.2-10.7h7.7l-10.9,10.7H97.3z
	"/>
<polygon class="st0" points="125.9,147.9 125.9,98.5 132.6,98.5 132.6,122.8 152.9,98.5 160.1,98.5 140.4,122 163.6,147.9 
	154.6,147.9 132.6,122.8 132.6,147.9 "/>
<path class="st0" d="M204.2,147.9l-5.5-13.7h-21.3l-5.5,13.7h-6.6l19.9-49.4h7.1l19.6,49.4H204.2z M196.7,129l-8.5-21.3l-8.6,21.3
	H196.7z M183.8,94.3l8.2-10.7h7.7l-10.9,10.7H183.8z"/>
<polygon class="st0" points="285.4,168.8 356.4,168.8 356.4,186.3 306.3,186.3 306.3,206.7 352.3,206.7 352.3,222.9 306.3,222.9 
	306.3,246.1 357.5,246.1 357.5,263.7 285.4,263.7 "/>
<path class="st0" d="M219.2,147.9V98.5h15.2c4.8,0,8.5,1,11.1,3.1c2.6,2.1,3.9,5.1,3.9,9.1c0,6.6-3.4,11.3-10.1,14l16.7,23.1h-8.7
	L232.9,127h-6.6v20.9H219.2z M226.2,121.7h2.3c9,0,13.4-3.5,13.4-10.4c0-5.1-3.8-7.6-11.3-7.6h-4.5V121.7z"/>
<polygon class="st0" points="263.1,147.9 263.1,98.5 270.1,98.5 295.4,136.6 295.4,98.5 301.5,98.5 301.5,147.9 294.5,147.9 
	269.2,109.7 269.2,147.9 "/>
<path class="st0" d="M347.4,147.9l-5.5-13.7h-21.3l-5.5,13.7h-6.6l19.9-49.4h7l19.6,49.4H347.4z M339.8,129l-8.5-21.3l-8.6,21.3
	H339.8z"/>
</svg>
