<?xml version="1.0" encoding="utf-8"?>
<!-- Generator: Adobe Illustrator 28.1.0, SVG Export Plug-In . SVG Version: 6.00 Build 0)  -->
<svg version="1.0" id="Vrstva_1" xmlns="http://www.w3.org/2000/svg" xmlns:xlink="http://www.w3.org/1999/xlink" x="0px" y="0px"
	 viewBox="0 0 539 164" style="enable-background:new 0 0 539 164;" xml:space="preserve">
<style type="text/css">
	.st0{fill:#FFFFFF;}
</style>
<path id="logo" class="st0" d="M496.52,163.3c-2.8-0.62-5.39-1.98-7.51-3.92c-1.35-1.26-1.33-1.83-0.05-3.31
	c1.42-1.64,1.85-1.72,3.34-0.52c3.29,2.65,6.93,4.16,11.26,3.7c3.89-0.41,6.24-3.54,5.15-6.96c-0.52-1.54-1.74-2.74-3.29-3.23
	c-2.61-0.97-5.29-1.78-7.93-2.7c-1.25-0.39-2.48-0.89-3.65-1.47c-5.89-3.18-6.6-10.41-1.46-14.74c2.97-2.5,6.54-3.19,10.62-3.13
	c3.11-0.17,6.19,0.66,8.79,2.37c2.37,1.58,2.2,3.88-0.38,5.18c-0.54,0.15-1.11,0.05-1.56-0.29c-2.67-2.39-6.33-3.35-9.83-2.58
	c-1.34,0.26-2.58,0.85-3.63,1.73c-1.8,1.57-1.98,4.31-0.4,6.1c0.47,0.53,1.06,0.94,1.72,1.2c2.79,1.22,5.81,1.92,8.72,2.87
	c0.83,0.27,1.66,0.57,2.47,0.89c8.43,3.38,7.17,12.99,1.96,16.73c-2.58,1.86-5.68,2.83-8.86,2.78
	C500.16,163.98,498.31,163.75,496.52,163.3z M460.51,163.45c-5.93-1.28-9.84-5.18-11.63-11.58c-1.16-4.25-1.17-8.73-0.02-12.99
	c0.83-3.41,2.78-6.45,5.55-8.61c2.82-2.14,6.27-3.29,9.82-3.27h0.27c3.49-0.12,6.94,0.76,9.93,2.55c2.76,1.82,4.82,4.51,5.86,7.65
	c0.59,1.81,1.01,3.67,1.27,5.55c0.14,0.85,0.29,1.72,0.46,2.57c-0.09,2.42-0.5,4.81-1.2,7.13c-0.71,2.29-1.91,4.41-3.49,6.22
	c-1.52,1.75-3.4,3.15-5.52,4.08c-2.02,0.85-4.19,1.27-6.37,1.25C463.76,163.99,462.12,163.8,460.51,163.45L460.51,163.45z
	 M456.3,136.75c-1.18,2.69-1.8,5.59-1.82,8.53c0.02,2.94,0.64,5.84,1.83,8.52c0.68,1.68,1.87,3.11,3.39,4.1
	c1.59,0.95,3.41,1.42,5.26,1.37c4.13,0,7.09-1.93,8.56-5.59c0.69-1.87,1.21-3.79,1.56-5.74c0.18-0.88,0.38-1.79,0.6-2.68
	c-0.22-0.89-0.41-1.79-0.59-2.65c-0.35-1.92-0.85-3.81-1.5-5.65c-0.62-1.73-1.78-3.2-3.32-4.2c-1.58-0.95-3.4-1.44-5.24-1.4h-0.1
	C460.8,131.35,457.81,133.22,456.3,136.75L456.3,136.75z M379.5,162.43c-4.9-1.55-8.59-5.6-9.69-10.62
	c-1.45-5.85-1.11-11.6,2.13-16.89c3.14-5.12,8.01-7.65,13.98-7.9c2.65,0.04,5.3,0.32,7.91,0.82c0.72,0.1,1.4,0.37,1.98,0.81
	c0.88,0.68,2.36,1.71,2.23,2.31c-0.47,1.31-1.25,2.48-2.28,3.42c-0.19,0.21-1.31-0.13-1.81-0.48c-4.69-3.18-10.96-2.75-14.59,1.27
	c-1.2,1.35-2.12,2.92-2.7,4.63c-1.2,3.6-1.25,7.48-0.14,11.1c1.27,4.44,5.24,7.57,9.85,7.78c3.68,0.31,7.37-0.56,10.52-2.5
	c0.66-0.28,1.36-0.46,2.07-0.54c0.04,0.73,0.03,1.45-0.03,2.18c-0.29,1.59-1.34,2.95-2.81,3.63c-2.87,1.55-6.06,2.43-9.33,2.55
	C384.34,163.62,381.9,163.1,379.5,162.43L379.5,162.43z M339.47,163.48c-3.35-0.82-6.02-3.36-7.01-6.67
	c-1.07-3.35-0.29-7.02,2.06-9.64c2.77-3.09,6.5-4.35,10.09-5.38c1.02-0.29,2.07-0.57,3.08-0.84c1.52-0.4,3.09-0.82,4.62-1.3
	c0.87-0.16,1.63-0.69,2.08-1.45c0.27-0.89,0.14-1.86-0.35-2.65c-0.89-1.95-2.54-3.06-5.19-3.48c-0.72-0.11-1.44-0.17-2.17-0.17
	c-2.94,0.07-5.81,0.88-8.36,2.33c-0.11,0.06-0.22,0.12-0.33,0.18c-0.31,0.19-0.64,0.34-0.99,0.45c-0.15,0.04-0.3,0.07-0.45,0.07
	c-0.23,0.01-0.45-0.08-0.61-0.24c-0.17-0.23-0.22-0.53-0.15-0.81c0.34-2.11,0.79-3.94,2.95-4.9c2.79-1.27,5.81-1.94,8.87-1.98
	c1.69,0,3.37,0.22,5.01,0.64c2.36,0.53,4.44,1.9,5.85,3.87c1.43,2.23,2.16,4.84,2.1,7.49c0.07,3.72,0.06,7.5,0.05,11.15
	c-0.01,1.66-0.01,3.37-0.01,5.06c0,3.21,0.33,3.59,3.53,4.01c0.45,0.06,0.71,0.19,0.82,0.39c0.16,0.3-0.04,0.71-0.24,1.11
	c-0.74,1.77-2.44,2.94-4.36,3.01c-1.31-0.03-2.56-0.55-3.5-1.46c-0.43-0.41-0.84-0.85-1.2-1.33c-0.18-0.23-0.37-0.46-0.57-0.69
	c-0.51,0.26-1.02,0.52-1.51,0.78c-1.09,0.57-2.12,1.11-3.2,1.57c-2.1,0.91-4.36,1.38-6.64,1.38
	C342.3,164,340.86,163.82,339.47,163.48L339.47,163.48z M353.82,143.7c-0.24,0.01-0.49,0.05-0.72,0.13
	c-0.94,0.28-1.9,0.55-2.82,0.81c-1.9,0.53-3.88,1.09-5.76,1.79c-1.61,0.65-3.11,1.55-4.43,2.67c-1.63,1.31-2.17,3.28-1.61,5.84
	c0.45,2.04,2.09,3.61,4.15,3.95c0.99,0.25,2.01,0.38,3.04,0.39c2.59-0.05,5.11-0.85,7.25-2.3c1.24-0.66,1.94-2.01,1.77-3.4
	c-0.06-0.87-0.07-1.74-0.04-2.61c0.01-0.38,0.02-0.77,0.02-1.16c0-0.48,0-0.96-0.01-1.42c-0.01-1.09-0.02-2.22,0.02-3.33
	c0.06-0.4-0.04-0.8-0.27-1.13C354.25,143.77,354.04,143.69,353.82,143.7z M245.07,163.76c-3.14-0.35-6.1-1.67-8.46-3.78
	c-2.26-2.17-3.87-4.92-4.67-7.96c-1.24-4.35-1.25-8.96-0.01-13.31c0.87-3.38,2.84-6.38,5.61-8.51c2.84-2.1,6.29-3.22,9.82-3.2h0.25
	c3.5-0.12,6.96,0.77,9.97,2.57c2.77,1.83,4.87,4.51,5.99,7.64c0.39,0.96,0.67,1.97,0.85,2.99c0.19,1.25,0.31,2.53,0.43,3.77
	c0.05,0.53,0.1,1.08,0.16,1.61c-0.01,1.98-0.25,3.95-0.73,5.88c-0.48,1.92-1.28,3.75-2.37,5.41c-1.47,2.31-3.52,4.2-5.95,5.46
	c-2.35,1.14-4.94,1.71-7.55,1.67C247.28,164,246.17,163.92,245.07,163.76z M239.37,136.75c-2.42,5.37-2.45,11.52-0.06,16.91
	c0.68,1.72,1.87,3.2,3.42,4.22c1.6,0.97,3.46,1.47,5.33,1.41h0.2c3.85,0.15,7.35-2.24,8.6-5.88c0.63-1.77,1.11-3.6,1.43-5.45
	c0.17-0.86,0.36-1.74,0.57-2.63c-0.21-0.87-0.39-1.75-0.57-2.61c-0.35-1.96-0.86-3.88-1.52-5.76c-0.62-1.73-1.79-3.21-3.34-4.2
	c-1.59-0.95-3.42-1.44-5.28-1.4h-0.09C243.9,131.36,240.9,133.22,239.37,136.75L239.37,136.75z M111.13,163.99
	c-1.16-0.02-2.37-0.08-3.72-0.19c-0.68-0.05-1.3-0.12-1.89-0.2c-3.1-0.36-6.15-1.04-9.11-2.04c-2.49-0.84-4.89-1.92-7.17-3.23
	c-3.52-2.08-6.78-4.59-9.7-7.46c-0.97-0.86-1.84-1.67-2.59-2.43c-0.54-0.57-1.19-1.04-1.9-1.37h-0.01
	c-0.84,0.09-3.62,2.18-5.85,3.86l-0.02,0.01h0c-6.79,5.1-17.06,12.81-30.33,12.81C17.42,163.77,0,146.75,0,125.82L0.02,76.9
	C0.01,76.71,0,76.57,0,76.42c0-0.07,0.01-0.36,0.02-0.43l0.01-11.2c0-1.81,0.38-3.6,1.12-5.26c0.75-1.67,1.83-3.17,3.19-4.4
	c0.13-0.23,0.3-0.43,0.51-0.6L69.19,2.62c1.52-1.27,3.1-2.58,5.71-2.61c0.01,0,0.01,0,0.02,0C74.93,0,74.94,0,74.94,0h0.04
	c0.03,0,0.07,0,0.1,0c1.79,0.1,3.51,0.78,4.88,1.95l0.61,0.43c0.1,0.06,0.2,0.13,0.3,0.21l63.08,51.43
	c3.73,2.43,5.99,6.56,6.02,11.01l0.01,11.18c0.02,0.15,0.02,0.29,0.02,0.44c0,0.06-0.01,0.35-0.02,0.41l0.01,48.99
	c0,11.29-3.78,21.22-10.65,27.96c-6.68,6.54-16.15,10-27.4,10C111.68,164,111.4,164,111.13,163.99z M79.92,144.7
	c0.72,0.63,1.48,1.34,2.12,1.95c0.33,0.32,0.7,0.66,1.13,1.07c4.51,3.89,11.72,8.93,20.44,10.78c2.51,0.44,5.05,0.68,7.59,0.72h0.08
	h0.08c0.44-0.01,0.96-0.03,1.49-0.07h0.03c0.04,0,0.08,0.01,0.12,0.01c0.04,0.01,0.07,0.01,0.11,0.01
	c9.61-0.24,17.3-3.12,22.86-8.57c5.95-5.83,9.22-14.55,9.22-24.55l-0.02-48.92c0-0.06,0.01-0.35,0.02-0.41l2.41-0.08l-2.4,0.03
	c0-0.01-0.01-0.12-0.01-0.22s-0.01-0.2-0.01-0.21l-0.01-11.22c-0.03-2.88-1.51-5.55-3.95-7.09c-0.07-0.05-0.14-0.1-0.21-0.15
	L77.96,6.39c-0.15-0.1-0.29-0.2-0.43-0.29l-0.16-0.11c2.98,8.27,5.2,16.8,6.64,25.48c1,5.45,1.55,10.97,1.65,16.51
	c0,0.99-0.03,1.95-0.07,2.89c-0.3,5.38-1.48,10.68-3.5,15.69c5.04-2.48,10.55-3.85,16.17-4.02l0,0c2.93-0.02,5.84,0.51,8.59,1.54
	c2.75,1.07,5.28,2.64,7.47,4.63c6.37,5.71,9.72,12.38,9.97,19.82c0.01,0.3,0.01,0.6,0.01,0.91c0,10.8-6.37,22.78-18.92,35.61
	c-4.23,4.17-8.84,7.94-13.77,11.25c-4.79,3.31-9.35,6.04-12.32,7.74C79.43,144.21,79.64,144.41,79.92,144.7z M38.83,158.99
	c11.67,0,21.16-7.13,27.44-11.85c1.17-0.88,4.18-2.6,5.07-3.1c-2.99-1.71-7.56-4.44-12.36-7.75c-4.98-3.33-9.63-7.13-13.89-11.34
	c-4.62-4.72-19.45-21.24-19.42-38.41c0-0.31,0.01-0.61,0.02-0.92c0.25-7.73,3.56-14.5,9.82-20.11c5.67-5.09,11.94-7.67,18.63-7.67
	c4.74,0.07,9.41,1.22,13.65,3.35c3.22,1.57,6.24,3.5,9.01,5.77c2.21-4.91,3.56-10.17,4-15.53c0.08-1.12,0.12-2.28,0.12-3.5
	c-0.1-5.27-0.64-10.53-1.59-15.72c-1.47-8.88-3.8-17.59-6.94-26.03l-0.04,0.03l-0.07,0.06l-0.44,0.36L8.53,57.73
	c-0.13,0.2-0.29,0.38-0.47,0.53c-2.01,1.58-3.2,3.99-3.22,6.54L4.83,75.98c0,0.07-0.01,0.34-0.02,0.4v0.08v0.01
	c0,0.14,0.01,0.38,0.01,0.42L4.8,125.82C4.81,144.11,20.07,158.99,38.83,158.99z M76.13,140.36c5.14-2.91,17.94-10.56,25.83-18.62
	c11.53-11.78,17.59-22.96,17.58-32.39c0-0.23,0-0.45-0.01-0.68c-0.2-6.11-3.03-11.65-8.4-16.47c-1.75-1.59-3.78-2.83-5.98-3.68
	c-2.24-0.83-4.6-1.25-6.99-1.23c-5.48,0-11.82,2-18.83,5.95c-3.92,9.85-6.77,20.09-8.5,30.54c-0.7,4.37-1.06,8.78-1.08,13.2
	C69.76,126.8,71.89,134.63,76.13,140.36L76.13,140.36z M48.5,121.66c5.79,5.92,14.21,11.6,20.26,15.32
	c-2.46-5.56-3.7-12.3-3.7-20.05c0-0.95,0.02-1.92,0.05-2.9c-0.04,0-0.09,0.01-0.13,0.01s-0.11,0.01-0.17,0.01
	c-4.98,0-10.99-3.47-16.79-6.82L48,107.24l-0.03-0.02c-2.59-1.59-5.28-3-8.05-4.24c-1.51-0.68-3.13-1.08-4.79-1.17
	c-0.27,0-0.54,0.02-0.8,0.07C38,109.17,42.78,115.84,48.5,121.66z M35.04,97.08c2.29,0.09,4.54,0.6,6.65,1.52
	c3,1.32,5.9,2.85,8.69,4.56c4.78,2.76,10.72,6.19,14.39,6.19c0.21,0,0.42-0.01,0.63-0.04c0.47-4.8,1.23-9.57,2.3-14.27
	c-2.39-0.43-4.73-1.12-6.97-2.08c-4.28-1.81-8.36-4.06-12.18-6.71c-3.37-2.45-7.4-3.81-11.57-3.92c-2.19-0.01-4.36,0.44-6.37,1.32
	c-0.1,0.78-0.16,1.48-0.18,2.13c-0.01,0.26-0.01,0.51-0.01,0.77c0.05,3.73,0.74,7.42,2.05,10.91C33.3,97.2,34.17,97.07,35.04,97.08
	L35.04,97.08z M37.04,77.6c5.1,0.11,10.05,1.76,14.19,4.75c9.87,6.71,15.94,7.88,17.57,8.08c1.66-6.41,3.69-12.71,6.11-18.88
	c-2.29-2.08-4.81-3.88-7.52-5.37c-3.97-2.29-8.45-3.54-13.03-3.63c-5.62,0-10.9,2.18-15.69,6.47c-2.88,2.52-5.15,5.66-6.63,9.18
	C33.68,77.81,35.36,77.61,37.04,77.6L37.04,77.6z M322.46,163c-2.24-0.02-4.2-1.51-4.82-3.67c-0.3-1.17-0.44-2.37-0.42-3.58
	c-0.04-5.66-0.01-11.32-0.02-16.98c-0.02-6.88-4.94-9.74-11.13-6.47c-3.21,1.7-5.1,4-4.93,7.99c0.29,6.64,0.08,13.29,0.08,19.94
	c0,2.03-0.34,2.36-2.41,2.43c-0.39,0.01-0.78,0.01-1.17,0c-2.22-0.06-2.48-0.32-2.48-2.49c0-7.09,0-14.18,0-21.26
	c0-2.88-0.51-5.53-3.4-7.01c-3-1.53-5.84-0.88-8.5,0.87c-2.8,1.84-4.43,4.18-4.32,7.79c0.22,6.53,0.06,13.07,0.06,19.61
	c0,2.16-0.27,2.43-2.5,2.49c-0.39,0.01-0.78,0.01-1.17,0c-2.06-0.08-2.41-0.42-2.41-2.44c0-8.08-0.03-16.15,0.01-24.23
	c0.01-2.2-0.17-4.27-1.74-6.01c-0.24-0.26-0.27-1.15-0.09-1.27c1.42-0.89,2.85-2.14,4.41-2.34c1.62-0.21,2.35,1.58,2.9,2.99
	c0.24,0.73,0.44,1.47,0.6,2.21c6.87-7.21,16.97-7.67,21.02,0.09c1.76-1.2,3.47-2.5,5.31-3.59c2.81-1.64,6.07-2.34,9.3-1.97
	c5.15,0.49,8.54,4.21,8.59,9.59c0.06,6.15,0.01,12.31,0.02,18.46c0,3.31,0.06,3.35,3.21,4.29c0.35,0.27,0.54,0.7,0.5,1.14
	c-0.77,1.84-2.45,3.13-4.43,3.4H322.46z M437.28,162.98c-2.45-0.22-4.41-2.14-4.67-4.59c-0.18-1.52-0.26-3.06-0.24-4.59
	c-0.03-4.72-0.01-9.44-0.01-14.16c0-0.66,0-1.32-0.04-1.97c-0.27-4.79-3.31-7.31-8.05-6.45c-4.14,0.76-7.08,3.31-9.08,6.95
	c-0.3,0.7-0.42,1.47-0.37,2.23c-0.03,6.64-0.01,13.28-0.02,19.92c0,1.93-0.32,2.25-2.26,2.35c-0.16,0.01-0.33,0.01-0.49,0.01
	c-3.02,0.04-3.21-0.16-3.21-3.21c0-7.96-0.02-15.91,0.02-23.87c0.11-1.99-0.5-3.95-1.71-5.53c-0.25-0.52-0.21-1.13,0.11-1.61
	c1.02-0.82,2.14-1.5,3.33-2.03c1.15-0.49,2.51,0.44,3.21,2.14c0.4,1.08,0.73,2.19,1.01,3.31c2.47-1.53,4.83-3.21,7.39-4.51
	c3.27-1.69,7.12-1.82,10.5-0.36c3.12,1.05,5.29,3.9,5.46,7.2c0.28,4.87,0.18,9.76,0.23,14.64c0.02,1.81,0,3.62,0,5.43
	c0.01,3.35,0.33,3.73,3.57,4.28c0.32,2.02-2.14,4.45-4.37,4.45C437.49,163,437.38,162.99,437.28,162.98L437.28,162.98z
	 M193.44,150.6c-0.5-2.7-0.57-5.46-0.2-8.18c0.39-2.74,1.29-5.39,2.64-7.81c1.46-2.61,3.62-4.77,6.22-6.24
	c2.48-1.42,5.29-2.18,8.15-2.19c2.37-0.02,4.7,0.57,6.77,1.71c0.1,0.05,0.21,0.08,0.33,0.09c0.08,0.01,0.16,0.03,0.26,0.05
	c0.01-0.19,0.02-0.37,0.03-0.54c0.02-0.37,0.05-0.71,0.05-1.06c0-0.97,0-1.93,0.01-2.9v-0.02c0.01-3.12,0.02-6.34-0.03-9.5
	c-0.02-1.32,0.51-1.9,1.79-1.93c0.14,0,0.28-0.01,0.42-0.03s0.27-0.02,0.4-0.03c0.33-0.01,0.59-0.01,0.81-0.01
	c1.09,0,1.78,0.1,2.15,0.58c0.38,0.83,0.52,1.74,0.4,2.64v9.93c0,9.66,0,19.64,0,29.46c0,1.37,0.1,2.27,0.58,2.8
	s1.38,0.74,2.75,0.88c0.55,0.06,0.87,0.21,0.99,0.46c0.16,0.33-0.08,0.78-0.36,1.22c-1.21,1.91-2.64,2.88-4.25,2.88
	c-1.66-0.13-3.2-0.9-4.29-2.15c-0.28-0.3-0.54-0.62-0.76-0.97c-0.12-0.17-0.24-0.35-0.38-0.53c-2.28,1.99-5.1,3.26-8.1,3.65
	c-0.73,0.08-1.46,0.12-2.18,0.12C200.01,163,194.84,158.48,193.44,150.6z M210.82,130.95c-2.04,0.02-4.03,0.65-5.7,1.83
	c-1.78,1.25-3.18,2.97-4.03,4.97c-1.58,3.74-2.02,7.86-1.25,11.85c0.38,2.5,1.6,4.79,3.44,6.51c1.65,1.49,3.8,2.33,6.03,2.34
	c2.45-0.04,4.79-0.96,6.62-2.59c1.11-0.82,1.74-2.14,1.68-3.52c-0.06-1.89-0.05-3.82-0.03-5.68c0.01-0.76,0.01-1.54,0.01-2.31V137
	c0.1-1.38-0.28-2.76-1.08-3.89c-0.94-1.03-2.21-1.71-3.59-1.93C212.24,131.03,211.54,130.95,210.82,130.95L210.82,130.95
	L210.82,130.95z M524.46,155.48c-0.33-4.11-0.23-8.26-0.27-12.39c-0.04-3.74-0.01-7.48-0.01-11.15c-0.6-0.24-1.26-0.33-1.9-0.26
	c-1.22,0.03-2.33,0.06-2.28-1.9c0.03-0.93,0.25-2.23,0.9-2.67c0.66-0.31,1.4-0.41,2.12-0.31c0.38,0.01,0.77,0.02,1.16-0.01
	c0-1.88,0.14-3.67-0.04-5.44c-0.19-1.93,0.75-2.95,2.46-3.58c0.42-0.16,0.84-0.34,1.27-0.46c2.19-0.63,2.5-0.41,2.51,1.76
	c0.01,2.55,0,5.09,0,7.84c2.39,0,4.58-0.02,6.78,0c1.93,0.02,2.24,0.51,1.38,2.16c-0.86,1.67-2.02,2.84-4.22,2.58
	c-1.24-0.08-2.48-0.09-3.72-0.02c-0.09,0.24-0.16,0.5-0.2,0.76c0.02,6.64-0.1,13.28,0.11,19.91c0.14,4.49,2.2,6.02,6.91,5.78
	c0.49-0.02,0.99,0,1.48,0c0.15,2.3-2.7,4.84-5.37,4.92c-0.1,0-0.2,0-0.3,0C528.62,163,524.82,159.94,524.46,155.48L524.46,155.48z
	 M343.55,122.35c-1.05-1.09-0.42-1.79,0.33-2.61c1.91-2.1,3.78-4.24,5.69-6.33c0.54-0.51,1.11-0.98,1.71-1.41
	c1,0.87,1.9,1.86,2.67,2.94c0.23,0.4-0.43,1.57-0.99,2.05c-2.15,1.85-4.43,3.57-6.67,5.34c-0.4,0.38-0.91,0.61-1.46,0.67
	C344.33,122.97,343.87,122.73,343.55,122.35L343.55,122.35z M450.35,96.43c-1.45-2.52-2.76-5.13-4.3-7.59
	c-1.19-1.85-2.5-3.62-3.92-5.29c-0.89-1.28-2.62-1.66-3.97-0.89c-3.71,1.66-2.99,0.43-3.06,4.52c-0.05,3.17-0.06,6.34,0.02,9.51
	c0.03,1.36-0.58,1.9-1.84,1.97c-0.28,0.01-0.56,0.02-0.84,0.03c-3.18,0.06-3.44-0.19-3.44-3.24c0-14.87,0-29.73,0-44.6
	c0-2.51,0.27-2.78,2.85-2.83c0.2,0,0.41,0,0.61,0.01c0.19,0.01,0.37,0.01,0.56,0.01c1.52-0.01,2.12,0.61,2.11,2.2
	c-0.08,7.87-0.03,15.74-0.03,23.61v4.7c4.96-1.56,9.35-4.57,12.58-8.65c1.3-1.83,2.46-3.75,3.45-5.77c0.68-1.23,4.83-1.99,5.66-0.87
	c0.22,0.59,0.19,1.24-0.09,1.8c-1.74,4.37-4.53,8.24-8.13,11.27c-1.12,0.97-2.33,1.84-3.61,2.84c4.58,2.86,6.73,7.4,8.99,11.83
	c1.09,2.14,2.4,3.64,5.07,3.47c1-0.07,1.19,0.53,0.74,1.26c-0.98,1.57-2.18,3.05-4.17,3.24c-0.24,0.02-0.47,0.03-0.7,0.03
	C453.01,99.08,451.26,98.08,450.35,96.43z M471.65,98.6c-3.43-0.73-6.19-3.27-7.19-6.63c-1.1-3.51-0.2-7.34,2.34-9.99
	c2.78-2.94,6.42-4.15,9.91-5.15c2.88-0.82,5.76-1.62,8.19-2.29c1.13-0.19,1.89-1.26,1.7-2.39c-0.02-0.12-0.05-0.24-0.1-0.36
	c-0.32-2-1.76-3.64-3.7-4.23c-1.32-0.46-2.7-0.69-4.1-0.69c-2.33,0.05-4.63,0.59-6.74,1.59c-0.42,0.18-0.83,0.4-1.23,0.61
	c-0.46,0.24-0.93,0.48-1.42,0.69c-0.24,0.11-0.5,0.17-0.77,0.18c-0.21,0.01-0.41-0.07-0.55-0.22c-0.2-0.3-0.26-0.68-0.16-1.03
	c0.34-2.24,1-3.91,3.11-4.82c2.76-1.22,5.74-1.86,8.76-1.89c1.64,0,3.28,0.2,4.87,0.59c4.64,1.13,7.44,4.45,7.87,9.35
	c0.22,2.52,0.26,5.11,0.29,7.61c0,0.31,0.01,0.62,0.01,0.94c0.03,2.03,0.02,4.08,0.02,6.08c0,1.35-0.01,2.75,0,4.13
	c0.01,2.9,0.61,3.53,3.52,3.71c0.14,0.01,0.29,0.04,0.43,0.07c0.09,0.02,0.19,0.04,0.3,0.06c-0.1,0.99-0.5,1.93-1.13,2.71
	c-0.55,0.78-1.37,1.35-2.29,1.59c-0.36,0.07-0.73,0.1-1.1,0.1c-2,0-3.67-1.09-5.11-3.33c-0.83,0.33-1.65,0.69-2.45,1.04
	c-1.76,0.86-3.6,1.52-5.51,1.99c-1.28,0.26-2.58,0.38-3.88,0.38C474.23,99,472.93,98.87,471.65,98.6L471.65,98.6z M486.09,78.75
	c-0.4,0.03-0.79,0.11-1.18,0.23c-0.61,0.16-1.23,0.31-1.83,0.46c-1.47,0.32-2.91,0.74-4.31,1.26c-2.28,0.87-4.46,2-6.49,3.35
	c-0.94,0.64-1.6,1.62-1.83,2.74c-0.2,1.12-0.17,2.28,0.11,3.39c0.42,1.96,1.8,3.25,4.08,3.84c1,0.26,2.04,0.4,3.08,0.4
	c2.53-0.05,5-0.81,7.11-2.21c1.36-0.69,2.15-2.15,1.96-3.67c-0.07-0.87-0.08-1.74-0.04-2.61c0.01-0.38,0.02-0.78,0.02-1.17
	c0-0.44,0-0.89,0-1.33v-0.01c0-0.96,0-1.96,0-2.94C486.76,79.2,486.71,78.75,486.09,78.75L486.09,78.75z M299.72,90.99
	c-1.76-3.27-2.69-6.92-2.72-10.63c0.06-3.72,1.02-7.37,2.8-10.64c1.16-2.25,2.94-4.13,5.13-5.4c2.22-1.23,4.69-1.98,7.22-2.2
	c0.75-0.08,1.5-0.12,2.25-0.12c2.26-0.02,4.51,0.41,6.61,1.26c2.95,1.14,5.46,3.18,7.18,5.84c1.6,2.65,2.55,5.64,2.77,8.73
	c0.05,0.59,0.06,1.19,0.03,1.79c-0.01,0.27-0.02,0.56-0.02,0.84c0.22,3.41-0.48,6.81-2.01,9.86c-2.92,5.66-7.78,8.58-14.43,8.68
	h-0.39C307.34,99,302.49,96.3,299.72,90.99z M305.11,72.69c-0.56,1.68-0.96,3.41-1.22,5.17c-0.15,0.86-0.31,1.75-0.5,2.66
	c0.19,0.79,0.36,1.6,0.54,2.44c0.34,1.94,0.86,3.85,1.53,5.71c1.47,3.7,4.49,5.66,8.76,5.66c1.89,0.05,3.75-0.46,5.35-1.46
	c1.53-1.05,2.71-2.52,3.4-4.24c2.2-5.03,2.32-10.73,0.32-15.85c-1.23-3.93-4.94-6.55-9.05-6.4h-0.09
	C310.06,66.22,306.37,68.8,305.11,72.69z M277.33,89.67c-0.08-6.69-0.02-13.38-0.02-20.07v-1.83c-1.83-0.4-4.42,0.75-4.3-2.64
	c0.08-2.26,1.34-2.26,2.67-2.26c0.55,0.03,1.1-0.02,1.63-0.16c0.08-1.78,0.06-3.56-0.04-5.33c-0.3-1.64,0.74-3.23,2.37-3.6
	c0.57-0.21,1.15-0.42,1.74-0.57c1.74-0.45,2-0.27,2.01,1.44c0.02,2.65,0.01,5.31,0.01,8.24c2.24,0,4.34-0.01,6.44,0
	c2.21,0.01,2.54,0.62,1.44,2.55c-0.66,1.52-2.25,2.42-3.9,2.2c-1.29-0.07-2.59-0.08-3.88-0.02c-0.03,0.61-0.09,1.13-0.09,1.65
	c-0.01,5.88-0.02,11.75,0.01,17.63c0.01,1.03,0.12,2.06,0.32,3.08c0.37,2.53,2.64,4.34,5.2,4.14c0.99,0.01,1.98,0,3.08,0
	c-0.52,2.76-2.88,4.79-5.68,4.89C281.02,99,277.39,95.32,277.33,89.67z M249.96,98.26c-3.24-0.72-6.17-2.45-8.37-4.94
	c-2.08-2.55-3.3-5.69-3.48-8.97c-0.35-3.26-0.08-6.55,0.78-9.71c0.92-3.19,2.74-6.05,5.23-8.24c3-2.82,6.97-4.39,11.09-4.4
	c2.35,0.03,4.68,0.47,6.87,1.3c2.83,1,4.96,3.38,5.65,6.3c0.72,3.08-0.15,6.32-2.32,8.63c-1.48,1.59-3.24,2.88-5.2,3.82
	c-1.96,0.93-4.01,1.64-6.13,2.11c-2,0.47-4.07,0.83-6.06,1.17c-0.9,0.15-1.84,0.32-2.75,0.48c0.29,3.47,2.86,6.35,6.7,7.51
	c1.47,0.45,2.99,0.68,4.52,0.68c2.88-0.04,5.71-0.83,8.2-2.29c0.48-0.27,1-0.51,1.5-0.75c0.23-0.11,0.46-0.21,0.69-0.33
	c0.8,2.1-0.03,4.48-1.97,5.62c-2.78,1.81-6.04,2.76-9.35,2.74C253.67,98.98,251.79,98.73,249.96,98.26L249.96,98.26z M255.49,66.38
	c-2.94-0.02-5.71,1.36-7.46,3.71c-1.24,1.65-2.12,3.53-2.61,5.53c-0.49,2.05-0.72,4.15-0.69,6.26c3.75-0.38,7.38-0.86,10.68-2.58
	c1.76-0.91,3.35-2.09,4.73-3.51c1.73-1.73,2.16-4.36,1.08-6.55c-0.88-1.93-2.62-2.86-5.35-2.86
	C255.74,66.37,255.61,66.37,255.49,66.38L255.49,66.38z M376.08,96.53c-0.61-1.21-0.95-2.53-1-3.88c-0.12-4.5-0.05-9.01-0.05-13.51
	c0-4.67,0.06-9.33-0.04-14c-0.03-1.51,0.58-2.08,2.05-2.08c0.23,0,0.45-0.03,0.68-0.04c3.21-0.09,3.49,0.16,3.49,3.18
	c0,8.19,0,16.39,0,24.58c0,2.75,0.34,3.08,3.1,3.73c0.32,0.07,0.79,0.92,0.67,1.16c-0.86,1.65-2.08,3.11-4.1,3.3
	c-0.2,0.02-0.4,0.03-0.59,0.03C378.51,99.07,376.87,98.1,376.08,96.53z M408.77,98.99c-5.88-0.17-11.04-1.82-14.63-6.78
	c-5-6.89-4.81-22.65,6.3-28.11c5.01-2.45,10.79-2.78,16.05-0.93c0.36,0.13,0.72,0.3,1.06,0.48c3.19,1.59,3.42,3.51,0.59,5.65
	c-0.57,0.31-1.25,0.33-1.83,0.06c-7.7-5.05-16.27-1.69-18.12,7.23c-0.82,3.48-0.59,7.13,0.65,10.49c1.67,4.28,5.01,6.38,9.53,6.85
	c3.68,0.36,7.38-0.52,10.5-2.51c0.62-0.28,1.28-0.49,1.95-0.62c0.14,0.72,0.18,1.45,0.13,2.18c-0.28,1.54-1.24,2.86-2.62,3.6
	c-2.73,1.6-5.84,2.43-9.01,2.42C409.14,99,408.96,99,408.77,98.99L408.77,98.99z M336.72,98.61c-0.44-0.35-0.7-0.87-0.72-1.43
	c-0.1-3.14,1.34-5.66,3.51-7.85c2.91-2.93,5.81-5.86,8.82-8.88c-0.63-0.89-1.21-1.74-1.81-2.56c-3.03-4.11-6.07-8.21-9.09-12.32
	c-1.23-1.68-0.96-2.26,1.1-2.49c2.7-0.29,4.86,0.17,6.5,2.77c2.26,3.6,4.99,6.92,7.67,10.57c3.35-3.79,7.49-6.82,7.99-12.21
	c0.03-0.36,0.56-0.69,0.89-1.01c0.1-0.09,0.32-0.08,0.48-0.09c4.41-0.27,4.62-0.12,3.71,3.91c-0.48,1.73-1.35,3.33-2.53,4.68
	c-2.13,2.58-4.49,4.98-6.83,7.39c-0.64,0.45-0.79,1.33-0.34,1.96c0.06,0.09,0.14,0.17,0.22,0.25c3.63,4.82,7.22,9.67,10.77,14.56
	c0.39,0.68,0.71,1.4,0.94,2.15c-0.79,0.34-1.6,0.59-2.44,0.77c-2.23,0.39-4.47-0.66-5.61-2.62c-2.74-4.08-5.81-7.96-8.84-12.05
	c-3.49,3.4-6.9,6.66-9.02,10.96c-0.19,0.39-0.33,0.81-0.42,1.23c-0.31,1.57-1.68,2.7-3.27,2.7
	C337.81,98.99,337.24,98.86,336.72,98.61L336.72,98.61z M223.4,97.69c-1.42-1.9-2.79-3.84-4.19-5.76
	c-6.74-9.3-13.48-18.6-20.21-27.9c-0.31-0.43-0.66-0.83-1-1.25l-0.36,0.17v2.3c0,10.39,0.02,20.79-0.04,31.18
	c0,0.76-0.46,2.14-0.8,2.18c-1.48,0.08-2.97-0.01-4.42-0.29c-0.18-0.03-0.34-0.88-0.34-1.35c-0.02-14.67,0-29.35-0.04-44.02
	c0-1.39,0.58-1.87,1.83-1.94c1.75-0.27,3.5,0.51,4.47,2c7.86,11.15,15.84,22.21,23.78,33.3c0.31,0.43,0.66,0.84,1.21,1.55
	c0.04-0.91,0.09-1.48,0.09-2.06c0.01-10.78,0.01-21.57,0.01-32.35c0-2.19,0.15-2.35,2.28-2.44c0.18-0.01,0.37,0,0.55,0
	s0.4,0.01,0.59,0c1.55-0.07,2.18,0.54,2.17,2.25c-0.06,14.23-0.03,28.46-0.05,42.68c0,1.03,0.46,2.29-1.05,2.8
	c-0.47,0.16-0.96,0.24-1.46,0.24C225.27,99.05,224.16,98.57,223.4,97.69z M475.5,58.27c-0.92-1.08-0.4-1.76,0.29-2.59
	c1.83-2.2,3.58-4.47,5.45-6.63c0.47-0.54,1.55-1.23,1.86-1.02c1.05,0.84,2.03,1.78,2.9,2.81c-0.29,0.53-0.63,1.02-1.02,1.48
	c-2.27,2.03-4.56,4.03-6.87,6.02c-0.36,0.37-0.84,0.6-1.35,0.65C476.25,58.96,475.78,58.69,475.5,58.27L475.5,58.27z M378.43,57
	c-2.34-0.02-3.44-1.31-3.43-4.03c0.01-2.67,1.15-3.97,3.5-3.97c2.42,0,3.53,1.3,3.5,4.12c-0.02,2.63-1.14,3.88-3.5,3.88H378.43z"/>
</svg>
