<?xml version="1.0" encoding="utf-8"?>
<!-- Generator: Adobe Illustrator 28.1.0, SVG Export Plug-In . SVG Version: 6.00 Build 0)  -->
<svg version="1.0" id="Vrstva_1" xmlns="http://www.w3.org/2000/svg" xmlns:xlink="http://www.w3.org/1999/xlink" x="0px" y="0px"
	 viewBox="0 0 469 99" style="enable-background:new 0 0 469 99;" xml:space="preserve">
<style type="text/css">
	.st0{fill:#FFFFFF;}
</style>
<g transform="translate(0.000000,99.000000) scale(0.100000,-0.100000)">
	<path class="st0" d="M1840,961l-25-7l-3-364c-1-223,1-367,7-373c11-11,114-13,130-2c13,8,16,731,3,739C1935,964,1865,969,1840,961z
		"/>
	<path class="st0" d="M2322,953c-12-10-31-36-43-58c-59-106-59-105,9-105c55,1,60,4,130,89c41,50,50,66,41,77
		C2442,977,2347,974,2322,953z"/>
	<path class="st0" d="M2660,961l-25-7l-3-364c-1-200,2-368,6-372c12-12,103-16,125-6c15,8,17,24,17,118c0,61,3,110,8,110
		c4-1,36-48,71-105s69-109,75-114c14-12,128-17,144-7c22,13,12,34-74,166c-74,114-84,133-72,148c7,9,41,48,75,86
		c88,99,83,126-22,126c-53,0-70-13-135-104c-30-42-58-76-62-76s-8,88-8,195v195l-26,10C2726,971,2697,971,2660,961z"/>
	<path class="st0" d="M225,730c-22-11-48-25-59-32c-15-11-19-11-23,0c-10,26-36,42-68,42c-69,0-65,25-65-361C10,45,11,30,29,20
		c25-13,87-13,112,0c17,10,19,22,19,115v104l49-24c60-31,107-32,167-3c93,43,128,128,122,291c-3,95-6,109-33,152
		C411,742,312,773,225,730z M307,595c49-35,50-190,2-241c-20-21-30-25-58-20c-19,3-47,18-63,32c-26,26-28,33-28,105
		c0,76,1,77,35,108C234,613,273,619,307,595z"/>
	<path class="st0" d="M777,720c-39-34-47-36-47-15c0,20-32,35-74,35c-65,0-66-4-66-269c0-179,3-241,13-249c6-6,32-11,57-12
		c88-4,80-18,80,154c0,143,1,155,22,182c35,46,50,53,99,54c53,0,59,8,59,71C920,751,842,778,777,720z"/>
	<path class="st0" d="M1130,741c-97-32-144-82-179-190c-24-75-5-199,41-267c83-121,320-124,418-6c44,53,63,128,58,226
		c-6,114-41,177-122,218C1303,744,1173,756,1130,741z M1261,610c33-18,49-64,49-140c0-106-31-149-106-150c-66,0-104,55-104,150
		c0,94,39,150,102,150C1224,620,1250,615,1261,610z"/>
	<path class="st0" d="M2218,736c-53-19-82-40-113-80c-73-96-73-286-1-381c51-66,161-97,277-77c39,7,84,19,100,27c26,14,29,20,29,66
		v51l-37-7c-21-4-76-9-123-12c-83-4-87-3-113,23c-15,15-27,37-27,50v24h130c182,0,210,17,195,118c-10,76-23,106-63,145
		C2409,745,2304,767,2218,736z M2360,610c11-11,20-26,20-34s3-21,6-30c5-14-6-16-85-16c-100,0-105,4-76,60c17,33,27,38,78,39
		C2327,630,2347,623,2360,610z"/>
	<path class="st0" d="M3123,730c-13-5-23-16-23-25c0-17,139-394,170-463c14-29,17-48,11-60c-27-51-51-115-51-136c0-28,16-36,75-36
		c61,0,86,27,118,125c14,44,61,179,103,300c93,267,96,281,59,295c-38,14-91,12-108-4c-11-12-52-127-99-284c-5-18-12-32-14-29
		c-2,2-19,48-38,103c-50,144-76,208-89,216C3221,742,3150,741,3123,730z"/>
	<path class="st0" d="M3970,689c-88-53-114-106-118-244c-3-104-2-113,25-165c42-81,98-113,199-113c59,1,86,6,120,24
		c48,24,57,43,52,105c-4,47-25,55-68,24c-35-25-111-30-136-9c-54,45-58,206-6,258c23,23,101,18,146-9c37-23,39-23,52-5
		c17,22,18,78,4,106C4212,712,4038,730,3970,689z"/>
	<path class="st0" d="M4320,691c-5-11-10-32-10-46c0-56,13-65,100-65c44,0,80-2,80-3c0-2-34-54-75-116c-41-61-75-115-75-119
		s-9-18-20-32c-26-33-27-101-2-123c16-14,44-17,179-17c184,0,186,1,181,77l-3,48l-92,3c-51,1-93,7-93,12s13,28,29,52
		c122,183,144,224,149,272c7,73-1,76-185,76C4343,710,4330,708,4320,691z"/>
	<path class="st0" d="M1534,583c-12-9-34-131-26-151c2-8,11-10,21-6c34,14,100,16,151,5c30-6,57-8,62-3c12,12,30,134,21,142
		C1752,581,1547,592,1534,583z"/>
	<path class="st0" d="M3620,343c-41-16-55-102-24-148c14-21,24-25,69-25c68,0,87,20,88,91c1,42-3,55-22,70
		C3708,349,3652,355,3620,343z"/>
</g>
</svg>
