<?xml version="1.0" encoding="utf-8"?>
<!-- Generator: Adobe Illustrator 28.1.0, SVG Export Plug-In . SVG Version: 6.00 Build 0)  -->
<svg version="1.1" id="Vrstva_1" xmlns="http://www.w3.org/2000/svg" xmlns:xlink="http://www.w3.org/1999/xlink" x="0px" y="0px"
	 viewBox="0 0 1566 161" style="enable-background:new 0 0 1566 161;" xml:space="preserve">
<style type="text/css">
	.st0{fill:#FFFFFF;}
</style>
<g transform="translate(0.000000,161.000000) scale(0.100000,-0.100000)">
	<path class="st0" d="M4646,1602c-7-12-386-1551-386-1568c0-11,28-14,140-14c125,0,141,2,147,18c4,9,26,98,48,197l41,180l207,3
		c114,1,207,1,207-1c0-6,80-360,86-379c5-16,21-18,150-18c79,0,144,4,144,8c0,8-376,1532-386,1565c-5,15-23,17-199,17
		C4738,1610,4649,1606,4646,1602z M4964,807c14-60,26-113,26-118s-64-9-145-9c-84,0-145,4-145,9c0,6,24,121,54,258
		c30,136,59,277,66,313c6,36,13,79,17,95c4,22,19-34,53-205C4916,1021,4950,866,4964,807z"/>
	<path class="st0" d="M10245,1598c-10-25-385-1551-385-1565c0-10,29-13,139-13c80,0,142,4,146,10c3,5,25,94,49,197l43,188l206,3
		c114,1,207,1,207-1c0-3,67-296,85-375c5-22,8-22,150-22c80,0,145,4,145,9c0,8-357,1454-381,1544l-10,37h-195
		C10298,1610,10248,1607,10245,1598z M10554,852c20-84,36-157,36-163c0-5-61-9-145-9c-92,0-145,4-145,10s25,122,55,258
		s62,290,71,342l18,95l37-190C10501,1091,10534,936,10554,852z"/>
	<path class="st0" d="M14,1583c2-10,82-349,176-753S365,78,371,58l10-38h184c183,0,185,0,190,23c33,137,365,1552,365,1554
		s-66,2-147,1l-148-3l-97-455c-83-392-125-605-156-800c-7-41-9-35-25,80c-9,69-41,238-70,375c-30,138-80,375-113,527l-59,278H157
		C20,1600,9,1599,14,1583z"/>
	<path class="st0" d="M1780,810V20h135h135v790v790h-135h-135V810z"/>
	<path class="st0" d="M2715,1573c3-16,86-370,184-788l178-760l186-3c103-1,187-1,187,1s333,1419,365,1555l5,22h-147h-148l-68-322
		c-120-565-165-790-178-888l-13-95l-8,50c-35,222-62,360-151,775l-102,475l-149,3l-148,3L2715,1573z"/>
	<path class="st0" d="M7010,810V20h223c122,0,260,4,306,10c250,29,383,203,369,488c-9,181-76,275-233,327c-17,6-12,11,30,30
		c123,56,183,184,172,365c-13,217-110,317-342,350c-38,5-172,10-297,10h-228V810z M7507,1326c41-21,60-45,73-96c15-54,7-148-15-191
		c-28-54-67-69-177-69h-98v192v191l95-6C7437,1343,7492,1334,7507,1326z M7537,694c15-11,38-40,51-65c21-39,23-55,20-139
		c-6-164-55-209-225-210h-93v221v221l109-4C7490,715,7514,711,7537,694z"/>
	<path class="st0" d="M8592,813l3-788l353-3l352-2v130v130h-210h-210l2,218l3,217l193,3l192,2v125v125l-192,2l-193,3v185v185l208,3
		l207,2v125v125h-355h-355L8592,813z"/>
	<path class="st0" d="M11630,1048c0-569,4-644,43-755c55-160,181-260,355-282c231-29,420,57,509,232c13,27,33,88,43,135
		c18,80,20,133,20,655v567h-145h-144l-3-582c-3-442-7-592-16-621c-21-61-75-113-131-127c-93-22-170,18-212,112l-24,53l-3,583l-3,582
		h-144h-145V1048z"/>
	<path class="st0" d="M13230,1470v-130h150h150V680V20h145h145v660v660h150h150v130v130h-445h-445V1470z"/>
	<path class="st0" d="M14623,1583c2-10,86-227,186-481l181-464V329V19l143,3l142,3l5,330l5,330l158,395c87,217,169,423,182,458
		l24,62h-153h-153l-103-306c-56-168-106-302-110-297c-4,4-52,142-106,306l-99,297h-154C14630,1600,14618,1599,14623,1583z"/>
</g>
</svg>
