<?xml version="1.0" encoding="utf-8"?>
<!-- Generator: Adobe Illustrator 28.1.0, SVG Export Plug-In . SVG Version: 6.00 Build 0)  -->
<svg version="1.1" id="Vrstva_1" xmlns="http://www.w3.org/2000/svg" xmlns:xlink="http://www.w3.org/1999/xlink" x="0px" y="0px"
	 viewBox="0 0 642 549.9" style="enable-background:new 0 0 642 549.9;" xml:space="preserve">
<style type="text/css">
	.st0{fill:#FFFFFF;}
</style>
<g transform="translate(0.000000,1000.000000) scale(0.100000,-0.100000)">
	<path class="st0" d="M1897,9993c-4-3-7-96-7-205v-198h153c83,0,162-3,175-6l22-6V8264V6950h249h249l77,153c43,83,90,175,105,202
		c15,28,89,172,165,320c76,149,141,275,145,280c4,6,42,80,85,165c93,185,94,186,110,163c6-10,76-144,155-298s146-284,150-290
		c4-5,74-140,155-300c81-159,161-314,177-343l30-52l246,2l247,3v1520v1520l-202,3l-203,2V8824c0-837-3-1175-11-1172
		c-11,4-77,130-367,698l-171,335h-218h-218l-100-195c-55-107-174-340-264-518c-91-177-168-322-173-322c-4,0-9,528-10,1173l-3,1172
		l-371,3C2070,9999,1901,9997,1897,9993z"/>
	<path class="st0" d="M2,8455l-2-55h760h760v55v55H762H4L2,8455z"/>
	<path class="st0" d="M4900,8455v-55h760h760v55v55h-760h-760V8455z"/>
	<path class="st0" d="M4866,5810c-159-51-263-182-288-363c-16-120-5-589,16-651c79-241,355-363,582-257c68,32,159,114,188,168l16,31
		l-66,42c-36,23-69,40-74,38c-4-2-23-23-41-47c-47-62-114-95-193-95c-109,1-185,49-232,149c-23,49-24,56-23,340c1,312,2,323,55,398
		c44,61,108,91,199,92c59,0,77-4,117-28c26-15,60-44,75-65c15-20,30-41,34-46c11-13,139,66,139,85c0,30-74,117-137,159
		c-34,24-86,49-115,56C5045,5835,4937,5833,4866,5810z"/>
	<path class="st0" d="M5860,5817c-151-44-268-166-299-315c-18-86-15-614,4-687c45-169,169-281,346-308c221-34,418,95,474,308
		c12,47,15,122,15,355c0,329-6,376-62,463c-43,67-132,143-198,169C6072,5828,5927,5836,5860,5817z M6086,5632c51-26,108-88,125-138
		c11-30,14-110,14-334c0-288-1-296-23-342c-45-90-126-141-227-141s-182,51-227,141c-22,46-23,54-23,342c0,328,3,345,63,412
		c35,39,72,63,122,79C5950,5664,6043,5654,6086,5632z"/>
	<path class="st0" d="M93,5814c-9-4-13-32-13-90v-84h75h75v-560v-561l106,3l106,3l42,80c23,44,86,165,140,270c54,104,99,191,101,193
		c3,3,54-93,221-415l69-133h108h107l-2,648l-3,647h-82h-82l-2-493c-1-271-6-495-10-498c-4-2-58,95-119,216l-110,220h-89
		c-59,0-92-4-99-12c-5-7-54-101-107-208c-54-107-103-201-109-209c-8-10-12,114-16,485l-5,499l-145,2C170,5818,99,5817,93,5814z"/>
	<path class="st0" d="M1567,5813c-4-3-7-296-7-650v-643h390h390v85v85h-300h-300v195c0,107,3,195,8,195c4,0,100,1,215,2l207,1v89v88
		h-215h-215v190v190h300h300v84c0,67-3,85-16,90C2303,5822,1575,5822,1567,5813z"/>
	<path class="st0" d="M2413,5813c-9-3-13-31-13-88v-84l328-3l329-3l41-27c92-62,114-196,46-285c-49-65-62-67-344-73l-255-5l-3-362
		l-2-363h90h90v275v275h104h103l52-107c29-60,89-183,134-275l80-168h94c51,0,93,2,93,5s-63,131-140,284l-139,279l55,32
		c75,42,140,109,172,178c23,49,27,70,27,147c0,76-5,99-26,145c-56,117-163,199-289,219C2976,5820,2437,5823,2413,5813z"/>
	<path class="st0" d="M3636,5813c-3-4-6-296-6-650v-643h390h390v85v85l-302,2l-303,3l-3,184c-1,102,2,189,7,194c4,4,104,9,220,9h211
		v89v89l-217,2l-218,3v185v185l303,3l302,2v84c0,81-1,84-25,90C4352,5822,3644,5821,3636,5813z"/>
</g>
</svg>
