<?xml version="1.0" encoding="utf-8"?>
<!-- Generator: Adobe Illustrator 28.1.0, SVG Export Plug-In . SVG Version: 6.00 Build 0)  -->
<svg version="1.0" id="Vrstva_1" xmlns="http://www.w3.org/2000/svg" xmlns:xlink="http://www.w3.org/1999/xlink" x="0px" y="0px"
	 viewBox="0 0 349.53 95.09" style="enable-background:new 0 0 349.53 95.09;" xml:space="preserve">
<style type="text/css">
	.st0{display:none;}
	.st1{display:inline;fill:#9068BE;}
	.st2{display:none;fill:#FFFFFF;}
	.st3{font-family:'Lato-Black';}
	.st4{font-size:52.9816px;}
	.st5{letter-spacing:2;}
	.st6{fill:#FFFFFF;}
	.st7{fill-rule:evenodd;clip-rule:evenodd;fill:#FFFFFF;}
</style>
<g id="Pozadí" class="st0">
	<rect x="-11.87" y="-14.87" class="st1" width="375" height="124.05"/>
</g>
<text id="NATIMA_-_písmo_LATO" transform="matrix(1 0 0 1 122.2255 74.7617)" class="st2 st3 st4 st5">NATIMA</text>
<g id="NATIMA_-_více_u_sebe">
	<path class="st6" d="M131.1,36.22c0.26,0.04,0.5,0.1,0.72,0.2s0.41,0.23,0.61,0.41s0.42,0.42,0.66,0.71l18.33,23.18
		c-0.07-0.74-0.12-1.46-0.16-2.16c-0.04-0.7-0.05-1.36-0.05-1.97V36.16h7.89v38.6h-4.66c-0.69,0-1.27-0.11-1.75-0.32
		c-0.48-0.21-0.94-0.6-1.38-1.17l-18.2-22.99c0.05,0.67,0.1,1.33,0.13,1.97c0.04,0.64,0.05,1.25,0.05,1.81v20.69h-7.89v-38.6h4.72
		C130.51,36.16,130.84,36.18,131.1,36.22z"/>
	<path class="st6" d="M204.03,74.76h-6.94c-0.78,0-1.42-0.18-1.92-0.54c-0.5-0.36-0.85-0.83-1.05-1.39l-2.28-6.73h-14.68l-2.28,6.73
		c-0.18,0.49-0.52,0.94-1.03,1.34s-1.14,0.6-1.88,0.6h-6.99l14.94-38.6h9.17L204.03,74.76z M179.23,60.01h10.54l-3.55-10.57
		c-0.23-0.67-0.5-1.46-0.81-2.37c-0.31-0.91-0.61-1.89-0.91-2.95c-0.28,1.08-0.57,2.08-0.88,2.99s-0.58,1.71-0.85,2.38L179.23,60.01
		z"/>
	<path class="st6" d="M234.83,36.16v7.1h-10.86v31.5h-8.95v-31.5h-10.86v-7.1H234.83z"/>
	<path class="st6" d="M250.99,74.76h-9.01v-38.6h9.01V74.76z"/>
	<path class="st6" d="M281.55,59.21c0.33,0.72,0.64,1.47,0.94,2.23c0.3-0.78,0.62-1.53,0.95-2.27c0.34-0.73,0.68-1.44,1.03-2.13
		l9.91-19.52c0.18-0.34,0.36-0.6,0.54-0.78c0.19-0.19,0.39-0.32,0.62-0.41c0.23-0.09,0.49-0.13,0.78-0.13c0.29,0,0.63,0,1.02,0h6.83
		v38.57h-7.89v-22.2c0-1.08,0.05-2.24,0.16-3.5l-10.23,19.84c-0.32,0.62-0.75,1.09-1.29,1.4c-0.54,0.32-1.15,0.48-1.84,0.48h-1.22
		c-0.69,0-1.3-0.16-1.84-0.48c-0.54-0.32-0.97-0.79-1.29-1.4l-10.28-19.87c0.07,0.62,0.12,1.23,0.16,1.84
		c0.04,0.61,0.05,1.17,0.05,1.68v22.2h-7.89V36.19h6.83c0.39,0,0.73,0,1.02,0c0.29,0,0.55,0.04,0.78,0.13
		c0.23,0.09,0.44,0.23,0.62,0.41c0.19,0.19,0.37,0.45,0.54,0.78l9.93,19.6C280.88,57.79,281.22,58.48,281.55,59.21z"/>
	<path class="st6" d="M349.11,74.76h-6.94c-0.78,0-1.42-0.18-1.92-0.54s-0.85-0.83-1.05-1.39l-2.28-6.73h-14.68l-2.28,6.73
		c-0.18,0.49-0.52,0.94-1.03,1.34c-0.51,0.4-1.14,0.6-1.88,0.6h-6.99l14.94-38.6h9.17L349.11,74.76z M324.32,60.01h10.54
		l-3.55-10.57c-0.23-0.67-0.5-1.46-0.81-2.37c-0.31-0.91-0.61-1.89-0.91-2.95c-0.28,1.08-0.57,2.08-0.88,2.99
		c-0.3,0.92-0.58,1.71-0.85,2.38L324.32,60.01z"/>
</g>
<g id="List_-_topolánek_00000140715694800392498130000014166281026230514846_">
	<path class="st7" d="M0.87,2.66C0.59,2.61,0.58,2.22,0.86,2.17c13.42-2.45,64.89-6.2,89.52,18.13
		c26.47,26.15,5.83,51.39,23.61,72.84c0.15,0.18,0,0.45-0.23,0.41c-9.36-1.65-18.73-10.06-21.85-35.26
		c-2.21-17.86-18.95-39.02-29.95-42.7c-0.22-0.07-0.41,0.18-0.28,0.37c8.32,12.92,17.51,28.82,17.9,45.13c0,0.2-0.22,0.33-0.39,0.23
		C67.98,55.11,67.04,45.9,54.21,32.39C44.32,21.15,25.75,7.18,0.87,2.66z"/>
	<path class="st7" d="M96.7,90.51c0.26,0.08,0.24,0.45-0.03,0.48c-14.78,1.84-37.48,9.45-63.07-3.3
		C2.44,72.18,20.35,27.81,2.05,5.76c-0.17-0.2,0.04-0.49,0.28-0.39c8.66,3.66,19.04,11.19,22.41,38.5
		c2.21,17.86,19.06,35.45,30.07,38.98c0.22,0.07,0.41-0.18,0.28-0.38c-8.32-12.92-17.51-28.82-17.9-45.13c0-0.2,0.22-0.33,0.39-0.23
		c11.22,6.21,12.15,15.43,24.99,28.94C71.09,75.74,77.14,84.67,96.7,90.51z"/>
</g>
</svg>
