<?xml version="1.0" encoding="UTF-8"?><svg id="ico_modra_04" xmlns="http://www.w3.org/2000/svg" xmlns:xlink="http://www.w3.org/1999/xlink" viewBox="0 0 60.598 60.598"><defs><linearGradient id="Nepojmenovaný_přechod" x1="-262.5929" y1="443.9374" x2="-261.5929" y2="443.9374" gradientTransform="translate(15912.6659 26932.0181) scale(60.598 -60.598)" gradientUnits="userSpaceOnUse"><stop offset="0" stop-color="#5aade4"/><stop offset="1" stop-color="#215aa2"/></linearGradient></defs><circle id="Ellipse_6" cx="30.299" cy="30.299" r="30.299" style="fill:url(#Nepojmenovaný_přechod);"/><path id="Path_45" d="m48.911,30.001c-.0006-10.1963-8.2667-18.4616-18.463-18.461S11.9864,19.8067,11.987,30.003c.0006,10.1955,8.2655,18.4604,18.461,18.461,10.1946.0022,18.4608-8.2604,18.463-18.455v-.008Zm-2.606,0c-.0084,4.2064-1.667,8.2415-4.619,11.238-2.9784,2.9809-7.0273,4.6435-11.241,4.616-4.2059-.0076-8.241-1.6651-11.238-4.616-2.9809-2.9784-4.6435-7.0273-4.616-11.241.0069-4.207,1.6643-8.2433,4.616-11.241,2.9784-2.9809,7.0273-4.6435,11.241-4.616,4.2064.0084,8.2415,1.667,11.238,4.619,2.982,2.9779,4.6457,7.0268,4.619,11.241Zm-22.482.223c-2.2091.0111-4.0089-1.7708-4.02-3.9799,0-.0134,0-.0267,0-.0401-.0067-.281.2157-.5143.4967-.521.0081-.0002.0162-.0002.0243,0h1.489c.2978.0105.5478.2276.6.521,0,.7812.6333,1.4145,1.4145,1.4145s1.4145-.6333,1.4145-1.4145h0c.003-.2932.2432-.5285.5365-.5255.0212.0002.0425.0017.0635.0045h1.489c.281-.0067.5143.2157.521.4967.0002.0081.0002.0162,0,.0243-.0164,2.217-1.8119,4.009-4.029,4.021v-.001Zm17.643-4.466c.0931.1018.1461.234.149.372,0,2.2202-1.7998,4.02-4.02,4.02s-4.02-1.7998-4.02-4.02c-.0067-.281.2157-.5143.4967-.521.0081-.0002.0162-.0002.0243,0h1.49c.2978.0105.5478.2276.6.521,0,.7812.6333,1.4145,1.4145,1.4145s1.4145-.6333,1.4145-1.4145c.003-.2932.2432-.5285.5365-.5255.0212.0002.0425.0017.0635.0045h1.489c.1345.0053.2628.0581.362.149Zm-2.829,10.943c.2235.2273.2235.5917,0,.819-2.0672,2.0868-4.8797,3.2655-7.817,3.276h0c-2.9373-.0105-5.7498-1.1892-7.817-3.276-.2235-.2273-.2235-.5917,0-.819l1.043-1.042c.2273-.2235.5917-.2235.819,0,1.6005,1.5925,3.7723,2.4774,6.03,2.457,2.2523-.0076,4.4138-.8883,6.03-2.457.2273-.2235.5917-.2235.819,0l.893,1.042Z" style="fill:#fff;"/></svg>