<?xml version="1.0" encoding="UTF-8"?><svg id="Vrstva_1" xmlns="http://www.w3.org/2000/svg" xmlns:xlink="http://www.w3.org/1999/xlink" viewBox="0 0 61 61"><defs><linearGradient id="Nepojmenovaný_přechod" x1="-262.622" y1="444.9963" x2="-261.622" y2="444.9963" gradientTransform="translate(16020 27175.276) scale(61 -61)" gradientUnits="userSpaceOnUse"><stop offset="0" stop-color="#5aade4"/><stop offset="1" stop-color="#215aa2"/></linearGradient></defs><g id="ico_modra_01"><circle id="Ellipse_5" cx="30.5" cy="30.5" r="30.5" style="fill:url(#Nepojmenovaný_přechod);"/><path id="Path_44" d="m28.015,34.095c-.744,2.233-1.489,4.839-2.159,7.444-1.34,5.137-2.308,10.2-2.606,11.911h0c-.0814.6375-.6233,1.1156-1.266,1.117h-.223c-.6375-.0814-1.1156-.6233-1.117-1.266v-.223c1.2068-6.6444,2.8229-13.2079,4.839-19.653.5846-1.9675,1.3834-3.8648,2.382-5.658h0c1.1729-1.9208,2.6867-3.6112,4.467-4.988-.3-.3-.6-.67-.968-1.117-1.117-1.191-2.531-2.9-4.169-4.764h0c-.2066-.2212-.3148-.5167-.3-.819-.0104-.3748.155-.7329.447-.968.2212-.2066.5167-.3148.819-.3.3748-.0104.7329.155.968.447,2.308,2.754,4.392,5.062,5.286,6.03.986-.568,2.0356-1.0178,3.127-1.34.1143-.0599.2435-.0856.372-.074.566.0073,1.0692.3622,1.266.893,0,.149.074.223.074.372-.0073.566-.3622,1.0692-.893,1.266-1.3657.4291-2.65,1.0835-3.8,1.936-1.8006,1.2873-3.3414,2.9038-4.541,4.764h0c-.8082,1.6036-1.479,3.273-2.005,4.99Zm22.11-15.336c-.7806-2.2039-1.6752-4.3658-2.68-6.477h0c-.2141-.4189-.6486-.6788-1.119-.669-.2086.0043-.4136.0552-.6.149-.4187.2135-.6788.6471-.67,1.117.0137.2073.0642.4104.149.6h0c.979,2.0102,1.8503,4.0711,2.61,6.174.2717.7404.4226,1.5197.447,2.308.0068,1.1066-.3623,2.1827-1.047,3.052-.67.893-1.489,1.712-2.308,2.606-1.0932,1.13-2.0204,2.4094-2.754,3.8-.893,1.563-1.936,3.573-3.722,6.849-4.02,7.072-8.04,12.953-10.2,16.378-.1398.1959-.2175.4294-.223.67-.0049.4506.2216.8723.6,1.117.1959.1398.4294.2175.67.223.4506.0049.8723-.2216,1.117-.6,2.01-3.35,6.1-9.306,10.2-16.452,1.861-3.276,2.9-5.36,3.8-6.849.5719-1.196,1.3536-2.2798,2.308-3.2.9593-.8812,1.8319-1.8523,2.606-2.9.9533-1.3237,1.4718-2.9108,1.484-4.542h0c-.0426-1.1463-.2688-2.2784-.67-3.353l.002-.001Zm-12.358,7.371h0v-.372c0-.7196-.5834-1.303-1.303-1.303s-1.303.5834-1.303,1.303v.372h0c.0102.4808-.0653.9596-.223,1.414-.3444.9881-.7937,1.9365-1.34,2.829-.8188,1.3074-1.7666,2.5295-2.829,3.648-.3288.3661-.6773.7139-1.044,1.042l-.3.3h0l-.074.074h0c-.292.2351-.4574.5932-.447.968-.0149.3023.0933.5978.3.819.2351.292.5932.4574.968.447.3023.0148.5978-.0934.819-.3h0c1.8491-1.6213,3.4538-3.5018,4.764-5.583.7046-1.0856,1.2558-2.2635,1.638-3.5.239-.6951.3646-1.424.372-2.159l.002.001Zm-13.179,2.383l1.191-2.308-5.211-2.68,2.457-.968-6.849-5.062-1.561,2.084.447.3,2.603,1.934-3.424,1.34,10.347,5.36Zm-8.114-2.978l-8.338-1.638-.521,2.53.521.074,3.2.6-2.457,2.754,11.539.372.074-2.606-5.807-.149,1.789-1.937Z" style="fill:#fff;"/></g></svg>