<svg xmlns="http://www.w3.org/2000/svg" width="79.266" height="28.991" viewBox="0 0 79.266 28.991">
  <g id="logo" transform="translate(-8.346 -3.052)">
    <path id="Path_62" data-name="Path 62" d="M31.227,23.39l-.007-.141.037-.005c.009.043.017.087.025.13l-.055.016m.649,1.536-.1.043-.14-.346.078-.036.158.338m11-4.87.032-.029-.065-.075-.034.03.067.074m.8-7.046.771-1.88-.031-.01.289-.587c-.14-.13.012-.88.285-1.438l.107.154a1.648,1.648,0,0,0,.06-.453,3.133,3.133,0,0,1,.274-1.409l0-.005c.142-.643.3-1.283.421-1.93a2.76,2.76,0,0,0-.123-1.3,9.707,9.707,0,0,0-.807,2.484c-.17.9-.392,1.792-.589,2.687a5.615,5.615,0,0,1-.228,1.039,5.956,5.956,0,0,0-.442,2.075c-.005.1-.032.19-.043.286s-.014.189-.021.282l.079.01m1.255-3.348.077-.134-.063-.03-.051.147.038.017M60.2,12.376a.872.872,0,0,0,0,.3,3.207,3.207,0,0,0,1.674-.881,1.737,1.737,0,0,0,.53-1.905c-.142,0-.337-.06-.444.011a3.219,3.219,0,0,0-.962.78,11.6,11.6,0,0,0-.793,1.7M44.737,18.889a8.091,8.091,0,0,0-.872-2.463l-.535.168c0,.265.005.529,0,.793a7.971,7.971,0,0,0-.031,1.147,1.575,1.575,0,0,1-.156,1.03l.1.312.081,0c.012-.208.025-.417.043-.716l.221.281a1.442,1.442,0,0,0-.142.376,3.488,3.488,0,0,0,.049.547.924.924,0,0,1-.291.952,8.885,8.885,0,0,0,1.4,4.807,2.159,2.159,0,0,0,.17-.3,8.822,8.822,0,0,0,.46-3.731c-.095-1.072-.3-2.135-.489-3.2m-3.962-4.527c.008-.108.016-.216.027-.374l-.288.077.2.317.064-.02m-7.183-3.315a3.157,3.157,0,0,0,.848-1.616,3.429,3.429,0,0,0-.848,1.616m36.376,1.329a.869.869,0,0,0,0,.3,3.192,3.192,0,0,0,1.652-.859,1.748,1.748,0,0,0,.553-1.927c-.143,0-.338-.06-.444.01a3.222,3.222,0,0,0-.962.781,11.612,11.612,0,0,0-.793,1.7m-27.12,7.458.108-.036-.155-.448-.1.035ZM48.841,11.1c.558-.544.977-1.385.848-1.708a4.93,4.93,0,0,0-.848,1.708m-3.4-3.464.111-.038-.123-.206c0,.081.008.163.012.245m33.7,2.942a1.14,1.14,0,0,1-.13,1.2c-.074.144-.16.281-.237.423-.358.664-.713,1.329-1.072,1.993-.484.895-1.171,1.657-1.692,2.517a10.236,10.236,0,0,1-1.773,2,5.917,5.917,0,0,0-.587.732,2.046,2.046,0,0,1-1.489.986,1.4,1.4,0,0,0-.417.17,4.844,4.844,0,0,1-3,.152,4.667,4.667,0,0,1-2.534-1.408,3.136,3.136,0,0,1-.465-.839c-.1-.214-.16-.447-.271-.766a19.785,19.785,0,0,0-1.454,1.519,2.352,2.352,0,0,1-1.686,1.181c-.121.008-.232.115-.353.157A5.074,5.074,0,0,1,57.44,20.1c-.345-.212-.68-.442-1.029-.671-.184.608-.387,1.263-.58,1.921a4.126,4.126,0,0,1-1.73,2.352,2.656,2.656,0,0,1-3.38-.273,5.957,5.957,0,0,1-1.6-2.7,15.143,15.143,0,0,1-.7-4.245,5.587,5.587,0,0,1,.361-2.193c.135-.34.229-.7.35-1.067l-.288-.175-4.459,2.158c.236.585.5,1.229.755,1.881.3.783.6,1.568.875,2.361a4.479,4.479,0,0,1,.136.758,13.454,13.454,0,0,1,.311,4.121c-.086.588-.172,1.177-.288,1.759a2.99,2.99,0,0,1-1.791,2.152,1.128,1.128,0,0,1-1.053-.112c-.544-.471-1.045-.781-1.044-1.42L42.2,26.8l-.324-.4.244-.138c-.228-.532-.492-1.057-.676-1.609a2.644,2.644,0,0,1-.318-1.159,3.12,3.12,0,0,0-.2-.873c-.062-.295-.1-.594-.157-.89-.028-.144-.076-.284-.128-.477a15.144,15.144,0,0,1-.734,1.375,3.789,3.789,0,0,1-1.272,1.185,2.674,2.674,0,0,1-3.145-.313,5.9,5.9,0,0,1-1.661-2.733,15.032,15.032,0,0,1-.711-4.276,5.554,5.554,0,0,1,.361-2.193c.135-.34.229-.7.351-1.072-.349-.2-.671-.392-1-.566a1.159,1.159,0,0,1-.633-1.144,3.413,3.413,0,0,1,.962-2.538,1.662,1.662,0,0,1,1.359-.407c1.009.112,1.268.6.827,1.584-.25.557-.587,1.075-.919,1.674h2.918l.576.8a3.531,3.531,0,0,0-.7,2.113,11.437,11.437,0,0,0,.474,4.682c.135.572.332,1.129.482,1.7.052.2.042.409.077.611.032.185.086.367.123.516.319.128.524.081.65-.189.413-.88.817-1.765,1.242-2.639a5.131,5.131,0,0,0,.253-1.818,10.591,10.591,0,0,0,.031-1.386.881.881,0,0,0-.17-.425c-.261-.392-.539-.771-.81-1.156l-.252-.357a2.218,2.218,0,0,1,1.6-1.124c.063-.376.119-.768.194-1.156.174-.9.319-1.809.547-2.7.284-1.108.632-2.2.975-3.292a1.383,1.383,0,0,1,.348-.461,1.818,1.818,0,0,0,.5-1.067c.072-.645.6-.916,1.044-1.248A3.989,3.989,0,0,1,44.941,3L46.02,2.94l0-.068a3.026,3.026,0,0,1,.591.328.921.921,0,0,1,.292.487,12.023,12.023,0,0,1,.2,1.567,7.448,7.448,0,0,1-.275,2.465c-.111.381-.131.786-.216,1.176a6.681,6.681,0,0,1-.224.706c-.339,1-.651,2.014-1.032,3a17.02,17.02,0,0,1-.865,1.666l3.541-1.628a1.227,1.227,0,0,1-.526-1.121,3.876,3.876,0,0,1,.514-1.979,1.9,1.9,0,0,1,1.514-.96,3.431,3.431,0,0,1,.927.085c.259.058.378.395.349.767a3.092,3.092,0,0,1-.482,1.4c-.192.312-.4.612-.659,1h2.979l.576.8a3.533,3.533,0,0,0-.7,2.114,11.442,11.442,0,0,0,.475,4.681c.135.572.332,1.13.482,1.7.052.2.042.409.077.611.032.185.086.366.123.516.319.128.524.08.65-.19.413-.88.839-1.755,1.232-2.644a8.992,8.992,0,0,0,.328-1.018c-.21-.808-.441-1.521-.571-2.251s-.159-1.475-.233-2.213l.178.034a3.786,3.786,0,0,0,.341-.746,4.573,4.573,0,0,1,.678-1.9c.3-.4.606-.789.907-1.185a1.349,1.349,0,0,0,.243-.445c.891-.277,1.781-.555,2.673-.828a1,1,0,0,1,.286-.037c.347,0,.7.033,1.041.005a3.988,3.988,0,0,1,1.825.37,1.152,1.152,0,0,1,.45.414,3.476,3.476,0,0,1,.38,2.511,1.893,1.893,0,0,1-2.144,1.8c-.7,0-1.4.056-2.055.084-.06.069-.084.084-.087.1-.092.549-.226,1.1-.262,1.65a4.238,4.238,0,0,0,.683,2.436,1.2,1.2,0,0,0,.911.009,8.927,8.927,0,0,0,3.574-1.855c.1-.093.214-.181.284-.239-.035-.752-.069-1.462-.1-2.173l.119.035a2.6,2.6,0,0,0,.35-.707,4.544,4.544,0,0,1,1.182-2.569,8.924,8.924,0,0,0,.711-.967c.362-.148.712-.313,1.077-.434a7.86,7.86,0,0,1,3.593-.437,2.614,2.614,0,0,1,1.324.467,2.189,2.189,0,0,1,.591,1.251,3.786,3.786,0,0,1-.3,2.4,1.412,1.412,0,0,1-1,.828,14.15,14.15,0,0,1-1.613.147c-.44.03-.882.04-1.339.06-.1.73-.2,1.408-.3,2.086l.094.013a3.158,3.158,0,0,0,.606,2.077,1.181,1.181,0,0,0,.865.035,10.664,10.664,0,0,0,5.607-3.9,17.746,17.746,0,0,0,1.947-2.984c.143-.269.266-.548.4-.818l.357.046M30.907,24.168l.079-.016-.051-.211-.067.014q.02.106.039.213m-1.114-3.213c.32-.518.009-.882-.067-1.271l-.1.019c.052.389.1.778.166,1.252M34.018,27.6l.051-.016-.046-.023,0,.039M27.186,6.963c.005.307,0,.613,0,.993C28.405,6.666,28.451,1.966,27.3.9a.87.87,0,0,0-.331.753c.015.705.13,1.409.158,2.116.042,1.063.046,2.128.063,3.191m3.464,16.55.157-.054-.728-2.373-.1.029.675,2.4M3.114,15.77l.041-.005-.015-.1-.035,0c0,.031.007.063.01.1M32.75,26.8h0m-1.441-1.774.016,0L31.319,25ZM27.678,13.666l.073-.228-.1-.028-.068.228.1.028m5.13,13.292c0-.015,0-.03.005-.045l-.077.008v.03ZM27.694,13.222l.121.064.907-1.72-.136-.086-.892,1.741m3.355,11.259.053-.021-.051-.14-.064.026.061.136M1.213,16.16l.2-.259c-.013-.17-.026-.332-.038-.492l-.088-.023-.45.948a2.508,2.508,0,0,0-.57,1.972l.608.463C1,17.853,1.1,17,1.213,16.16m30.769,9.219-.1-.169.073-.029c.01.066.02.132.03.2M31.838,28.5l.226.13v-.256a8.886,8.886,0,0,1-1.9-1.865,9.521,9.521,0,0,1-1.87-4.053c-.247-.825-.4-1.676-.6-2.516a2.19,2.19,0,0,0-.1-.236c-.447,1.306-.763,2.575-1.292,3.815A7.384,7.384,0,0,1,24.4,21.539V21.07l.2-.074-.246-.518.153-.188c-.042-.342-.082-.663-.122-.985l-.064-.024a6.514,6.514,0,0,0-.408,1.053,2.848,2.848,0,0,1-.768,1.288A3.139,3.139,0,0,1,21.2,22.835a2.679,2.679,0,0,1-2.266-.609.832.832,0,0,1-.214-.348C18.5,21.189,18.3,20.5,18.09,19.8a.943.943,0,0,0-.054-.116c-.04.008-.081,0-.1.021a5.1,5.1,0,0,1-2.951,1.111,2.346,2.346,0,0,1-.921-.15,3.689,3.689,0,0,1-2.619-2.6c-.117-.357-.173-.733-.269-1.152l-.233.25c-.712.773-1.411,1.558-2.141,2.313a7.341,7.341,0,0,1-.873.666,3.4,3.4,0,0,1-.5.391,16.008,16.008,0,0,1-1.915.872,4.294,4.294,0,0,1-4.026-.714c-.093-.066-.145-.187-.234-.261a1.786,1.786,0,0,0-.3-.164L.139,19.107l.078-.345a3.212,3.212,0,0,1-.172-.524,6.134,6.134,0,0,1,.7-3.66c.321-.613.671-1.213.958-1.842a10.974,10.974,0,0,1,2.45-3.15A4.161,4.161,0,0,1,5.794,8.407a6.624,6.624,0,0,1,1.874-.282A1.431,1.431,0,0,1,8.835,9.5c-.012.259-.052.516-.073.774-.018.227-.041.454-.037.681s.038.426.061.652c-.46.464-1.016.3-1.333-.408.568-1.244.6-1.036-.385-1.978-1.939,1.324-3.742,5.122-3.294,8.695.231.343.447.7.7,1.036a.8.8,0,0,0,.982.281A5.347,5.347,0,0,0,7.33,18.18c1.209-1.114,2.463-2.181,3.7-3.271-.011-1.64.29-3.254.328-4.882l-.1-.016a.486.486,0,0,1,.091-.082,2.528,2.528,0,0,1,2.14.244c.556.483,1.116.963,1.656,1.464A2.075,2.075,0,0,1,15.8,12.98a22.471,22.471,0,0,1-.077,3.839c-.023.389.032.783.046,1.174.007.18,0,.361,0,.574a1.206,1.206,0,0,0,.878-.54,5.143,5.143,0,0,0,.633-1.2,20.312,20.312,0,0,0,.827-2.864A21.061,21.061,0,0,0,18.32,11a1,1,0,0,1,.822-.962c.325-.009.65.016.975.033a.664.664,0,0,1,.613.5,5.677,5.677,0,0,1,.409,2.281c-.018.263.08.532.087.8.019.709.01,1.42.024,2.129.019,1,.032,1.99.079,2.983.033.686.116,1.369.184,2.052a1.614,1.614,0,0,0,.118.321,9.833,9.833,0,0,0,2.279-2.878c-.028-.128-.052-.211-.063-.295a2.718,2.718,0,0,1,0-.282l.2.238c.02-.246.036-.451.052-.657l-.05.007-.183-1.359-.05-.032-.062.171-.094-.065.123-.258.064.026c.045-.7.088-1.4.136-2.1.071-1.032.161-2.062.214-3.1.038-.733.017-1.468.046-2.2.015-.377.1-.751.117-1.128.007-.218-.106-.44-.1-.657a6.972,6.972,0,0,1,.13-1.245c.262-1.181.535-2.362.855-3.528A3.833,3.833,0,0,1,25.817.746C25.9.623,26.1.573,26.251.5c.293-.13.6-.226.884-.38a.663.663,0,0,1,.88.083,4.458,4.458,0,0,1,.6,1.158A8.526,8.526,0,0,1,28.8,5.623a5.516,5.516,0,0,1-1.289,2.894,1.505,1.505,0,0,0-.243,1.075c-.033.666.04,1.337.069,2.007,0,.095.014.19.027.356a13.669,13.669,0,0,1,.886-1.251c.575-.645,1.188-1.258,1.806-1.862a.53.53,0,0,1,.736-.1c.3.227.661.435.516.9a5.906,5.906,0,0,1-.336.8c-.149.311-.328.609-.475.922a2.566,2.566,0,0,1-.735,1.029,2.427,2.427,0,0,0-.456.662c-.394.621-.789,1.241-1.172,1.869a.9.9,0,0,0-.065.309c.317.241.607.449.881.676a.561.561,0,0,1,.119.261c.236.75.5,1.493.691,2.256.164.656.235,1.335.358,2,.033.18.114.35.161.528q.119.448.222.9c.062.273.115.547.176.835l.223.081a9.831,9.831,0,0,0,1.038,3.013l.1-.017q.02-.144.041-.288.1.439.2.878l.117-.1.358.526-.011,0h.009l1.485.745.378-.053-.2.168.089.41.323.1c0,.062.034.173-.005.216-.287.306-.569.658-1.05.6-.669-.077-1.334-.188-2.047-.291l.107-.2m.245-3.009s0-.008,0-.013h0l-.1-.076,0-.02.01.017h0l.093.077ZM31.838,28.5h0Zm0,0-.227.022c0-.034.006-.068.009-.1l.217.08" transform="translate(8.346 3.052)" fill="#fff" fill-rule="evenodd"/>
  </g>
</svg>
