<svg xmlns="http://www.w3.org/2000/svg" width="95.309" height="29" viewBox="0 0 95.309 29">
  <g id="logo" transform="translate(2678.804 -182)">
    <path id="logo-2" data-name="logo" d="M87.8,28.876a2.887,2.887,0,0,1-1.328-.694c-.238-.222-.235-.324-.008-.586.251-.289.327-.3.59-.091a2.638,2.638,0,0,0,1.991.654.954.954,0,0,0,.911-1.231.9.9,0,0,0-.582-.571c-.462-.172-.936-.314-1.4-.477a4.362,4.362,0,0,1-.646-.26,1.533,1.533,0,0,1-.257-2.606,2.7,2.7,0,0,1,1.879-.554,2.578,2.578,0,0,1,1.554.419c.419.28.389.687-.068.916a.315.315,0,0,1-.275-.051,1.976,1.976,0,0,0-1.738-.456,1.419,1.419,0,0,0-.641.305.765.765,0,0,0,.233,1.291c.494.215,1.027.34,1.542.508.147.048.293.1.437.158a1.679,1.679,0,0,1,.346,2.958A2.6,2.6,0,0,1,88.768,29a4.218,4.218,0,0,1-.97-.124Zm-6.367.026a2.641,2.641,0,0,1-2.057-2.048,4.38,4.38,0,0,1,0-2.3,2.766,2.766,0,0,1,.981-1.523,2.854,2.854,0,0,1,1.736-.578h.047a3.212,3.212,0,0,1,1.756.451,2.59,2.59,0,0,1,1.035,1.352,5.64,5.64,0,0,1,.224.982c.025.15.05.3.081.454a4.989,4.989,0,0,1-.212,1.261,3.024,3.024,0,0,1-.618,1.1,2.767,2.767,0,0,1-.977.722A2.834,2.834,0,0,1,82.3,29a4.12,4.12,0,0,1-.866-.1Zm-.744-4.721a3.818,3.818,0,0,0-.322,1.508,3.774,3.774,0,0,0,.323,1.507,1.568,1.568,0,0,0,.6.725,1.724,1.724,0,0,0,.931.243,1.515,1.515,0,0,0,1.514-.988,6,6,0,0,0,.276-1.016c.033-.155.066-.316.106-.475-.038-.157-.072-.316-.1-.469a6.614,6.614,0,0,0-.265-1,1.477,1.477,0,0,0-.588-.743,1.724,1.724,0,0,0-.926-.248h-.018a1.539,1.539,0,0,0-1.527.952Zm-13.58,4.541a2.535,2.535,0,0,1-1.713-1.877,3.768,3.768,0,0,1,.377-2.986,2.888,2.888,0,0,1,2.473-1.4,8.063,8.063,0,0,1,1.4.145.751.751,0,0,1,.35.143c.155.121.416.3.394.409a1.485,1.485,0,0,1-.4.6c-.034.037-.231-.023-.321-.084a1.98,1.98,0,0,0-2.581.225,2.408,2.408,0,0,0-.477.818,3.224,3.224,0,0,0-.025,1.963,1.9,1.9,0,0,0,1.742,1.375,3.058,3.058,0,0,0,1.86-.442,1.353,1.353,0,0,1,.367-.1,2.584,2.584,0,0,1-.006.385.884.884,0,0,1-.5.642A3.79,3.79,0,0,1,68.4,29a10.672,10.672,0,0,1-1.289-.28Zm-7.079.187a1.722,1.722,0,0,1-1.239-1.18,1.753,1.753,0,0,1,.364-1.7,3.569,3.569,0,0,1,1.783-.952c.181-.052.365-.1.544-.149.269-.071.547-.146.817-.23a.542.542,0,0,0,.368-.257.575.575,0,0,0-.061-.469,1.09,1.09,0,0,0-.918-.615,2.442,2.442,0,0,0-.383-.03,3.147,3.147,0,0,0-1.479.412l-.059.032a.833.833,0,0,1-.175.08.3.3,0,0,1-.08.012.137.137,0,0,1-.108-.043.173.173,0,0,1-.027-.143.965.965,0,0,1,.523-.866,3.878,3.878,0,0,1,1.568-.349,3.568,3.568,0,0,1,.885.113,1.745,1.745,0,0,1,1.035.683,2.35,2.35,0,0,1,.371,1.325c.012.657.01,1.326.008,1.972,0,.294,0,.6,0,.9,0,.567.059.634.624.709.079.01.126.033.146.069.028.053-.007.125-.042.2a.869.869,0,0,1-.771.532A.928.928,0,0,1,63.1,28.7a2.017,2.017,0,0,1-.212-.235c-.032-.04-.066-.081-.1-.122-.09.045-.18.092-.267.138-.193.1-.375.2-.566.278A2.958,2.958,0,0,1,60.781,29a3.173,3.173,0,0,1-.754-.093Zm2.537-3.5a.451.451,0,0,0-.127.022c-.166.05-.336.1-.5.143-.337.094-.685.192-1.018.316a2.862,2.862,0,0,0-.784.472.961.961,0,0,0-.284,1.032.9.9,0,0,0,.735.7,2.195,2.195,0,0,0,.537.068,2.363,2.363,0,0,0,1.282-.407.6.6,0,0,0,.313-.6,4.3,4.3,0,0,1-.007-.462c0-.067,0-.136,0-.2,0-.084,0-.169,0-.252,0-.193,0-.393,0-.589a.271.271,0,0,0-.048-.2A.138.138,0,0,0,62.564,25.41Zm-19.23,3.547a2.705,2.705,0,0,1-1.5-.668,3,3,0,0,1-.825-1.407,4.307,4.307,0,0,1,0-2.354,2.763,2.763,0,0,1,.992-1.5,2.889,2.889,0,0,1,1.737-.566h.045a3.228,3.228,0,0,1,1.763.454,2.711,2.711,0,0,1,1.058,1.35,2.535,2.535,0,0,1,.15.529c.034.221.055.447.076.666.009.094.018.19.028.285a4.4,4.4,0,0,1-.128,1.039,3.111,3.111,0,0,1-.419.957,2.764,2.764,0,0,1-1.053.966A2.93,2.93,0,0,1,43.924,29a4.341,4.341,0,0,1-.59-.042ZM42.326,24.18a3.663,3.663,0,0,0-.01,2.991,1.6,1.6,0,0,0,.6.746,1.722,1.722,0,0,0,.943.25H43.9a1.545,1.545,0,0,0,1.521-1.04,5.929,5.929,0,0,0,.253-.964c.031-.152.063-.308.1-.465-.037-.153-.069-.31-.1-.462a6.666,6.666,0,0,0-.268-1.018,1.473,1.473,0,0,0-.591-.743,1.745,1.745,0,0,0-.933-.248h-.016a1.549,1.549,0,0,0-1.537.952ZM19.651,29c-.2,0-.419-.014-.658-.033-.12-.01-.23-.021-.333-.035a7.992,7.992,0,0,1-1.611-.36A7.163,7.163,0,0,1,15.781,28a8.9,8.9,0,0,1-1.715-1.319c-.171-.152-.325-.3-.459-.429a1.111,1.111,0,0,0-.336-.242h0a4.978,4.978,0,0,0-1.035.682l0,0h0a9.022,9.022,0,0,1-5.364,2.265A6.8,6.8,0,0,1,0,22.249L0,13.6c0-.034,0-.059,0-.085s0-.064,0-.075l0-1.98a2.263,2.263,0,0,1,.2-.929A2.36,2.36,0,0,1,.768,9.75a.371.371,0,0,1,.09-.106L12.235.463A1.519,1.519,0,0,1,13.244,0h.032a1.465,1.465,0,0,1,.863.344l.109.076A.456.456,0,0,1,14.3.456L25.456,9.55A2.341,2.341,0,0,1,26.52,11.5v1.977a.75.75,0,0,1,0,.078c0,.01,0,.062,0,.072l0,8.663a6.814,6.814,0,0,1-1.884,4.943A6.74,6.74,0,0,1,19.795,29Zm-5.519-3.412c.128.111.261.237.374.344l.2.189a8.424,8.424,0,0,0,3.615,1.907,8.286,8.286,0,0,0,1.343.127h.029c.078,0,.17-.006.263-.013h.006l.021,0,.02,0a5.771,5.771,0,0,0,4.042-1.515,5.982,5.982,0,0,0,1.631-4.341l0-8.65c0-.01,0-.062,0-.072l.426-.013-.424.005s0-.022,0-.039,0-.035,0-.037V11.5a1.5,1.5,0,0,0-.7-1.253.333.333,0,0,1-.037-.027L13.785,1.129l-.075-.052-.029-.02a25.658,25.658,0,0,1,1.174,4.505,18.032,18.032,0,0,1,.291,2.92c0,.176,0,.345-.013.51a8.723,8.723,0,0,1-.619,2.774,6.966,6.966,0,0,1,2.859-.711h0a4.218,4.218,0,0,1,1.518.273,4.278,4.278,0,0,1,1.321.819,4.843,4.843,0,0,1,1.763,3.5q0,.08,0,.161c0,1.91-1.126,4.027-3.346,6.3A16.794,16.794,0,0,1,16.2,24.1c-.847.585-1.653,1.068-2.179,1.369ZM6.867,28.114a8.312,8.312,0,0,0,4.852-2.095c.206-.156.739-.46.9-.548-.529-.3-1.337-.785-2.185-1.37A16.859,16.859,0,0,1,7.975,22.1c-.816-.835-3.439-3.756-3.435-6.791q0-.082,0-.163a4.873,4.873,0,0,1,1.736-3.556A4.862,4.862,0,0,1,9.573,10.23a5.575,5.575,0,0,1,2.413.592,8.108,8.108,0,0,1,1.593,1.02A8.349,8.349,0,0,0,14.287,9.1c.014-.2.022-.4.022-.619A17.186,17.186,0,0,0,14.027,5.7,24.8,24.8,0,0,0,12.8,1.1l-.007.006-.012.01-.078.064L1.508,10.208a.375.375,0,0,1-.084.093,1.485,1.485,0,0,0-.569,1.157v1.978c0,.012,0,.06,0,.071v.017c0,.025,0,.068,0,.075l0,8.65A5.95,5.95,0,0,0,6.867,28.114Zm6.6-3.294a23.018,23.018,0,0,0,4.567-3.292c2.039-2.084,3.111-4.061,3.108-5.728q0-.06,0-.12a4.044,4.044,0,0,0-1.485-2.913,3.367,3.367,0,0,0-1.058-.651,3.482,3.482,0,0,0-1.236-.217,7,7,0,0,0-3.329,1.051,26.1,26.1,0,0,0-1.5,5.4,15.353,15.353,0,0,0-.191,2.334,6.843,6.843,0,0,0,1.129,4.134ZM8.576,21.513a20.008,20.008,0,0,0,3.583,2.71,8.772,8.772,0,0,1-.654-3.545q0-.252.01-.513l-.023,0-.029,0a6.977,6.977,0,0,1-2.969-1.205l0,0,0,0a12.5,12.5,0,0,0-1.424-.75A2.426,2.426,0,0,0,6.212,18a.728.728,0,0,0-.141.013,13.946,13.946,0,0,0,2.506,3.5ZM6.2,17.166a3.256,3.256,0,0,1,1.175.269,13,13,0,0,1,1.537.806,6.905,6.905,0,0,0,2.544,1.095.9.9,0,0,0,.112-.007,20.327,20.327,0,0,1,.407-2.523,5.656,5.656,0,0,1-1.232-.367,11.941,11.941,0,0,1-2.154-1.187,3.631,3.631,0,0,0-2.045-.693,2.781,2.781,0,0,0-1.127.233c-.018.138-.028.261-.032.377q0,.068,0,.137a5.729,5.729,0,0,0,.362,1.929,1.434,1.434,0,0,1,.455-.068Zm.354-3.444a4.448,4.448,0,0,1,2.508.839,7.657,7.657,0,0,0,3.107,1.429,29.154,29.154,0,0,1,1.08-3.338,6.962,6.962,0,0,0-1.329-.949,4.8,4.8,0,0,0-2.3-.643A4.094,4.094,0,0,0,6.84,12.205a4.431,4.431,0,0,0-1.173,1.624,3.7,3.7,0,0,1,.883-.106Zm50.469,15.1a.893.893,0,0,1-.852-.649,2.363,2.363,0,0,1-.075-.633c-.007-1,0-2,0-3,0-1.216-.874-1.723-1.968-1.145a1.408,1.408,0,0,0-.872,1.412c.051,1.173.014,2.35.014,3.526,0,.358-.06.417-.427.431-.069,0-.138,0-.207,0-.392-.011-.439-.057-.439-.44v-3.76a1.219,1.219,0,0,0-.6-1.239,1.413,1.413,0,0,0-1.5.154,1.483,1.483,0,0,0-.763,1.377c.039,1.155.011,2.312.01,3.468,0,.382-.049.429-.442.441-.069,0-.138,0-.207,0-.365-.013-.426-.074-.426-.432,0-1.428,0-2.856,0-4.284a1.46,1.46,0,0,0-.307-1.064c-.042-.047-.048-.2-.015-.224a2.21,2.21,0,0,1,.779-.414c.286-.037.415.28.513.528a3.783,3.783,0,0,1,.106.391c1.215-1.275,3-1.356,3.717.017.312-.212.614-.442.938-.634a2.659,2.659,0,0,1,1.644-.348,1.618,1.618,0,0,1,1.52,1.7c.01,1.088,0,2.176,0,3.264,0,.586.01.592.567.758a.225.225,0,0,1,.088.2.994.994,0,0,1-.783.6Zm20.3,0a.91.91,0,0,1-.825-.811,6.169,6.169,0,0,1-.042-.812c0-.834,0-1.669,0-2.5,0-.117,0-.233-.007-.349A1.109,1.109,0,0,0,75.024,23.2a2.263,2.263,0,0,0-1.605,1.228.859.859,0,0,0-.065.394c0,1.174,0,2.348,0,3.522,0,.342-.056.4-.4.416h-.087c-.534.007-.568-.028-.568-.567,0-1.407,0-2.814,0-4.22A1.478,1.478,0,0,0,72,23a.292.292,0,0,1,.019-.285,2.63,2.63,0,0,1,.589-.359c.2-.087.444.078.567.378a5.572,5.572,0,0,1,.178.585c.437-.27.854-.568,1.306-.8a2.166,2.166,0,0,1,1.857-.064,1.421,1.421,0,0,1,.966,1.272c.049.861.031,1.726.04,2.589,0,.32,0,.64,0,.96,0,.593.059.66.632.757.057.357-.378.787-.773.787l-.055,0ZM34.205,26.63a4.58,4.58,0,0,1-.035-1.446,3.984,3.984,0,0,1,.466-1.381,2.891,2.891,0,0,1,1.1-1.1,2.924,2.924,0,0,1,1.441-.388,2.446,2.446,0,0,1,1.2.3.171.171,0,0,0,.058.016l.047.009c0-.033,0-.065.006-.1,0-.065.008-.126.008-.188q0-.257,0-.513v0c0-.551,0-1.121-.005-1.68,0-.234.091-.336.316-.342.025,0,.05,0,.074,0l.071,0,.143,0c.192,0,.315.018.379.1a.847.847,0,0,1,.071.467v6.966a.5.5,0,0,0,.589.652c.1.01.154.037.176.08s-.014.138-.063.216a.91.91,0,0,1-.752.51,1.128,1.128,0,0,1-.759-.38,1.233,1.233,0,0,1-.135-.171c-.022-.03-.043-.062-.068-.094A2.713,2.713,0,0,1,37.1,28.8a3.656,3.656,0,0,1-.386.021A2.42,2.42,0,0,1,34.205,26.63Zm3.074-3.475a1.772,1.772,0,0,0-1.008.324,2.05,2.05,0,0,0-.713.879,3.612,3.612,0,0,0-.221,2.095,1.987,1.987,0,0,0,.609,1.151,1.6,1.6,0,0,0,1.066.413,1.808,1.808,0,0,0,1.171-.457.73.73,0,0,0,.3-.622c-.011-.335-.008-.675-.006-1.005,0-.134,0-.273,0-.409v-1.3a1.053,1.053,0,0,0-.191-.687,1.082,1.082,0,0,0-.634-.341,1.647,1.647,0,0,0-.371-.042h0Zm55.459,4.337c-.059-.727-.041-1.46-.048-2.191-.007-.661,0-1.323,0-1.972a.709.709,0,0,0-.336-.045c-.217,0-.412.01-.4-.336a.65.65,0,0,1,.159-.472.668.668,0,0,1,.375-.055c.067,0,.136,0,.2,0,0-.332.024-.649-.007-.961a.559.559,0,0,1,.435-.633c.075-.028.148-.059.224-.081.387-.111.442-.073.443.311,0,.45,0,.9,0,1.386.422,0,.81,0,1.2,0,.342,0,.4.09.245.383a.7.7,0,0,1-.747.457,5.871,5.871,0,0,0-.657,0,.645.645,0,0,0-.035.134c0,1.174-.018,2.348.02,3.52.025.793.389,1.064,1.222,1.023.087,0,.175,0,.261,0,.026.407-.477.856-.95.87h-.053a1.482,1.482,0,0,1-1.551-1.33ZM60.749,21.634c-.185-.192-.074-.317.058-.461.338-.371.668-.749,1.007-1.119a3.045,3.045,0,0,1,.3-.249,3.029,3.029,0,0,1,.472.52c.04.071-.077.277-.176.363-.381.328-.784.632-1.179.944a.438.438,0,0,1-.259.118.315.315,0,0,1-.225-.116Zm18.884-4.582c-.257-.445-.488-.907-.76-1.343a8.871,8.871,0,0,0-.693-.936.533.533,0,0,0-.7-.157c-.656.294-.529.075-.54.8-.008.56-.011,1.121,0,1.681.006.24-.1.336-.326.348-.05,0-.1,0-.148,0-.562.01-.608-.033-.608-.573V8.989c0-.445.047-.492.5-.5.035,0,.072,0,.108,0l.1,0c.268,0,.375.108.373.389-.013,1.392-.006,2.783-.006,4.175v.831a4.608,4.608,0,0,0,2.225-1.529,7.4,7.4,0,0,0,.611-1.02c.121-.218.854-.352,1-.153a.4.4,0,0,1-.016.318A5.045,5.045,0,0,1,79.321,13.5c-.2.172-.413.325-.639.5a4.738,4.738,0,0,1,1.59,2.092.888.888,0,0,0,.9.614c.177-.012.211.094.131.222a1.016,1.016,0,0,1-.738.573q-.063.006-.124.006A.881.881,0,0,1,79.633,17.052Zm3.766.384a1.692,1.692,0,0,1-1.272-1.172,1.786,1.786,0,0,1,.413-1.767,3.65,3.65,0,0,1,1.752-.91c.508-.146,1.018-.286,1.449-.4a.366.366,0,0,0,.283-.486.937.937,0,0,0-.654-.747,2.224,2.224,0,0,0-.725-.122,2.918,2.918,0,0,0-1.192.282c-.074.033-.147.071-.218.107s-.165.085-.251.121a.36.36,0,0,1-.136.033.122.122,0,0,1-.1-.039.226.226,0,0,1-.029-.182.95.95,0,0,1,.551-.852,3.919,3.919,0,0,1,1.548-.333,3.641,3.641,0,0,1,.861.1,1.746,1.746,0,0,1,1.392,1.653c.04.446.045.9.051,1.345,0,.055,0,.11,0,.166,0,.358,0,.722,0,1.074,0,.239,0,.486,0,.73,0,.513.107.624.623.655a.548.548,0,0,1,.076.012l.053.01a.9.9,0,0,1-.2.478.72.72,0,0,1-.405.281,1,1,0,0,1-1.1-.571c-.147.058-.292.122-.433.185a4.773,4.773,0,0,1-.974.351,3.483,3.483,0,0,1-.687.067,3.278,3.278,0,0,1-.686-.07Zm2.554-3.51a.9.9,0,0,0-.208.04c-.107.029-.217.055-.324.081a5.506,5.506,0,0,0-.762.223,5.809,5.809,0,0,0-1.147.593.77.77,0,0,0-.324.484,1.426,1.426,0,0,0,.019.6.89.89,0,0,0,.722.679,2.167,2.167,0,0,0,.544.071,2.366,2.366,0,0,0,1.258-.391.639.639,0,0,0,.347-.648,3.8,3.8,0,0,1-.008-.462c0-.068,0-.138,0-.207v-.235h0v-.52c0-.226-.012-.3-.12-.3ZM53,16.089a4.008,4.008,0,0,1-.48-1.88,4.063,4.063,0,0,1,.5-1.881,2.349,2.349,0,0,1,.907-.955,3.2,3.2,0,0,1,1.277-.389,3.789,3.789,0,0,1,.4-.021,3.039,3.039,0,0,1,1.168.224,2.641,2.641,0,0,1,1.269,1.033,3.491,3.491,0,0,1,.49,1.544,2.44,2.44,0,0,1,0,.316c0,.048,0,.1,0,.148a3.413,3.413,0,0,1-.355,1.743,2.722,2.722,0,0,1-2.552,1.535h-.069A2.646,2.646,0,0,1,53,16.089Zm.953-3.236a5.414,5.414,0,0,0-.216.913c-.027.152-.055.309-.088.471.034.14.063.282.095.432a6.06,6.06,0,0,0,.271,1.01,1.538,1.538,0,0,0,1.548,1,1.693,1.693,0,0,0,.946-.259,1.662,1.662,0,0,0,.6-.75,3.666,3.666,0,0,0,.057-2.8,1.616,1.616,0,0,0-1.6-1.132h-.016a1.613,1.613,0,0,0-1.6,1.115Zm-4.912,3c-.013-1.183,0-2.366,0-3.549v-.324c-.324-.071-.781.132-.76-.466.014-.4.237-.4.473-.4a.947.947,0,0,0,.288-.028,9.267,9.267,0,0,0-.007-.943.551.551,0,0,1,.419-.637c.1-.037.2-.074.308-.1.308-.079.354-.048.355.255,0,.469,0,.939,0,1.458.4,0,.768,0,1.139,0,.391,0,.449.11.254.451a.658.658,0,0,1-.69.389,6.777,6.777,0,0,0-.687,0c-.006.109-.016.2-.016.291,0,1.039,0,2.078,0,3.117a2.88,2.88,0,0,0,.057.544.859.859,0,0,0,.919.732c.175,0,.35,0,.544,0a1.061,1.061,0,0,1-1,.865A1.542,1.542,0,0,1,49.039,15.855ZM44.2,17.374a2.785,2.785,0,0,1-1.479-.873,2.741,2.741,0,0,1-.614-1.586,4.638,4.638,0,0,1,.139-1.717,3.085,3.085,0,0,1,.925-1.457,2.87,2.87,0,0,1,1.96-.778,3.53,3.53,0,0,1,1.216.23,1.562,1.562,0,0,1,1,1.114,1.671,1.671,0,0,1-.41,1.525,3.068,3.068,0,0,1-.92.675,5.076,5.076,0,0,1-1.084.373c-.354.084-.719.146-1.072.207-.159.027-.324.056-.486.086A1.562,1.562,0,0,0,44.557,16.5a2.767,2.767,0,0,0,.8.121,2.967,2.967,0,0,0,1.45-.4c.086-.048.177-.091.265-.132l.121-.058a.817.817,0,0,1-.349.994,3,3,0,0,1-1.654.485,4.035,4.035,0,0,1-.99-.132Zm.977-5.637a1.629,1.629,0,0,0-1.32.656,2.693,2.693,0,0,0-.462.977,4.525,4.525,0,0,0-.122,1.107,5.064,5.064,0,0,0,1.888-.456A3.255,3.255,0,0,0,46,13.4a1.006,1.006,0,0,0,.19-1.158.923.923,0,0,0-.945-.507h-.066ZM66.5,17.068a1.674,1.674,0,0,1-.177-.685c-.021-.8-.008-1.593-.008-2.389,0-.825.01-1.65-.006-2.476-.005-.267.1-.369.362-.369.04,0,.08-.005.12-.007.568-.017.617.028.617.562v4.347c0,.485.06.544.548.66.057.013.14.163.118.206a.937.937,0,0,1-.725.584q-.053.005-.1.005a.794.794,0,0,1-.743-.437Zm5.781.436a3.066,3.066,0,0,1-2.587-1.2c-.884-1.219-.851-4.005,1.114-4.971a3.683,3.683,0,0,1,2.838-.165,1.382,1.382,0,0,1,.187.085c.564.281.6.621.1,1a.358.358,0,0,1-.324.01,1.984,1.984,0,0,0-3.2,1.278,3.218,3.218,0,0,0,.115,1.855,1.865,1.865,0,0,0,1.685,1.212,2.918,2.918,0,0,0,1.857-.444,1.536,1.536,0,0,1,.346-.11,1.521,1.521,0,0,1,.024.386.9.9,0,0,1-.463.637,3.143,3.143,0,0,1-1.593.428h-.1Zm-12.74-.068a.333.333,0,0,1-.127-.253,1.851,1.851,0,0,1,.621-1.388l1.559-1.571c-.112-.158-.213-.308-.321-.453-.535-.726-1.073-1.451-1.607-2.179-.218-.3-.17-.4.195-.44a1.056,1.056,0,0,1,1.149.491c.4.637.882,1.224,1.356,1.869.593-.671,1.324-1.206,1.413-2.16.006-.064.1-.123.158-.178.018-.017.056-.014.085-.016.78-.047.816-.022.656.691a2.107,2.107,0,0,1-.448.827c-.376.457-.795.881-1.208,1.307a.249.249,0,0,0-.021.39q.964,1.279,1.9,2.574a1.875,1.875,0,0,1,.166.381,2.306,2.306,0,0,1-.431.136A.956.956,0,0,1,63.649,17c-.485-.722-1.027-1.407-1.563-2.131a7.367,7.367,0,0,0-1.6,1.938,1.031,1.031,0,0,0-.075.218.591.591,0,0,1-.579.477A.685.685,0,0,1,59.542,17.436ZM39.5,17.275c-.251-.336-.494-.679-.741-1.019l-3.575-4.933c-.055-.076-.118-.147-.177-.221l-.063.03v.407c0,1.838,0,3.676-.006,5.514,0,.135-.081.379-.141.385a3.241,3.241,0,0,1-.782-.051c-.031,0-.06-.155-.06-.238,0-2.595,0-5.189-.006-7.784,0-.246.1-.331.324-.344a.8.8,0,0,1,.79.354c1.389,1.972,2.8,3.927,4.205,5.888.055.077.116.149.214.274.007-.161.015-.262.015-.364q0-2.86,0-5.72c0-.387.027-.416.4-.431.033,0,.065,0,.1,0s.071,0,.105,0c.275-.013.385.1.384.4-.011,2.516-.005,5.032-.009,7.548,0,.182.081.405-.186.5a.809.809,0,0,1-.258.042.668.668,0,0,1-.535-.231ZM84.081,10.3c-.162-.19-.071-.312.052-.458.323-.389.633-.791.963-1.172.083-.1.274-.217.33-.18a3.668,3.668,0,0,1,.512.5,1.6,1.6,0,0,1-.181.261q-.6.538-1.215,1.064a.383.383,0,0,1-.238.115.3.3,0,0,1-.224-.129Zm-17.164-.225c-.414,0-.609-.233-.607-.712s.2-.7.619-.7.624.23.619.729c0,.466-.2.686-.619.686Z" transform="translate(-2678.804 182)" fill="#fff"/>
  </g>
</svg>
