<svg id="Vrstva_1" data-name="Vrstva 1" xmlns="http://www.w3.org/2000/svg" viewBox="0 0 1657.6883 479.2919"><defs><style>.cls-1{fill:#fff;}.cls-2{fill:#00b3d3;}</style></defs><title>Logo Natios bez pozadi</title><path class="cls-1" d="M506.1182,530.1543H516.522q10.4019,0,15.6064-3.05,5.1965-3.0425,5.2021-9.8652V310.9482q0-6.8115-5.2021-9.8662-5.2046-3.0439-15.6064-3.05H506.1182v-9.6865h69.9595L711.6914,494.2773V310.9482q0-6.8115-5.2021-9.8662-5.2053-3.0439-15.6064-3.05H680.4785v-9.6865h80.7227v9.6865H750.438q-20.811,0-20.8086,12.916V539.4824H708.8213L555.269,309.1543v208.085q0,12.9155,20.8086,12.915H586.84v9.3281H506.1182Z" transform="translate(-153.966 -202.9014)"/><path class="cls-1" d="M1030.2715,530.1543v9.3281H939.5044v-9.3281h6.0991q7.8875,0,12.3774-2.87a8.9165,8.9165,0,0,0,4.4839-7.8926,19.2919,19.2919,0,0,0-1.0762-6.1l-17.938-49.15H842.9961l-18.2969,49.15a9.9548,9.9548,0,0,0-.7178,4.3057q0,5.7437,5.3818,9.1484a22.92,22.92,0,0,0,12.5566,3.4082h6.458v9.3281H770.8843v-9.3281h5.3813a34.0485,34.0485,0,0,0,14.7095-3.5879q7.5344-3.5815,9.6865-9.3271l85.0278-223.1533,26.19-10.7627L1001.57,517.5977q2.1533,5.7437,8.791,9.1484a29.0989,29.0989,0,0,0,13.4531,3.4082ZM938.4282,449.791l-44.4873-122.34-45.563,122.34Z" transform="translate(-153.966 -202.9014)"/><path class="cls-1" d="M1064.3535,530.1543h10.0449q21.1641,0,21.167-12.915V303.0552h-49.8682q-14.354,0-20.0908,17.9385a126.2744,126.2744,0,0,0-6.0986,36.2354H1009.82V288.3457h206.65V357.229h-9.6875a148.8056,148.8056,0,0,0-6.6367-36.5942q-5.5664-17.5737-19.5527-17.58h-49.8691V517.2393q0,12.9155,20.8086,12.915h10.4043v9.3281h-97.584Z" transform="translate(-153.966 -202.9014)"/><path class="cls-1" d="M1239.43,530.1543h10.4043q20.8022,0,20.8086-12.915V310.9482q0-12.9155-20.8086-12.916H1239.43v-9.6865h97.584v9.6865h-10.0449q-21.1729,0-21.167,12.916v206.291q0,12.9155,21.167,12.915h10.0449v9.3281H1239.43Z" transform="translate(-153.966 -202.9014)"/><path class="cls-1" d="M1390.8252,509.167q-31.5747-33.9038-31.5713-95.2529,0-60.9873,31.5713-95.0732,31.5659-34.08,91.127-34.0825,59.1958,0,90.7676,34.0825,31.5659,34.0884,31.5713,95.0732,0,61.3491-31.3916,95.2529Q1541.5,543.0693,1481.9521,543.07,1422.3931,543.07,1390.8252,509.167Zm155.8838-11.66q22.0649-30.4893,22.0645-83.5928,0-53.0918-22.0645-83.5928-22.0635-30.4893-65.1162-30.4951-42.6987,0-64.7568,30.6748-22.0649,30.6746-22.0645,83.4131,0,53.1006,22.0645,83.5928,22.0635,30.498,64.7568,30.4951Q1524.6445,528.002,1546.709,497.5068Z" transform="translate(-153.966 -202.9014)"/><path class="cls-1" d="M1688.5977,537.33a206.4414,206.4414,0,0,1-30.4951-14.3506q-8.61-5.02-10.7627-5.0234a2.644,2.644,0,0,0-2.332,1.6152,9.2928,9.2928,0,0,0-.8975,4.4844v15.4268h-12.915v-68.166H1641.6a56.0744,56.0744,0,0,0,13.0947,29.7783,75.037,75.037,0,0,0,26.9072,20.0908,80.0287,80.0287,0,0,0,33.1865,7.1748q27.6211,0,44.4863-12.915,16.86-12.9155,16.8623-36.9531,0-14.707-8.79-25.293A74.8078,74.8078,0,0,0,1746,435.6191q-12.5625-6.9961-34.8-16.6821-24.7559-10.4019-39.6436-19.0146a86.1414,86.1414,0,0,1-25.293-22.0645q-10.4106-13.4539-10.4043-33.1855,0-29.06,22.6016-44.4873,22.6025-15.4211,60.2734-15.4268,17.9355,0,31.0332,4.6636a233.4108,233.4108,0,0,1,27.8047,12.1982q6.0952,3.9521,8.251,3.9463,2.1533,0,2.1523-3.2285V286.1934H1801.25v68.5244h-10.4043q-2.8755-25.8318-20.8076-40.3613-17.9443-14.5305-43.77-14.53-25.8311,0-40.3613,10.9424-14.53,10.9482-14.53,29.5981a32.8626,32.8626,0,0,0,8.0723,22.2437,65.78,65.78,0,0,0,19.9111,15.4272q11.84,6.1047,32.6484,14.7095,25.4692,10.4092,41.4375,19.373a85.3892,85.3892,0,0,1,27.0869,24.0371q11.1152,15.0688,11.1211,37.3125,0,33.0117-24.3955,51.3037-24.4028,18.2959-62.7842,18.2969Q1704.0239,543.07,1688.5977,537.33Z" transform="translate(-153.966 -202.9014)"/><path class="cls-2" d="M511.5308,610.5352h10.5381v70.2881H511.5308Z" transform="translate(-153.966 -202.9014)"/><path class="cls-2" d="M550.31,678.88q-3.0579-3.3135-3.0562-9.4082v-31.748h-8.43v-7.7988h8.43V616.0156h9.4844v13.9092h10.3271v7.7988H556.7378v30.2314a7.8942,7.8942,0,0,0,1.2646,4.6406,4.2212,4.2212,0,0,0,3.688,1.8,7.8778,7.8778,0,0,0,3.0034-.58,5.6128,5.6128,0,0,0,2.16-1.4229l2.4238,6.7793q-3.4775,3.0205-9.9058,3.0215Q553.3655,682.1934,550.31,678.88Z" transform="translate(-153.966 -202.9014)"/><path class="cls-2" d="M584.5576,625.4463q-1.37-9.5361-1.37-10.59a5.3516,5.3516,0,0,1,1.5806-3.8467,5.2109,5.2109,0,0,1,3.8989-1.6338,5.3867,5.3867,0,0,1,3.9517,1.6338,5.2663,5.2663,0,0,1,1.6333,3.8467q0,1.0547-1.37,10.59-1.3711,9.5391-1.897,13.0146h-4.5312Q585.9258,634.9834,584.5576,625.4463Z" transform="translate(-153.966 -202.9014)"/><path class="cls-2" d="M611.8506,667.5459a21.6749,21.6749,0,0,0,7.4819,5.1631,23.39,23.39,0,0,0,9.5894,2.1074q5.2683,0,8.1143-2.0937a6.7248,6.7248,0,0,0,2.8452-5.7207,6.0081,6.0081,0,0,0-3.1616-5.4941,34.949,34.949,0,0,0-9.168-3.3408,77.9653,77.9653,0,0,1-9.6421-2.7158,16.2842,16.2842,0,0,1-6.4282-4.3018,11.1217,11.1217,0,0,1-2.687-7.8379,12.5359,12.5359,0,0,1,2.3184-7.3252,16.0033,16.0033,0,0,1,6.6914-5.3271,24.8027,24.8027,0,0,1,10.38-1.998q11.6968,0,19.39,6.9727l-4.2148,6.6211a16.9528,16.9528,0,0,0-6.3228-4.4785,21.7294,21.7294,0,0,0-8.7466-1.7393,13.7974,13.7974,0,0,0-7.64,1.833,5.6553,5.6553,0,0,0-2.7925,4.9561,4.9419,4.9419,0,0,0,2.9507,4.5791,39.1714,39.1714,0,0,0,8.8516,2.9639,73.4758,73.4758,0,0,1,9.9585,2.8545,16.5564,16.5564,0,0,1,6.6387,4.7061,12.7079,12.7079,0,0,1,2.793,8.6162,13.8342,13.8342,0,0,1-5.4272,11.2588q-5.4287,4.39-15.1221,4.3887a35.3486,35.3486,0,0,1-11.9077-1.9463,24.4559,24.4559,0,0,1-9.2734-5.7461Z" transform="translate(-153.966 -202.9014)"/><path class="cls-2" d="M703.8442,610.5352h9.4839v26.7666a21.65,21.65,0,0,1,7.3765-6.375,19.6673,19.6673,0,0,1,9.2734-2.2656,21.0745,21.0745,0,0,1,11.75,3.3252,22.4359,22.4359,0,0,1,8.0088,9.3975,35.9865,35.9865,0,0,1,0,28.2969,20.9588,20.9588,0,0,1-19.7588,12.5127,19.2764,19.2764,0,0,1-9.3262-2.3711,22.5184,22.5184,0,0,1-7.3237-6.2705v7.2715h-9.4839Zm15.3853,61.6738a16.9463,16.9463,0,0,0,8.22,2.1865,13.5771,13.5771,0,0,0,11.2227-5.248q4.1616-5.2456,4.1626-13.666,0-8.417-4.1626-13.7187a13.5252,13.5252,0,0,0-11.2227-5.3037,16.0424,16.0424,0,0,0-8.167,2.2969,16.4421,16.4421,0,0,0-5.9541,5.5752v22.4111A14.7205,14.7205,0,0,0,719.2295,672.209Z" transform="translate(-153.966 -202.9014)"/><path class="cls-2" d="M772.6558,641.9648a24.9763,24.9763,0,0,1,9.1152-9.7129,24.565,24.565,0,0,1,13.12-3.5908,23.95,23.95,0,0,1,13.12,3.582,23.3766,23.3766,0,0,1,8.6411,9.8535,32.1624,32.1624,0,0,1,3.0029,14.0684v2.3184H779.4a17.7979,17.7979,0,0,0,5.2163,11.6523,16.339,16.339,0,0,0,12.0659,4.6807,22.7533,22.7533,0,0,0,8.2192-1.58,18.63,18.63,0,0,0,6.85-4.4268l4.4263,6.2061a25.8265,25.8265,0,0,1-9.01,5.333,34.1124,34.1124,0,0,1-11.4336,1.8447,26.9427,26.9427,0,0,1-13.541-3.3789,24.4646,24.4646,0,0,1-9.3789-9.4492,29.7229,29.7229,0,0,1-.1577-27.4Zm13.9624-3.6768a15.05,15.05,0,0,0-5.2163,5.7031,18.3225,18.3225,0,0,0-2.0679,7.1152h31.0474a17.2206,17.2206,0,0,0-1.7915-7.1152,14.1249,14.1249,0,0,0-5.1636-5.7031,15.3894,15.3894,0,0,0-8.5356-2.251A14.7278,14.7278,0,0,0,786.6182,638.2881Z" transform="translate(-153.966 -202.9014)"/><path class="cls-2" d="M844.3125,678.88q-3.0579-3.3135-3.0562-9.4082v-31.748h-8.43v-7.7988h8.43V616.0156h9.4844v13.9092h10.3271v7.7988H850.7407v30.2314a7.8942,7.8942,0,0,0,1.2646,4.6406,4.2212,4.2212,0,0,0,3.688,1.8,7.8778,7.8778,0,0,0,3.0034-.58,5.6128,5.6128,0,0,0,2.16-1.4229l2.4238,6.7793q-3.4775,3.0205-9.9058,3.0215Q847.3684,682.1934,844.3125,678.88Z" transform="translate(-153.966 -202.9014)"/><path class="cls-2" d="M884.3564,678.88q-3.0579-3.3135-3.0562-9.4082v-31.748h-8.43v-7.7988h8.43V616.0156h9.4844v13.9092h10.3271v7.7988H890.7847v30.2314a7.8942,7.8942,0,0,0,1.2646,4.6406,4.2212,4.2212,0,0,0,3.688,1.8,7.8778,7.8778,0,0,0,3.0034-.58,5.6128,5.6128,0,0,0,2.16-1.4229l2.4238,6.7793q-3.4775,3.0205-9.9058,3.0215Q887.4124,682.1934,884.3564,678.88Z" transform="translate(-153.966 -202.9014)"/><path class="cls-2" d="M919.5532,641.9648a24.9763,24.9763,0,0,1,9.1152-9.7129,24.565,24.565,0,0,1,13.12-3.5908,23.95,23.95,0,0,1,13.12,3.582,23.3733,23.3733,0,0,1,8.6411,9.8535,32.1624,32.1624,0,0,1,3.0029,14.0684v2.3184H926.2974a17.7979,17.7979,0,0,0,5.2163,11.6523,16.339,16.339,0,0,0,12.0659,4.6807,22.7533,22.7533,0,0,0,8.2192-1.58,18.63,18.63,0,0,0,6.85-4.4268l4.4258,6.2061a25.82,25.82,0,0,1-9.01,5.333,34.1124,34.1124,0,0,1-11.4336,1.8447,26.9427,26.9427,0,0,1-13.541-3.3789,24.4646,24.4646,0,0,1-9.3789-9.4492,29.7229,29.7229,0,0,1-.1577-27.4Zm13.9624-3.6768a15.05,15.05,0,0,0-5.2163,5.7031,18.3225,18.3225,0,0,0-2.0679,7.1152h31.0474a17.2206,17.2206,0,0,0-1.7915-7.1152,14.1249,14.1249,0,0,0-5.1636-5.7031,15.3894,15.3894,0,0,0-8.5356-2.251A14.7278,14.7278,0,0,0,933.5156,638.2881Z" transform="translate(-153.966 -202.9014)"/><path class="cls-2" d="M986.2578,629.9248h9.4844v7.7988a25.0031,25.0031,0,0,1,7.43-6.5342,18.1408,18.1408,0,0,1,9.2207-2.5283v8.8516a14.5742,14.5742,0,0,0-10.9072,1.9941,14.9583,14.9583,0,0,0-5.7432,5.2109v36.1055h-9.4844Z" transform="translate(-153.966 -202.9014)"/><path class="cls-2" d="M1069.6113,678.88q-3.0571-3.3135-3.0557-9.4082v-31.748h-8.4307v-7.7988h8.4307V616.0156h9.4834v13.9092h10.3271v7.7988h-10.3271v30.2314a7.8978,7.8978,0,0,0,1.2646,4.6406,4.2227,4.2227,0,0,0,3.6885,1.8,7.8754,7.8754,0,0,0,3.0029-.58,5.617,5.617,0,0,0,2.1611-1.4229l2.4229,6.7793q-3.4761,3.0205-9.9053,3.0215Q1072.668,682.1934,1069.6113,678.88Z" transform="translate(-153.966 -202.9014)"/><path class="cls-2" d="M1113.7129,678.6035a24.226,24.226,0,0,1-9.0107-9.7148,29.0127,29.0127,0,0,1-3.1611-13.5146,28.7074,28.7074,0,0,1,3.1611-13.4619,24.3226,24.3226,0,0,1,9.0107-9.66,27.3271,27.3271,0,0,1,27.082,0,24.32,24.32,0,0,1,9.01,9.66,28.7074,28.7074,0,0,1,3.1611,13.4619,29.0127,29.0127,0,0,1-3.1611,13.5146,24.2236,24.2236,0,0,1-9.01,9.7148,27.3335,27.3335,0,0,1-27.082,0Zm22.0762-6.8311a16.3874,16.3874,0,0,0,5.4268-6.9434,25.0205,25.0205,0,0,0,0-18.8584,15.96,15.96,0,0,0-5.4268-6.9414,14.26,14.26,0,0,0-8.5352-2.57,13.8866,13.8866,0,0,0-8.4307,2.624,16.7769,16.7769,0,0,0-5.4795,6.9424,22.9875,22.9875,0,0,0-1.8975,9.3477,23.2542,23.2542,0,0,0,1.8975,9.4561,16.7674,16.7674,0,0,0,5.4795,6.9434,13.8859,13.8859,0,0,0,8.4307,2.623A14.059,14.059,0,0,0,1135.7891,671.7725Z" transform="translate(-153.966 -202.9014)"/><path class="cls-2" d="M1207.7617,610.5352h9.4844v26.7666a21.6472,21.6472,0,0,1,7.377-6.375,19.6645,19.6645,0,0,1,9.2734-2.2656,21.07,21.07,0,0,1,11.749,3.3252,22.429,22.429,0,0,1,8.0088,9.3975,35.9809,35.9809,0,0,1,0,28.2969,20.9588,20.9588,0,0,1-19.7578,12.5127,19.2722,19.2722,0,0,1-9.3262-2.3711,22.5151,22.5151,0,0,1-7.3242-6.2705v7.2715h-9.4844Zm15.3857,61.6738a16.9477,16.9477,0,0,0,8.22,2.1865,13.5771,13.5771,0,0,0,11.2227-5.248q4.1616-5.2456,4.1621-13.666,0-8.417-4.1621-13.7187a13.5252,13.5252,0,0,0-11.2227-5.3037,16.0451,16.0451,0,0,0-8.167,2.2969,16.4421,16.4421,0,0,0-5.9541,5.5752v22.4111A14.7205,14.7205,0,0,0,1223.1475,672.209Z" transform="translate(-153.966 -202.9014)"/><path class="cls-2" d="M1276.5732,641.9648a24.9834,24.9834,0,0,1,9.1152-9.7129,24.5679,24.5679,0,0,1,13.12-3.5908,23.9468,23.9468,0,0,1,13.1191,3.582,23.3711,23.3711,0,0,1,8.6416,9.8535,32.1624,32.1624,0,0,1,3.0029,14.0684v2.3184h-40.2549a17.803,17.803,0,0,0,5.2168,11.6523,16.3386,16.3386,0,0,0,12.0654,4.6807,22.7519,22.7519,0,0,0,8.22-1.58,18.622,18.622,0,0,0,6.85-4.4268l4.4258,6.2061a25.8243,25.8243,0,0,1-9.01,5.333,34.1124,34.1124,0,0,1-11.4336,1.8447,26.9427,26.9427,0,0,1-13.541-3.3789,24.4646,24.4646,0,0,1-9.3789-9.4492,29.7249,29.7249,0,0,1-.1582-27.4Zm13.9629-3.6768a15.0491,15.0491,0,0,0-5.2158,5.7031,18.3234,18.3234,0,0,0-2.0684,7.1152h31.0469a17.2124,17.2124,0,0,0-1.791-7.1152,14.13,14.13,0,0,0-5.1641-5.7031,15.3878,15.3878,0,0,0-8.5352-2.251A14.7278,14.7278,0,0,0,1290.5361,638.2881Z" transform="translate(-153.966 -202.9014)"/><path class="cls-2" d="M1383.2158,678.88q-3.0571-3.3135-3.0557-9.4082v-31.748h-8.4307v-7.7988h8.4307V616.0156h9.4834v13.9092h10.3271v7.7988h-10.3271v30.2314a7.8978,7.8978,0,0,0,1.2646,4.6406,4.2227,4.2227,0,0,0,3.6885,1.8,7.8754,7.8754,0,0,0,3.0029-.58,5.617,5.617,0,0,0,2.1611-1.4229l2.4229,6.7793q-3.4761,3.0205-9.9053,3.0215Q1386.2725,682.1934,1383.2158,678.88Z" transform="translate(-153.966 -202.9014)"/><path class="cls-2" d="M1452.66,647.5762q0-6.0923-2.792-8.6045t-8.0615-2.5127a15.769,15.769,0,0,0-8.0088,2.1914,18.7652,18.7652,0,0,0-6.0068,5.292v36.8809h-9.4844V610.5352h9.4844v26.5557a23.6533,23.6533,0,0,1,7.6924-5.9541,22.4,22.4,0,0,1,10.3271-2.4756q16.333,0,16.334,16.2275v35.9346H1452.66Z" transform="translate(-153.966 -202.9014)"/><path class="cls-2" d="M1485.2217,641.9648a24.9834,24.9834,0,0,1,9.1152-9.7129,24.5679,24.5679,0,0,1,13.12-3.5908,23.9468,23.9468,0,0,1,13.1191,3.582,23.3711,23.3711,0,0,1,8.6416,9.8535,32.1624,32.1624,0,0,1,3.0029,14.0684v2.3184h-40.2549a17.803,17.803,0,0,0,5.2168,11.6523,16.3386,16.3386,0,0,0,12.0654,4.6807,22.7519,22.7519,0,0,0,8.22-1.58,18.622,18.622,0,0,0,6.85-4.4268l4.4258,6.2061a25.8243,25.8243,0,0,1-9.01,5.333,34.1124,34.1124,0,0,1-11.4336,1.8447,26.9427,26.9427,0,0,1-13.541-3.3789,24.4646,24.4646,0,0,1-9.3789-9.4492,29.7249,29.7249,0,0,1-.1582-27.4Zm13.9629-3.6768a15.0491,15.0491,0,0,0-5.2158,5.7031,18.3234,18.3234,0,0,0-2.0684,7.1152h31.0469a17.2124,17.2124,0,0,0-1.791-7.1152,14.13,14.13,0,0,0-5.1641-5.7031,15.3878,15.3878,0,0,0-8.5352-2.251A14.7278,14.7278,0,0,0,1499.1846,638.2881Z" transform="translate(-153.966 -202.9014)"/><path class="cls-2" d="M1586.9121,610.5352h9.4844v26.7666a21.6472,21.6472,0,0,1,7.377-6.375,19.6645,19.6645,0,0,1,9.2734-2.2656,21.07,21.07,0,0,1,11.749,3.3252,22.429,22.429,0,0,1,8.0088,9.3975,35.9809,35.9809,0,0,1,0,28.2969,20.9588,20.9588,0,0,1-19.7578,12.5127,19.2722,19.2722,0,0,1-9.3262-2.3711,22.5151,22.5151,0,0,1-7.3242-6.2705v7.2715h-9.4844Zm15.3857,61.6738a16.9477,16.9477,0,0,0,8.22,2.1865,13.5771,13.5771,0,0,0,11.2227-5.248q4.1616-5.2456,4.1621-13.666,0-8.417-4.1621-13.7187a13.5252,13.5252,0,0,0-11.2227-5.3037,16.0451,16.0451,0,0,0-8.167,2.2969,16.4421,16.4421,0,0,0-5.9541,5.5752v22.4111A14.7205,14.7205,0,0,0,1602.2979,672.209Z" transform="translate(-153.966 -202.9014)"/><path class="cls-2" d="M1655.7236,641.9648a24.9834,24.9834,0,0,1,9.1152-9.7129,24.5679,24.5679,0,0,1,13.12-3.5908,23.9468,23.9468,0,0,1,13.1191,3.582,23.3711,23.3711,0,0,1,8.6416,9.8535,32.1624,32.1624,0,0,1,3.0029,14.0684v2.3184h-40.2549a17.803,17.803,0,0,0,5.2168,11.6523,16.3386,16.3386,0,0,0,12.0654,4.6807,22.7519,22.7519,0,0,0,8.22-1.58,18.622,18.622,0,0,0,6.85-4.4268l4.4258,6.2061a25.8243,25.8243,0,0,1-9.01,5.333,34.1124,34.1124,0,0,1-11.4336,1.8447,26.9427,26.9427,0,0,1-13.541-3.3789,24.4646,24.4646,0,0,1-9.3789-9.4492,29.7249,29.7249,0,0,1-.1582-27.4Zm13.9629-3.6768a15.0491,15.0491,0,0,0-5.2158,5.7031,18.3234,18.3234,0,0,0-2.0684,7.1152h31.0469a17.2124,17.2124,0,0,0-1.791-7.1152,14.13,14.13,0,0,0-5.1641-5.7031,15.3878,15.3878,0,0,0-8.5352-2.251A14.7278,14.7278,0,0,0,1669.6865,638.2881Z" transform="translate(-153.966 -202.9014)"/><path class="cls-2" d="M1722.5332,667.5459a21.6865,21.6865,0,0,0,7.4824,5.1631,23.3916,23.3916,0,0,0,9.5889,2.1074q5.269,0,8.1143-2.0937a6.7228,6.7228,0,0,0,2.8457-5.7207,6.0077,6.0077,0,0,0-3.1611-5.4941,34.9693,34.9693,0,0,0-9.168-3.3408,77.976,77.976,0,0,1-9.6426-2.7158,16.2825,16.2825,0,0,1-6.4277-4.3018,11.12,11.12,0,0,1-2.6875-7.8379,12.5393,12.5393,0,0,1,2.3184-7.3252,16,16,0,0,1,6.6914-5.3271,24.8027,24.8027,0,0,1,10.38-1.998q11.6968,0,19.39,6.9727l-4.2148,6.6211a16.9508,16.9508,0,0,0-6.3232-4.4785,21.7237,21.7237,0,0,0-8.7461-1.7393,13.7945,13.7945,0,0,0-7.64,1.833,5.6558,5.6558,0,0,0-2.793,4.9561,4.943,4.943,0,0,0,2.95,4.5791,39.1913,39.1913,0,0,0,8.8525,2.9639,73.4872,73.4872,0,0,1,9.958,2.8545,16.56,16.56,0,0,1,6.6387,4.7061,12.71,12.71,0,0,1,2.793,8.6162,13.8351,13.8351,0,0,1-5.4268,11.2588q-5.4287,4.39-15.1221,4.3887a35.3494,35.3494,0,0,1-11.9082-1.9463,24.4559,24.4559,0,0,1-9.2734-5.7461Z" transform="translate(-153.966 -202.9014)"/><path class="cls-2" d="M1784.4951,678.88q-3.0571-3.3135-3.0557-9.4082v-31.748h-8.4307v-7.7988h8.4307V616.0156h9.4834v13.9092H1801.25v7.7988h-10.3271v30.2314a7.8978,7.8978,0,0,0,1.2646,4.6406,4.2227,4.2227,0,0,0,3.6885,1.8,7.8754,7.8754,0,0,0,3.0029-.58,5.617,5.617,0,0,0,2.1611-1.4229l2.4229,6.7793q-3.4761,3.0205-9.9053,3.0215Q1787.5518,682.1934,1784.4951,678.88Z" transform="translate(-153.966 -202.9014)"/><path class="cls-2" d="M332.5845,302.5183A46.0641,46.0641,0,0,0,295.56,241.339a46.0528,46.0528,0,0,0,37.0241,61.1793Z" transform="translate(-153.966 -202.9014)"/><path class="cls-2" d="M425.0347,346.5175a49.5886,49.5886,0,0,0,11.9993,76.0571V356.2519A49.55,49.55,0,0,0,425.0347,346.5175Z" transform="translate(-153.966 -202.9014)"/><path class="cls-2" d="M401.3985,282.2159a49.6012,49.6012,0,0,0-1.1463-76.9975,49.5945,49.5945,0,0,0,1.1463,76.9975Z" transform="translate(-153.966 -202.9014)"/><path class="cls-2" d="M381.15,480.73a49.5871,49.5871,0,0,0-54.44-54.4462A49.58,49.58,0,0,0,381.15,480.73Z" transform="translate(-153.966 -202.9014)"/><path class="cls-2" d="M235.0252,380.6709a46.0524,46.0524,0,0,0-13.3031-70.2585,46.0477,46.0477,0,0,0,13.3031,70.2585Z" transform="translate(-153.966 -202.9014)"/><path class="cls-2" d="M437.034,495.6645a250.2012,250.2012,0,0,0-11.4-39.2512c-12.1568-31.448-28.6482-52.8423-46.48-70.87,8.6013-23.39,10.0274-58.2115,3.0232-92.7691-6.7127-33.1092-21.0961-66.432-44.25-89.8732l-15.9008,15.6268c19.8973,20.16,32.3766,49.3654,38.3045,78.6043,5.3255,26.2837,5.37,52.208.75,71.3369-2.59-2.3276-5.1779-4.629-7.77-6.93l-1.7953-1.5854c-23.5539-20.8979-66.3873-58.8867-85.9582-101.6764l-20.2665,9.257c21.5411,47.0738,66.6477,87.0938,91.4606,109.1031l1.7953,1.5883c25.06,22.2609,50.333,44.9,66.2979,86.2283,9.699,25.1189,16.1767,57.3149,17.5057,100.7438-4.83-17.25-12.3705-29.8654-21.9024-39.8831-8.7334-9.1831-28.4034-19.1658-52.2915-31.275-7.47-3.7886-15.33-7.7774-21.2671-10.88-8.3817-4.3676-18.5606-10.3237-29.6332-17.6134,1.6185-14.1589.678-31.6-1.5873-48.564-3.4293-25.6279-9.9614-50.8207-15.2383-61.9205l-20.1888,9.5212c4.4959,9.4542,10.2,31.8861,13.3186,55.2768a231.2237,231.2237,0,0,1,2.248,30.6174c-18.6694-13.9589-38.1957-30.8622-55.1048-49.7648-22.803-25.491-40.6962-54.4656-44.6209-84.27L153.966,319.32c4.593,34.85,24.66,67.7648,50.1329,96.2517,36.3664,40.635,84.127,72.54,112.478,87.33,4.51,2.3558,8.4284,4.3871,12.0111,6.2076a126.7239,126.7239,0,0,1-21.9082-2.075c-20.7639-3.6712-43.2764-12.3074-61.3882-25.6989L232.01,499.2467c21.0864,15.5918,47.03,25.591,70.8249,29.8052,22.27,3.9441,43.2414,2.77,57.5879-3.61,11.3874,6.055,20.0236,11.2086,23.855,15.2509,8.918,9.3755,15.5958,22.1433,19.05,41.5958,3.7168,20.8445,3.7362,53.6194-1.0395,92.5631,11.7918,1.0016,23.2775,1.56,34.7457,1.4453Z" transform="translate(-153.966 -202.9014)"/><path class="cls-2" d="M164.55,427.2133A49.5937,49.5937,0,0,0,218.9962,481.66,49.5937,49.5937,0,0,0,164.55,427.2133Z" transform="translate(-153.966 -202.9014)"/></svg>