<?xml version="1.0" encoding="UTF-8"?><svg id="Vrstva_1" xmlns="http://www.w3.org/2000/svg" xmlns:xlink="http://www.w3.org/1999/xlink" viewBox="0 0 61 61"><defs><linearGradient id="Nepojmenovaný_přechod" x1="-262.622" y1="444.9963" x2="-261.622" y2="444.9963" gradientTransform="translate(16020 27175.276) scale(61 -61)" gradientUnits="userSpaceOnUse"><stop offset="0" stop-color="#5aade4"/><stop offset="1" stop-color="#215aa2"/></linearGradient></defs><g id="ico_modra_03"><circle id="Ellipse_8" cx="30.5" cy="30.5" r="30.5" style="fill:url(#Nepojmenovaný_přechod);"/><path id="Path_47" d="m45.739,26.502h0v.6h0c.0159,1.7973-.7114,3.5213-2.01,4.764-.3877.387-.8117.7359-1.266,1.042.3972.234.7499.5364,1.042.893,1.2697,1.2624,1.9917,2.9736,2.01,4.764h0v.67h0c.0159,1.7973-.7114,3.5213-2.01,4.764-1.2624,1.2697-2.9736,1.9917-4.764,2.01h-4.467v1.266c0,2.1379-1.7331,3.871-3.871,3.871s-3.871-1.7331-3.871-3.871v-2.31h0c-.0159-1.7973.7114-3.5213,2.01-4.764.223-.223.447-.372.67-.6h-6.627c-1.7973.0159-3.5213-.7114-4.764-2.01-1.2697-1.2624-1.9917-2.9736-2.01-4.764h0c-.0159-1.7973.7114-3.5213,2.01-4.764.4887-.5034,1.07-.9078,1.712-1.191-.6157-.328-1.1904-.7278-1.712-1.191-1.2697-1.2624-1.9917-2.9736-2.01-4.764h0v-.149h0c-.0159-1.7973.7114-3.5213,2.01-4.764,1.2624-1.2697,2.9736-1.9917,4.764-2.01h4.318v-.6c0-2.1379,1.7331-3.871,3.871-3.871s3.871,1.7331,3.871,3.871v1.638h0c.0159,1.7973-.7114,3.5213-2.01,4.764h6.328c1.7973-.0159,3.5213.7114,4.764,2.01,1.311,1.2057,2.043,2.9151,2.011,4.696h.001Zm-2.01,0c-.036-2.616-2.148-4.728-4.764-4.764h-16.38c-.28.0139-.552-.0958-.744-.3-.1746-.211-.2794-.4709-.3-.744v-.149c-.0139-.28.0958-.552.3-.744.211-.1746.4709-.2794.744-.3h5.36c2.616-.036,4.728-2.148,4.764-4.764v-1.635c0-1.0278-.8332-1.861-1.861-1.861s-1.861.8332-1.861,1.861v1.638c.0139.28-.0958.552-.3.744-.211.1746-.4709.2794-.744.3h-5.358c-2.616.036-4.728,2.148-4.764,4.764v.149c.0366,2.6156,2.1484,4.727,4.764,4.763h16.379c.28-.0139.552.0958.744.3.1746.211.2794.4709.3.744v.6c.0139.28-.0958.552-.3.744-.211.1746-.4709.2794-.744.3h-16.379c-2.6314.0381-4.7336,2.2022-4.6955,4.8335.0373,2.5776,2.1179,4.6581,4.6955,4.6955h16.156c.28-.0139.552.0958.744.3.1746.211.2794.4709.3.744v.67c.0139.28-.0958.552-.3.744-.211.1746-.4709.2794-.744.3h-5.509c-1.2603.0068-2.466.5157-3.35,1.414-.9063.7789-1.4011,1.9335-1.34,3.127v2.308c0,1.0278.8332,1.861,1.861,1.861s1.861-.8332,1.861-1.861h0v-2.319c-.0139-.28.0958-.552.3-.744.211-.1746.4709-.2794.744-.3h5.507c2.616-.036,4.728-2.148,4.764-4.764v-.67c-.036-2.616-2.148-4.728-4.764-4.764h-16.23c-.28.0139-.552-.0958-.744-.3-.1746-.211-.2794-.4709-.3-.744-.0139-.28.0958-.552.3-.744.211-.1746.4709-.2794.744-.3h16.379c2.616-.036,4.728-2.148,4.764-4.764l.001-.369Zm-31.714-7.145c-.4109-.4316-1.0939-.4484-1.5255-.0375-.0128.0122-.0253.0247-.0375.0375-5.9554,5.9642-5.9554,15.6248,0,21.589.4316.4316,1.1314.4316,1.563,0s.4316-1.1314,0-1.563h0c-5.0618-5.1131-5.0618-13.3489,0-18.462.4322-.4103.4499-1.0933.0396-1.5254-.0128-.0135-.026-.0267-.0396-.0396v.001Zm39.083,0c-.4243-.4386-1.1239-.4502-1.5625-.0259s-.4502,1.1239-.0259,1.5625c.0083.0086.0168.0171.0254.0254h0c5.0618,5.1131,5.0618,13.3489,0,18.462-.4316.4316-.4316,1.1314,0,1.563s1.1314.4316,1.563,0c5.9554-5.9642,5.9554-15.6248,0-21.589v.002Z" style="fill:#fff;"/></g></svg>