<?xml version="1.0" encoding="UTF-8"?><svg id="Vrstva_1" xmlns="http://www.w3.org/2000/svg" viewBox="0 0 152.1414 85.6881"><path d="m139.0575,26.1656c2.1733,1.58,2.5533,4.2933,1.14,8.14-.64,1.7333-1.61,3.33-2.91,4.79-.2868.3269-.7534.4283-1.15.25-3.8867-1.7467-6.0567-4.58-6.51-8.5-.18-1.5533-.6733-1.6633-1.48-.33-1.5133,2.5067-3.87,4.0133-7.07,4.52-.4326.0662-.8581-.1566-1.05-.55-1.2267-2.52-1.5933-4.76-1.1-6.72.5933-2.3533,1.6567-3.8267,3.19-4.42,1.3-.5,1.3033-.9967.01-1.49-5.4733-2.1-8-5.6567-7.58-10.67.31-3.77,2.67-7.73,5.01-10.79.261-.3451.717-.4823,1.13-.34,6.66,2.32,10.0667,7.01,10.22,14.07.0467,2.1533.46,2.2233,1.24.21.52-1.3467,1.5833-3.1533,3.19-5.42,3.36-4.7267,7.95-7,13.77-6.82.401.0116.7554.2597.9.63,1.6267,4.1933,2.3233,7.78,2.09,10.76-.5533,7.1067-4.7567,10.85-12.61,11.23-1.5133.0733-1.6567.5567-.43,1.45Z" style="fill:#fff;"/><path d="m8.4275,47.6456l-1.58,11c-.0743.4948-.4997.8606-1,.86l-4.57-.01c-.5577-.0064-1.0053-.4593-.9997-1.0115.0004-.043.0037-.0859.0097-.1285L6.9175,10.7256c.0693-.495.4902-.8649.99-.87l7.98-.04c.4971-.0014.9213.3592,1,.85l7.46,47.69c.0883.5396-.282,1.0487-.8271,1.137-.0539.0087-.1083.0131-.1629.013h-4.85c-.5066.002-.9337-.3863-.99-.9l-1.19-10.98c-.0559-.5107-.4863-.898-1-.9l-5.92.06c-.4911.0051-.9064.3695-.98.86Zm1.26-12.23c-.1667,1.3267-.3133,2.6567-.44,3.99-.0497.55.3559,1.0362.9059,1.0859.0313.0028.0627.0042.0941.0041h3.84c.5578-.0016,1.0093-.4506,1.0084-1.0029,0-.0425-.0029-.085-.0084-.1271l-2.79-20.27c-.0182-.1236-.1026-.2272-.22-.27-.45-.15-2.2,15.09-2.39,16.59Z" style="fill:#fff;"/><path d="m35.4175,53.4956h8.67c.5523-.0001,1.0001.4475,1.0002.9998,0,.0067,0,.0135-.0002.0202l-.05,3.75c-.0055.539-.4455.9746-.99.98l-15.14.21c-.5466.0111-.9988-.4231-1.0098-.9697-.0002-.0101-.0003-.0202-.0002-.0303l.29-47.73c.0042-.5523.4552-.9966,1.0075-.9924.0208.0002.0417.001.0625.0024l4.47.32c.5261.0418.9313.4775.93,1l-.24,41.43c-.0055.5523.4377,1.0044.99,1.0099.0033,0,.0067,0,.01,0Z" style="fill:#fff;"/><path d="m76.7475,59.3156c-.9267.5667-1.8267.53-2.7-.11-.2517-.1829-.4034-.479-.41-.8-.1-12.2267-.0033-24.4333.29-36.62.07-3.02-.69-7.21.05-11.02.0868-.4518.4706-.7861.93-.81l4.65-.22c.5516-.0276,1.0211.3927,1.0487.9388.0009.0171.0013.0342.0013.0512.06,15.46-.0433,30.9367-.31,46.43-.04,1.73-.55,3.11-2.6,2.12-.306-.1494-.6642-.1343-.95.04Z" style="fill:#fff;"/><path d="m93.1475,31.5056l7.13-20.79c.1326-.381.4836-.6452.89-.67l5.1-.3c.5513-.0333,1.0252.3867,1.0584.938.0082.1366-.0116.2734-.0584.402l-8.13,22.71c-.0897.2487-.0753.5258.04.77,1.4733,3.0733,2.6233,6.2267,3.45,9.46.29,1.12,1.14,1.85,1.45,2.78,1.2333,3.7333,2.6,7.4267,4.1,11.08.2099.5109-.0341,1.0951-.545,1.305-.1221.0502-.253.0757-.385.075l-5.1-.02c-.421-.0002-.7969-.2641-.94-.66-2.7067-7.44-5.38-14.8633-8.02-22.27-.3-.8333-.45-.75-.45.25-.0133,7.4.0433,14.8033.17,22.21.0073.5577-.4345,1.0162-.9867,1.0239-.0345.0005-.069-.0008-.1033-.0039l-5-.46c-.5165-.0466-.9117-.4765-.91-.99l-.28-47.24c-.0056-.4179.2593-.7953.66-.94,1.76-.6333,3.55-.6267,5.37.02.3913.1397.6572.5047.67.92l.36,20.39c-.0008.1323.0613.2447.1387.251.0071.0006.0142.0002.0213-.001l.11-.01c.067-.0077.1431-.0999.19-.23Z" style="fill:#fff;"/><path d="m55.1675,56.7456c.1467.7933.07,1.5267-.23,2.2-.17.3798-.5524.6149-.96.59l-4.25-.18c-.5419-.0269-.9658-.4729-.96-1.01l.32-47.35c.0053-.5407.4394-.9792.98-.99,4.54-.09,11.93-.41,15.43,1.87,5.29,3.45,4.62,12.84,3.63,18.14-1.42,7.62-5.35,8.95-12.51,8.93-.5225-.0017-.9582.3992-1,.92-.3533,4.3-.3367,8.9433.05,13.93.06.81-.21,1.7-.46,2.45-.06.16-.0733.3267-.04.5Zm4.51-40.25c-.92-.2-1.8667-.2733-2.84-.22-.5234.0211-.9398.4462-.95.97l-.33,14.22c-.0094.5091.3652.9439.87,1.01,1.8533.2533,3.6033-.0333,5.25-.86.2484-.1273.433-.3517.51-.62.9-3.1,2.75-13.38-2.51-14.5Z" style="fill:#fff;"/><path d="m128.4675,52.5656l1.71.16c.5164.0519.9073.4862.9,1-.04,7.38-10.13,7.65-12.05,1.95-.81-2.39-.41-5.93-.1-8.62.1933-1.7267,1.0867-2.9333,2.68-3.62,8.92-3.89,12.24,7.87,6.54,5.93-.3231-.111-.5681-.3824-.65-.72-.6733-2.8533-2.24-3.28-4.7-1.28-.2228.1786-.3577.4447-.37.73l-.27,6.38c-.0171.4049.212.7801.58.95,3.0867,1.44,4.6333.82,4.64-1.86-.0022-.5523.4436-1.0018.9959-1.0041.0314-.0001.0628.0012.0941.0041Z" style="fill:#fff;"/><path d="m140.1975,55.9256l2.89.11c.5405.0162.9702.4592.97,1l-.01,1.45c0,.5484-.4416.9945-.99,1l-6.72.03c-3.2067.02-3.9833-1.36-2.33-4.14l4.39-7.39c.2818-.4747.1298-1.0874-.3394-1.3685-.1164-.0697-.246-.1145-.3806-.1315-1.18-.1533-2.0333-.1567-2.56-.01-1.5667.4333-2.16-.4333-1.78-2.6.0811-.4654.4831-.8087.96-.82l8.14-.2c.2852-.0126.5627.1006.76.31.7067.7667.8567,1.7233.45,2.87-.3533,1.0067-1.7833,3.81-4.29,8.41-.2655.4843-.0881,1.0921.3962,1.3576.1364.0748.2883.1167.4438.1224Z" style="fill:#fff;"/><rect x="111.6175" y="55.5156" width="4.22" height="3.98" rx=".86" ry=".86" style="fill:#fff;"/><path d="m3.8575,73.2556c1.22-.4067,2.3333-.2933,3.34.34,6.55,4.13-3.75,13.85-6.77,6.09-.4467-1.1333-.5433-4.1133-.29-8.94.0195-.3148.1859-.6032.45-.78,1.32-.88,2.11.25,2.01,1.53-.02.2467-.0367.4933-.05.74-.0387.5509.3765,1.0289.9275,1.0676.1294.0091.2593-.0071.3825-.0476Zm-1.47,4c-.2,2.2333.76,3.27,2.88,3.11.3035-.0256.58-.1915.75-.45,3.12-4.69-3.21-7.27-3.63-2.66Z" style="fill:#fff;"/><ellipse cx="12.4175" cy="70.7756" rx="1.07" ry="1.28" transform="translate(-59.2683 75.727) rotate(-84)" style="fill:#fff;"/><path d="m64.3975,75.7656l2.34-2.21c.397-.3729,1.0194-.3596,1.4.03l.24.25c.312.3206.3083.8303-.0084,1.1384-.0005.0005-.0011.0011-.0016.0016l-1.9,1.81c-.3071.2932-.399.7448-.23,1.13.4733,1.08,1.1933,1.95,2.16,2.61.4539.3147.5668.9377.2521,1.3916-.0774.1117-.1768.2064-.2921.2784-.54.3333-1.2367.2-2.09-.4-.39-.27-1.95-3.35-2.84-3.05-.1619.0542-.2734.2055-.28.38l-.06,2.24c-.0127.4527-.3339.8397-.78.94-2.75.63-1.43-9.77-1.41-11.62.0002-.4247.2738-.8029.68-.94,1.06-.3467,1.5967.15,1.61,1.49.0067,1.3067-.04,2.6033-.14,3.89-.1067,1.3733.3433,1.5867,1.35.64Z" style="fill:#fff;"/><path d="m116.6575,73.1956c1.5467-.4667,2.8133-.2033,3.8.79,1.27,1.28,1.15,3.94,1.19,5.7.0063.22.0835.4307.22.6l.48.59c.2756.3453.2192.8487-.1261,1.1243-.0532.0425-.1117.078-.1739.1057-5.23,2.36-.3-10.45-5.97-6.83-.2863.186-.4593.5057-.46.85v5.29c0,.4418-.3582.8-.8.8h-.42c-.5484,0-.9945-.4416-1-.99l-.09-10.44c-.0055-.5523.4377-1.0044.9899-1.0099.0034,0,.0067,0,.0101,0,1.34,0,1.79.8133,1.35,2.44-.2533.9267.08,1.2533,1,.98Z" style="fill:#fff;"/><path d="m38.4575,77.7456c1.72.6733,2.6533.16,2.8-1.54.0192-.22.1106-.4274.26-.59,1.69-1.83,1.29,2.21.48,3.25-.3403.435-.2636,1.0635.1713,1.4038.1145.0896.2471.1531.3887.1862.1067.0267.22.0433.34.05.3242.0108.6096.221.72.53.87,2.53-3.11.86-3.76.63-.262-.0955-.549-.0774-.79.05-3.92,1.98-9.81-.86-5.4-5.23.2855-.2838.3722-.7133.22-1.09-3.1-7.55,10.32-6.78,4.16.79-.3478.429-.2819,1.0588.1471,1.4065.0793.0643.1679.116.2629.1535Zm-1.33-3.48c.3733-.5733.4633-1.16.27-1.76-.1397-.419-.5891-.6482-1.0038-.512-.0936.0308-.1805.0789-.2562.142-.6.48-.7433,1.1367-.43,1.97.3667.98.84,1.0333,1.42.16Zm-2.61,4.56c-.1.9.3533,1.44,1.36,1.62,2.1133.3733,2.4033-.1933.87-1.7l-.53-.52c-.98-.96-1.5467-.76-1.7.6Z" style="fill:#fff;"/><path d="m12.7275,73.1556c.5056.056.8886.4863.89,1v5.53c.0003.2693.1006.5238.28.71l.42.42c.3079.3169.3006.8234-.0163,1.1313-.0573.0557-.1226.1024-.1937.1387-.8133.4067-1.51.32-2.09-.26-1.1-1.09-.66-6.09-.65-7.7.0027-.5523.4482-.9982.995-.9961.0351.0001.0702.0022.105.0061l.26.02Z" style="fill:#fff;"/><path d="m25.2375,77.7256c0,2.5736-2.0864,4.66-4.66,4.66s-4.66-2.0863-4.66-4.66,2.0863-4.66,4.66-4.66h0c2.5736,0,4.66,2.0863,4.66,4.66h0Zm-4.403,2.8467c1.2644-.1218,2.1654-1.5084,2.0124-3.0971-.153-1.5888-1.302-2.778-2.5664-2.6563h0c-1.2644.1218-2.1654,1.5084-2.0124,3.0971.153,1.5888,1.302,2.778,2.5664,2.6563,0,0,0,0,0,0Z" style="fill:#fff;"/><path d="m54.1075,80.4256c.8467.42,1.8633.3633,3.05-.17.1661-.0749.3616-.001.4365.1652.0108.0239.0187.049.0235.0748l.06.33c.0978.4977-.2001.9899-.69,1.14-3.5067,1.0733-5.65.0867-6.43-2.96-1.9-7.4,9.71-8.05,7.83-1.31-.1182.4227-.4954.7188-.93.73l-2.93.1c-2.62.0933-2.76.7267-.42,1.9Zm1.14-3.55c.5267.12.8667-.0767,1.02-.59.0969-.3195-.0107-.6624-.27-.86-1.1-.86-2.0733-.7667-2.92.28-.2758.3452-.2196.8486.1256,1.1244.0949.0758.2058.1291.3244.1556.3667.08.7633.05,1.19-.09.1706-.0525.3533-.0594.53-.02Z" style="fill:#fff;"/><path d="m79.5675,77.7256c0,2.5792-2.0908,4.67-4.67,4.67s-4.67-2.0908-4.67-4.67,2.0908-4.67,4.67-4.67h0c2.5792,0,4.67,2.0908,4.67,4.67h0Zm-4.5248,2.8952c1.2516-.0722,2.1922-1.4135,2.101-2.9959-.0913-1.5824-1.1798-2.8066-2.4314-2.7345-1.2516.0722-2.1922,1.4135-2.101,2.9959.0913,1.5824,1.1798,2.8066,2.4314,2.7345Z" style="fill:#fff;"/><path d="m90.1875,80.4056c.84.42,1.78.42,2.82,0,.2999-.1156.6358-.0008.79.27,1.51,2.57-9.97,2.75-6.96-4.69,2.49-6.15,10.8-1.41,7.3,2.19-.1861.1918-.441.3031-.71.31l-2.8.02c-2.7333.0267-2.88.66-.44,1.9Zm1.44-3.82c1.2667-.2267,1.37-.7067.31-1.44-.38-.2667-.8267-.3567-1.34-.27-.6.1-1.0467.4167-1.34.95-.4867.88.3033,1.1333,2.37.76Z" style="fill:#fff;"/><path d="m108.2275,79.1656c-1.89-.78-5.44-1.91-3.59-4.82,1.15-1.8,3.79-1.55,5.47-.68.3673.188.5818.5773.54.98-.14,1.52-.9433,1.5833-2.41.19-.2559-.2438-.6639-.2306-.9113.0295-.0064.0067-.0126.0135-.0187.0205l-.19.23c-.3546.4234-.2988,1.0541.1247,1.4087.0879.0736.1878.1315.2953.1713,2.31.87,5.3,2.62,2.27,5.25-1.1067.96-2.6933.9233-4.76-.11-.4133-.2067-.6333-.5033-.66-.89-.0225-.3527.2453-.6569.5981-.6794.0679-.0043.1361.0022.202.0194.81.21,3.39,1,3.43-.5.013-.2704-.1432-.5187-.39-.62Z" style="fill:#fff;"/><path d="m133.0575,77.7256c0,2.5736-2.0863,4.66-4.66,4.66s-4.66-2.0863-4.66-4.66,2.0863-4.66,4.66-4.66,4.66,2.0863,4.66,4.66h0Zm-4.473,2.8946c1.2679-.0775,2.2165-1.4363,2.1187-3.035h0c-.0978-1.5987-1.2048-2.8317-2.4727-2.7542-1.2679.0775-2.2165,1.4363-2.1187,3.035h0c.0978,1.5986,1.2048,2.8317,2.4727,2.7542Z" style="fill:#fff;"/><path d="m137.3875,83.2856l.14,1.51c.0453.434-.2698.8224-.7038.8677-.0087.0009-.0175.0017-.0262.0023l-.35.02c-.5565.0387-1.0389-.372-1.0776-.9174-.0017-.0242-.0025-.0484-.0024-.0726v-10.35c.0031-.5577.4535-1.0084,1.0059-1.0067.0893.0003.1781.0126.2641.0367l1.06.3c.227.0582.4629.0406.67-.05,3-1.33,5.38.09,5.56,3.38.2,3.8-1.6167,5.53-5.45,5.19-.5498-.0522-1.0378.3512-1.09.9011-.006.0628-.006.1261,0,.1889Zm1.3409-2.6416c1.1909.3347,2.5186-.6826,2.9655-2.2723.4468-1.5897-.1564-3.1497-1.3473-3.4845-1.191-.3347-2.5187.6826-2.9655,2.2723-.4468,1.5897.1564,3.1497,1.3473,3.4845Z" style="fill:#fff;"/><rect x="98.6575" y="74.0256" width="1.74" height="5.18" rx=".74" ry=".74" transform="translate(22.565 175.8751) rotate(-89.8)" style="fill:#fff;"/></svg>