<svg id="logo" xmlns="http://www.w3.org/2000/svg" width="113.072" height="26.372" viewBox="0 0 113.072 26.372">
  <path id="Path_48" data-name="Path 48" d="M37.811,5.134a7.486,7.486,0,0,1,0,10.587L26.783,26.749a4.679,4.679,0,0,1-6.617,0l-7.279-7.279L27.224,5.134A7.486,7.486,0,0,1,37.811,5.134Z" transform="translate(-8.867 -2.024)" fill="#fff" fill-rule="evenodd"/>
  <path id="Path_49" data-name="Path 49" d="M7.745,0,9.289,1.544a6.862,6.862,0,0,1,0,9.7L3.554,16.984,2.01,15.44a6.862,6.862,0,0,1,0-9.7Z" transform="translate(0)" fill="#fff" fill-rule="evenodd"/>
  <path id="Path_50" data-name="Path 50" d="M128.931,20.627l4.512-12.164h-2.5L127.764,17.5l-3.174-9.041H122l4.495,12.164Zm6.722-9.813a1.407,1.407,0,1,0,0-2.814,1.407,1.407,0,1,0,0,2.814Zm1.149,9.813V12.186h-2.282v8.441Zm5.35.12a3.385,3.385,0,0,0,1.287-.206V18.654a3.311,3.311,0,0,1-.7.069c-.652,0-1-.24-1-.978V14.211h1.7V12.186h-1.7V9.664h-2.059v1.184a1.216,1.216,0,0,1-1.3,1.338h-.429v2.024h1.527v3.929A2.443,2.443,0,0,0,142.152,20.747Zm5.35.12a2.821,2.821,0,0,0,2.488-1.252,5.716,5.716,0,0,0,.086,1.012h2.093a9.454,9.454,0,0,1-.1-1.338V15.137c0-1.7-1-3.208-3.671-3.208a3.356,3.356,0,0,0-3.62,2.779l2.024.429a1.5,1.5,0,0,1,1.613-1.372c.961,0,1.424.5,1.424,1.1,0,.292-.154.532-.635.6l-2.076.309a2.6,2.6,0,0,0-2.522,2.556A2.665,2.665,0,0,0,147.5,20.867Zm.48-1.7a.99.99,0,0,1-1.1-.978,1.065,1.065,0,0,1,1.047-1.064l1.9-.292v.377A1.715,1.715,0,0,1,147.982,19.169Zm8.352,1.458V8.206h-2.282V20.627Z" transform="translate(-83.945 -5.505)" fill="#fff"/>
  <path id="Path_51" data-name="Path 51" d="M241.282,23.887V19.8a2.966,2.966,0,0,0,2.436,1.029c2.385,0,3.98-1.887,3.98-4.443,0-2.5-1.424-4.392-3.894-4.392a2.951,2.951,0,0,0-2.591,1.218V12.186H239v11.7Zm2.076-5.1a2.156,2.156,0,0,1-2.11-2.385,2.117,2.117,0,1,1,4.2,0A2.134,2.134,0,0,1,243.358,18.791Zm9.621,2.093a4.333,4.333,0,0,0,4.426-4.478,4.427,4.427,0,1,0-8.853,0A4.333,4.333,0,0,0,252.979,20.884Zm0-2.076a2.176,2.176,0,0,1-2.145-2.4,2.158,2.158,0,1,1,4.289,0A2.166,2.166,0,0,1,252.979,18.808Zm7.048-7.995a1.407,1.407,0,1,0,0-2.814,1.407,1.407,0,1,0,0,2.814Zm1.149,9.813V12.186h-2.282v8.441Zm4.406,0V15.772a1.589,1.589,0,0,1,1.578-1.75,1.484,1.484,0,0,1,1.561,1.681v4.924H271V15.309c0-1.853-.961-3.345-3.054-3.345a2.8,2.8,0,0,0-2.436,1.27V12.186H263.3v8.441Zm10.651.12a3.385,3.385,0,0,0,1.287-.206V18.654a3.312,3.312,0,0,1-.7.069c-.652,0-1-.24-1-.978V14.211h1.7V12.186h-1.7V9.664h-2.059v1.184a1.216,1.216,0,0,1-1.3,1.338h-.429v2.024h1.527v3.929A2.443,2.443,0,0,0,276.234,20.747Z" transform="translate(-164.449 -5.505)" fill="#fff"/>
  <path id="Path_52" data-name="Path 52" d="M128.919,68.208A1.639,1.639,0,0,1,130,67.494c.308,0,.43.308.43.616a2.247,2.247,0,0,1-2.23,2.076.989.989,0,0,1-.446-.089,8.318,8.318,0,0,1,.479-.868A7.767,7.767,0,0,1,128.919,68.208Zm-2.3,4.355c.081,0,.122-.057.154-.13l.852-2.036c.373.908.884,2.117,1.638,2.117a1.894,1.894,0,0,0,1.338-.706c.154-.154.308-.324.487-.519a.239.239,0,0,0,.041-.105.148.148,0,0,0-.146-.162.179.179,0,0,0-.122.049,4.968,4.968,0,0,1-.876.876,1.245,1.245,0,0,1-.722.26c-.511,0-.973-1.022-1.257-1.7a1.436,1.436,0,0,0,.195.008,2.587,2.587,0,0,0,2.547-2.384c0-.43-.211-.949-.738-.949a2.051,2.051,0,0,0-1.476,1.014,1.657,1.657,0,0,0,.146-.495c0-.349-.316-.495-.624-.495a1.865,1.865,0,0,0-.722.178c-.26.122-.47.308-.47.56,0,.081.049.138.154.138a.151.151,0,0,0,.154-.13c0-.122.146-.227.316-.3a1.788,1.788,0,0,1,.568-.13c.13,0,.308.032.308.187a2.435,2.435,0,0,1-.17.511c-.13.324-.316.77-.5,1.208-.073.187-.162.373-.227.56l-.989,2.36a.176.176,0,0,0-.016.081A.153.153,0,0,0,126.616,72.563Zm4.7-.032a1.452,1.452,0,0,0,.989-.551.718.718,0,0,0,.235.032,1.166,1.166,0,0,0,.738-.324,3.67,3.67,0,0,0,.4-.4.154.154,0,0,0,.041-.105.148.148,0,0,0-.146-.162.179.179,0,0,0-.122.049,3.362,3.362,0,0,1-.332.341.906.906,0,0,1-.592.284,2.211,2.211,0,0,0,.422-1.2c0-.235-.073-.633-.414-.633-.5,0-.77.819-.77,1.233a.989.989,0,0,0,.26.722,1.221,1.221,0,0,1-.706.4c-.2,0-.3-.2-.3-.422a2.125,2.125,0,0,1,.925-1.573.181.181,0,0,0,.073-.138.167.167,0,0,0-.162-.154.449.449,0,0,0-.105.041,2.385,2.385,0,0,0-1.046,1.825A.656.656,0,0,0,131.313,72.531Zm1.216-2.352c.089,0,.1.227.1.324a2.077,2.077,0,0,1-.406,1.062.716.716,0,0,1-.146-.47C132.076,70.787,132.262,70.179,132.53,70.179Zm2.793.3a6.932,6.932,0,0,1-.568,1c-.2.3-.6.738-.989.738-.17,0-.268-.154-.268-.341a1.461,1.461,0,0,1,.324-.779,1.87,1.87,0,0,1,1.427-.876,1.612,1.612,0,0,1,.178.016Zm-1.557,2.052a1.625,1.625,0,0,0,1.079-.649,1.086,1.086,0,0,0-.008.162c0,.195.1.479.357.479a1.091,1.091,0,0,0,.624-.373c.227-.211.5-.5.827-.86a.2.2,0,0,0,.049-.122.141.141,0,0,0-.154-.154.191.191,0,0,0-.122.057c-.227.243-.5.551-.746.787-.211.2-.389.349-.487.349-.032,0-.041-.105-.041-.17a4.471,4.471,0,0,1,.495-1.492c.365-.754.56-1.241.706-1.59l.105-.26c.1-.235.195-.43.26-.624a.366.366,0,0,0,.024-.089.156.156,0,0,0-.3-.057c-.073.13-.154.373-.251.608-.17.406-.4.933-.624,1.436a.5.5,0,0,0-.308-.065,2.1,2.1,0,0,0-1.687,1,1.71,1.71,0,0,0-.381.981A.593.593,0,0,0,133.765,72.531Zm3.027.016a.679.679,0,0,0,.43-.195A13.869,13.869,0,0,0,138.26,71.3a.276.276,0,0,0,.057-.122.153.153,0,0,0-.154-.154.165.165,0,0,0-.122.049c-.1.105-.543.608-1.03,1.054a.42.42,0,0,1-.211.105c-.032,0-.032-.041-.032-.105a3.6,3.6,0,0,1,.324-.981c.219-.479.446-.876.495-.957a.27.27,0,0,0,.032-.138.137.137,0,0,0-.154-.138.182.182,0,0,0-.122.065l-.916,1.071c-.057.065-.057.081-.057.13a.167.167,0,0,0,.154.162.143.143,0,0,0,.105-.049,1.265,1.265,0,0,0,.105-.105,2.827,2.827,0,0,0-.284.965A.351.351,0,0,0,136.792,72.547Zm1.427-3.423a.216.216,0,0,0-.219-.235.281.281,0,0,0-.268.292c0,.13.057.243.211.243A.268.268,0,0,0,138.22,69.124Zm.528,3.374a.166.166,0,0,0,.154-.081l.122-.219a9.724,9.724,0,0,1,.762-1.184c.333-.414.746-.795,1.1-.795.049,0,.081.008.081.073a3.375,3.375,0,0,1-.324.892,3.3,3.3,0,0,0-.349.989.335.335,0,0,0,.349.349,1.056,1.056,0,0,0,.592-.292,8.525,8.525,0,0,0,.933-.941.239.239,0,0,0,.041-.105.147.147,0,0,0-.154-.162.182.182,0,0,0-.114.049c-.268.3-.56.616-.811.843a.929.929,0,0,1-.478.292c-.024,0-.041-.016-.041-.049a2.691,2.691,0,0,1,.316-.843,3.1,3.1,0,0,0,.357-1.062.355.355,0,0,0-.4-.349,1.819,1.819,0,0,0-1.241.779,1.437,1.437,0,0,0,.073-.389.381.381,0,0,0-.357-.406.64.64,0,0,0-.357.138,5.19,5.19,0,0,0-.511.519c-.17.187-.341.381-.462.527a.2.2,0,0,0-.049.114.161.161,0,0,0,.162.154.157.157,0,0,0,.122-.057l.462-.527a4.208,4.208,0,0,1,.462-.47.369.369,0,0,1,.17-.081c.024,0,.032.041.032.081a2.146,2.146,0,0,1-.154.584,11.666,11.666,0,0,1-.608,1.322.294.294,0,0,0-.049.146A.146.146,0,0,0,138.748,72.5Zm3.9,0a.166.166,0,0,0,.154-.081l.122-.219a9.728,9.728,0,0,1,.762-1.184c.333-.414.746-.795,1.1-.795.049,0,.081.008.081.073a3.374,3.374,0,0,1-.324.892,3.3,3.3,0,0,0-.349.989.335.335,0,0,0,.349.349,1.056,1.056,0,0,0,.592-.292,8.524,8.524,0,0,0,.933-.941.239.239,0,0,0,.041-.105.147.147,0,0,0-.154-.162.182.182,0,0,0-.114.049c-.268.3-.56.616-.811.843a.929.929,0,0,1-.479.292c-.024,0-.041-.016-.041-.049a2.691,2.691,0,0,1,.316-.843,3.1,3.1,0,0,0,.357-1.062.355.355,0,0,0-.4-.349,1.819,1.819,0,0,0-1.241.779,1.437,1.437,0,0,0,.073-.389.381.381,0,0,0-.357-.406.64.64,0,0,0-.357.138,5.187,5.187,0,0,0-.511.519c-.17.187-.341.381-.462.527a.2.2,0,0,0-.049.114.161.161,0,0,0,.162.154.157.157,0,0,0,.122-.057l.462-.527a4.206,4.206,0,0,1,.462-.47.369.369,0,0,1,.17-.081c.024,0,.032.041.032.081a2.145,2.145,0,0,1-.154.584,11.658,11.658,0,0,1-.608,1.322.294.294,0,0,0-.049.146A.145.145,0,0,0,142.653,72.5Zm4.44-2.936a.281.281,0,0,0,.13-.065l.957-.746a.141.141,0,0,0,.024-.1.139.139,0,0,0-.154-.146.136.136,0,0,0-.1.024l-.957.746a.191.191,0,0,0-.057.13A.144.144,0,0,0,147.093,69.562Zm.487,2.976a1.09,1.09,0,0,0,.624-.349c.243-.219.527-.527.868-.9a.2.2,0,0,0,.049-.114.167.167,0,0,0-.154-.162c-.041,0-.065,0-.122.057-.122.138-.47.535-.787.827a1.073,1.073,0,0,1-.479.324c-.1,0-.154-.1-.154-.211a2.136,2.136,0,0,1,.162-.649,10.123,10.123,0,0,0,.633-1.217.238.238,0,0,0,.024-.081c0-.057-.065-.1-.105-.122a1.17,1.17,0,0,0-.47-.089,2.006,2.006,0,0,0-1.241.519,2.136,2.136,0,0,0-.819,1.5.586.586,0,0,0,.584.665,1.315,1.315,0,0,0,.916-.527A.475.475,0,0,0,147.579,72.539Zm.081-2.368a1.1,1.1,0,0,1,.17.016,9.281,9.281,0,0,0-.527,1.038c-.219.373-.689,1-1.119,1-.17,0-.26-.162-.26-.341a1.881,1.881,0,0,1,.665-1.241A1.669,1.669,0,0,1,147.661,70.171Zm4.049,2.368c.341,0,.8-.519,1.16-.925.114-.13.211-.243.292-.324a.182.182,0,0,0,.049-.114.155.155,0,0,0-.154-.162.172.172,0,0,0-.122.057c-.089.089-.195.211-.316.341-.324.365-.722.8-.884.8-.13,0-.138-.105-.138-.235a2.553,2.553,0,0,1,.041-.349,6.793,6.793,0,0,1,.324-1.014,20.165,20.165,0,0,0,1.841-2.66.78.78,0,0,0,.089-.365c0-.195-.1-.414-.341-.414-.17,0-.446.114-.754.689a20.018,20.018,0,0,0-1.111,2.587c-.365.454-1.395,1.727-1.468,1.8a.154.154,0,0,0-.041.105.151.151,0,0,0,.162.154c.081,0,.13-.073.268-.243.251-.308.454-.568.779-.957a2.541,2.541,0,0,0-.105.673C151.28,72.239,151.393,72.539,151.709,72.539Zm1.833-5.045c.024,0,.041.041.041.089a.608.608,0,0,1-.065.235,14.138,14.138,0,0,1-1.135,1.727,13.14,13.14,0,0,1,.689-1.525,2.165,2.165,0,0,1,.3-.43A.265.265,0,0,1,153.542,67.494Zm.282,2.052a.168.168,0,0,0,.1-.041l.989-.77a.141.141,0,0,0,.024-.1.139.139,0,0,0-.154-.146.136.136,0,0,0-.1.024l-.957.746a.191.191,0,0,0-.057.13A.144.144,0,0,0,153.824,69.546Zm-.389,3a1.641,1.641,0,0,0,.835-.3,5.138,5.138,0,0,0,1.079-.957.239.239,0,0,0,.041-.105.153.153,0,0,0-.146-.162.179.179,0,0,0-.122.049,5.16,5.16,0,0,1-1,.884,1.428,1.428,0,0,1-.706.276c-.235,0-.341-.162-.341-.406a1.618,1.618,0,0,1,.065-.422,2.691,2.691,0,0,0,1.225-.576.753.753,0,0,0,.276-.511.419.419,0,0,0-.47-.422c-.746,0-1.411,1.208-1.411,1.914A.651.651,0,0,0,153.435,72.547Zm.738-2.336c.057,0,.154.024.154.1a.458.458,0,0,1-.17.308,1.938,1.938,0,0,1-.876.422C153.451,70.69,153.808,70.211,154.173,70.211Zm1.018,2.384a.174.174,0,0,0,.162-.138l.138-.365a4.747,4.747,0,0,1,.324-.641l.041.114a2.168,2.168,0,0,0,.349.714.6.6,0,0,0,.462.235,1.025,1.025,0,0,0,.641-.3,10.142,10.142,0,0,0,.787-.787l.13-.138a.182.182,0,0,0,.049-.114.149.149,0,0,0-.154-.154.2.2,0,0,0-.122.049l-.235.251c-.235.251-.446.47-.624.624a.827.827,0,0,1-.438.251.362.362,0,0,1-.276-.146,1.7,1.7,0,0,1-.26-.56,2.051,2.051,0,0,0,1.111-.56.875.875,0,0,0,.26-.576.421.421,0,0,0-.438-.454.911.911,0,0,0-.462.162,2.792,2.792,0,0,0-.527.454l.089-.211c.405-.487.787-.949,1.079-1.322a7.677,7.677,0,0,0,.551-.779,1.25,1.25,0,0,0,.227-.584.407.407,0,0,0-.381-.446.793.793,0,0,0-.568.4,18.806,18.806,0,0,0-1.176,2.571c-.211.251-.454.551-.681.795l-.122.13a.154.154,0,0,0-.041.105.174.174,0,0,0,.162.162.182.182,0,0,0,.122-.065l.17-.195-.341.876a2,2,0,0,0-.17.495A.149.149,0,0,0,155.191,72.6Zm1.914-2.376c.081,0,.114.049.114.138,0,.26-.276.495-.584.641a2.153,2.153,0,0,1-.657.2,3.481,3.481,0,0,1,.754-.827A.7.7,0,0,1,157.105,70.219Zm.568-2.725c.049,0,.065.073.065.138a.957.957,0,0,1-.154.381,12.807,12.807,0,0,1-.989,1.33,9.927,9.927,0,0,1,.779-1.6C157.486,67.575,157.6,67.494,157.673,67.494Zm1.577,2.068a.281.281,0,0,0,.13-.065l.957-.746a.141.141,0,0,0,.024-.1.139.139,0,0,0-.154-.146.136.136,0,0,0-.1.024l-.957.746a.191.191,0,0,0-.057.13A.144.144,0,0,0,159.25,69.562Zm.487,2.976a1.09,1.09,0,0,0,.624-.349c.243-.219.527-.527.868-.9a.2.2,0,0,0,.049-.114.167.167,0,0,0-.154-.162c-.041,0-.065,0-.122.057-.122.138-.47.535-.787.827a1.073,1.073,0,0,1-.479.324c-.1,0-.154-.1-.154-.211a2.136,2.136,0,0,1,.162-.649,10.123,10.123,0,0,0,.633-1.217.238.238,0,0,0,.024-.081c0-.057-.065-.1-.105-.122a1.17,1.17,0,0,0-.47-.089,2.005,2.005,0,0,0-1.241.519,2.136,2.136,0,0,0-.819,1.5.586.586,0,0,0,.584.665,1.315,1.315,0,0,0,.916-.527A.475.475,0,0,0,159.737,72.539Zm.081-2.368a1.1,1.1,0,0,1,.17.016,9.275,9.275,0,0,0-.527,1.038c-.219.373-.689,1-1.119,1-.17,0-.26-.162-.26-.341a1.881,1.881,0,0,1,.665-1.241A1.669,1.669,0,0,1,159.818,70.171Zm2.3,2.368a.455.455,0,0,0,.251-.073,8.086,8.086,0,0,0,1.062-1.046l.122-.13a.158.158,0,1,0-.227-.219c-.089.089-.187.2-.3.324a6.474,6.474,0,0,1-.835.8.154.154,0,0,1-.073.024.068.068,0,0,1-.073-.073,2.1,2.1,0,0,1,.332-.722,2.864,2.864,0,0,0,.422-.941.312.312,0,0,0-.324-.308c-.057,0-.13.008-.17.008-.016,0-.049,0-.049-.024a.391.391,0,0,1,.065-.146.283.283,0,0,0,.049-.146.149.149,0,0,0-.162-.146.21.21,0,0,0-.138.073c-.049.049-.049.065-.251.316-.219.268-.584.7-.827.973a.156.156,0,0,0-.032.1.144.144,0,0,0,.154.154.147.147,0,0,0,.114-.049c.268-.292.551-.641.762-.9a.3.3,0,0,0,.268.105h.17c.049,0,.057.008.057.024a.457.457,0,0,1-.049.162c-.089.17-.292.519-.3.535a2.409,2.409,0,0,0-.406.933A.384.384,0,0,0,162.114,72.539Zm1.923-.041a.166.166,0,0,0,.154-.081l.122-.219a9.725,9.725,0,0,1,.762-1.184c.333-.414.746-.795,1.1-.795.049,0,.081.008.081.073a3.374,3.374,0,0,1-.324.892,3.3,3.3,0,0,0-.349.989.335.335,0,0,0,.349.349,1.055,1.055,0,0,0,.592-.292,8.522,8.522,0,0,0,.933-.941.239.239,0,0,0,.041-.105.147.147,0,0,0-.154-.162.182.182,0,0,0-.114.049c-.268.3-.56.616-.811.843a.929.929,0,0,1-.478.292c-.024,0-.041-.016-.041-.049a2.691,2.691,0,0,1,.316-.843,3.1,3.1,0,0,0,.357-1.062.355.355,0,0,0-.4-.349,1.819,1.819,0,0,0-1.241.779,1.438,1.438,0,0,0,.073-.389.381.381,0,0,0-.357-.406.64.64,0,0,0-.357.138,5.191,5.191,0,0,0-.511.519c-.17.187-.341.381-.462.527a.2.2,0,0,0-.049.114.161.161,0,0,0,.162.154.157.157,0,0,0,.122-.057l.462-.527a4.2,4.2,0,0,1,.462-.47.369.369,0,0,1,.17-.081c.024,0,.032.041.032.081a2.146,2.146,0,0,1-.154.584,11.663,11.663,0,0,1-.608,1.322.294.294,0,0,0-.049.146A.145.145,0,0,0,164.037,72.5Zm4.926.041a1.09,1.09,0,0,0,.624-.349c.243-.219.527-.527.868-.9a.2.2,0,0,0,.049-.114.167.167,0,0,0-.154-.162.138.138,0,0,0-.122.057c-.122.138-.47.535-.787.827a1.073,1.073,0,0,1-.479.324c-.1,0-.154-.1-.154-.211a2.135,2.135,0,0,1,.162-.649,10.123,10.123,0,0,0,.633-1.217.238.238,0,0,0,.024-.081c0-.057-.065-.1-.105-.122a1.17,1.17,0,0,0-.47-.089,2.005,2.005,0,0,0-1.241.519,2.136,2.136,0,0,0-.819,1.5.586.586,0,0,0,.584.665,1.315,1.315,0,0,0,.916-.527A.475.475,0,0,0,168.964,72.539Zm.081-2.368a1.1,1.1,0,0,1,.17.016,9.275,9.275,0,0,0-.527,1.038c-.219.373-.689,1-1.119,1-.17,0-.26-.162-.26-.341a1.881,1.881,0,0,1,.665-1.241A1.669,1.669,0,0,1,169.045,70.171Z" transform="translate(-87.009 -46.223)" fill="#fff"/>
</svg>
