<?xml version="1.0" encoding="UTF-8"?><svg id="Vrstva_1" xmlns="http://www.w3.org/2000/svg" viewBox="0 0 995.0076 490.411"><path d="m514.01,46.39l-.02-45.39c0-.5523.4477-1,1-1h9.01c.5523,0,1,.4477,1,1v65c0,.5523-.4477,1-1,1h-10.84c-.3694-.0009-.7086-.209-.8799-.54l-13.33-25.82c-.6067-1.1733-1.2-1.1667-1.78.02-2.5134,5.1333-5.1633,10.1867-7.95,15.16-2.01,3.59-3.39,6.87-4.78,10.52-.1496.3924-.5239.6512-.94.65l-10.5.02c-.5523,0-1-.4477-1-1V10c0-.5523-.4477-1-1-1h-6c-.5523,0-1-.4477-1-1V1c0-.5523.4477-1,1-1h15c.5523,0,1,.4477,1,1v47.34c0,1.88.4933,2.02,1.48.42,3.7533-6.0933,6.9666-12.4567,9.64-19.09.1511-.3795.5153-.629.92-.63l9.76-.05c.3786-.0069.728.2027.9.54l8.8,17.22c1.0067,1.9733,1.51,1.8533,1.51-.36Z" style="fill:#fff;"/><path d="m447.91,40c.5446-.0001.9891.4355,1,.98l.11,5c.011.5522-.4276,1.0088-.9798,1.0198-.0067.0001-.0135.0002-.0202.0002H155c-.5523,0-1-.4477-1-1v-5c0-.5523.4477-1,1-1h292.91Z" style="fill:#fff;"/><path d="m541.53,46.29c-.77-2.52-.1801-6.29,2.98-6.29h290.86c.3538.0002.6816.1908.86.5,1.2534,2.1733,1.2067,4.2-.14,6.08-.1874.2635-.4893.42-.81.42h-292.79c-.439.0012-.8284-.2867-.96-.71Z" style="fill:#fff;"/><path d="m780.4,317.66c-34.87,2.97-65.88-18.58-72.25-53.48-.7534-4.12-1.1334-10.7667-1.14-19.94-.0134-21.02-.0334-42.0333-.06-63.04-.0067-8.3733.4399-14.8033,1.34-19.29,7.29-36.26,40.4901-57.85,76.73-52.49,21.25,3.13,38.64,17.77,48.71,36.23.2551.4659.1014,1.05-.35,1.33l-21.96,13.76c-.4709.2918-1.0867.1534-1.38-.31-.8933-1.4133-1.7333-2.8467-2.52-4.3-10.8-19.96-37.47-25.17-55.44-12.48-7.9467,5.6067-13.3,13.47-16.06,23.59-.85,3.12-.98,8.91-.99,13.11-.0933,35.5533-.0933,58.1033,0,67.65.2333,23.46,11.7933,37.5633,34.68,42.31,2.0667.4333,4.49.4767,7.27.13,15.54-1.9333,26.4933-9.8967,32.86-23.89.2288-.5027.8218-.7247,1.3244-.4959.0363.0165.0715.0352.1056.0559l20.73,12.6c1.42.86,1.7734,1.9967,1.06,3.41-10.24,20.08-29.64,33.57-52.66,35.54Z" style="fill:#fff;"/><path d="m906.25,314.74c-29.57-8.96-46.16-35.28-46.22-65.49-.05-22.53.3199-45.13-.29-67.66-.88-32.7,15.39-58.92,46.49-69.87,13.19-4.64,31.33-3.93,44.32.83,20.69,7.58,38.32,25.71,42.37,48.01,1.34,7.38,2.03,15.47,2.05,23.71.0533,19.8267.05,39.6533-.0099,59.48-.03,12.53-1.5,25.48-6.7401,36.66-14.5,30.97-49.28,44.23-81.97,34.33Zm-5.48-35.18c1.72,1.59,4.06,4.11,5.72,4.95,7.83,3.97,17.6,7.24,26.43,5.58,14.37-2.7,26.52-11.99,31.34-25.97,2.47-7.14,2.09-14.2,1.78-22.12-.3267-8.3-.2733-30.07.16-65.31.0533-4.3667-.3133-7.9534-1.1-10.76-3.72-13.27-14.5699-25.56-28.87-28.12-19.42-3.47-36.83,4.49-44.73,22.66-1.6667,3.8267-2.4933,7.8367-2.48,12.03.08,24.5134.04,49.0267-.12,73.54-.0533,7.7334.4,13.2867,1.36,16.66,1.84,6.4867,5.3433,12.1067,10.51,16.86Z" style="fill:#fff;"/><path d="m52.5,266.11l33.99-66.57c.1722-.3324.5156-.5408.89-.54h28.63c.3744-.0008.7178.2076.89.54,9.86,19.29,20.09,38.49,29.41,58.03,1.26,2.64,2.6633,5.1967,4.21,7.67.9867,1.5733,1.48,1.43,1.48-.43V112.01c0-.5523.4477-1,1-1l26-.01c.5523,0,1,.4477,1,1v202c0,.5523-.4477,1-1,1h-32.01c-.3744.0008-.7178-.2076-.89-.54l-43.5-84.14c-.5933-1.14-1.1867-1.14-1.78,0l-43.62,84.14c-.1722.3324-.5156.5408-.89.54H24c-.5523,0-1-.4477-1-1v-174c0-.5523-.4477-1-1-1H1c-.5523,0-1-.4477-1-1v-26c0-.5523.4477-1,1-1h49c.5523,0,1,.4477,1,1l-.01,153.75c0,2.2133.5033,2.3333,1.51.36Z" style="fill:#fff;"/><path d="m262,199h67c.5523,0,1,.4477,1,1v26c0,.5523-.4477,1-1,1h-67c-.5523,0-1,.4477-1,1v58c0,.5523.4477,1,1,1h92c.5523,0,1,.4477,1,1v26c0,.5523-.4477,1-1,1h-120c-.5523,0-1-.4477-1-1V112c0-.5523.4477-1,1-1h120c.5523,0,1,.4477,1,1v26c0,.5523-.4477,1-1,1h-92c-.5523,0-1,.4477-1,1v58c0,.5523.4477,1,1,1Z" style="fill:#fff;"/><path d="m416,229v84.99c0,.5523-.4477,1-1,1l-27,.01c-.5468.0055-.9944-.4377-1-.99,0-.0034,0-.0067,0-.01l-.01-111c0-1.9933,1.02-2.99,3.06-2.99,21.5866-.0133,43.17-.0167,64.75-.01,5.28.0067,9.3633-.4367,12.25-1.33,13.29-4.11,21.29-16.17,20.64-29.9-.91-19.24-14.98-29.74-33.45-29.75-29.74-.0267-59.4867-.03-89.24-.01-.5523,0-1-.4477-1-1v-26c0-.5523.4477-1,1-1,28.0267-.0067,56.11.0067,84.25.04,11.67.01,24.17,1.66,34.4,6.88,23.87,12.19,36.43,38.54,31.21,64.92-1.0467,5.2933-3.04,10.2233-5.98,14.79-8,12.4133-18.8233,21.38-32.47,26.9-.5088.2002-.759.7749-.5588,1.2837.0116.0294.0245.0582.0388.0863l43.78,87.65c.2483.4875.0499,1.0839-.4432,1.3322-.1386.0698-.2916.1067-.4468.1078l-28.86-.01c-.3845.0009-.7344-.2169-.9-.56l-41.68-85.87c-.1656-.3431-.5155-.5609-.9-.56h-29.44c-.5523,0-1,.4477-1,1Z" style="fill:#fff;"/><path d="m586.44,198.2l.91.63c.1626.1106.3577.1698.56.17h66.09c.5523,0,1,.4477,1,1v26c0,.5523-.4477,1-1,1h-67c-.5523,0-1,.4477-1,1v58.43c-.0002.5468.4427.9902.9895.9905.0102,0,.0204-.0002.0305-.0005,31.04-.69,62.05-.44,92.97-.4.5523,0,1,.4477,1,1l.01,25.98c.0055.5467-.4377.9944-.9899.9999-.0034,0-.0067,0-.0101,0h-121c-.5523,0-1-.4477-1-1V112c0-.5523.4477-1,1-1h120.99c.5523,0,1,.4477,1,1l.01,26c.0055.5467-.4332.9944-.9799,1-.0034,0-.0067,0-.0101,0h-93.01c-.5523,0-1,.4477-1,1v57.38c-.0002.3252.1646.6322.44.82Z" style="fill:#fff;"/><rect x="153.92" y="369" width="683.06" height="7" rx="1.49" ry="1.49" style="fill:#fff;"/><path d="m502.78,455.61l4.67-4.37c.3936-.3717,1.0128-.3584,1.39.03l3.46,3.54c.3813.391.3857,1.0111.01,1.4l-4.77,4.92c-.3578.3608-.3794.9398-.05,1.34l4.88,5.83c.3505.4132.297,1.0371-.12,1.4l-4.3,3.71c-.4117.3599-1.0371.3179-1.3969-.0938-.0186-.0213-.0363-.0434-.0531-.0663l-3.94-5.27c-.3243-.4402-.9473-.5311-1.3915-.203-.0345.0255-.0674.0533-.0984.0829-8.67,8.31-20.69,10.83-28.57-.34-4.0133-5.6933-4.0033-11.3667.03-17.02,1.96-2.7467,4.28-5.14,6.96-7.18.4415-.3318.5305-.9586.1987-1.4002-.0154-.0206-.0317-.0405-.0487-.0598-1.84-2.0933-3.1433-4.4366-3.91-7.03-4.16-13.99,12.85-21.38,19.88-10.2,4.13,6.58-.25,12.58-4.69,17.2-.372.3924-.3721,1.0051,0,1.39,3.7333,3.8533,7.19,7.94,10.37,12.26.3294.4433.9558.5357,1.3991.2063.0318-.0236.0621-.0491.0909-.0763Zm-17.49-19.69c.4023.3784,1.0351.3591,1.4135-.0431.0022-.0023.0043-.0046.0064-.0069,3.6933-3.9933,3.1567-7.1933-1.61-9.6-.4874-.2478-1.0834-.0536-1.3312.4337-.0143.0281-.0272.0569-.0388.0863-1.4933,3.7-.9733,6.7433,1.56,9.13Zm-4.1,29.64c5.7066,2.82,10.65,1.75,14.83-3.21.3084-.3716.3084-.9123,0-1.29l-10.93-13.2c-.3511-.4263-.9781-.4904-1.4005-.1432-.0206.0169-.0404.0347-.0595.0532-2.16,2.06-3.8867,4.3967-5.18,7.01-2,4.03-1.45,8.72,2.74,10.78Z" style="fill:#fff;"/><path d="m191,451.54v21.92c0,.2982-.2418.54-.54.54h-6.92c-.2982,0-.54-.2418-.54-.54h0v-44.92c0-.2982-.2418-.54-.54-.54h-4.92c-.2982,0-.54-.2418-.54-.54h0v-6.92c0-.2982.2418-.54.54-.54h12.92c.2982,0,.54.2418.54.54h0v21.92c0,.2982.2418.54.54.54h17.92c.2982,0,.54-.2418.54-.54h0v-21.92c0-.2982.2418-.54.54-.54h5.92c.2982,0,.54.2418.54.54h0v52.92c0,.2982-.2418.54-.54.54h-5.92c-.2982,0-.54-.2418-.54-.54h0v-21.92c0-.2982-.2418-.54-.54-.54h-17.92c-.2982,0-.54.2418-.54.54h0Z" style="fill:#fff;"/><path d="m332,428h-3c-.5523,0-1-.4477-1-1v-6c0-.5523.4477-1,1-1l11-.01c.5523,0,1,.4477,1,1v50.51c0,1.68-.66,2.52-1.98,2.52l-5.02-.02c-.5539-.0055-1-.4516-1-1v-44c0-.5523-.4477-1-1-1Z" style="fill:#fff;"/><path d="m408.38,437.9c.9734-.8466,2.0467-1.5433,3.22-2.09,5.33-2.5,11.8,1.45,14.07,6.09.9133,1.86,1.3666,4.6567,1.36,8.39-.02,7.58-.0433,15.15-.07,22.71-.0055.5539-.4516,1-1,1h-4.9c-.5484,0-.9945-.4416-1-.99-.0867-7.6934-.1-15.3733-.04-23.04.04-5.82-3.87-8.35-9.57-6.73-2.32.66-3.48,2.1567-3.48,4.49l.03,25.07c.0002.5408-.4295.9838-.97,1l-6,.2c-.552.0166-1.013-.4175-1.0295-.9695-.0003-.0102-.0005-.0203-.0005-.0305v-44.01c0-.5523-.4477-1-1-1l-3,.01c-.5523,0-1-.4477-1-1v-5.99c0-.5523.4477-1,1-1l9.27-.03c1.6667-.0067,2.5133.8366,2.54,2.53l.24,14.8c.02,1.14.4633,1.3366,1.33.59Z" style="fill:#fff;"/><path d="m555,465v-36c0-.5523-.4477-1-1-1h-4c-.5468,0-.99-.4432-.99-.99l-.04-5.97c0-.5539.4461-1.0045,1-1.01,6.84-.0333,13.7734-.08,20.8-.14,7.2466-.0734,12.2634,2.9533,15.05,9.08,2.7067,5.96,1.6666,11.2367-3.12,15.83-.3975.3754-.4154,1.002-.04,1.3995.0066.0069.0132.0138.02.0205.6733.68,1.53,1.5933,2.57,2.74,9.8,10.8-.78,25.15-13.55,25.14-7.2466-.0067-14.4833-.05-21.71-.13-.5484-.0055-.99-.4516-.99-1v-5.97c0-.5523.4477-1,1-1h4c.5523,0,1-.4477,1-1Zm20.96-36.71c-.1857-.1857-.4374-.29-.7-.29h-11.23c-.5523,0-1,.4432-1,.99l-.04,12.92c-.0037.5086.3751.939.88,1,3.2.38,6.3233.23,9.37-.45,7.32-1.65,7.82-9.14,2.72-14.17Zm1.82,23.05c-1.2467-.8867-2.5067-1.33-3.78-1.33l-10-.01c-.5468-.0055-.9944.4377-.9999.9899,0,.0034,0,.0067,0,.0101v13.91c-.0007.537.4188.9785.95,1,6,.2733,9.5767.28,10.73.02,7.06-1.57,8.74-10.57,3.1-14.59Z" style="fill:#fff;"/><path d="m371.05,443.99c-.06,5.2133-.0767,10.4333-.05,15.66.02,4.49,2.05,6.79,6.52,7.25.86.0867,1.7267.17,2.6.25.5258.0522.9226.4969.91,1.02l-.11,5.02c-.0126.504-.3984.9198-.9.97-6.6333.6733-11.9033-1.9366-15.81-7.83-.1105-.1563-.1699-.345-.17-.54-.0333-6.2067-.05-12.69-.05-19.45,0-3.13-1.47-3.82-4.34-3.15-1.7867.4067-2.6766-.2234-2.67-1.89l.02-4.3c.0055-.5538.4516-1,1-1h5c.5523,0,1-.4477,1-1v-10c0-.5523.4477-1,1-1h5c.5523,0,1,.4477,1,1v10c0,.5523.4477,1,1,1h5.43c.4038-.0063.7703.2407.92.62.7133,1.7533.9167,3.6.61,5.54-.0742.4837-.4906.8407-.98.84h-5.93c-.5484,0-.9945.4416-1,.99Z" style="fill:#fff;"/><path d="m761,436h6c.5523,0,1,.4477,1,1v4.96c.0002.5446-.431.9891-.97,1l-5.9301.16c-.5256.0099-.9538.425-.98.95-.22,4.45-1.26,17.88,1.84,21.12,1.64,1.72,3.9099,2.28,6.81,1.68.5468-.1104,1.0795.2433,1.1899.79.0133.0658.02.1328.02.2l-.04,5.18c-.0076.4926-.3626.9068-.84.98-3.6266.5867-6.97-.1167-10.03-2.11-8.35-5.44-6.24-19.15-6.03-27.89.0165-.5465-.4175-1.003-.9695-1.0195-.0101-.0003-.0203-.0005-.0305-.0005h-5.04c-.5523,0-1-.4477-1-1v-5c0-.5523.4477-1,1-1h5c.5523,0,1-.4477,1-1v-10c0-.5523.4477-1,1-1h5c.5523,0,1,.4477,1,1v10c0,.5523.4477,1,1,1Z" style="fill:#fff;"/><path d="m632.77,473.76c-9.52.65-24.13,2.24-24.96-11.49-.31-5.06-1.14-17.14,1.98-21.21,6.53-8.5,20.18-7.82,24.71,2.19,1.01,2.24,3.08,13.97.06,15.41-2.67,1.28-14.84.35-18.52.42-.5239.0046-.9536.4167-.98.94-.1667,2.76.71,4.7267,2.63,5.9,3.14,1.91,11.35,1.1,15.37,1.09.5522-.0018,1.0011.449,1.0024,1.0068,0,.0244-.0008.0489-.0024.0732l-.37,4.75c-.0338.4934-.4266.8862-.92.92Zm-4.74-22.61c1.73-11.51-15.2401-11.24-12.9901.05.095.4657.5048.8001.98.8h11.02c.4981.0006.9203-.3618.9901-.85Z" style="fill:#fff;"/><path d="m255.28,435.25c5.71.28,11.16,7.42,11.62,12.84.2133,2.52.2167,5.84.01,9.96-.0267.5327-.4667.9507-1,.95h-18.83c-.5523-.0007-1.0008.442-1.0018.9888,0,.0204.0006.0408.0018.0612.1533,2.76,1.2667,4.71,3.34,5.85,3.31,1.82,10.38,1.13,14.6,1.16.5578.0055,1.0055.4621,1,1.0199h0s-.07,4.8501-.07,4.8501c-.0051.5369-.4333.9739-.97.99-9.37.21-22.98,2.41-24.75-10.92-1.68-12.67-1.61-28.65,16.05-27.75Zm3.23,16.79c.5523.0045,1.0029-.4441,1.0063-1.0018.0004-.0631-.0051-.1261-.0163-.1882-.14-.74-.2533-1.5133-.34-2.32-.64-6.03-8.69-8.01-11.97-3.06-1.0733,1.6133-1.4333,3.5034-1.08,5.67.083.4862.5015.8414.99.84l11.41.06Z" style="fill:#fff;"/><path d="m672.01,448.94c.0733-3.4667-1.8467-5.3734-5.76-5.72-2.6-.2333-5.31-.2933-8.13-.18-.5518.0223-1.0172-.4025-1.0394-.9488-.0002-.0071-.0004-.0141-.0006-.0212l-.11-4.83c-.0056-.5041.3615-.9352.86-1.01,9.69-1.45,20.92-.04,22.07,11.96.3133,3.2733.3066,11.51-.02,24.71-.0104.5275-.4327.9541-.96.97-5.5.2067-10.94.2267-16.32.06-12.7599-.39-15.44-18.35-3.61-22.93,2.0867-.8133,6.0867-1.1733,12-1.08.554.0057,1.0092-.4315,1.02-.98Zm-11.96,16.85c3.8134,1.5733,7.78,1.89,11.9.95.4556-.1066.7784-.5121.78-.98l-.07-6.77c-.0056-.5522-.4532-.9955-1-.99-4.5.01-15.66-1.93-12.16,7.22.0953.2549.2941.461.55.57Z" style="fill:#fff;"/><path d="m303.72,448.69c-.4267-1.7733-1.3234-3.2067-2.69-4.3-2.79-2.23-8.37-1.43-11.96-1.31-.552.0166-1.013-.4175-1.0295-.9695-.0003-.0102-.0005-.0203-.0005-.0305l-.01-5.06c0-.5484.4461-.9945,1-1,15.18-.1,21.98.74,21.97,18.02v18.95c0,.5484-.4416.9945-.99,1-9.2.03-26.36,3.4-27.31-10.98-.4267-6.3733,2.67-10.5367,9.29-12.49,1.4734-.4333,5.0567-.63,10.75-.59.5577-.0018,1.0094-.451,1.0089-1.0034,0-.0797-.0098-.1592-.0289-.2366Zm-8.55,17.94c2.6133.66,5.2933.72,8.04.18.4703-.0911.8101-.5062.81-.99l-.06-6.83c-.0055-.5484-.4516-.99-1-.99h-9.68c-.2086,0-.4146.0665-.59.19-4.77,3.5-1.97,7.31,2.48,8.44Z" style="fill:#fff;"/><path d="m722,466.08v-29.08c0-.5523.4477-1,1-1l5-.01c1.3467,0,2.02.7533,2.02,2.26l-.06,34.55c.0007.5278-.4128.9634-.94.99-8.59.51-26.61,2.64-26.93-11.24-.1333-6.1-.15-12.2767-.05-18.53.0056-.5578-.4377-1.0144-.9899-1.0199-.0034,0-.0067,0-.0101,0h-4.04c-.5523,0-1-.4477-1-1v-5c0-.5523.4477-1,1-1h10.94c.5484,0,.9945.4416,1,.99.06,8.1.0867,16.1633.08,24.19,0,6.16,7.85,6.5,12.12,5.89.4942-.0742.8599-.4951.86-.99Z" style="fill:#fff;"/><path d="m800.28,458.55l6.17-21.81c.1171-.43.5099-.7287.96-.73l5.84-.02c.5523-.0016,1.0013.4447,1.003.997.0003.0992-.0142.198-.043.293-4.36,14.56-8.5367,28.7333-12.53,42.52-1.9534,6.76-6.5933,10.2967-13.92,10.61-.4018.0181-.775-.2019-.95-.56-1.0266-2.1467-1.2267-4.3367-.6-6.57.0709-.2446.2279-.4517.44-.58,1.02-.6334,2.1366-.8567,3.35-.67,1.3333.2067,2.3533-.2733,3.06-1.44,1.84-3.04,3.34-6.33,2.04-9.96-3.2067-8.9467-6.29-17.9267-9.25-26.94-.1375-.4117-.52-.6896-.95-.69h-2.9c-.5523,0-1-.4477-1-1v-4.96c0-.5484.4416-.9945.99-1l8.33-.06c.4404-.0009.8289.2783.96.69l7.08,21.92c.6801,2.0934,1.32,2.08,1.92-.04Z" style="fill:#fff;"/></svg>