<?xml version="1.0" encoding="UTF-8"?><svg id="Vrstva_1" xmlns="http://www.w3.org/2000/svg" xmlns:xlink="http://www.w3.org/1999/xlink" viewBox="0 0 83 27.873"><defs><clipPath id="clippath"><rect width="83" height="27.873" style="fill:none;"/></clipPath></defs><g id="logo"><path id="Path_53" d="m36.403,11.697v8.936h-1.7l-4.455-5.426v5.426h-2.045v-8.936h1.711l4.443,5.426v-5.426h2.046Z" style="fill:#fff;"/><path id="Path_54" d="m44.723,18.716h-4.149l-.791,1.915h-2.119l3.983-8.936h2.043l4,8.936h-2.17l-.797-1.915Zm-.651-1.57l-1.417-3.421-1.417,3.423,2.834-.002Z" style="fill:#fff;"/><path id="Path_55" d="m50.785,13.382h-2.86v-1.685h7.788v1.685h-2.86v7.251h-2.068v-7.251Z" style="fill:#fff;"/><rect id="Rectangle_44" x="57.14" y="11.697" width="2.068" height="8.936" style="fill:#fff;"/><path id="Path_56" d="m69.777,20.634l-.013-5.362-2.63,4.417h-.932l-2.617-4.3v5.247h-1.94v-8.939h1.711l3.345,5.553,3.294-5.553h1.7l.026,8.936-1.944.001Z" style="fill:#fff;"/><path id="Path_57" d="m77.969,13.727l1.417,3.421h-2.834l1.417-3.421Zm-1.008-2.03l-3.983,8.937h2.119l.792-1.915h4.149l.791,1.915h2.17l-4-8.937h-2.038Z" style="fill:#fff;"/><g id="Group_22"><g style="clip-path:url(#clippath); fill:none;"><g id="Group_21"><path id="Path_58" d="m23.381,27.873c-2.606-1.864-4.664-4.148-5.144-7.416-.2595-2.1458-.3861-4.3056-.379-6.467.009-3.7554-1.8005-7.2827-4.856-9.466-.08-.06-.16-.12-.245-.172-.0605-.0178-.123-.0276-.186-.029,1.376,3.5562,1.7225,7.428,1,11.172-.1-.225-.194-.449-.287-.675-1.4462-3.8287-3.5864-7.3578-6.313-10.41C5.2323,2.3474,2.9097.8597.309.143c-.0891-.0165-.1717-.0582-.238-.12H.071C1.466.023,2.864-.032,4.255.034c3.7464.1132,7.4267,1.0162,10.8,2.65,3.527,1.763,6.244,4.3,7.5,8.167.8426,2.8601.8876,5.8962.13,8.78-.218.975-.5,1.942-.636,2.929-.2343,1.644.1199,3.3178,1,4.726" style="fill:#fff;"/><path id="Path_59" d="m0,2.853c2.2196,1.7195,3.5212,4.3673,3.527,7.175.012,1.381-.078,2.762-.122,4.144-.1347,2.3395,1.0581,4.5559,3.085,5.732.117.076.234.153.357.219.047.0185.0966.0296.147.033-.178-1.712-.441-3.412-.511-5.128-.0408-1.7278.026-3.4565.2-5.176,2.4141,6.0183,6.3734,11.2931,11.478,15.292-3.51,2.332-7.523,2.826-11.12.678-3.5686-1.8987-5.823-5.5872-5.885-9.629-.042-1.28-.089-2.563-.056-3.843C1.182,9.137,1.168,5.942,0,2.856" style="fill:#fff;"/></g></g></g></g></svg>