<?xml version="1.0" encoding="UTF-8"?><svg id="Vrstva_1" xmlns="http://www.w3.org/2000/svg" viewBox="0 0 283.068 473.4109"><defs><style>.cls-1{fill:#00b3d3;}</style></defs><path class="cls-1" d="m178.6185,99.6173c8.5896-23.9466-3.8597-50.3223-27.8062-58.9119-2.9865-1.0712-6.0756-1.8311-9.2183-2.2674-8.5948,23.9381,3.8435,50.3111,27.7816,58.9059,2.994,1.075,6.0915,1.8369,9.2426,2.2734h.0004Z"/><path class="cls-1" d="m271.0687,143.6165c-18.3126,20.3642-16.6494,51.7179,3.7148,70.0304,2.546,2.2895,5.3224,4.3092,8.2845,6.0267v-66.3227c-3.4661-3.8523-7.5151-7.137-11.9993-9.7344Z"/><path class="cls-1" d="m247.4325,79.3149c21.0052-17.5844,23.7783-48.8675,6.1938-69.8727-2.1946-2.6216-4.6544-5.0092-7.3401-7.1248-21.0053,17.5786-23.7832,48.8569-6.2046,69.8622,2.1974,2.6258,4.6609,5.017,7.3509,7.1353Z"/><path class="cls-1" d="m227.184,277.829c2.8299-27.2396-16.9581-51.6157-44.1977-54.4456-3.4049-.3537-6.8373-.3539-10.2423-.0006-2.8343,27.2352,16.9466,51.6113,44.1818,54.4456,3.4102.3549,6.848.3551,10.2582.0006Z"/><path class="cls-1" d="m81.0592,177.7699c16.419-19.4244,13.9827-48.4812-5.4417-64.9002-2.4285-2.0527-5.063-3.8484-7.8614-5.3583-16.4198,19.4203-13.9873,48.4745,5.433,64.8943,2.4309,2.0553,5.0684,3.853,7.8701,5.3642Z"/><path class="cls-1" d="m283.068,292.7635c-2.7232-13.3727-6.5359-26.5003-11.4-39.2512-12.1568-31.448-28.6482-52.8423-46.48-70.87,8.6013-23.39,10.0274-58.2115,3.0232-92.7691-6.7127-33.1092-21.0961-66.432-44.25-89.8732l-15.9008,15.6268c19.8973,20.16,32.3766,49.3654,38.3045,78.6043,5.3255,26.2837,5.37,52.208.75,71.3369-2.59-2.3276-5.1779-4.629-7.77-6.93l-1.7953-1.5854c-23.5539-20.8979-66.3873-58.8867-85.9582-101.6764l-20.2665,9.257c21.5411,47.0738,66.6477,87.0938,91.4606,109.1031l1.7953,1.5883c25.06,22.2609,50.333,44.9,66.2979,86.2283,9.699,25.1189,16.1767,57.3149,17.5057,100.7438-4.83-17.25-12.3705-29.8654-21.9024-39.8831-8.7334-9.1831-28.4034-19.1658-52.2915-31.275-7.47-3.7886-15.33-7.7774-21.2671-10.88-8.3817-4.3676-18.5606-10.3237-29.6332-17.6134,1.6185-14.1589.678-31.6-1.5873-48.564-3.4293-25.6279-9.9614-50.8207-15.2383-61.9205l-20.1888,9.5212c4.4959,9.4542,10.2,31.8861,13.3186,55.2768,1.4268,10.1447,2.1777,20.3731,2.248,30.6174-18.6694-13.9589-38.1957-30.8622-55.1048-49.7648-22.803-25.491-40.6962-54.4656-44.6209-84.27l-22.1167,2.8777c4.593,34.85,24.66,67.7648,50.1329,96.2517,36.3664,40.635,84.127,72.54,112.478,87.33,4.51,2.3558,8.4284,4.3871,12.0111,6.2076-7.3491-.0551-14.6794-.7494-21.9082-2.075-20.7639-3.6712-43.2764-12.3074-61.3882-25.6989l-13.2816,17.9113c21.0864,15.5918,47.03,25.591,70.8249,29.8052,22.27,3.9441,43.2414,2.77,57.5879-3.61,11.3874,6.055,20.0236,11.2086,23.855,15.2509,8.918,9.3755,15.5958,22.1433,19.05,41.5958,3.7168,20.8445,3.7362,53.6194-1.0395,92.5631,11.7918,1.0016,23.2775,1.56,34.7457,1.4453v-180.6326Z"/><path class="cls-1" d="m10.584,224.3123c-2.8264,27.2436,16.9676,51.6202,44.2112,54.4467,3.4025.353,6.8324.353,10.235,0,2.8264-27.2436-16.9676-51.6202-44.2112-54.4467-3.4025-.353-6.8324-.353-10.235,0Z"/></svg>