<svg xmlns="http://www.w3.org/2000/svg" viewBox="0 0 42.842 52.791">
  <g id="icon" transform="translate(-8.58 140.337)">
    <path id="icon-2" data-name="icon" d="M41.21-135.06a1.891,1.891,0,0,0-1.775,1.358l-.688,2.269-1.807-.546a1.9,1.9,0,0,0-.548-.081,1.892,1.892,0,0,0-1.809,1.341l-6.865,22.853a1.887,1.887,0,0,0,1.261,2.337l7.227,2.18a1.9,1.9,0,0,0,.548.081,1.891,1.891,0,0,0,1.809-1.341l1.782-5.934a6.327,6.327,0,0,0,4.533,1.818,6.292,6.292,0,0,0,4.715-2,6.1,6.1,0,0,0,1.2-2.038A13.755,13.755,0,0,1,59.98-99.8,13.775,13.775,0,0,1,46.146-86.027a13.692,13.692,0,0,1-13.3-10.635l5.816,1.781a1.9,1.9,0,0,0,.58.091,1.893,1.893,0,0,0,1.888-1.88,1.885,1.885,0,0,0-1.357-1.8l-16.361-5.012a1.9,1.9,0,0,0-.58-.091,1.893,1.893,0,0,0-1.888,1.88,1.885,1.885,0,0,0,1.357,1.8l6.425,1.967a1.871,1.871,0,0,0-.01.626,17.489,17.489,0,0,0,6.573,11.271H30.378a1.893,1.893,0,0,0-1.888,1.88,1.893,1.893,0,0,0,1.888,1.88H61.9a1.893,1.893,0,0,0,1.888-1.88,1.893,1.893,0,0,0-1.888-1.88H57A17.472,17.472,0,0,0,63.756-99.8a17.563,17.563,0,0,0-12.821-16.868,6.126,6.126,0,0,0-1.342-2.584,6.292,6.292,0,0,0-4.715-2,6.894,6.894,0,0,0-1.354.134l1.905-6.343a1.887,1.887,0,0,0-1.261-2.337l-1.807-.546.688-2.266a1.873,1.873,0,0,0,.089-.57,1.893,1.893,0,0,0-1.888-1.88Zm-3.552,7.226,1.514.455a1.9,1.9,0,0,0,.583.176l1.517.458-5.784,19.251-3.613-1.089Zm7.219,10.339a2.271,2.271,0,0,1,1.893.739,2.634,2.634,0,0,1,.6,1.5,1.872,1.872,0,0,0,.015.36,2.675,2.675,0,0,1-.617,1.669,2.271,2.271,0,0,1-1.893.739,2.271,2.271,0,0,1-1.893-.739,2.7,2.7,0,0,1-.624-1.767,2.7,2.7,0,0,1,.624-1.767A2.271,2.271,0,0,1,44.878-117.494Z" transform="translate(-12.361 -5.277)" fill="#fff"/>
  </g>
</svg>
