<?xml version="1.0" standalone="no"?>
<!DOCTYPE svg PUBLIC "-//W3C//DTD SVG 20010904//EN"
 "http://www.w3.org/TR/2001/REC-SVG-20010904/DTD/svg10.dtd">
<svg version="1.0" xmlns="http://www.w3.org/2000/svg"
 width="700.000000pt" height="700.000000pt" viewBox="0 0 700.000000 700.000000"
 preserveAspectRatio="xMidYMid meet">
<metadata>
Created by potrace 1.14, written by Peter Selinger 2001-2017
</metadata>
<g transform="translate(0.000000,700.000000) scale(0.100000,-0.100000)"
fill="#000000" stroke="none">
<path d="M4007 6884 c-112 -111 -117 -118 -100 -134 142 -136 316 -422 416
-685 47 -124 109 -333 123 -415 3 -14 6 -30 9 -37 3 -10 28 -154 40 -238 30
-203 25 -557 -9 -738 -13 -70 -22 -88 -34 -71 -4 5 -36 34 -71 64 -35 30 -78
69 -96 85 -17 17 -72 66 -121 110 -512 462 -863 878 -1057 1255 -27 52 -50 96
-51 98 -3 3 -71 -27 -199 -87 -48 -22 -92 -41 -98 -41 -13 0 87 -192 165 -317
49 -80 182 -270 228 -328 43 -54 186 -225 217 -260 60 -67 439 -446 510 -509
36 -33 86 -78 111 -100 25 -23 65 -59 90 -80 274 -239 515 -478 635 -630 17
-21 37 -47 45 -57 21 -26 93 -132 146 -214 41 -64 129 -236 184 -360 61 -136
169 -516 204 -719 15 -83 42 -294 51 -389 4 -34 8 -80 10 -102 8 -67 15 -331
9 -310 -53 196 -182 422 -318 559 -123 124 -227 186 -901 531 -291 149 -375
196 -532 297 -86 56 -91 60 -86 89 12 79 4 474 -12 570 -2 13 -6 51 -10 83 -3
32 -7 62 -9 65 -2 3 -6 29 -10 56 -3 28 -8 64 -11 80 -10 56 -46 240 -51 258
-2 9 -6 25 -8 35 -43 187 -127 452 -143 452 -4 0 -61 -26 -128 -59 -67 -32
-132 -62 -144 -66 -15 -5 -21 -13 -18 -23 3 -10 19 -57 36 -106 45 -126 100
-355 125 -514 2 -15 8 -47 11 -72 4 -25 9 -54 11 -65 2 -11 6 -44 10 -73 3
-29 7 -61 9 -70 10 -54 25 -352 17 -352 -8 0 -107 75 -197 149 -245 201 -504
450 -673 648 -95 113 -263 335 -299 399 -134 233 -186 343 -237 502 -27 83
-66 249 -66 279 0 2 -4 2 -8 -1 -4 -2 -35 -8 -67 -11 -33 -4 -62 -9 -65 -10
-3 -2 -33 -6 -66 -10 -77 -8 -113 -17 -114 -30 -2 -21 22 -143 41 -215 12 -41
22 -83 24 -93 2 -9 25 -70 51 -135 206 -520 610 -1030 1214 -1533 69 -57 143
-118 165 -134 22 -17 44 -34 50 -38 195 -158 622 -433 880 -567 66 -34 124
-65 128 -70 11 -10 -106 -5 -215 10 -309 41 -654 169 -907 335 -46 30 -85 55
-87 55 -5 0 -196 -262 -192 -264 1 -2 44 -31 94 -64 219 -147 524 -277 799
-342 119 -28 122 -28 186 -36 30 -3 57 -8 61 -10 24 -15 329 -22 438 -11 81 8
205 36 266 58 l53 20 108 -62 c167 -95 221 -137 293 -226 142 -175 227 -418
258 -736 9 -95 9 -669 -1 -777 -4 -47 -10 -114 -12 -150 -3 -36 -7 -78 -10
-95 -2 -16 -7 -60 -10 -97 -6 -66 -6 -68 17 -69 13 -1 37 -3 53 -4 17 -2 121
-7 233 -11 l202 -7 0 1349 0 1349 -39 150 c-35 131 -104 351 -130 410 -5 11
-30 70 -56 130 -124 287 -339 615 -535 815 -8 9 -32 34 -54 57 l-39 42 31 113
c32 117 38 142 48 218 3 25 7 52 9 60 23 87 23 516 0 690 -2 19 -7 58 -11 85
-25 205 -129 605 -199 760 -7 17 -23 55 -36 85 -87 210 -259 481 -400 633
l-54 57 -118 -116z"/>
<path d="M4995 6918 c-89 -90 -162 -221 -192 -348 -23 -99 -21 -258 6 -355 32
-114 94 -225 174 -311 38 -41 73 -74 78 -74 15 0 111 106 147 163 117 183 148
417 82 623 -17 52 -77 172 -95 191 -8 8 -15 18 -15 22 0 12 -120 131 -132 131
-5 0 -29 -19 -53 -42z"/>
<path d="M3491 6408 c-8 -22 -16 -54 -26 -108 -7 -38 -7 -150 0 -195 29 -181
130 -349 275 -456 90 -66 292 -138 310 -109 4 7 13 38 19 69 73 355 -134 704
-476 802 -86 24 -92 24 -102 -3z"/>
<path d="M2373 5366 c-96 -126 -144 -331 -118 -506 17 -113 80 -245 162 -340
51 -57 158 -140 182 -140 9 0 31 23 50 51 139 213 152 477 33 704 -41 79 -170
216 -237 252 l-40 21 -32 -42z"/>
<path d="M5361 4811 c-200 -285 -174 -670 61 -922 46 -50 144 -129 159 -129 5
0 9 201 9 488 l0 488 -37 36 c-48 45 -122 98 -138 98 -7 0 -31 -27 -54 -59z"/>
<path d="M3959 3679 c-10 -240 55 -414 215 -575 83 -82 180 -142 291 -180 66
-22 99 -27 190 -28 l110 -1 -1 90 c-3 303 -201 576 -489 675 -81 28 -95 30
-212 37 l-103 5 -1 -23z"/>
<path d="M1558 3646 c-9 -118 32 -285 97 -403 41 -73 187 -227 240 -253 17 -8
37 -20 46 -27 22 -19 174 -70 233 -78 66 -10 174 -13 187 -4 12 7 8 153 -6
229 -21 115 -114 278 -212 372 -139 131 -298 197 -490 203 l-92 2 -3 -41z"/>
</g>
</svg>
