<svg xmlns="http://www.w3.org/2000/svg" viewBox="0 0 47.698 47.698">
  <g id="icon" transform="translate(-6.239 137.762)">
    <path id="icon-2" data-name="icon" d="M48.249-129.428a13.988,13.988,0,0,0-9.922,4.1L18.671-105.673a14.062,14.062,0,0,0,0,19.844,14.061,14.061,0,0,0,19.846,0L48.758-96.069a1.861,1.861,0,0,0,.415-.415l9-9a14.063,14.063,0,0,0,0-19.846A13.993,13.993,0,0,0,48.249-129.428Zm0,3.7a10.275,10.275,0,0,1,7.288,3.031,10.28,10.28,0,0,1,0,14.577l-7.89,7.892L33.071-114.8l7.89-7.892A10.275,10.275,0,0,1,48.249-125.728ZM30.438-112.171,45.015-97.594l-9.134,9.131a10.278,10.278,0,0,1-14.577,0v0a10.281,10.281,0,0,1,0-14.577Zm-2.653,6.508a1.871,1.871,0,0,0-1.862,1.862,1.871,1.871,0,0,0,1.862,1.862,1.871,1.871,0,0,0,1.862-1.862A1.871,1.871,0,0,0,27.785-105.664Zm6.207,2.483a1.871,1.871,0,0,0-1.862,1.862,1.871,1.871,0,0,0,1.862,1.862,1.871,1.871,0,0,0,1.862-1.862A1.871,1.871,0,0,0,33.992-103.181ZM22.819-99.456a1.871,1.871,0,0,0-1.862,1.862,1.871,1.871,0,0,0,1.862,1.862,1.871,1.871,0,0,0,1.862-1.862A1.871,1.871,0,0,0,22.819-99.456Zm6.207,1.241a1.871,1.871,0,0,0-1.862,1.862,1.871,1.871,0,0,0,1.862,1.862,1.871,1.871,0,0,0,1.862-1.862A1.871,1.871,0,0,0,29.026-98.215Zm7.449,1.241a1.871,1.871,0,0,0-1.862,1.862,1.871,1.871,0,0,0,1.862,1.862,1.871,1.871,0,0,0,1.862-1.862A1.871,1.871,0,0,0,36.475-96.974ZM25.3-93.249a1.871,1.871,0,0,0-1.862,1.862A1.871,1.871,0,0,0,25.3-89.525a1.871,1.871,0,0,0,1.862-1.862A1.871,1.871,0,0,0,25.3-93.249Zm6.207,1.241a1.871,1.871,0,0,0-1.862,1.862,1.871,1.871,0,0,0,1.862,1.862,1.871,1.871,0,0,0,1.862-1.862A1.871,1.871,0,0,0,31.509-92.008Z" transform="translate(-8.334 -8.334)" fill="#fff"/>
  </g>
</svg>
