<svg xmlns="http://www.w3.org/2000/svg" xmlns:xlink="http://www.w3.org/1999/xlink" viewBox="0 0 197.887 183.004">
  <defs>
    <linearGradient id="linear-gradient" x1="0.268" y1="0.021" x2="0.731" y2="0.964" gradientUnits="objectBoundingBox">
      <stop offset="0" stop-color="#0057d5"/>
      <stop offset="1" stop-color="#27b9f5"/>
    </linearGradient>
    <filter id="Polygon_4" x="0" y="0" filterUnits="userSpaceOnUse">
      <feOffset input="SourceAlpha"/>
      <feGaussianBlur stdDeviation="15" result="blur"/>
      <feFlood flood-opacity="0.278"/>
      <feComposite operator="in" in2="blur"/>
      <feComposite in="SourceGraphic"/>
    </filter>
  </defs>
  <g transform="matrix(1, 0, 0, 1, 0, 0)" filter="url(#Polygon_4)">
    <g id="Polygon_4-2" data-name="Polygon 4" transform="translate(45 45)" fill="url(#linear-gradient)">
      <path d="M 71.69919586181641 92.00445556640625 L 36.18819427490234 92.00445556640625 C 33.56402206420898 92.00445556640625 30.97505187988281 91.31212615966797 28.70115280151367 90.00229644775391 C 26.4272518157959 88.69248199462891 24.52940940856934 86.80031585693359 23.21279525756836 84.53034210205078 L 5.521137714385986 54.02811431884766 C 4.196638107299805 51.74452590942383 3.496537923812866 49.14211273193359 3.496537923812866 46.50222778320312 C 3.496537923812866 43.86232757568359 4.196638107299805 41.25991439819336 5.521137714385986 38.97632598876953 L 23.21280860900879 8.474113464355469 C 24.52942276000977 6.204142093658447 26.42726707458496 4.311970710754395 28.7011661529541 3.002156257629395 C 30.97506713867188 1.692327737808228 33.56403732299805 0.9999992251396179 36.18820953369141 0.9999992251396179 L 71.69919586181641 0.9999992251396179 C 74.3233642578125 0.9999992251396179 76.91233825683594 1.692327737808228 79.18624114990234 3.002156257629395 C 81.46013641357422 4.311970710754395 83.35797882080078 6.204142093658447 84.67459869384766 8.474113464355469 L 102.3662490844727 38.97634124755859 C 103.6907501220703 41.25991439819336 104.3908538818359 43.86232757568359 104.3908538818359 46.50222778320312 C 104.3908538818359 49.14211273193359 103.6907501220703 51.74452590942383 102.3662490844727 54.02811431884766 L 84.67459869384766 84.53032684326172 C 83.35797882080078 86.80031585693359 81.46013641357422 88.69249725341797 79.18624114990234 90.00231170654297 C 76.91233825683594 91.31212615966797 74.3233642578125 92.00445556640625 71.69919586181641 92.00445556640625 Z" stroke="none"/>
      <path d="M 36.18820190429688 2 C 33.73899078369141 2 31.32260131835938 2.646163940429688 29.20029449462891 3.868675231933594 C 27.07798767089844 5.091163635253906 25.30666351318359 6.857200622558594 24.07781982421875 8.975830078125 L 6.386154174804688 39.47805786132812 C 3.8731689453125 43.81071853637695 3.8731689453125 49.19372177124023 6.386154174804688 53.52638244628906 L 24.07780456542969 84.02861022949219 C 25.30664825439453 86.14723968505859 27.07797241210938 87.91327667236328 29.20027923583984 89.13576507568359 C 31.32258605957031 90.3582763671875 33.73897552490234 91.00444030761719 36.18818664550781 91.00444030761719 L 71.69918823242188 91.00445556640625 C 74.14842224121094 91.00445556640625 76.56480407714844 90.3582763671875 78.68711090087891 89.13578033447266 C 80.80941772460938 87.91329193115234 82.58072662353516 86.14726257324219 83.8095703125 84.02861022949219 L 101.501220703125 53.52639770507812 C 104.0142211914062 49.19372177124023 104.0142211914062 43.81071853637695 101.5012359619141 39.47805786132812 L 83.80958557128906 8.975830078125 C 82.58074188232422 6.857200622558594 80.80941772460938 5.091163635253906 78.68711090087891 3.868675231933594 C 76.56480407714844 2.646163940429688 74.14842224121094 2 71.69918823242188 2 L 36.18820190429688 2 M 36.18820190429688 0 L 71.69918823242188 0 C 77.404052734375 0 82.67735290527344 3.03753662109375 85.53963470458984 7.972381591796875 L 103.2312774658203 38.47461318969727 C 106.110710144043 43.43904495239258 106.110710144043 49.56539535522461 103.2312774658203 54.52984237670898 L 85.53961944580078 85.03205871582031 C 82.67735290527344 89.9669189453125 77.404052734375 93.00444030761719 71.69918823242188 93.00445556640625 L 36.18818664550781 93.00444030761719 C 30.48334503173828 93.00444030761719 25.21003723144531 89.96690368652344 22.34775543212891 85.03205871582031 L 4.656112670898438 54.52982711791992 C 1.776679992675781 49.56539535522461 1.776679992675781 43.43904495239258 4.656112670898438 38.47461318969727 L 22.34777069091797 7.972381591796875 C 25.21005249023438 3.03753662109375 30.48336029052734 0 36.18820190429688 0 Z" stroke="none" fill="#27b9f5"/>
    </g>
  </g>
</svg>
