<svg xmlns="http://www.w3.org/2000/svg" viewBox="0 0 105.081 90.636">
  <g id="Polygon_11" data-name="Polygon 11" fill="none">
    <path d="M67.287,0a20,20,0,0,1,17.3,9.97L99.266,35.288a20,20,0,0,1,0,20.061L84.59,80.666a20,20,0,0,1-17.3,9.97H37.794a20,20,0,0,1-17.3-9.97L5.814,55.348a20,20,0,0,1,0-20.061L20.491,9.97A20,20,0,0,1,37.794,0Z" stroke="none"/>
    <path d="M 37.79380798339844 1 C 34.46906280517578 1 31.18899536132812 1.877349853515625 28.3082275390625 3.537216186523438 C 25.42745208740234 5.197067260742188 23.02339935302734 7.594802856445312 21.35598754882812 10.47121429443359 L 6.679573059082031 35.78905487060547 C 5.003387451171875 38.68058776855469 4.117401123046875 41.9755859375 4.117401123046875 45.31782913208008 C 4.117401123046875 48.66007995605469 5.003387451171875 51.95508193969727 6.679573059082031 54.84661483764648 L 21.35597229003906 80.16445159912109 C 23.02338409423828 83.04087066650391 25.42743682861328 85.4385986328125 28.30821228027344 87.09846496582031 C 31.18898773193359 88.75832366943359 34.46904754638672 89.63566589355469 37.79380798339844 89.63566589355469 L 67.28672790527344 89.63566589355469 C 70.61149597167969 89.63566589355469 73.89154052734375 88.75832366943359 76.77231597900391 87.09846496582031 C 79.65309143066406 85.43861389160156 82.05712890625 83.04087066650391 83.72454833984375 80.16445159912109 L 98.40094757080078 54.84661483764648 C 100.0771331787109 51.95508193969727 100.9631195068359 48.66007995605469 100.9631195068359 45.31782913208008 C 100.9631195068359 41.9755859375 100.0771331787109 38.68058776855469 98.40094757080078 35.78905487060547 L 83.72455596923828 10.47121429443359 C 82.05714416503906 7.594802856445312 79.65309143066406 5.197067260742188 76.77231597900391 3.537216186523438 C 73.89154052734375 1.877349853515625 70.61148071289062 1 67.28672790527344 1 L 37.79380798339844 1 M 37.79380798339844 0 L 67.28672790527344 0 C 74.41953277587891 0 81.01248931884766 3.798759460449219 84.58970642089844 9.969696044921875 L 99.26609039306641 35.28753280639648 C 102.8621292114258 41.49093246459961 102.8621292114258 49.14473342895508 99.26609039306641 55.3481330871582 L 84.58969116210938 80.66596984863281 C 81.01248931884766 86.83692169189453 74.41953277587891 90.63566589355469 67.28672790527344 90.63566589355469 L 37.79380798339844 90.63566589355469 C 30.66099548339844 90.63568115234375 24.06803894042969 86.83690643310547 20.49082183837891 80.66596984863281 L 5.814422607421875 55.3481330871582 C 2.218399047851562 49.14473342895508 2.218399047851562 41.49093246459961 5.814422607421875 35.28753280639648 L 20.49083709716797 9.969696044921875 C 24.06805419921875 3.798759460449219 30.6610107421875 0 37.79380798339844 0 Z" stroke="none" fill="rgba(39,185,245,0.5)"/>
  </g>
</svg>
