<svg xmlns="http://www.w3.org/2000/svg" viewBox="0 0 554.176 499.09">
  <g id="Path_34" data-name="Path 34" transform="translate(-15.48)" fill="none">
    <path d="M395.061,0a72.125,72.125,0,0,1,62.457,36.053l102.47,177.42a72.126,72.126,0,0,1,0,72.145l-102.47,177.42a72.125,72.125,0,0,1-62.457,36.053H190.076a72.125,72.125,0,0,1-62.457-36.053L25.149,285.617a72.125,72.125,0,0,1,0-72.145l102.47-177.42A72.125,72.125,0,0,1,190.076,0Z" stroke="none"/>
    <path d="M 190.0758056640625 1.999969482421875 C 177.7852172851562 1.999969482421875 165.6623840332031 5.24774169921875 155.0178833007812 11.39224243164062 C 144.3734436035156 17.5367431640625 135.4979553222656 26.41009521484375 129.3510131835938 37.05319213867188 L 26.88092041015625 214.4728088378906 C 20.7310791015625 225.1208190917969 17.48046875 237.24853515625 17.48046875 249.5448150634766 C 17.48046875 261.8411865234375 20.7310791015625 273.9688720703125 26.88092041015625 284.6168823242188 L 129.3510131835938 462.03662109375 C 135.4979553222656 472.6795959472656 144.3733825683594 481.5530395507812 155.0177917480469 487.6974487304688 C 165.6622924804688 493.8419494628906 177.7850952148438 497.0897521972656 190.0757141113281 497.0897521972656 L 395.0608520507812 497.0897521972656 C 407.3515014648438 497.0897521972656 419.4743041992188 493.8419494628906 430.1188049316406 487.6974487304688 C 440.7632446289062 481.5530395507812 449.638671875 472.6795959472656 455.7855834960938 462.03662109375 L 558.2557373046875 284.616943359375 C 564.4055786132812 273.9689636230469 567.6561279296875 261.8412475585938 567.6561279296875 249.5448913574219 C 567.6561279296875 237.24853515625 564.4055786132812 225.1208190917969 558.2557373046875 214.4728088378906 L 455.7855834960938 37.05319213867188 C 449.638671875 26.41009521484375 440.7632446289062 17.5367431640625 430.1188049316406 11.39224243164062 C 419.4743041992188 5.24774169921875 407.3515014648438 1.999969482421875 395.0609436035156 1.999969482421875 L 190.0758056640625 1.999969482421875 M 190.0758056640625 -3.0517578125e-05 L 395.0609436035156 -3.0517578125e-05 C 420.82470703125 -3.0517578125e-05 444.6321411132812 13.74273681640625 457.5175170898438 36.05288696289062 L 559.9876708984375 213.4725341796875 C 572.8790283203125 235.7930908203125 572.8790283203125 263.2966918945312 559.9876708984375 285.6172485351562 L 457.5175170898438 463.0368957519531 C 444.6321411132812 485.3470458984375 420.82470703125 499.0897521972656 395.0608520507812 499.0897521972656 L 190.0757141113281 499.0897521972656 C 164.3118591308594 499.0897521972656 140.5044555664062 485.3470458984375 127.6190795898438 463.0368957519531 L 25.14898681640625 285.6171875 C 12.257568359375 263.2966003417969 12.257568359375 235.7930908203125 25.14898681640625 213.4725341796875 L 127.6190795898438 36.05288696289062 C 140.5045166015625 13.74273681640625 164.3119506835938 -3.0517578125e-05 190.0758056640625 -3.0517578125e-05 Z" stroke="none" fill="#27b9f5"/>
  </g>
</svg>
