<svg xmlns="http://www.w3.org/2000/svg" viewBox="0 0 36.528 52.376">
  <g id="icon" transform="translate(-11.736 140.188)">
    <path id="icon-2" data-name="icon" d="M63.7-124.871a1.845,1.845,0,0,1,.534,1.3,1.846,1.846,0,0,1-.534,1.3L30.824-89.127a1.817,1.817,0,0,1-1.29.539,1.817,1.817,0,0,1-1.29-.539h0a1.846,1.846,0,0,1-.534-1.3,1.847,1.847,0,0,1,.534-1.3l32.878-33.143a1.817,1.817,0,0,1,1.29-.539,1.817,1.817,0,0,1,1.29.539Zm-9.07,13.622v19.9a8.723,8.723,0,0,1-8.66,8.729,8.723,8.723,0,0,1-8.66-8.729v-2.437l3.711-3.741v6.179a4.939,4.939,0,0,0,4.948,4.988,4.939,4.939,0,0,0,4.948-4.988v-16.155Zm-17.319,8.514v-20.118a1.885,1.885,0,0,1,0-.606v-7.8h-.645a1.872,1.872,0,0,1-1.856-1.871A1.872,1.872,0,0,1,36.668-135H55.277a1.872,1.872,0,0,1,1.856,1.871,1.872,1.872,0,0,1-1.856,1.871h-.645v7.806a1.885,1.885,0,0,1,0,.606v2.652l-3.711,3.741v-4.83h-9.9v14.806Zm3.711-22.288h9.9v-6.235h-9.9Zm3.917,31.176A1.872,1.872,0,0,1,46.8-91.977a1.872,1.872,0,0,1-1.856,1.871,1.872,1.872,0,0,1-1.856-1.871A1.872,1.872,0,0,1,44.942-93.847Zm2.474-6.235a1.872,1.872,0,0,1,1.856,1.871,1.872,1.872,0,0,1-1.856,1.871,1.872,1.872,0,0,1-1.856-1.871A1.872,1.872,0,0,1,47.416-100.083Zm-2.062-17.459a1.872,1.872,0,0,1,1.856,1.871,1.872,1.872,0,0,1-1.856,1.871,1.872,1.872,0,0,1-1.856-1.871A1.872,1.872,0,0,1,45.354-117.541Z" transform="translate(-15.973 -5.188)" fill="#fff" fill-rule="evenodd"/>
  </g>
</svg>
