<svg xmlns="http://www.w3.org/2000/svg" xmlns:xlink="http://www.w3.org/1999/xlink" width="595.477" height="515.069" viewBox="0 0 595.477 515.069">
  <defs>
    <linearGradient id="linear-gradient" x1="0.912" y1="0.73" x2="-0.043" y2="0.124" gradientUnits="objectBoundingBox">
      <stop offset="0" stop-color="#0057d5"/>
      <stop offset="1" stop-color="#060d55"/>
    </linearGradient>
  </defs>
  <g id="Polygon_17" data-name="Polygon 17" fill="url(#linear-gradient)">
    <path d="M 430.4514770507812 513.5692138671875 L 165.0251007080078 513.5692138671875 C 160.3822479248047 513.5692138671875 155.8025512695312 512.3427734375 151.7811737060547 510.0223693847656 C 147.7597198486328 507.7020568847656 144.4059448242188 504.3509826660156 142.0823974609375 500.3313903808594 L 9.398789405822754 270.7966918945312 C 7.071635246276855 266.7706909179688 5.841558456420898 262.1847534179688 5.841558456420898 257.5346069335938 C 5.841558456420898 252.8843688964844 7.071635246276855 248.2984466552734 9.398789405822754 244.2724456787109 L 142.0823974609375 14.7379150390625 C 144.4060211181641 10.71829891204834 147.7597961425781 7.367222309112549 151.7811737060547 5.04683780670166 C 155.8026428222656 2.726453065872192 160.3822479248047 1.499991536140442 165.0251007080078 1.499991536140442 L 430.4514770507812 1.499991536140442 C 435.0943298339844 1.499991536140442 439.6740112304688 2.726453065872192 443.6954040527344 5.04683780670166 C 447.7168579101562 7.367222309112549 451.0706481933594 10.71829891204834 453.3941650390625 14.7379150390625 L 586.0777587890625 244.2725372314453 C 588.4049682617188 248.2984466552734 589.6350708007812 252.8844604492188 589.6350708007812 257.5346069335938 C 589.6350708007812 262.1848449707031 588.4049682617188 266.770751953125 586.0777587890625 270.7967529296875 L 453.3941650390625 500.331298828125 C 451.0706481933594 504.3509216308594 447.7168579101562 507.7020568847656 443.6954040527344 510.0223693847656 C 439.6740112304688 512.3427734375 435.0943298339844 513.5692138671875 430.4514770507812 513.5692138671875 Z" stroke="none"/>
    <path d="M 165.0250854492188 3 C 160.6451110839844 3 156.3246459960938 4.157073974609375 152.5308532714844 6.3460693359375 C 148.7370300292969 8.535064697265625 145.5730895996094 11.69644165039062 143.381103515625 15.488525390625 L 10.697509765625 245.0231323242188 C 8.501953125 248.8212280273438 7.34149169921875 253.1476135253906 7.34149169921875 257.5345153808594 C 7.34149169921875 261.9215087890625 8.501953125 266.2479248046875 10.697509765625 270.0459899902344 L 143.3810119628906 499.5805969238281 C 145.5730285644531 503.3726806640625 148.7370300292969 506.5341491699219 152.5307922363281 508.72314453125 C 156.3246459960938 510.9121398925781 160.6451110839844 512.0692138671875 165.0250854492188 512.0692138671875 L 430.451416015625 512.0692138671875 C 434.8314819335938 512.0692138671875 439.1519470214844 510.9121398925781 442.94580078125 508.72314453125 C 446.7395629882812 506.5341491699219 449.9035034179688 503.3726806640625 452.095458984375 499.5805969238281 L 584.7791137695312 270.0460815429688 C 586.9745483398438 266.2479858398438 588.135009765625 261.9216003417969 588.135009765625 257.5346069335938 C 588.135009765625 253.1476135253906 586.9745483398438 248.8212280273438 584.7791137695312 245.0231323242188 L 452.095458984375 15.488525390625 C 449.9035034179688 11.69644165039062 446.7395629882812 8.535064697265625 442.94580078125 6.3460693359375 C 439.1519470214844 4.157073974609375 434.8314819335938 3 430.451416015625 3 L 165.0250854492188 3 M 165.0250854492188 0 L 430.451416015625 0 C 440.4496459960938 0 449.6891784667969 5.331146240234375 454.6928100585938 13.98715209960938 L 587.3764038085938 243.5217590332031 C 592.387939453125 252.1915283203125 592.387939453125 262.877685546875 587.3764038085938 271.5474548339844 L 454.6928100585938 501.0820007324219 C 449.6891784667969 509.7379760742188 440.4496459960938 515.0692138671875 430.451416015625 515.0692138671875 L 165.0250854492188 515.0692138671875 C 155.0269470214844 515.0692138671875 145.7874145507812 509.7379760742188 140.7837219238281 501.0820007324219 L 8.10015869140625 271.54736328125 C 3.08856201171875 262.8776245117188 3.08856201171875 252.1915283203125 8.10015869140625 243.5217590332031 L 140.7837829589844 13.98715209960938 C 145.7874755859375 5.331146240234375 155.0269470214844 0 165.0250854492188 0 Z" stroke="none" fill="#27b9f5"/>
  </g>
</svg>
