<svg xmlns="http://www.w3.org/2000/svg" xmlns:xlink="http://www.w3.org/1999/xlink" width="100" height="90.582" viewBox="0 0 100 90.582">
  <defs>
    <linearGradient id="linear-gradient" x1="0.268" y1="0.021" x2="0.731" y2="0.964" gradientUnits="objectBoundingBox">
      <stop offset="0" stop-color="#0057d5"/>
      <stop offset="1" stop-color="#27b9f5"/>
    </linearGradient>
    <filter id="Polygon_10" x="0" y="0" width="100" height="90.582" filterUnits="userSpaceOnUse">
      <feOffset input="SourceAlpha"/>
      <feGaussianBlur stdDeviation="5" result="blur"/>
      <feFlood flood-color="#27b9f5"/>
      <feComposite operator="in" in2="blur"/>
      <feComposite in="SourceGraphic"/>
    </filter>
  </defs>
  <g transform="" filter="url(#Polygon_10)">
    <path id="Polygon_10-2" data-name="Polygon 10" d="M43.265,0A16,16,0,0,1,57.12,8l8.256,14.291a16,16,0,0,1,0,16.008L57.12,52.586a16,16,0,0,1-13.854,8H26.735a16,16,0,0,1-13.854-8L4.624,38.295a16,16,0,0,1,0-16.008L12.88,8A16,16,0,0,1,26.735,0Z" transform="translate(15 15)" fill="url(#linear-gradient)"/>
  </g>
</svg>
