<svg xmlns="http://www.w3.org/2000/svg" width="151.608" height="130.767" viewBox="0 0 151.608 130.767">
  <g id="Polygon_11" data-name="Polygon 11" fill="none">
    <path d="M102.182,0a20,20,0,0,1,17.3,9.97l26.308,45.384a20,20,0,0,1,0,20.061L119.485,120.8a20,20,0,0,1-17.3,9.97H49.426a20,20,0,0,1-17.3-9.97L5.814,75.414a20,20,0,0,1,0-20.061L32.123,9.97A20,20,0,0,1,49.426,0Z" stroke="none"/>
    <path d="M 49.42568206787109 0.9999847412109375 C 46.10092163085938 0.9999847412109375 42.82086181640625 1.877349853515625 39.94007873535156 3.537208557128906 C 37.05931854248047 5.197052001953125 34.65525817871094 7.59478759765625 32.98783874511719 10.47120666503906 L 6.679580688476562 55.85482788085938 C 5.003402709960938 58.74636840820312 4.117401123046875 62.04136657714844 4.117401123046875 65.38362884521484 C 4.117401123046875 68.72586822509766 5.003387451171875 72.0208740234375 6.6795654296875 74.91241455078125 L 32.98783874511719 120.2960510253906 C 34.65525817871094 123.1724700927734 37.05930328369141 125.5701904296875 39.94007873535156 127.2300491333008 C 42.82083892822266 128.8899078369141 46.10092163085938 129.7672424316406 49.42568206787109 129.7672424316406 L 102.1823196411133 129.7672424316406 C 105.507080078125 129.7672424316406 108.7871398925781 128.889892578125 111.6679229736328 127.2300491333008 C 114.5486755371094 125.5701904296875 116.9527435302734 123.1724472045898 118.6201629638672 120.2960510253906 L 144.9284362792969 74.91241455078125 C 146.6046142578125 72.0208740234375 147.4906005859375 68.72586822509766 147.4906005859375 65.38362884521484 C 147.4906005859375 62.04138946533203 146.6046142578125 58.74639129638672 144.9284362792969 55.85485076904297 L 118.6201629638672 10.47120666503906 C 116.9527435302734 7.59478759765625 114.5487060546875 5.197052001953125 111.6679229736328 3.537208557128906 C 108.7871398925781 1.877349853515625 105.507080078125 0.9999847412109375 102.1823196411133 0.9999847412109375 L 49.42568206787109 0.9999847412109375 M 49.42568206787109 -1.52587890625e-05 L 102.1823196411133 -1.52587890625e-05 C 109.3151245117188 -1.52587890625e-05 115.9080963134766 3.798751831054688 119.4853057861328 9.969688415527344 L 145.7935791015625 55.35333251953125 C 149.3896026611328 61.55673217773438 149.3896026611328 69.21052551269531 145.7935791015625 75.41392517089844 L 119.4853057861328 120.7975692749023 C 115.9080810546875 126.9684906005859 109.3151397705078 130.7672424316406 102.1823196411133 130.7672424316406 L 49.42568206787109 130.7672424316406 C 42.29286193847656 130.7672424316406 35.69989776611328 126.968505859375 32.12270355224609 120.7975692749023 L 5.814422607421875 75.41392517089844 C 2.218399047851562 69.21051025390625 2.218399047851562 61.55673217773438 5.814437866210938 55.35330963134766 L 32.12270355224609 9.969688415527344 C 35.69992065429688 3.798751831054688 42.29287719726562 -1.52587890625e-05 49.42568206787109 -1.52587890625e-05 Z" stroke="none" fill="rgba(39,185,245,0.5)"/>
  </g>
</svg>
