<svg xmlns="http://www.w3.org/2000/svg" width="556.522" height="579.157" viewBox="0 0 556.522 579.157">
  <g id="Polygon_15" data-name="Polygon 15" transform="translate(0 386.774) rotate(-60)" fill="none">
    <path d="M300.405,0A60,60,0,0,1,352.3,29.883l76.83,132.384a60,60,0,0,1,0,60.234L352.3,354.884a60,60,0,0,1-51.894,29.883H146.2a60,60,0,0,1-51.894-29.883L17.479,222.5a60,60,0,0,1,0-60.234L94.309,29.883A60,60,0,0,1,146.2,0Z" stroke="none"/>
    <path d="M 146.202880859375 0.999969482421875 C 135.8838806152344 0.999969482421875 125.702880859375 3.7218017578125 116.760498046875 8.871246337890625 C 107.8181762695312 14.02069091796875 100.3536682128906 21.4599609375 95.17401123046875 30.38479614257812 L 18.34371948242188 162.7684631347656 C 13.12893676757812 171.7538604736328 10.37255859375 181.99462890625 10.37255859375 192.3836364746094 C 10.37255859375 202.7726440429688 13.12887573242188 213.0134124755859 18.34365844726562 221.9988098144531 L 95.17401123046875 354.3824768066406 C 100.3536682128906 363.3073120117188 107.8181762695312 370.74658203125 116.760498046875 375.8959655761719 C 125.7028198242188 381.04541015625 135.8838195800781 383.7672424316406 146.2028198242188 383.7672424316406 L 300.4050903320312 383.7672424316406 C 310.72412109375 383.7672424316406 320.9051208496094 381.04541015625 329.8474426269531 375.8959655761719 C 338.789794921875 370.74658203125 346.2542724609375 363.3073120117188 351.4339599609375 354.3824768066406 L 428.2642822265625 221.9988098144531 C 433.4790649414062 213.0134124755859 436.2354431152344 202.7726440429688 436.2354431152344 192.3836364746094 C 436.2354431152344 181.99462890625 433.4790649414062 171.7538604736328 428.2642822265625 162.7684631347656 L 351.4339599609375 30.38485717773438 C 346.2542724609375 21.4599609375 338.789794921875 14.02069091796875 329.8474426269531 8.871246337890625 C 320.9051208496094 3.7218017578125 310.72412109375 0.999969482421875 300.4050903320312 0.999969482421875 L 146.202880859375 0.999969482421875 M 146.202880859375 -3.0517578125e-05 L 300.4050903320312 -3.0517578125e-05 C 321.792724609375 -3.0517578125e-05 341.5632934570312 11.38485717773438 352.298828125 29.88290405273438 L 429.1291809082031 162.2665252685547 C 439.9375610351562 180.8900299072266 439.9375610351562 203.8772430419922 429.1291809082031 222.5007476806641 L 352.298828125 354.8843994140625 C 341.5632934570312 373.3824157714844 321.792724609375 384.7672424316406 300.4050903320312 384.7672424316406 L 146.2028198242188 384.7672424316406 C 124.8152160644531 384.7672424316406 105.044677734375 373.3824157714844 94.30911254882812 354.8843994140625 L 17.47879028320312 222.5007476806641 C 6.670440673828125 203.8772430419922 6.670440673828125 180.8900299072266 17.47882080078125 162.2665252685547 L 94.30911254882812 29.88287353515625 C 105.0447082519531 11.38485717773438 124.8152770996094 -3.0517578125e-05 146.202880859375 -3.0517578125e-05 Z" stroke="none" fill="rgba(39,185,245,0.5)"/>
  </g>
</svg>
