<svg xmlns="http://www.w3.org/2000/svg" xmlns:xlink="http://www.w3.org/1999/xlink" viewBox="0 0 311.887 295.004">
  <defs>
    <linearGradient id="linear-gradient" x1="0.268" y1="0.021" x2="0.731" y2="0.964" gradientUnits="objectBoundingBox">
      <stop offset="0" stop-color="#0057d5"/>
      <stop offset="1" stop-color="#27b9f5"/>
    </linearGradient>
    <filter id="Polygon_4" x="0" y="0" filterUnits="userSpaceOnUse">
      <feOffset input="SourceAlpha"/>
      <feGaussianBlur stdDeviation="30" result="blur"/>
      <feFlood flood-color="#27b9f5"/>
      <feComposite operator="in" in2="blur"/>
      <feComposite in="SourceGraphic"/>
    </filter>
  </defs>
  <g transform="matrix(1, 0, 0, 1, 0, 0)" filter="url(#Polygon_4)">
    <g id="Polygon_4-2" data-name="Polygon 4" transform="translate(90 90)" fill="url(#linear-gradient)">
      <path d="M 89.64626312255859 114.0044403076172 L 42.24112701416016 114.0044403076172 C 39.60391235351562 114.0044403076172 37.0037956237793 113.3056716918945 34.72186279296875 111.9836883544922 C 32.4399299621582 110.6616897583008 30.54037857055664 108.7536697387695 29.22854423522949 106.4658737182617 L 5.431111812591553 64.96363830566406 C 4.130945205688477 62.69615173339844 3.443695068359375 60.11602020263672 3.443695068359375 57.50222015380859 C 3.443695068359375 54.88840484619141 4.130945205688477 52.30828857421875 5.431111812591553 50.04080200195312 L 29.22856140136719 8.538586616516113 C 30.54037857055664 6.250786781311035 32.43994522094727 4.342753410339355 34.72187805175781 3.020753383636475 C 37.00381088256836 1.69877016544342 39.60392761230469 1.000003457069397 42.24112701416016 1.000003457069397 L 89.64626312255859 1.000003457069397 C 92.28347778320312 1.000003457069397 94.88359832763672 1.69877016544342 97.16552734375 3.020753383636475 C 99.44746398925781 4.342753410339355 101.3470153808594 6.250786781311035 102.6588439941406 8.538586616516113 L 126.4562759399414 50.04080200195312 C 127.7564468383789 52.30828857421875 128.4436950683594 54.88840484619141 128.4436950683594 57.50222015380859 C 128.4436950683594 60.11603546142578 127.7564468383789 62.69615173339844 126.4562759399414 64.96363830566406 L 102.6588439941406 106.4658737182617 C 101.3470153808594 108.7536697387695 99.44746398925781 110.6616897583008 97.16552734375 111.9836883544922 C 94.88359832763672 113.3056716918945 92.28347778320312 114.0044403076172 89.64626312255859 114.0044403076172 Z" stroke="none"/>
      <path d="M 42.24113464355469 2 C 39.77973175048828 2 37.35295104980469 2.652183532714844 35.22315216064453 3.886039733886719 C 33.09335327148438 5.119895935058594 31.32044219970703 6.900726318359375 30.09607696533203 9.036003112792969 L 6.298622131347656 50.53822326660156 C 5.085128784179688 52.65454864501953 4.443695068359375 55.06265640258789 4.443695068359375 57.50222015380859 C 4.443695068359375 59.94176483154297 5.085113525390625 62.34989166259766 6.298622131347656 64.46621704101562 L 30.09606170654297 105.9684371948242 C 31.32041931152344 108.1037139892578 33.09335327148438 109.8845443725586 35.22315216064453 111.1184005737305 C 37.35295104980469 112.3522567749023 39.77971649169922 113.0044403076172 42.24111175537109 113.0044403076172 L 89.64625549316406 113.0044403076172 C 92.10765838623047 113.0044403076172 94.53443908691406 112.3522567749023 96.66424560546875 111.1184005737305 C 98.79403686523438 109.8845291137695 100.5669708251953 108.1037139892578 101.7913360595703 105.9684371948242 L 125.5887680053711 64.46621704101562 C 126.8022613525391 62.34989166259766 127.4436950683594 59.9417839050293 127.4436950683594 57.50222015380859 C 127.4436950683594 55.06265640258789 126.8022613525391 52.65454864501953 125.588752746582 50.53822326660156 L 101.7913131713867 9.036003112792969 C 100.5669479370117 6.900726318359375 98.79403686523438 5.119895935058594 96.66424560546875 3.886039733886719 C 94.53443908691406 2.652183532714844 92.10765838623047 2 89.64625549316406 2 L 42.24113464355469 2 M 42.24113464355469 0 L 89.64625549316406 0 C 95.37947845458984 0 100.6744766235352 3.067550659179688 103.5263290405273 8.041145324707031 L 127.3237686157227 49.54336547851562 C 130.1503295898438 54.47282028198242 130.1503295898438 60.53162002563477 127.3237686157227 65.46107482910156 L 103.5263519287109 106.9632949829102 C 100.6744766235352 111.9368743896484 95.37947845458984 115.0044403076172 89.64625549316406 115.0044403076172 L 42.24111175537109 115.0044403076172 C 36.50791168212891 115.0044403076172 31.21291351318359 111.9368896484375 28.36103820800781 106.9632949829102 L 4.563606262207031 65.46107482910156 C 1.737060546875 60.53160095214844 1.737060546875 54.47282028198242 4.563621520996094 49.54336547851562 L 28.36106109619141 8.041145324707031 C 31.21291351318359 3.067550659179688 36.50791168212891 0 42.24113464355469 0 Z" stroke="none" fill="#27b9f5"/>
    </g>
  </g>
</svg>
