<?xml version="1.0" encoding="UTF-8"?><svg id="ico_modra_05" xmlns="http://www.w3.org/2000/svg" xmlns:xlink="http://www.w3.org/1999/xlink" viewBox="0 0 60.598 60.598"><defs><linearGradient id="Nepojmenovaný_přechod" x1="-262.5929" y1="443.9374" x2="-261.5929" y2="443.9374" gradientTransform="translate(15912.6659 26932.0181) scale(60.598 -60.598)" gradientUnits="userSpaceOnUse"><stop offset="0" stop-color="#5aade4"/><stop offset="1" stop-color="#215aa2"/></linearGradient></defs><circle id="Ellipse_7" cx="30.299" cy="30.299" r="30.299" style="fill:url(#Nepojmenovaný_přechod);"/><path id="Path_46" d="m37.669,25.311l.969,16.077c-.0154.1583-.0664.3111-.149.447-.074.149-.223.149-.372.149h-2.01c-.281.0067-.5143-.2157-.521-.4967-.0002-.0081-.0002-.0162,0-.0243l-.372-7.072h0c-.074-1.191-.149-2.531-.149-3.8-.298.968-.6703,2.0103-1.117,3.127l-2.83,7.822c-.0787.2208-.2866.3693-.521.372h-1.712c-.2344-.0027-.4423-.1512-.521-.372l-2.606-7.667c-.372-1.042-.67-2.01-.968-2.978-.074,1.191-.149,2.457-.223,3.648l-.447,6.923c-.0185.2797-.2413.5025-.521.521h-2.01c-.138-.0029-.2702-.0559-.372-.149-.0826-.1359-.1336-.2887-.149-.447l1.117-16.08c.0185-.2797.2413-.5025.521-.521h2.68c.2344.0027.4423.1512.521.372l2.754,7.817h0c.447,1.266.819,2.457,1.117,3.648.372-1.117.744-2.308,1.191-3.648h0l2.9-7.817c.0787-.2208.2866-.3693.521-.372h2.68c.3068-.0141.5705.2152.599.521Zm-14.814-3.2h-4.095v4.094c.0067.281-.2157.5143-.4967.521-.0081.0002-.0162.0002-.0243,0h-4.764c-.281.0067-.5143-.2157-.521-.4967-.0002-.0081-.0002-.0162,0-.0243v-4.095h-4.095c-.281.0067-.5143-.2157-.521-.4967-.0002-.0084-.0002-.0169,0-.0253v-4.763c-.0067-.281.2157-.5143.4967-.521.0081-.0002.0162-.0002.0243,0h4.094v-4.095c-.0067-.281.2157-.5143.4967-.521.0081-.0002.0162-.0002.0243,0h4.764c.281-.0067.5143.2157.521.4967.0002.0081.0002.0162,0,.0243v4.094h4.094c.281-.0067.5143.2157.521.4967.0002.0081.0002.0162,0,.0243v4.764c.0067.281-.2157.5143-.4967.521-.0081.0002-.0162.0002-.0243,0l.002.002Zm-.893-4.541h-4.542v-4.542h-3.2v4.541h-4.542v3.2h4.541v4.541h3.2v-4.54h4.541l.002-3.2Zm29.182,12.357c-.074.819-.074,1.787-.074,3.127v6.7c.0229,1.1573-.1277,2.3114-.447,3.424-.2252.8743-.7199,1.6556-1.414,2.233h0c-1.2879,1.082-2.9357,1.6399-4.616,1.563-1.4563.018-2.8924-.341-4.169-1.042-.2219-.1437-.3146-.422-.223-.67l.521-1.638c.0617-.1737.1983-.3103.372-.372.171-.093.3827-.0629.521.074.9439.5631,2.0282.8471,3.127.819.8371.0644,1.6661-.2028,2.308-.744.6507-.7039.9733-1.6502.888-2.605-.9087.7171-2.0433,1.0866-3.2,1.042-1.513.0084-2.9543-.6443-3.946-1.787-1.0057-1.2388-1.534-2.797-1.489-4.392-.08-1.8099.5629-3.5774,1.787-4.913,1.0192-1.1481,2.4849-1.7996,4.02-1.787.9475-.0243,1.8806.2348,2.68.744.149.149.372.223.521.372v-.3c.0185-.2797.2413-.5025.521-.521h1.861c.138.0029.2702.0559.372.149.079.226.153.375.079.524Zm-3.276,4.541c.0257-.2505.0006-.5035-.074-.744h0c-.1531-.5277-.4649-.9955-.893-1.34-.4455-.3484-.9976-.5324-1.563-.521-.7809.0065-1.5181.3615-2.01.968-.578.8266-.866,1.8214-.819,2.829-.0142.923.2446,1.8296.744,2.606.5024.6437,1.2686,1.0262,2.085,1.041,1.0983-.0136,2.0617-.7363,2.382-1.787.0859-.316.1359-.6408.149-.968v-2.084h-.001Z" style="fill:#fff;"/></svg>