<?xml version="1.0" encoding="utf-8"?>
<!-- Generator: Adobe Illustrator 28.1.0, SVG Export Plug-In . SVG Version: 6.00 Build 0)  -->
<svg version="1.1" id="Vrstva_1" xmlns="http://www.w3.org/2000/svg" xmlns:xlink="http://www.w3.org/1999/xlink" x="0px" y="0px"
	 viewBox="0 0 744 363" style="enable-background:new 0 0 744 363;" xml:space="preserve">
<style type="text/css">
	.st0{fill:#FFFFFF;}
</style>
<g transform="translate(0.000000,363.000000) scale(0.100000,-0.100000)">
	<path class="st0" d="M3720,3613c-225-8-643-49-840-82c-30-5-98-16-150-25c-259-42-511-98-815-181c-184-51-538-166-690-226
		c-44-17-98-37-120-45s-49-19-60-24s-49-21-85-35c-87-36-89-37-220-98c-148-68-180-85-180-97c0-6,145-10,394-10h394l12,30
		c22,52,55,62,197,58c121-3,125-4,148-30c13-15,25-32,27-38c4-12,772-15,804-3c11,4,34,17,52,29c123,84,481,217,727,271
		c242,53,523,93,781,112c294,22,920,8,1244-28c256-29,371-43,420-51c30-6,116-19,190-30c74-12,164-27,200-35s92-18,125-24
		c141-24,442-91,683-152c301-77,349-90,374-100c39-16,58-5,23,12c-17,9-39,20-50,27c-63,36-373,179-510,235c-152,62-188,76-330,126
		c-33,12-69,26-80,31c-11,4-74,25-140,45s-138,43-160,50c-135,46-572,150-755,180c-47,8-125,21-175,29c-118,21-386,52-555,66
		C4467,3611,3887,3619,3720,3613z"/>
	<path class="st0" d="M1445,2789c-20-3-43-13-51-21c-21-20-33-80-34-154c0-90,13-99,145-99c152,0,173,21,178,172c1,48-2,76-11,85
		C1657,2787,1502,2798,1445,2789z"/>
	<path class="st0" d="M567,2696c-112-31-178-111-203-242c-8-43-39-261-69-484c-31-223-58-420-61-437l-6-33h166c91,0,166,3,166,6
		c0,13,60,439,65,462c5,22,5,22,224,22h218l6,38c4,20,9,70,13,110l7,72H876H659l6,48c23,168,33,188,100,196c22,2,128,5,236,5l197,1
		l17,115c10,64,15,118,13,121c-3,3-142,7-309,10C679,2709,605,2707,567,2696z"/>
	<path class="st0" d="M1947,2593c-3-5-11-56-18-115l-13-108h-77c-88,0-84,5-94-100c-4-36-9-73-11-82c-5-16,3-18,71-18h77l-6-57
		c-4-32-18-129-32-216c-38-249-32-304,41-364c55-46,108-57,238-50c62,3,134,11,161,18l49,12l-7,100c-4,56-9,104-12,109
		c-3,4-39,8-79,8c-63,0-76,3-84,19c-9,16,13,213,44,389l6,32h83h83l12,88c6,49,11,94,11,100c0,8-25,12-80,12c-57,0-80,4-80,13
		c0,6,4,39,9,72s12,79,15,103l6,42h-154C2021,2600,1949,2597,1947,2593z"/>
	<path class="st0" d="M3090,2371c-71-23-111-44-189-99l-63-45l7,72l7,71h-140h-140l-6-37c-3-21-29-202-56-403c-28-201-53-380-56-397
		l-6-33h161c94,0,161,4,161,9c0,6,16,124,36,263c40,286,31,266,141,319c46,22,73,29,105,27c42-3,43-4,46-39c2-20-13-148-32-284
		c-20-136-36-258-36-271v-24h155c152,0,155,0,160,23c2,12,25,170,51,352c50,356,50,371,1,439C3348,2383,3209,2409,3090,2371z"/>
	<path class="st0" d="M3867,2375c-126-25-212-87-263-187c-64-126-88-370-49-493c28-90,98-156,196-187c65-20,94-23,239-23
		c167,0,269,15,357,51c30,13,34,18,29,42c-3,15-8,57-12,94l-6,67l-217-6l-216-6l-28,24c-17,15-29,36-30,54c-2,29-1,30,58,37
		c33,3,115,11,181,17c257,23,343,82,360,248c16,150-69,244-247,272C4132,2394,3950,2391,3867,2375z M4150,2160c28-44-4-115-58-130
		c-38-11-194-30-200-24c-2,1-1,20,3,42c9,54,40,100,78,118C4015,2185,4137,2181,4150,2160z"/>
	<path class="st0" d="M4794,2375c-115-25-172-68-204-152c-22-59-26-137-10-195c24-85,90-128,304-197c154-50,166-56,166-81
		c0-39-34-45-281-48l-236-4l-12-68c-20-124-27-115,97-131c141-18,449-19,522,0c119,30,171,75,202,174c39,131,10,234-84,293
		c-23,15-111,48-197,75c-90,28-163,57-175,68c-19,20-20,22-3,38c16,16,45,18,256,21l238,3l12,87c6,47,7,90,3,94
		c-14,14-275,38-407,37C4914,2389,4827,2382,4794,2375z"/>
	<path class="st0" d="M5734,2376c-154-36-214-103-222-251c-3-70-1-86,20-125c39-71,87-101,264-159c187-62,194-66,194-91
		c0-38-34-44-282-48l-237-4l-6-32c-16-93-21-147-16-150c23-13,245-31,391-31c202,0,280,13,349,59c113,76,146,282,62,379
		c-38,43-93,69-236,113c-197,59-226,77-190,113c13,14,53,16,254,19l237,3l12,87c6,47,8,90,4,93C6303,2380,5835,2399,5734,2376z"/>
	<path class="st0" d="M1320,2361c0-4-9-73-20-152s-36-261-55-404c-20-143-38-270-42-282l-5-23h160h159l7,43c4,23,27,186,51,362
		s48,349,54,384s8,68,5,72C1627,2373,1320,2373,1320,2361z"/>
	<path class="st0" d="M79,1237c7-10,17-17,22-17c8,0,185-80,221-100c16-9,272-123,313-139c11-5,31-13,45-19c45-19,252-98,425-161
		c28-10,106-35,175-56s143-44,165-52c72-24,423-112,605-152c485-105,1210-179,1675-169l149,3l8,38c12,58,38,302,38,358v49l-62-5
		c-35-3-112-11-173-17c-146-15-859-15-1050,1c-452,36-634,57-990,112c-267,41-527,91-930,179c-22,5-148,37-280,71
		C38,1262,62,1257,79,1237z"/>
	<path class="st0" d="M4475,1150c-177-23-301-125-360-296c-54-155-82-493-51-613c41-159,162-231,391-231c222,0,358,78,440,253
		c83,176,113,578,53,709c-49,107-133,158-290,178C4567,1161,4562,1161,4475,1150z M4605,920c62-23,75-57,75-187s-15-267-37-347
		c-21-75-80-141-135-151c-56-11-118,14-143,55c-16,29-19,51-17,145c3,215,32,365,83,436C4467,923,4543,944,4605,920z"/>
	<path class="st0" d="M5515,1150c-212-24-342-155-395-396c-27-123-44-390-31-473c20-124,79-200,187-241c82-31,262-39,366-16
		c250,56,367,289,368,733c0,138-13,200-53,261C5886,1123,5718,1173,5515,1150z M5667,903c49-36,56-79,44-258c-18-262-52-359-138-397
		c-72-32-150-10-179,50c-14,31-16,58-11,192c10,261,53,391,142,431C5556,935,5639,925,5667,903z"/>
	<path class="st0" d="M6135,1043c-3-49-7-101-8-116l-2-28l227,1c136,0,229-3,232-9c4-5-88-199-204-430c-115-232-210-423-210-426
		s65-5,146-5h145l245,496c146,297,244,506,244,524c0,19-10,36-31,54l-31,26h-373h-373L6135,1043z"/>
</g>
</svg>
