<svg xmlns="http://www.w3.org/2000/svg" xmlns:xlink="http://www.w3.org/1999/xlink" width="1190" height="1190" style="transform: translateX(-50%)" viewBox="0 0 1190 1190">
  <defs>
    <radialGradient id="radial-gradient" cx="0.5" cy="0.5" r="0.5" gradientUnits="objectBoundingBox">
      <stop offset="0" stop-color="#27b9f5"/>
      <stop offset="1" stop-color="#27b9f5" stop-opacity="0"/>
    </radialGradient>
  </defs>
  <path id="Path_35" data-name="Path 35" d="M0-1188H2v-2H0Zm22,0h2v-2H22Zm22,0h2v-2H44Zm22,0h2v-2H66Zm22,0h2v-2H88Zm22,0h2v-2h-2Zm22,0h2v-2h-2Zm22,0h2v-2h-2Zm22,0h2v-2h-2Zm22,0h2v-2h-2Zm22,0h2v-2h-2Zm22,0h2v-2h-2Zm22,0h2v-2h-2Zm22,0h2v-2h-2Zm22,0h2v-2h-2Zm22,0h2v-2h-2Zm22,0h2v-2h-2Zm22,0h2v-2h-2Zm22,0h2v-2h-2Zm22,0h2v-2h-2Zm22,0h2v-2h-2Zm22,0h2v-2h-2Zm22,0h2v-2h-2Zm22,0h2v-2h-2Zm22,0h2v-2h-2Zm22,0h2v-2h-2Zm22,0h2v-2h-2Zm22,0h2v-2h-2Zm22,0h2v-2h-2Zm22,0h2v-2h-2Zm22,0h2v-2h-2Zm22,0h2v-2h-2Zm22,0h2v-2h-2Zm22,0h2v-2h-2Zm22,0h2v-2h-2Zm22,0h2v-2h-2Zm22,0h2v-2h-2Zm22,0h2v-2h-2Zm22,0h2v-2h-2Zm22,0h2v-2h-2Zm22,0h2v-2h-2Zm22,0h2v-2h-2Zm22,0h2v-2h-2Zm22,0h2v-2h-2Zm22,0h2v-2h-2Zm22,0h2v-2h-2Zm22,0h2v-2h-2Zm22,0h2v-2h-2Zm22,0h2v-2h-2Zm22,0h2v-2h-2Zm22,0h2v-2h-2Zm22,0h2v-2h-2Zm22,0h2v-2h-2Zm22,0h2v-2h-2Zm22,0h2v-2h-2ZM0-1166H2v-2H0Zm22,0h2v-2H22Zm22,0h2v-2H44Zm22,0h2v-2H66Zm22,0h2v-2H88Zm22,0h2v-2h-2Zm22,0h2v-2h-2Zm22,0h2v-2h-2Zm22,0h2v-2h-2Zm22,0h2v-2h-2Zm22,0h2v-2h-2Zm22,0h2v-2h-2Zm22,0h2v-2h-2Zm22,0h2v-2h-2Zm22,0h2v-2h-2Zm22,0h2v-2h-2Zm22,0h2v-2h-2Zm22,0h2v-2h-2Zm22,0h2v-2h-2Zm22,0h2v-2h-2Zm22,0h2v-2h-2Zm22,0h2v-2h-2Zm22,0h2v-2h-2Zm22,0h2v-2h-2Zm22,0h2v-2h-2Zm22,0h2v-2h-2Zm22,0h2v-2h-2Zm22,0h2v-2h-2Zm22,0h2v-2h-2Zm22,0h2v-2h-2Zm22,0h2v-2h-2Zm22,0h2v-2h-2Zm22,0h2v-2h-2Zm22,0h2v-2h-2Zm22,0h2v-2h-2Zm22,0h2v-2h-2Zm22,0h2v-2h-2Zm22,0h2v-2h-2Zm22,0h2v-2h-2Zm22,0h2v-2h-2Zm22,0h2v-2h-2Zm22,0h2v-2h-2Zm22,0h2v-2h-2Zm22,0h2v-2h-2Zm22,0h2v-2h-2Zm22,0h2v-2h-2Zm22,0h2v-2h-2Zm22,0h2v-2h-2Zm22,0h2v-2h-2Zm22,0h2v-2h-2Zm22,0h2v-2h-2Zm22,0h2v-2h-2Zm22,0h2v-2h-2Zm22,0h2v-2h-2Zm22,0h2v-2h-2ZM0-1144H2v-2H0Zm22,0h2v-2H22Zm22,0h2v-2H44Zm22,0h2v-2H66Zm22,0h2v-2H88Zm22,0h2v-2h-2Zm22,0h2v-2h-2Zm22,0h2v-2h-2Zm22,0h2v-2h-2Zm22,0h2v-2h-2Zm22,0h2v-2h-2Zm22,0h2v-2h-2Zm22,0h2v-2h-2Zm22,0h2v-2h-2Zm22,0h2v-2h-2Zm22,0h2v-2h-2Zm22,0h2v-2h-2Zm22,0h2v-2h-2Zm22,0h2v-2h-2Zm22,0h2v-2h-2Zm22,0h2v-2h-2Zm22,0h2v-2h-2Zm22,0h2v-2h-2Zm22,0h2v-2h-2Zm22,0h2v-2h-2Zm22,0h2v-2h-2Zm22,0h2v-2h-2Zm22,0h2v-2h-2Zm22,0h2v-2h-2Zm22,0h2v-2h-2Zm22,0h2v-2h-2Zm22,0h2v-2h-2Zm22,0h2v-2h-2Zm22,0h2v-2h-2Zm22,0h2v-2h-2Zm22,0h2v-2h-2Zm22,0h2v-2h-2Zm22,0h2v-2h-2Zm22,0h2v-2h-2Zm22,0h2v-2h-2Zm22,0h2v-2h-2Zm22,0h2v-2h-2Zm22,0h2v-2h-2Zm22,0h2v-2h-2Zm22,0h2v-2h-2Zm22,0h2v-2h-2Zm22,0h2v-2h-2Zm22,0h2v-2h-2Zm22,0h2v-2h-2Zm22,0h2v-2h-2Zm22,0h2v-2h-2Zm22,0h2v-2h-2Zm22,0h2v-2h-2Zm22,0h2v-2h-2Zm22,0h2v-2h-2ZM0-1122H2v-2H0Zm22,0h2v-2H22Zm22,0h2v-2H44Zm22,0h2v-2H66Zm22,0h2v-2H88Zm22,0h2v-2h-2Zm22,0h2v-2h-2Zm22,0h2v-2h-2Zm22,0h2v-2h-2Zm22,0h2v-2h-2Zm22,0h2v-2h-2Zm22,0h2v-2h-2Zm22,0h2v-2h-2Zm22,0h2v-2h-2Zm22,0h2v-2h-2Zm22,0h2v-2h-2Zm22,0h2v-2h-2Zm22,0h2v-2h-2Zm22,0h2v-2h-2Zm22,0h2v-2h-2Zm22,0h2v-2h-2Zm22,0h2v-2h-2Zm22,0h2v-2h-2Zm22,0h2v-2h-2Zm22,0h2v-2h-2Zm22,0h2v-2h-2Zm22,0h2v-2h-2Zm22,0h2v-2h-2Zm22,0h2v-2h-2Zm22,0h2v-2h-2Zm22,0h2v-2h-2Zm22,0h2v-2h-2Zm22,0h2v-2h-2Zm22,0h2v-2h-2Zm22,0h2v-2h-2Zm22,0h2v-2h-2Zm22,0h2v-2h-2Zm22,0h2v-2h-2Zm22,0h2v-2h-2Zm22,0h2v-2h-2Zm22,0h2v-2h-2Zm22,0h2v-2h-2Zm22,0h2v-2h-2Zm22,0h2v-2h-2Zm22,0h2v-2h-2Zm22,0h2v-2h-2Zm22,0h2v-2h-2Zm22,0h2v-2h-2Zm22,0h2v-2h-2Zm22,0h2v-2h-2Zm22,0h2v-2h-2Zm22,0h2v-2h-2Zm22,0h2v-2h-2Zm22,0h2v-2h-2Zm22,0h2v-2h-2ZM0-1100H2v-2H0Zm22,0h2v-2H22Zm22,0h2v-2H44Zm22,0h2v-2H66Zm22,0h2v-2H88Zm22,0h2v-2h-2Zm22,0h2v-2h-2Zm22,0h2v-2h-2Zm22,0h2v-2h-2Zm22,0h2v-2h-2Zm22,0h2v-2h-2Zm22,0h2v-2h-2Zm22,0h2v-2h-2Zm22,0h2v-2h-2Zm22,0h2v-2h-2Zm22,0h2v-2h-2Zm22,0h2v-2h-2Zm22,0h2v-2h-2Zm22,0h2v-2h-2Zm22,0h2v-2h-2Zm22,0h2v-2h-2Zm22,0h2v-2h-2Zm22,0h2v-2h-2Zm22,0h2v-2h-2Zm22,0h2v-2h-2Zm22,0h2v-2h-2Zm22,0h2v-2h-2Zm22,0h2v-2h-2Zm22,0h2v-2h-2Zm22,0h2v-2h-2Zm22,0h2v-2h-2Zm22,0h2v-2h-2Zm22,0h2v-2h-2Zm22,0h2v-2h-2Zm22,0h2v-2h-2Zm22,0h2v-2h-2Zm22,0h2v-2h-2Zm22,0h2v-2h-2Zm22,0h2v-2h-2Zm22,0h2v-2h-2Zm22,0h2v-2h-2Zm22,0h2v-2h-2Zm22,0h2v-2h-2Zm22,0h2v-2h-2Zm22,0h2v-2h-2Zm22,0h2v-2h-2Zm22,0h2v-2h-2Zm22,0h2v-2h-2Zm22,0h2v-2h-2Zm22,0h2v-2h-2Zm22,0h2v-2h-2Zm22,0h2v-2h-2Zm22,0h2v-2h-2Zm22,0h2v-2h-2Zm22,0h2v-2h-2ZM0-1078H2v-2H0Zm22,0h2v-2H22Zm22,0h2v-2H44Zm22,0h2v-2H66Zm22,0h2v-2H88Zm22,0h2v-2h-2Zm22,0h2v-2h-2Zm22,0h2v-2h-2Zm22,0h2v-2h-2Zm22,0h2v-2h-2Zm22,0h2v-2h-2Zm22,0h2v-2h-2Zm22,0h2v-2h-2Zm22,0h2v-2h-2Zm22,0h2v-2h-2Zm22,0h2v-2h-2Zm22,0h2v-2h-2Zm22,0h2v-2h-2Zm22,0h2v-2h-2Zm22,0h2v-2h-2Zm22,0h2v-2h-2Zm22,0h2v-2h-2Zm22,0h2v-2h-2Zm22,0h2v-2h-2Zm22,0h2v-2h-2Zm22,0h2v-2h-2Zm22,0h2v-2h-2Zm22,0h2v-2h-2Zm22,0h2v-2h-2Zm22,0h2v-2h-2Zm22,0h2v-2h-2Zm22,0h2v-2h-2Zm22,0h2v-2h-2Zm22,0h2v-2h-2Zm22,0h2v-2h-2Zm22,0h2v-2h-2Zm22,0h2v-2h-2Zm22,0h2v-2h-2Zm22,0h2v-2h-2Zm22,0h2v-2h-2Zm22,0h2v-2h-2Zm22,0h2v-2h-2Zm22,0h2v-2h-2Zm22,0h2v-2h-2Zm22,0h2v-2h-2Zm22,0h2v-2h-2Zm22,0h2v-2h-2Zm22,0h2v-2h-2Zm22,0h2v-2h-2Zm22,0h2v-2h-2Zm22,0h2v-2h-2Zm22,0h2v-2h-2Zm22,0h2v-2h-2Zm22,0h2v-2h-2Zm22,0h2v-2h-2ZM0-1056H2v-2H0Zm22,0h2v-2H22Zm22,0h2v-2H44Zm22,0h2v-2H66Zm22,0h2v-2H88Zm22,0h2v-2h-2Zm22,0h2v-2h-2Zm22,0h2v-2h-2Zm22,0h2v-2h-2Zm22,0h2v-2h-2Zm22,0h2v-2h-2Zm22,0h2v-2h-2Zm22,0h2v-2h-2Zm22,0h2v-2h-2Zm22,0h2v-2h-2Zm22,0h2v-2h-2Zm22,0h2v-2h-2Zm22,0h2v-2h-2Zm22,0h2v-2h-2Zm22,0h2v-2h-2Zm22,0h2v-2h-2Zm22,0h2v-2h-2Zm22,0h2v-2h-2Zm22,0h2v-2h-2Zm22,0h2v-2h-2Zm22,0h2v-2h-2Zm22,0h2v-2h-2Zm22,0h2v-2h-2Zm22,0h2v-2h-2Zm22,0h2v-2h-2Zm22,0h2v-2h-2Zm22,0h2v-2h-2Zm22,0h2v-2h-2Zm22,0h2v-2h-2Zm22,0h2v-2h-2Zm22,0h2v-2h-2Zm22,0h2v-2h-2Zm22,0h2v-2h-2Zm22,0h2v-2h-2Zm22,0h2v-2h-2Zm22,0h2v-2h-2Zm22,0h2v-2h-2Zm22,0h2v-2h-2Zm22,0h2v-2h-2Zm22,0h2v-2h-2Zm22,0h2v-2h-2Zm22,0h2v-2h-2Zm22,0h2v-2h-2Zm22,0h2v-2h-2Zm22,0h2v-2h-2Zm22,0h2v-2h-2Zm22,0h2v-2h-2Zm22,0h2v-2h-2Zm22,0h2v-2h-2Zm22,0h2v-2h-2ZM0-1034H2v-2H0Zm22,0h2v-2H22Zm22,0h2v-2H44Zm22,0h2v-2H66Zm22,0h2v-2H88Zm22,0h2v-2h-2Zm22,0h2v-2h-2Zm22,0h2v-2h-2Zm22,0h2v-2h-2Zm22,0h2v-2h-2Zm22,0h2v-2h-2Zm22,0h2v-2h-2Zm22,0h2v-2h-2Zm22,0h2v-2h-2Zm22,0h2v-2h-2Zm22,0h2v-2h-2Zm22,0h2v-2h-2Zm22,0h2v-2h-2Zm22,0h2v-2h-2Zm22,0h2v-2h-2Zm22,0h2v-2h-2Zm22,0h2v-2h-2Zm22,0h2v-2h-2Zm22,0h2v-2h-2Zm22,0h2v-2h-2Zm22,0h2v-2h-2Zm22,0h2v-2h-2Zm22,0h2v-2h-2Zm22,0h2v-2h-2Zm22,0h2v-2h-2Zm22,0h2v-2h-2Zm22,0h2v-2h-2Zm22,0h2v-2h-2Zm22,0h2v-2h-2Zm22,0h2v-2h-2Zm22,0h2v-2h-2Zm22,0h2v-2h-2Zm22,0h2v-2h-2Zm22,0h2v-2h-2Zm22,0h2v-2h-2Zm22,0h2v-2h-2Zm22,0h2v-2h-2Zm22,0h2v-2h-2Zm22,0h2v-2h-2Zm22,0h2v-2h-2Zm22,0h2v-2h-2Zm22,0h2v-2h-2Zm22,0h2v-2h-2Zm22,0h2v-2h-2Zm22,0h2v-2h-2Zm22,0h2v-2h-2Zm22,0h2v-2h-2Zm22,0h2v-2h-2Zm22,0h2v-2h-2Zm22,0h2v-2h-2ZM0-1012H2v-2H0Zm22,0h2v-2H22Zm22,0h2v-2H44Zm22,0h2v-2H66Zm22,0h2v-2H88Zm22,0h2v-2h-2Zm22,0h2v-2h-2Zm22,0h2v-2h-2Zm22,0h2v-2h-2Zm22,0h2v-2h-2Zm22,0h2v-2h-2Zm22,0h2v-2h-2Zm22,0h2v-2h-2Zm22,0h2v-2h-2Zm22,0h2v-2h-2Zm22,0h2v-2h-2Zm22,0h2v-2h-2Zm22,0h2v-2h-2Zm22,0h2v-2h-2Zm22,0h2v-2h-2Zm22,0h2v-2h-2Zm22,0h2v-2h-2Zm22,0h2v-2h-2Zm22,0h2v-2h-2Zm22,0h2v-2h-2Zm22,0h2v-2h-2Zm22,0h2v-2h-2Zm22,0h2v-2h-2Zm22,0h2v-2h-2Zm22,0h2v-2h-2Zm22,0h2v-2h-2Zm22,0h2v-2h-2Zm22,0h2v-2h-2Zm22,0h2v-2h-2Zm22,0h2v-2h-2Zm22,0h2v-2h-2Zm22,0h2v-2h-2Zm22,0h2v-2h-2Zm22,0h2v-2h-2Zm22,0h2v-2h-2Zm22,0h2v-2h-2Zm22,0h2v-2h-2Zm22,0h2v-2h-2Zm22,0h2v-2h-2Zm22,0h2v-2h-2Zm22,0h2v-2h-2Zm22,0h2v-2h-2Zm22,0h2v-2h-2Zm22,0h2v-2h-2Zm22,0h2v-2h-2Zm22,0h2v-2h-2Zm22,0h2v-2h-2Zm22,0h2v-2h-2Zm22,0h2v-2h-2Zm22,0h2v-2h-2ZM0-990H2v-2H0Zm22,0h2v-2H22Zm22,0h2v-2H44Zm22,0h2v-2H66Zm22,0h2v-2H88Zm22,0h2v-2h-2Zm22,0h2v-2h-2Zm22,0h2v-2h-2Zm22,0h2v-2h-2Zm22,0h2v-2h-2Zm22,0h2v-2h-2Zm22,0h2v-2h-2Zm22,0h2v-2h-2Zm22,0h2v-2h-2Zm22,0h2v-2h-2Zm22,0h2v-2h-2Zm22,0h2v-2h-2Zm22,0h2v-2h-2Zm22,0h2v-2h-2Zm22,0h2v-2h-2Zm22,0h2v-2h-2Zm22,0h2v-2h-2Zm22,0h2v-2h-2Zm22,0h2v-2h-2Zm22,0h2v-2h-2Zm22,0h2v-2h-2Zm22,0h2v-2h-2Zm22,0h2v-2h-2Zm22,0h2v-2h-2Zm22,0h2v-2h-2Zm22,0h2v-2h-2Zm22,0h2v-2h-2Zm22,0h2v-2h-2Zm22,0h2v-2h-2Zm22,0h2v-2h-2Zm22,0h2v-2h-2Zm22,0h2v-2h-2Zm22,0h2v-2h-2Zm22,0h2v-2h-2Zm22,0h2v-2h-2Zm22,0h2v-2h-2Zm22,0h2v-2h-2Zm22,0h2v-2h-2Zm22,0h2v-2h-2Zm22,0h2v-2h-2Zm22,0h2v-2h-2Zm22,0h2v-2h-2Zm22,0h2v-2h-2Zm22,0h2v-2h-2Zm22,0h2v-2h-2Zm22,0h2v-2h-2Zm22,0h2v-2h-2Zm22,0h2v-2h-2Zm22,0h2v-2h-2Zm22,0h2v-2h-2ZM0-968H2v-2H0Zm22,0h2v-2H22Zm22,0h2v-2H44Zm22,0h2v-2H66Zm22,0h2v-2H88Zm22,0h2v-2h-2Zm22,0h2v-2h-2Zm22,0h2v-2h-2Zm22,0h2v-2h-2Zm22,0h2v-2h-2Zm22,0h2v-2h-2Zm22,0h2v-2h-2Zm22,0h2v-2h-2Zm22,0h2v-2h-2Zm22,0h2v-2h-2Zm22,0h2v-2h-2Zm22,0h2v-2h-2Zm22,0h2v-2h-2Zm22,0h2v-2h-2Zm22,0h2v-2h-2Zm22,0h2v-2h-2Zm22,0h2v-2h-2Zm22,0h2v-2h-2Zm22,0h2v-2h-2Zm22,0h2v-2h-2Zm22,0h2v-2h-2Zm22,0h2v-2h-2Zm22,0h2v-2h-2Zm22,0h2v-2h-2Zm22,0h2v-2h-2Zm22,0h2v-2h-2Zm22,0h2v-2h-2Zm22,0h2v-2h-2Zm22,0h2v-2h-2Zm22,0h2v-2h-2Zm22,0h2v-2h-2Zm22,0h2v-2h-2Zm22,0h2v-2h-2Zm22,0h2v-2h-2Zm22,0h2v-2h-2Zm22,0h2v-2h-2Zm22,0h2v-2h-2Zm22,0h2v-2h-2Zm22,0h2v-2h-2Zm22,0h2v-2h-2Zm22,0h2v-2h-2Zm22,0h2v-2h-2Zm22,0h2v-2h-2Zm22,0h2v-2h-2Zm22,0h2v-2h-2Zm22,0h2v-2h-2Zm22,0h2v-2h-2Zm22,0h2v-2h-2Zm22,0h2v-2h-2Zm22,0h2v-2h-2ZM0-946H2v-2H0Zm22,0h2v-2H22Zm22,0h2v-2H44Zm22,0h2v-2H66Zm22,0h2v-2H88Zm22,0h2v-2h-2Zm22,0h2v-2h-2Zm22,0h2v-2h-2Zm22,0h2v-2h-2Zm22,0h2v-2h-2Zm22,0h2v-2h-2Zm22,0h2v-2h-2Zm22,0h2v-2h-2Zm22,0h2v-2h-2Zm22,0h2v-2h-2Zm22,0h2v-2h-2Zm22,0h2v-2h-2Zm22,0h2v-2h-2Zm22,0h2v-2h-2Zm22,0h2v-2h-2Zm22,0h2v-2h-2Zm22,0h2v-2h-2Zm22,0h2v-2h-2Zm22,0h2v-2h-2Zm22,0h2v-2h-2Zm22,0h2v-2h-2Zm22,0h2v-2h-2Zm22,0h2v-2h-2Zm22,0h2v-2h-2Zm22,0h2v-2h-2Zm22,0h2v-2h-2Zm22,0h2v-2h-2Zm22,0h2v-2h-2Zm22,0h2v-2h-2Zm22,0h2v-2h-2Zm22,0h2v-2h-2Zm22,0h2v-2h-2Zm22,0h2v-2h-2Zm22,0h2v-2h-2Zm22,0h2v-2h-2Zm22,0h2v-2h-2Zm22,0h2v-2h-2Zm22,0h2v-2h-2Zm22,0h2v-2h-2Zm22,0h2v-2h-2Zm22,0h2v-2h-2Zm22,0h2v-2h-2Zm22,0h2v-2h-2Zm22,0h2v-2h-2Zm22,0h2v-2h-2Zm22,0h2v-2h-2Zm22,0h2v-2h-2Zm22,0h2v-2h-2Zm22,0h2v-2h-2Zm22,0h2v-2h-2ZM0-924H2v-2H0Zm22,0h2v-2H22Zm22,0h2v-2H44Zm22,0h2v-2H66Zm22,0h2v-2H88Zm22,0h2v-2h-2Zm22,0h2v-2h-2Zm22,0h2v-2h-2Zm22,0h2v-2h-2Zm22,0h2v-2h-2Zm22,0h2v-2h-2Zm22,0h2v-2h-2Zm22,0h2v-2h-2Zm22,0h2v-2h-2Zm22,0h2v-2h-2Zm22,0h2v-2h-2Zm22,0h2v-2h-2Zm22,0h2v-2h-2Zm22,0h2v-2h-2Zm22,0h2v-2h-2Zm22,0h2v-2h-2Zm22,0h2v-2h-2Zm22,0h2v-2h-2Zm22,0h2v-2h-2Zm22,0h2v-2h-2Zm22,0h2v-2h-2Zm22,0h2v-2h-2Zm22,0h2v-2h-2Zm22,0h2v-2h-2Zm22,0h2v-2h-2Zm22,0h2v-2h-2Zm22,0h2v-2h-2Zm22,0h2v-2h-2Zm22,0h2v-2h-2Zm22,0h2v-2h-2Zm22,0h2v-2h-2Zm22,0h2v-2h-2Zm22,0h2v-2h-2Zm22,0h2v-2h-2Zm22,0h2v-2h-2Zm22,0h2v-2h-2Zm22,0h2v-2h-2Zm22,0h2v-2h-2Zm22,0h2v-2h-2Zm22,0h2v-2h-2Zm22,0h2v-2h-2Zm22,0h2v-2h-2Zm22,0h2v-2h-2Zm22,0h2v-2h-2Zm22,0h2v-2h-2Zm22,0h2v-2h-2Zm22,0h2v-2h-2Zm22,0h2v-2h-2Zm22,0h2v-2h-2Zm22,0h2v-2h-2ZM0-902H2v-2H0Zm22,0h2v-2H22Zm22,0h2v-2H44Zm22,0h2v-2H66Zm22,0h2v-2H88Zm22,0h2v-2h-2Zm22,0h2v-2h-2Zm22,0h2v-2h-2Zm22,0h2v-2h-2Zm22,0h2v-2h-2Zm22,0h2v-2h-2Zm22,0h2v-2h-2Zm22,0h2v-2h-2Zm22,0h2v-2h-2Zm22,0h2v-2h-2Zm22,0h2v-2h-2Zm22,0h2v-2h-2Zm22,0h2v-2h-2Zm22,0h2v-2h-2Zm22,0h2v-2h-2Zm22,0h2v-2h-2Zm22,0h2v-2h-2Zm22,0h2v-2h-2Zm22,0h2v-2h-2Zm22,0h2v-2h-2Zm22,0h2v-2h-2Zm22,0h2v-2h-2Zm22,0h2v-2h-2Zm22,0h2v-2h-2Zm22,0h2v-2h-2Zm22,0h2v-2h-2Zm22,0h2v-2h-2Zm22,0h2v-2h-2Zm22,0h2v-2h-2Zm22,0h2v-2h-2Zm22,0h2v-2h-2Zm22,0h2v-2h-2Zm22,0h2v-2h-2Zm22,0h2v-2h-2Zm22,0h2v-2h-2Zm22,0h2v-2h-2Zm22,0h2v-2h-2Zm22,0h2v-2h-2Zm22,0h2v-2h-2Zm22,0h2v-2h-2Zm22,0h2v-2h-2Zm22,0h2v-2h-2Zm22,0h2v-2h-2Zm22,0h2v-2h-2Zm22,0h2v-2h-2Zm22,0h2v-2h-2Zm22,0h2v-2h-2Zm22,0h2v-2h-2Zm22,0h2v-2h-2Zm22,0h2v-2h-2ZM0-880H2v-2H0Zm22,0h2v-2H22Zm22,0h2v-2H44Zm22,0h2v-2H66Zm22,0h2v-2H88Zm22,0h2v-2h-2Zm22,0h2v-2h-2Zm22,0h2v-2h-2Zm22,0h2v-2h-2Zm22,0h2v-2h-2Zm22,0h2v-2h-2Zm22,0h2v-2h-2Zm22,0h2v-2h-2Zm22,0h2v-2h-2Zm22,0h2v-2h-2Zm22,0h2v-2h-2Zm22,0h2v-2h-2Zm22,0h2v-2h-2Zm22,0h2v-2h-2Zm22,0h2v-2h-2Zm22,0h2v-2h-2Zm22,0h2v-2h-2Zm22,0h2v-2h-2Zm22,0h2v-2h-2Zm22,0h2v-2h-2Zm22,0h2v-2h-2Zm22,0h2v-2h-2Zm22,0h2v-2h-2Zm22,0h2v-2h-2Zm22,0h2v-2h-2Zm22,0h2v-2h-2Zm22,0h2v-2h-2Zm22,0h2v-2h-2Zm22,0h2v-2h-2Zm22,0h2v-2h-2Zm22,0h2v-2h-2Zm22,0h2v-2h-2Zm22,0h2v-2h-2Zm22,0h2v-2h-2Zm22,0h2v-2h-2Zm22,0h2v-2h-2Zm22,0h2v-2h-2Zm22,0h2v-2h-2Zm22,0h2v-2h-2Zm22,0h2v-2h-2Zm22,0h2v-2h-2Zm22,0h2v-2h-2Zm22,0h2v-2h-2Zm22,0h2v-2h-2Zm22,0h2v-2h-2Zm22,0h2v-2h-2Zm22,0h2v-2h-2Zm22,0h2v-2h-2Zm22,0h2v-2h-2Zm22,0h2v-2h-2ZM0-858H2v-2H0Zm22,0h2v-2H22Zm22,0h2v-2H44Zm22,0h2v-2H66Zm22,0h2v-2H88Zm22,0h2v-2h-2Zm22,0h2v-2h-2Zm22,0h2v-2h-2Zm22,0h2v-2h-2Zm22,0h2v-2h-2Zm22,0h2v-2h-2Zm22,0h2v-2h-2Zm22,0h2v-2h-2Zm22,0h2v-2h-2Zm22,0h2v-2h-2Zm22,0h2v-2h-2Zm22,0h2v-2h-2Zm22,0h2v-2h-2Zm22,0h2v-2h-2Zm22,0h2v-2h-2Zm22,0h2v-2h-2Zm22,0h2v-2h-2Zm22,0h2v-2h-2Zm22,0h2v-2h-2Zm22,0h2v-2h-2Zm22,0h2v-2h-2Zm22,0h2v-2h-2Zm22,0h2v-2h-2Zm22,0h2v-2h-2Zm22,0h2v-2h-2Zm22,0h2v-2h-2Zm22,0h2v-2h-2Zm22,0h2v-2h-2Zm22,0h2v-2h-2Zm22,0h2v-2h-2Zm22,0h2v-2h-2Zm22,0h2v-2h-2Zm22,0h2v-2h-2Zm22,0h2v-2h-2Zm22,0h2v-2h-2Zm22,0h2v-2h-2Zm22,0h2v-2h-2Zm22,0h2v-2h-2Zm22,0h2v-2h-2Zm22,0h2v-2h-2Zm22,0h2v-2h-2Zm22,0h2v-2h-2Zm22,0h2v-2h-2Zm22,0h2v-2h-2Zm22,0h2v-2h-2Zm22,0h2v-2h-2Zm22,0h2v-2h-2Zm22,0h2v-2h-2Zm22,0h2v-2h-2Zm22,0h2v-2h-2ZM0-836H2v-2H0Zm22,0h2v-2H22Zm22,0h2v-2H44Zm22,0h2v-2H66Zm22,0h2v-2H88Zm22,0h2v-2h-2Zm22,0h2v-2h-2Zm22,0h2v-2h-2Zm22,0h2v-2h-2Zm22,0h2v-2h-2Zm22,0h2v-2h-2Zm22,0h2v-2h-2Zm22,0h2v-2h-2Zm22,0h2v-2h-2Zm22,0h2v-2h-2Zm22,0h2v-2h-2Zm22,0h2v-2h-2Zm22,0h2v-2h-2Zm22,0h2v-2h-2Zm22,0h2v-2h-2Zm22,0h2v-2h-2Zm22,0h2v-2h-2Zm22,0h2v-2h-2Zm22,0h2v-2h-2Zm22,0h2v-2h-2Zm22,0h2v-2h-2Zm22,0h2v-2h-2Zm22,0h2v-2h-2Zm22,0h2v-2h-2Zm22,0h2v-2h-2Zm22,0h2v-2h-2Zm22,0h2v-2h-2Zm22,0h2v-2h-2Zm22,0h2v-2h-2Zm22,0h2v-2h-2Zm22,0h2v-2h-2Zm22,0h2v-2h-2Zm22,0h2v-2h-2Zm22,0h2v-2h-2Zm22,0h2v-2h-2Zm22,0h2v-2h-2Zm22,0h2v-2h-2Zm22,0h2v-2h-2Zm22,0h2v-2h-2Zm22,0h2v-2h-2Zm22,0h2v-2h-2Zm22,0h2v-2h-2Zm22,0h2v-2h-2Zm22,0h2v-2h-2Zm22,0h2v-2h-2Zm22,0h2v-2h-2Zm22,0h2v-2h-2Zm22,0h2v-2h-2Zm22,0h2v-2h-2Zm22,0h2v-2h-2ZM0-814H2v-2H0Zm22,0h2v-2H22Zm22,0h2v-2H44Zm22,0h2v-2H66Zm22,0h2v-2H88Zm22,0h2v-2h-2Zm22,0h2v-2h-2Zm22,0h2v-2h-2Zm22,0h2v-2h-2Zm22,0h2v-2h-2Zm22,0h2v-2h-2Zm22,0h2v-2h-2Zm22,0h2v-2h-2Zm22,0h2v-2h-2Zm22,0h2v-2h-2Zm22,0h2v-2h-2Zm22,0h2v-2h-2Zm22,0h2v-2h-2Zm22,0h2v-2h-2Zm22,0h2v-2h-2Zm22,0h2v-2h-2Zm22,0h2v-2h-2Zm22,0h2v-2h-2Zm22,0h2v-2h-2Zm22,0h2v-2h-2Zm22,0h2v-2h-2Zm22,0h2v-2h-2Zm22,0h2v-2h-2Zm22,0h2v-2h-2Zm22,0h2v-2h-2Zm22,0h2v-2h-2Zm22,0h2v-2h-2Zm22,0h2v-2h-2Zm22,0h2v-2h-2Zm22,0h2v-2h-2Zm22,0h2v-2h-2Zm22,0h2v-2h-2Zm22,0h2v-2h-2Zm22,0h2v-2h-2Zm22,0h2v-2h-2Zm22,0h2v-2h-2Zm22,0h2v-2h-2Zm22,0h2v-2h-2Zm22,0h2v-2h-2Zm22,0h2v-2h-2Zm22,0h2v-2h-2Zm22,0h2v-2h-2Zm22,0h2v-2h-2Zm22,0h2v-2h-2Zm22,0h2v-2h-2Zm22,0h2v-2h-2Zm22,0h2v-2h-2Zm22,0h2v-2h-2Zm22,0h2v-2h-2Zm22,0h2v-2h-2ZM0-792H2v-2H0Zm22,0h2v-2H22Zm22,0h2v-2H44Zm22,0h2v-2H66Zm22,0h2v-2H88Zm22,0h2v-2h-2Zm22,0h2v-2h-2Zm22,0h2v-2h-2Zm22,0h2v-2h-2Zm22,0h2v-2h-2Zm22,0h2v-2h-2Zm22,0h2v-2h-2Zm22,0h2v-2h-2Zm22,0h2v-2h-2Zm22,0h2v-2h-2Zm22,0h2v-2h-2Zm22,0h2v-2h-2Zm22,0h2v-2h-2Zm22,0h2v-2h-2Zm22,0h2v-2h-2Zm22,0h2v-2h-2Zm22,0h2v-2h-2Zm22,0h2v-2h-2Zm22,0h2v-2h-2Zm22,0h2v-2h-2Zm22,0h2v-2h-2Zm22,0h2v-2h-2Zm22,0h2v-2h-2Zm22,0h2v-2h-2Zm22,0h2v-2h-2Zm22,0h2v-2h-2Zm22,0h2v-2h-2Zm22,0h2v-2h-2Zm22,0h2v-2h-2Zm22,0h2v-2h-2Zm22,0h2v-2h-2Zm22,0h2v-2h-2Zm22,0h2v-2h-2Zm22,0h2v-2h-2Zm22,0h2v-2h-2Zm22,0h2v-2h-2Zm22,0h2v-2h-2Zm22,0h2v-2h-2Zm22,0h2v-2h-2Zm22,0h2v-2h-2Zm22,0h2v-2h-2Zm22,0h2v-2h-2Zm22,0h2v-2h-2Zm22,0h2v-2h-2Zm22,0h2v-2h-2Zm22,0h2v-2h-2Zm22,0h2v-2h-2Zm22,0h2v-2h-2Zm22,0h2v-2h-2Zm22,0h2v-2h-2ZM0-770H2v-2H0Zm22,0h2v-2H22Zm22,0h2v-2H44Zm22,0h2v-2H66Zm22,0h2v-2H88Zm22,0h2v-2h-2Zm22,0h2v-2h-2Zm22,0h2v-2h-2Zm22,0h2v-2h-2Zm22,0h2v-2h-2Zm22,0h2v-2h-2Zm22,0h2v-2h-2Zm22,0h2v-2h-2Zm22,0h2v-2h-2Zm22,0h2v-2h-2Zm22,0h2v-2h-2Zm22,0h2v-2h-2Zm22,0h2v-2h-2Zm22,0h2v-2h-2Zm22,0h2v-2h-2Zm22,0h2v-2h-2Zm22,0h2v-2h-2Zm22,0h2v-2h-2Zm22,0h2v-2h-2Zm22,0h2v-2h-2Zm22,0h2v-2h-2Zm22,0h2v-2h-2Zm22,0h2v-2h-2Zm22,0h2v-2h-2Zm22,0h2v-2h-2Zm22,0h2v-2h-2Zm22,0h2v-2h-2Zm22,0h2v-2h-2Zm22,0h2v-2h-2Zm22,0h2v-2h-2Zm22,0h2v-2h-2Zm22,0h2v-2h-2Zm22,0h2v-2h-2Zm22,0h2v-2h-2Zm22,0h2v-2h-2Zm22,0h2v-2h-2Zm22,0h2v-2h-2Zm22,0h2v-2h-2Zm22,0h2v-2h-2Zm22,0h2v-2h-2Zm22,0h2v-2h-2Zm22,0h2v-2h-2Zm22,0h2v-2h-2Zm22,0h2v-2h-2Zm22,0h2v-2h-2Zm22,0h2v-2h-2Zm22,0h2v-2h-2Zm22,0h2v-2h-2Zm22,0h2v-2h-2Zm22,0h2v-2h-2ZM0-748H2v-2H0Zm22,0h2v-2H22Zm22,0h2v-2H44Zm22,0h2v-2H66Zm22,0h2v-2H88Zm22,0h2v-2h-2Zm22,0h2v-2h-2Zm22,0h2v-2h-2Zm22,0h2v-2h-2Zm22,0h2v-2h-2Zm22,0h2v-2h-2Zm22,0h2v-2h-2Zm22,0h2v-2h-2Zm22,0h2v-2h-2Zm22,0h2v-2h-2Zm22,0h2v-2h-2Zm22,0h2v-2h-2Zm22,0h2v-2h-2Zm22,0h2v-2h-2Zm22,0h2v-2h-2Zm22,0h2v-2h-2Zm22,0h2v-2h-2Zm22,0h2v-2h-2Zm22,0h2v-2h-2Zm22,0h2v-2h-2Zm22,0h2v-2h-2Zm22,0h2v-2h-2Zm22,0h2v-2h-2Zm22,0h2v-2h-2Zm22,0h2v-2h-2Zm22,0h2v-2h-2Zm22,0h2v-2h-2Zm22,0h2v-2h-2Zm22,0h2v-2h-2Zm22,0h2v-2h-2Zm22,0h2v-2h-2Zm22,0h2v-2h-2Zm22,0h2v-2h-2Zm22,0h2v-2h-2Zm22,0h2v-2h-2Zm22,0h2v-2h-2Zm22,0h2v-2h-2Zm22,0h2v-2h-2Zm22,0h2v-2h-2Zm22,0h2v-2h-2Zm22,0h2v-2h-2Zm22,0h2v-2h-2Zm22,0h2v-2h-2Zm22,0h2v-2h-2Zm22,0h2v-2h-2Zm22,0h2v-2h-2Zm22,0h2v-2h-2Zm22,0h2v-2h-2Zm22,0h2v-2h-2Zm22,0h2v-2h-2ZM0-726H2v-2H0Zm22,0h2v-2H22Zm22,0h2v-2H44Zm22,0h2v-2H66Zm22,0h2v-2H88Zm22,0h2v-2h-2Zm22,0h2v-2h-2Zm22,0h2v-2h-2Zm22,0h2v-2h-2Zm22,0h2v-2h-2Zm22,0h2v-2h-2Zm22,0h2v-2h-2Zm22,0h2v-2h-2Zm22,0h2v-2h-2Zm22,0h2v-2h-2Zm22,0h2v-2h-2Zm22,0h2v-2h-2Zm22,0h2v-2h-2Zm22,0h2v-2h-2Zm22,0h2v-2h-2Zm22,0h2v-2h-2Zm22,0h2v-2h-2Zm22,0h2v-2h-2Zm22,0h2v-2h-2Zm22,0h2v-2h-2Zm22,0h2v-2h-2Zm22,0h2v-2h-2Zm22,0h2v-2h-2Zm22,0h2v-2h-2Zm22,0h2v-2h-2Zm22,0h2v-2h-2Zm22,0h2v-2h-2Zm22,0h2v-2h-2Zm22,0h2v-2h-2Zm22,0h2v-2h-2Zm22,0h2v-2h-2Zm22,0h2v-2h-2Zm22,0h2v-2h-2Zm22,0h2v-2h-2Zm22,0h2v-2h-2Zm22,0h2v-2h-2Zm22,0h2v-2h-2Zm22,0h2v-2h-2Zm22,0h2v-2h-2Zm22,0h2v-2h-2Zm22,0h2v-2h-2Zm22,0h2v-2h-2Zm22,0h2v-2h-2Zm22,0h2v-2h-2Zm22,0h2v-2h-2Zm22,0h2v-2h-2Zm22,0h2v-2h-2Zm22,0h2v-2h-2Zm22,0h2v-2h-2Zm22,0h2v-2h-2ZM0-704H2v-2H0Zm22,0h2v-2H22Zm22,0h2v-2H44Zm22,0h2v-2H66Zm22,0h2v-2H88Zm22,0h2v-2h-2Zm22,0h2v-2h-2Zm22,0h2v-2h-2Zm22,0h2v-2h-2Zm22,0h2v-2h-2Zm22,0h2v-2h-2Zm22,0h2v-2h-2Zm22,0h2v-2h-2Zm22,0h2v-2h-2Zm22,0h2v-2h-2Zm22,0h2v-2h-2Zm22,0h2v-2h-2Zm22,0h2v-2h-2Zm22,0h2v-2h-2Zm22,0h2v-2h-2Zm22,0h2v-2h-2Zm22,0h2v-2h-2Zm22,0h2v-2h-2Zm22,0h2v-2h-2Zm22,0h2v-2h-2Zm22,0h2v-2h-2Zm22,0h2v-2h-2Zm22,0h2v-2h-2Zm22,0h2v-2h-2Zm22,0h2v-2h-2Zm22,0h2v-2h-2Zm22,0h2v-2h-2Zm22,0h2v-2h-2Zm22,0h2v-2h-2Zm22,0h2v-2h-2Zm22,0h2v-2h-2Zm22,0h2v-2h-2Zm22,0h2v-2h-2Zm22,0h2v-2h-2Zm22,0h2v-2h-2Zm22,0h2v-2h-2Zm22,0h2v-2h-2Zm22,0h2v-2h-2Zm22,0h2v-2h-2Zm22,0h2v-2h-2Zm22,0h2v-2h-2Zm22,0h2v-2h-2Zm22,0h2v-2h-2Zm22,0h2v-2h-2Zm22,0h2v-2h-2Zm22,0h2v-2h-2Zm22,0h2v-2h-2Zm22,0h2v-2h-2Zm22,0h2v-2h-2Zm22,0h2v-2h-2ZM0-682H2v-2H0Zm22,0h2v-2H22Zm22,0h2v-2H44Zm22,0h2v-2H66Zm22,0h2v-2H88Zm22,0h2v-2h-2Zm22,0h2v-2h-2Zm22,0h2v-2h-2Zm22,0h2v-2h-2Zm22,0h2v-2h-2Zm22,0h2v-2h-2Zm22,0h2v-2h-2Zm22,0h2v-2h-2Zm22,0h2v-2h-2Zm22,0h2v-2h-2Zm22,0h2v-2h-2Zm22,0h2v-2h-2Zm22,0h2v-2h-2Zm22,0h2v-2h-2Zm22,0h2v-2h-2Zm22,0h2v-2h-2Zm22,0h2v-2h-2Zm22,0h2v-2h-2Zm22,0h2v-2h-2Zm22,0h2v-2h-2Zm22,0h2v-2h-2Zm22,0h2v-2h-2Zm22,0h2v-2h-2Zm22,0h2v-2h-2Zm22,0h2v-2h-2Zm22,0h2v-2h-2Zm22,0h2v-2h-2Zm22,0h2v-2h-2Zm22,0h2v-2h-2Zm22,0h2v-2h-2Zm22,0h2v-2h-2Zm22,0h2v-2h-2Zm22,0h2v-2h-2Zm22,0h2v-2h-2Zm22,0h2v-2h-2Zm22,0h2v-2h-2Zm22,0h2v-2h-2Zm22,0h2v-2h-2Zm22,0h2v-2h-2Zm22,0h2v-2h-2Zm22,0h2v-2h-2Zm22,0h2v-2h-2Zm22,0h2v-2h-2Zm22,0h2v-2h-2Zm22,0h2v-2h-2Zm22,0h2v-2h-2Zm22,0h2v-2h-2Zm22,0h2v-2h-2Zm22,0h2v-2h-2Zm22,0h2v-2h-2ZM0-660H2v-2H0Zm22,0h2v-2H22Zm22,0h2v-2H44Zm22,0h2v-2H66Zm22,0h2v-2H88Zm22,0h2v-2h-2Zm22,0h2v-2h-2Zm22,0h2v-2h-2Zm22,0h2v-2h-2Zm22,0h2v-2h-2Zm22,0h2v-2h-2Zm22,0h2v-2h-2Zm22,0h2v-2h-2Zm22,0h2v-2h-2Zm22,0h2v-2h-2Zm22,0h2v-2h-2Zm22,0h2v-2h-2Zm22,0h2v-2h-2Zm22,0h2v-2h-2Zm22,0h2v-2h-2Zm22,0h2v-2h-2Zm22,0h2v-2h-2Zm22,0h2v-2h-2Zm22,0h2v-2h-2Zm22,0h2v-2h-2Zm22,0h2v-2h-2Zm22,0h2v-2h-2Zm22,0h2v-2h-2Zm22,0h2v-2h-2Zm22,0h2v-2h-2Zm22,0h2v-2h-2Zm22,0h2v-2h-2Zm22,0h2v-2h-2Zm22,0h2v-2h-2Zm22,0h2v-2h-2Zm22,0h2v-2h-2Zm22,0h2v-2h-2Zm22,0h2v-2h-2Zm22,0h2v-2h-2Zm22,0h2v-2h-2Zm22,0h2v-2h-2Zm22,0h2v-2h-2Zm22,0h2v-2h-2Zm22,0h2v-2h-2Zm22,0h2v-2h-2Zm22,0h2v-2h-2Zm22,0h2v-2h-2Zm22,0h2v-2h-2Zm22,0h2v-2h-2Zm22,0h2v-2h-2Zm22,0h2v-2h-2Zm22,0h2v-2h-2Zm22,0h2v-2h-2Zm22,0h2v-2h-2Zm22,0h2v-2h-2ZM0-638H2v-2H0Zm22,0h2v-2H22Zm22,0h2v-2H44Zm22,0h2v-2H66Zm22,0h2v-2H88Zm22,0h2v-2h-2Zm22,0h2v-2h-2Zm22,0h2v-2h-2Zm22,0h2v-2h-2Zm22,0h2v-2h-2Zm22,0h2v-2h-2Zm22,0h2v-2h-2Zm22,0h2v-2h-2Zm22,0h2v-2h-2Zm22,0h2v-2h-2Zm22,0h2v-2h-2Zm22,0h2v-2h-2Zm22,0h2v-2h-2Zm22,0h2v-2h-2Zm22,0h2v-2h-2Zm22,0h2v-2h-2Zm22,0h2v-2h-2Zm22,0h2v-2h-2Zm22,0h2v-2h-2Zm22,0h2v-2h-2Zm22,0h2v-2h-2Zm22,0h2v-2h-2Zm22,0h2v-2h-2Zm22,0h2v-2h-2Zm22,0h2v-2h-2Zm22,0h2v-2h-2Zm22,0h2v-2h-2Zm22,0h2v-2h-2Zm22,0h2v-2h-2Zm22,0h2v-2h-2Zm22,0h2v-2h-2Zm22,0h2v-2h-2Zm22,0h2v-2h-2Zm22,0h2v-2h-2Zm22,0h2v-2h-2Zm22,0h2v-2h-2Zm22,0h2v-2h-2Zm22,0h2v-2h-2Zm22,0h2v-2h-2Zm22,0h2v-2h-2Zm22,0h2v-2h-2Zm22,0h2v-2h-2Zm22,0h2v-2h-2Zm22,0h2v-2h-2Zm22,0h2v-2h-2Zm22,0h2v-2h-2Zm22,0h2v-2h-2Zm22,0h2v-2h-2Zm22,0h2v-2h-2Zm22,0h2v-2h-2ZM0-616H2v-2H0Zm22,0h2v-2H22Zm22,0h2v-2H44Zm22,0h2v-2H66Zm22,0h2v-2H88Zm22,0h2v-2h-2Zm22,0h2v-2h-2Zm22,0h2v-2h-2Zm22,0h2v-2h-2Zm22,0h2v-2h-2Zm22,0h2v-2h-2Zm22,0h2v-2h-2Zm22,0h2v-2h-2Zm22,0h2v-2h-2Zm22,0h2v-2h-2Zm22,0h2v-2h-2Zm22,0h2v-2h-2Zm22,0h2v-2h-2Zm22,0h2v-2h-2Zm22,0h2v-2h-2Zm22,0h2v-2h-2Zm22,0h2v-2h-2Zm22,0h2v-2h-2Zm22,0h2v-2h-2Zm22,0h2v-2h-2Zm22,0h2v-2h-2Zm22,0h2v-2h-2Zm22,0h2v-2h-2Zm22,0h2v-2h-2Zm22,0h2v-2h-2Zm22,0h2v-2h-2Zm22,0h2v-2h-2Zm22,0h2v-2h-2Zm22,0h2v-2h-2Zm22,0h2v-2h-2Zm22,0h2v-2h-2Zm22,0h2v-2h-2Zm22,0h2v-2h-2Zm22,0h2v-2h-2Zm22,0h2v-2h-2Zm22,0h2v-2h-2Zm22,0h2v-2h-2Zm22,0h2v-2h-2Zm22,0h2v-2h-2Zm22,0h2v-2h-2Zm22,0h2v-2h-2Zm22,0h2v-2h-2Zm22,0h2v-2h-2Zm22,0h2v-2h-2Zm22,0h2v-2h-2Zm22,0h2v-2h-2Zm22,0h2v-2h-2Zm22,0h2v-2h-2Zm22,0h2v-2h-2Zm22,0h2v-2h-2ZM0-594H2v-2H0Zm22,0h2v-2H22Zm22,0h2v-2H44Zm22,0h2v-2H66Zm22,0h2v-2H88Zm22,0h2v-2h-2Zm22,0h2v-2h-2Zm22,0h2v-2h-2Zm22,0h2v-2h-2Zm22,0h2v-2h-2Zm22,0h2v-2h-2Zm22,0h2v-2h-2Zm22,0h2v-2h-2Zm22,0h2v-2h-2Zm22,0h2v-2h-2Zm22,0h2v-2h-2Zm22,0h2v-2h-2Zm22,0h2v-2h-2Zm22,0h2v-2h-2Zm22,0h2v-2h-2Zm22,0h2v-2h-2Zm22,0h2v-2h-2Zm22,0h2v-2h-2Zm22,0h2v-2h-2Zm22,0h2v-2h-2Zm22,0h2v-2h-2Zm22,0h2v-2h-2Zm22,0h2v-2h-2Zm22,0h2v-2h-2Zm22,0h2v-2h-2Zm22,0h2v-2h-2Zm22,0h2v-2h-2Zm22,0h2v-2h-2Zm22,0h2v-2h-2Zm22,0h2v-2h-2Zm22,0h2v-2h-2Zm22,0h2v-2h-2Zm22,0h2v-2h-2Zm22,0h2v-2h-2Zm22,0h2v-2h-2Zm22,0h2v-2h-2Zm22,0h2v-2h-2Zm22,0h2v-2h-2Zm22,0h2v-2h-2Zm22,0h2v-2h-2Zm22,0h2v-2h-2Zm22,0h2v-2h-2Zm22,0h2v-2h-2Zm22,0h2v-2h-2Zm22,0h2v-2h-2Zm22,0h2v-2h-2Zm22,0h2v-2h-2Zm22,0h2v-2h-2Zm22,0h2v-2h-2Zm22,0h2v-2h-2ZM0-572H2v-2H0Zm22,0h2v-2H22Zm22,0h2v-2H44Zm22,0h2v-2H66Zm22,0h2v-2H88Zm22,0h2v-2h-2Zm22,0h2v-2h-2Zm22,0h2v-2h-2Zm22,0h2v-2h-2Zm22,0h2v-2h-2Zm22,0h2v-2h-2Zm22,0h2v-2h-2Zm22,0h2v-2h-2Zm22,0h2v-2h-2Zm22,0h2v-2h-2Zm22,0h2v-2h-2Zm22,0h2v-2h-2Zm22,0h2v-2h-2Zm22,0h2v-2h-2Zm22,0h2v-2h-2Zm22,0h2v-2h-2Zm22,0h2v-2h-2Zm22,0h2v-2h-2Zm22,0h2v-2h-2Zm22,0h2v-2h-2Zm22,0h2v-2h-2Zm22,0h2v-2h-2Zm22,0h2v-2h-2Zm22,0h2v-2h-2Zm22,0h2v-2h-2Zm22,0h2v-2h-2Zm22,0h2v-2h-2Zm22,0h2v-2h-2Zm22,0h2v-2h-2Zm22,0h2v-2h-2Zm22,0h2v-2h-2Zm22,0h2v-2h-2Zm22,0h2v-2h-2Zm22,0h2v-2h-2Zm22,0h2v-2h-2Zm22,0h2v-2h-2Zm22,0h2v-2h-2Zm22,0h2v-2h-2Zm22,0h2v-2h-2Zm22,0h2v-2h-2Zm22,0h2v-2h-2Zm22,0h2v-2h-2Zm22,0h2v-2h-2Zm22,0h2v-2h-2Zm22,0h2v-2h-2Zm22,0h2v-2h-2Zm22,0h2v-2h-2Zm22,0h2v-2h-2Zm22,0h2v-2h-2Zm22,0h2v-2h-2ZM0-550H2v-2H0Zm22,0h2v-2H22Zm22,0h2v-2H44Zm22,0h2v-2H66Zm22,0h2v-2H88Zm22,0h2v-2h-2Zm22,0h2v-2h-2Zm22,0h2v-2h-2Zm22,0h2v-2h-2Zm22,0h2v-2h-2Zm22,0h2v-2h-2Zm22,0h2v-2h-2Zm22,0h2v-2h-2Zm22,0h2v-2h-2Zm22,0h2v-2h-2Zm22,0h2v-2h-2Zm22,0h2v-2h-2Zm22,0h2v-2h-2Zm22,0h2v-2h-2Zm22,0h2v-2h-2Zm22,0h2v-2h-2Zm22,0h2v-2h-2Zm22,0h2v-2h-2Zm22,0h2v-2h-2Zm22,0h2v-2h-2Zm22,0h2v-2h-2Zm22,0h2v-2h-2Zm22,0h2v-2h-2Zm22,0h2v-2h-2Zm22,0h2v-2h-2Zm22,0h2v-2h-2Zm22,0h2v-2h-2Zm22,0h2v-2h-2Zm22,0h2v-2h-2Zm22,0h2v-2h-2Zm22,0h2v-2h-2Zm22,0h2v-2h-2Zm22,0h2v-2h-2Zm22,0h2v-2h-2Zm22,0h2v-2h-2Zm22,0h2v-2h-2Zm22,0h2v-2h-2Zm22,0h2v-2h-2Zm22,0h2v-2h-2Zm22,0h2v-2h-2Zm22,0h2v-2h-2Zm22,0h2v-2h-2Zm22,0h2v-2h-2Zm22,0h2v-2h-2Zm22,0h2v-2h-2Zm22,0h2v-2h-2Zm22,0h2v-2h-2Zm22,0h2v-2h-2Zm22,0h2v-2h-2Zm22,0h2v-2h-2ZM0-528H2v-2H0Zm22,0h2v-2H22Zm22,0h2v-2H44Zm22,0h2v-2H66Zm22,0h2v-2H88Zm22,0h2v-2h-2Zm22,0h2v-2h-2Zm22,0h2v-2h-2Zm22,0h2v-2h-2Zm22,0h2v-2h-2Zm22,0h2v-2h-2Zm22,0h2v-2h-2Zm22,0h2v-2h-2Zm22,0h2v-2h-2Zm22,0h2v-2h-2Zm22,0h2v-2h-2Zm22,0h2v-2h-2Zm22,0h2v-2h-2Zm22,0h2v-2h-2Zm22,0h2v-2h-2Zm22,0h2v-2h-2Zm22,0h2v-2h-2Zm22,0h2v-2h-2Zm22,0h2v-2h-2Zm22,0h2v-2h-2Zm22,0h2v-2h-2Zm22,0h2v-2h-2Zm22,0h2v-2h-2Zm22,0h2v-2h-2Zm22,0h2v-2h-2Zm22,0h2v-2h-2Zm22,0h2v-2h-2Zm22,0h2v-2h-2Zm22,0h2v-2h-2Zm22,0h2v-2h-2Zm22,0h2v-2h-2Zm22,0h2v-2h-2Zm22,0h2v-2h-2Zm22,0h2v-2h-2Zm22,0h2v-2h-2Zm22,0h2v-2h-2Zm22,0h2v-2h-2Zm22,0h2v-2h-2Zm22,0h2v-2h-2Zm22,0h2v-2h-2Zm22,0h2v-2h-2Zm22,0h2v-2h-2Zm22,0h2v-2h-2Zm22,0h2v-2h-2Zm22,0h2v-2h-2Zm22,0h2v-2h-2Zm22,0h2v-2h-2Zm22,0h2v-2h-2Zm22,0h2v-2h-2Zm22,0h2v-2h-2ZM0-506H2v-2H0Zm22,0h2v-2H22Zm22,0h2v-2H44Zm22,0h2v-2H66Zm22,0h2v-2H88Zm22,0h2v-2h-2Zm22,0h2v-2h-2Zm22,0h2v-2h-2Zm22,0h2v-2h-2Zm22,0h2v-2h-2Zm22,0h2v-2h-2Zm22,0h2v-2h-2Zm22,0h2v-2h-2Zm22,0h2v-2h-2Zm22,0h2v-2h-2Zm22,0h2v-2h-2Zm22,0h2v-2h-2Zm22,0h2v-2h-2Zm22,0h2v-2h-2Zm22,0h2v-2h-2Zm22,0h2v-2h-2Zm22,0h2v-2h-2Zm22,0h2v-2h-2Zm22,0h2v-2h-2Zm22,0h2v-2h-2Zm22,0h2v-2h-2Zm22,0h2v-2h-2Zm22,0h2v-2h-2Zm22,0h2v-2h-2Zm22,0h2v-2h-2Zm22,0h2v-2h-2Zm22,0h2v-2h-2Zm22,0h2v-2h-2Zm22,0h2v-2h-2Zm22,0h2v-2h-2Zm22,0h2v-2h-2Zm22,0h2v-2h-2Zm22,0h2v-2h-2Zm22,0h2v-2h-2Zm22,0h2v-2h-2Zm22,0h2v-2h-2Zm22,0h2v-2h-2Zm22,0h2v-2h-2Zm22,0h2v-2h-2Zm22,0h2v-2h-2Zm22,0h2v-2h-2Zm22,0h2v-2h-2Zm22,0h2v-2h-2Zm22,0h2v-2h-2Zm22,0h2v-2h-2Zm22,0h2v-2h-2Zm22,0h2v-2h-2Zm22,0h2v-2h-2Zm22,0h2v-2h-2Zm22,0h2v-2h-2ZM0-484H2v-2H0Zm22,0h2v-2H22Zm22,0h2v-2H44Zm22,0h2v-2H66Zm22,0h2v-2H88Zm22,0h2v-2h-2Zm22,0h2v-2h-2Zm22,0h2v-2h-2Zm22,0h2v-2h-2Zm22,0h2v-2h-2Zm22,0h2v-2h-2Zm22,0h2v-2h-2Zm22,0h2v-2h-2Zm22,0h2v-2h-2Zm22,0h2v-2h-2Zm22,0h2v-2h-2Zm22,0h2v-2h-2Zm22,0h2v-2h-2Zm22,0h2v-2h-2Zm22,0h2v-2h-2Zm22,0h2v-2h-2Zm22,0h2v-2h-2Zm22,0h2v-2h-2Zm22,0h2v-2h-2Zm22,0h2v-2h-2Zm22,0h2v-2h-2Zm22,0h2v-2h-2Zm22,0h2v-2h-2Zm22,0h2v-2h-2Zm22,0h2v-2h-2Zm22,0h2v-2h-2Zm22,0h2v-2h-2Zm22,0h2v-2h-2Zm22,0h2v-2h-2Zm22,0h2v-2h-2Zm22,0h2v-2h-2Zm22,0h2v-2h-2Zm22,0h2v-2h-2Zm22,0h2v-2h-2Zm22,0h2v-2h-2Zm22,0h2v-2h-2Zm22,0h2v-2h-2Zm22,0h2v-2h-2Zm22,0h2v-2h-2Zm22,0h2v-2h-2Zm22,0h2v-2h-2Zm22,0h2v-2h-2Zm22,0h2v-2h-2Zm22,0h2v-2h-2Zm22,0h2v-2h-2Zm22,0h2v-2h-2Zm22,0h2v-2h-2Zm22,0h2v-2h-2Zm22,0h2v-2h-2Zm22,0h2v-2h-2ZM0-462H2v-2H0Zm22,0h2v-2H22Zm22,0h2v-2H44Zm22,0h2v-2H66Zm22,0h2v-2H88Zm22,0h2v-2h-2Zm22,0h2v-2h-2Zm22,0h2v-2h-2Zm22,0h2v-2h-2Zm22,0h2v-2h-2Zm22,0h2v-2h-2Zm22,0h2v-2h-2Zm22,0h2v-2h-2Zm22,0h2v-2h-2Zm22,0h2v-2h-2Zm22,0h2v-2h-2Zm22,0h2v-2h-2Zm22,0h2v-2h-2Zm22,0h2v-2h-2Zm22,0h2v-2h-2Zm22,0h2v-2h-2Zm22,0h2v-2h-2Zm22,0h2v-2h-2Zm22,0h2v-2h-2Zm22,0h2v-2h-2Zm22,0h2v-2h-2Zm22,0h2v-2h-2Zm22,0h2v-2h-2Zm22,0h2v-2h-2Zm22,0h2v-2h-2Zm22,0h2v-2h-2Zm22,0h2v-2h-2Zm22,0h2v-2h-2Zm22,0h2v-2h-2Zm22,0h2v-2h-2Zm22,0h2v-2h-2Zm22,0h2v-2h-2Zm22,0h2v-2h-2Zm22,0h2v-2h-2Zm22,0h2v-2h-2Zm22,0h2v-2h-2Zm22,0h2v-2h-2Zm22,0h2v-2h-2Zm22,0h2v-2h-2Zm22,0h2v-2h-2Zm22,0h2v-2h-2Zm22,0h2v-2h-2Zm22,0h2v-2h-2Zm22,0h2v-2h-2Zm22,0h2v-2h-2Zm22,0h2v-2h-2Zm22,0h2v-2h-2Zm22,0h2v-2h-2Zm22,0h2v-2h-2Zm22,0h2v-2h-2ZM0-440H2v-2H0Zm22,0h2v-2H22Zm22,0h2v-2H44Zm22,0h2v-2H66Zm22,0h2v-2H88Zm22,0h2v-2h-2Zm22,0h2v-2h-2Zm22,0h2v-2h-2Zm22,0h2v-2h-2Zm22,0h2v-2h-2Zm22,0h2v-2h-2Zm22,0h2v-2h-2Zm22,0h2v-2h-2Zm22,0h2v-2h-2Zm22,0h2v-2h-2Zm22,0h2v-2h-2Zm22,0h2v-2h-2Zm22,0h2v-2h-2Zm22,0h2v-2h-2Zm22,0h2v-2h-2Zm22,0h2v-2h-2Zm22,0h2v-2h-2Zm22,0h2v-2h-2Zm22,0h2v-2h-2Zm22,0h2v-2h-2Zm22,0h2v-2h-2Zm22,0h2v-2h-2Zm22,0h2v-2h-2Zm22,0h2v-2h-2Zm22,0h2v-2h-2Zm22,0h2v-2h-2Zm22,0h2v-2h-2Zm22,0h2v-2h-2Zm22,0h2v-2h-2Zm22,0h2v-2h-2Zm22,0h2v-2h-2Zm22,0h2v-2h-2Zm22,0h2v-2h-2Zm22,0h2v-2h-2Zm22,0h2v-2h-2Zm22,0h2v-2h-2Zm22,0h2v-2h-2Zm22,0h2v-2h-2Zm22,0h2v-2h-2Zm22,0h2v-2h-2Zm22,0h2v-2h-2Zm22,0h2v-2h-2Zm22,0h2v-2h-2Zm22,0h2v-2h-2Zm22,0h2v-2h-2Zm22,0h2v-2h-2Zm22,0h2v-2h-2Zm22,0h2v-2h-2Zm22,0h2v-2h-2Zm22,0h2v-2h-2ZM0-418H2v-2H0Zm22,0h2v-2H22Zm22,0h2v-2H44Zm22,0h2v-2H66Zm22,0h2v-2H88Zm22,0h2v-2h-2Zm22,0h2v-2h-2Zm22,0h2v-2h-2Zm22,0h2v-2h-2Zm22,0h2v-2h-2Zm22,0h2v-2h-2Zm22,0h2v-2h-2Zm22,0h2v-2h-2Zm22,0h2v-2h-2Zm22,0h2v-2h-2Zm22,0h2v-2h-2Zm22,0h2v-2h-2Zm22,0h2v-2h-2Zm22,0h2v-2h-2Zm22,0h2v-2h-2Zm22,0h2v-2h-2Zm22,0h2v-2h-2Zm22,0h2v-2h-2Zm22,0h2v-2h-2Zm22,0h2v-2h-2Zm22,0h2v-2h-2Zm22,0h2v-2h-2Zm22,0h2v-2h-2Zm22,0h2v-2h-2Zm22,0h2v-2h-2Zm22,0h2v-2h-2Zm22,0h2v-2h-2Zm22,0h2v-2h-2Zm22,0h2v-2h-2Zm22,0h2v-2h-2Zm22,0h2v-2h-2Zm22,0h2v-2h-2Zm22,0h2v-2h-2Zm22,0h2v-2h-2Zm22,0h2v-2h-2Zm22,0h2v-2h-2Zm22,0h2v-2h-2Zm22,0h2v-2h-2Zm22,0h2v-2h-2Zm22,0h2v-2h-2Zm22,0h2v-2h-2Zm22,0h2v-2h-2Zm22,0h2v-2h-2Zm22,0h2v-2h-2Zm22,0h2v-2h-2Zm22,0h2v-2h-2Zm22,0h2v-2h-2Zm22,0h2v-2h-2Zm22,0h2v-2h-2Zm22,0h2v-2h-2ZM0-396H2v-2H0Zm22,0h2v-2H22Zm22,0h2v-2H44Zm22,0h2v-2H66Zm22,0h2v-2H88Zm22,0h2v-2h-2Zm22,0h2v-2h-2Zm22,0h2v-2h-2Zm22,0h2v-2h-2Zm22,0h2v-2h-2Zm22,0h2v-2h-2Zm22,0h2v-2h-2Zm22,0h2v-2h-2Zm22,0h2v-2h-2Zm22,0h2v-2h-2Zm22,0h2v-2h-2Zm22,0h2v-2h-2Zm22,0h2v-2h-2Zm22,0h2v-2h-2Zm22,0h2v-2h-2Zm22,0h2v-2h-2Zm22,0h2v-2h-2Zm22,0h2v-2h-2Zm22,0h2v-2h-2Zm22,0h2v-2h-2Zm22,0h2v-2h-2Zm22,0h2v-2h-2Zm22,0h2v-2h-2Zm22,0h2v-2h-2Zm22,0h2v-2h-2Zm22,0h2v-2h-2Zm22,0h2v-2h-2Zm22,0h2v-2h-2Zm22,0h2v-2h-2Zm22,0h2v-2h-2Zm22,0h2v-2h-2Zm22,0h2v-2h-2Zm22,0h2v-2h-2Zm22,0h2v-2h-2Zm22,0h2v-2h-2Zm22,0h2v-2h-2Zm22,0h2v-2h-2Zm22,0h2v-2h-2Zm22,0h2v-2h-2Zm22,0h2v-2h-2Zm22,0h2v-2h-2Zm22,0h2v-2h-2Zm22,0h2v-2h-2Zm22,0h2v-2h-2Zm22,0h2v-2h-2Zm22,0h2v-2h-2Zm22,0h2v-2h-2Zm22,0h2v-2h-2Zm22,0h2v-2h-2Zm22,0h2v-2h-2ZM0-374H2v-2H0Zm22,0h2v-2H22Zm22,0h2v-2H44Zm22,0h2v-2H66Zm22,0h2v-2H88Zm22,0h2v-2h-2Zm22,0h2v-2h-2Zm22,0h2v-2h-2Zm22,0h2v-2h-2Zm22,0h2v-2h-2Zm22,0h2v-2h-2Zm22,0h2v-2h-2Zm22,0h2v-2h-2Zm22,0h2v-2h-2Zm22,0h2v-2h-2Zm22,0h2v-2h-2Zm22,0h2v-2h-2Zm22,0h2v-2h-2Zm22,0h2v-2h-2Zm22,0h2v-2h-2Zm22,0h2v-2h-2Zm22,0h2v-2h-2Zm22,0h2v-2h-2Zm22,0h2v-2h-2Zm22,0h2v-2h-2Zm22,0h2v-2h-2Zm22,0h2v-2h-2Zm22,0h2v-2h-2Zm22,0h2v-2h-2Zm22,0h2v-2h-2Zm22,0h2v-2h-2Zm22,0h2v-2h-2Zm22,0h2v-2h-2Zm22,0h2v-2h-2Zm22,0h2v-2h-2Zm22,0h2v-2h-2Zm22,0h2v-2h-2Zm22,0h2v-2h-2Zm22,0h2v-2h-2Zm22,0h2v-2h-2Zm22,0h2v-2h-2Zm22,0h2v-2h-2Zm22,0h2v-2h-2Zm22,0h2v-2h-2Zm22,0h2v-2h-2Zm22,0h2v-2h-2Zm22,0h2v-2h-2Zm22,0h2v-2h-2Zm22,0h2v-2h-2Zm22,0h2v-2h-2Zm22,0h2v-2h-2Zm22,0h2v-2h-2Zm22,0h2v-2h-2Zm22,0h2v-2h-2Zm22,0h2v-2h-2ZM0-352H2v-2H0Zm22,0h2v-2H22Zm22,0h2v-2H44Zm22,0h2v-2H66Zm22,0h2v-2H88Zm22,0h2v-2h-2Zm22,0h2v-2h-2Zm22,0h2v-2h-2Zm22,0h2v-2h-2Zm22,0h2v-2h-2Zm22,0h2v-2h-2Zm22,0h2v-2h-2Zm22,0h2v-2h-2Zm22,0h2v-2h-2Zm22,0h2v-2h-2Zm22,0h2v-2h-2Zm22,0h2v-2h-2Zm22,0h2v-2h-2Zm22,0h2v-2h-2Zm22,0h2v-2h-2Zm22,0h2v-2h-2Zm22,0h2v-2h-2Zm22,0h2v-2h-2Zm22,0h2v-2h-2Zm22,0h2v-2h-2Zm22,0h2v-2h-2Zm22,0h2v-2h-2Zm22,0h2v-2h-2Zm22,0h2v-2h-2Zm22,0h2v-2h-2Zm22,0h2v-2h-2Zm22,0h2v-2h-2Zm22,0h2v-2h-2Zm22,0h2v-2h-2Zm22,0h2v-2h-2Zm22,0h2v-2h-2Zm22,0h2v-2h-2Zm22,0h2v-2h-2Zm22,0h2v-2h-2Zm22,0h2v-2h-2Zm22,0h2v-2h-2Zm22,0h2v-2h-2Zm22,0h2v-2h-2Zm22,0h2v-2h-2Zm22,0h2v-2h-2Zm22,0h2v-2h-2Zm22,0h2v-2h-2Zm22,0h2v-2h-2Zm22,0h2v-2h-2Zm22,0h2v-2h-2Zm22,0h2v-2h-2Zm22,0h2v-2h-2Zm22,0h2v-2h-2Zm22,0h2v-2h-2Zm22,0h2v-2h-2ZM0-330H2v-2H0Zm22,0h2v-2H22Zm22,0h2v-2H44Zm22,0h2v-2H66Zm22,0h2v-2H88Zm22,0h2v-2h-2Zm22,0h2v-2h-2Zm22,0h2v-2h-2Zm22,0h2v-2h-2Zm22,0h2v-2h-2Zm22,0h2v-2h-2Zm22,0h2v-2h-2Zm22,0h2v-2h-2Zm22,0h2v-2h-2Zm22,0h2v-2h-2Zm22,0h2v-2h-2Zm22,0h2v-2h-2Zm22,0h2v-2h-2Zm22,0h2v-2h-2Zm22,0h2v-2h-2Zm22,0h2v-2h-2Zm22,0h2v-2h-2Zm22,0h2v-2h-2Zm22,0h2v-2h-2Zm22,0h2v-2h-2Zm22,0h2v-2h-2Zm22,0h2v-2h-2Zm22,0h2v-2h-2Zm22,0h2v-2h-2Zm22,0h2v-2h-2Zm22,0h2v-2h-2Zm22,0h2v-2h-2Zm22,0h2v-2h-2Zm22,0h2v-2h-2Zm22,0h2v-2h-2Zm22,0h2v-2h-2Zm22,0h2v-2h-2Zm22,0h2v-2h-2Zm22,0h2v-2h-2Zm22,0h2v-2h-2Zm22,0h2v-2h-2Zm22,0h2v-2h-2Zm22,0h2v-2h-2Zm22,0h2v-2h-2Zm22,0h2v-2h-2Zm22,0h2v-2h-2Zm22,0h2v-2h-2Zm22,0h2v-2h-2Zm22,0h2v-2h-2Zm22,0h2v-2h-2Zm22,0h2v-2h-2Zm22,0h2v-2h-2Zm22,0h2v-2h-2Zm22,0h2v-2h-2Zm22,0h2v-2h-2ZM0-308H2v-2H0Zm22,0h2v-2H22Zm22,0h2v-2H44Zm22,0h2v-2H66Zm22,0h2v-2H88Zm22,0h2v-2h-2Zm22,0h2v-2h-2Zm22,0h2v-2h-2Zm22,0h2v-2h-2Zm22,0h2v-2h-2Zm22,0h2v-2h-2Zm22,0h2v-2h-2Zm22,0h2v-2h-2Zm22,0h2v-2h-2Zm22,0h2v-2h-2Zm22,0h2v-2h-2Zm22,0h2v-2h-2Zm22,0h2v-2h-2Zm22,0h2v-2h-2Zm22,0h2v-2h-2Zm22,0h2v-2h-2Zm22,0h2v-2h-2Zm22,0h2v-2h-2Zm22,0h2v-2h-2Zm22,0h2v-2h-2Zm22,0h2v-2h-2Zm22,0h2v-2h-2Zm22,0h2v-2h-2Zm22,0h2v-2h-2Zm22,0h2v-2h-2Zm22,0h2v-2h-2Zm22,0h2v-2h-2Zm22,0h2v-2h-2Zm22,0h2v-2h-2Zm22,0h2v-2h-2Zm22,0h2v-2h-2Zm22,0h2v-2h-2Zm22,0h2v-2h-2Zm22,0h2v-2h-2Zm22,0h2v-2h-2Zm22,0h2v-2h-2Zm22,0h2v-2h-2Zm22,0h2v-2h-2Zm22,0h2v-2h-2Zm22,0h2v-2h-2Zm22,0h2v-2h-2Zm22,0h2v-2h-2Zm22,0h2v-2h-2Zm22,0h2v-2h-2Zm22,0h2v-2h-2Zm22,0h2v-2h-2Zm22,0h2v-2h-2Zm22,0h2v-2h-2Zm22,0h2v-2h-2Zm22,0h2v-2h-2ZM0-286H2v-2H0Zm22,0h2v-2H22Zm22,0h2v-2H44Zm22,0h2v-2H66Zm22,0h2v-2H88Zm22,0h2v-2h-2Zm22,0h2v-2h-2Zm22,0h2v-2h-2Zm22,0h2v-2h-2Zm22,0h2v-2h-2Zm22,0h2v-2h-2Zm22,0h2v-2h-2Zm22,0h2v-2h-2Zm22,0h2v-2h-2Zm22,0h2v-2h-2Zm22,0h2v-2h-2Zm22,0h2v-2h-2Zm22,0h2v-2h-2Zm22,0h2v-2h-2Zm22,0h2v-2h-2Zm22,0h2v-2h-2Zm22,0h2v-2h-2Zm22,0h2v-2h-2Zm22,0h2v-2h-2Zm22,0h2v-2h-2Zm22,0h2v-2h-2Zm22,0h2v-2h-2Zm22,0h2v-2h-2Zm22,0h2v-2h-2Zm22,0h2v-2h-2Zm22,0h2v-2h-2Zm22,0h2v-2h-2Zm22,0h2v-2h-2Zm22,0h2v-2h-2Zm22,0h2v-2h-2Zm22,0h2v-2h-2Zm22,0h2v-2h-2Zm22,0h2v-2h-2Zm22,0h2v-2h-2Zm22,0h2v-2h-2Zm22,0h2v-2h-2Zm22,0h2v-2h-2Zm22,0h2v-2h-2Zm22,0h2v-2h-2Zm22,0h2v-2h-2Zm22,0h2v-2h-2Zm22,0h2v-2h-2Zm22,0h2v-2h-2Zm22,0h2v-2h-2Zm22,0h2v-2h-2Zm22,0h2v-2h-2Zm22,0h2v-2h-2Zm22,0h2v-2h-2Zm22,0h2v-2h-2Zm22,0h2v-2h-2ZM0-264H2v-2H0Zm22,0h2v-2H22Zm22,0h2v-2H44Zm22,0h2v-2H66Zm22,0h2v-2H88Zm22,0h2v-2h-2Zm22,0h2v-2h-2Zm22,0h2v-2h-2Zm22,0h2v-2h-2Zm22,0h2v-2h-2Zm22,0h2v-2h-2Zm22,0h2v-2h-2Zm22,0h2v-2h-2Zm22,0h2v-2h-2Zm22,0h2v-2h-2Zm22,0h2v-2h-2Zm22,0h2v-2h-2Zm22,0h2v-2h-2Zm22,0h2v-2h-2Zm22,0h2v-2h-2Zm22,0h2v-2h-2Zm22,0h2v-2h-2Zm22,0h2v-2h-2Zm22,0h2v-2h-2Zm22,0h2v-2h-2Zm22,0h2v-2h-2Zm22,0h2v-2h-2Zm22,0h2v-2h-2Zm22,0h2v-2h-2Zm22,0h2v-2h-2Zm22,0h2v-2h-2Zm22,0h2v-2h-2Zm22,0h2v-2h-2Zm22,0h2v-2h-2Zm22,0h2v-2h-2Zm22,0h2v-2h-2Zm22,0h2v-2h-2Zm22,0h2v-2h-2Zm22,0h2v-2h-2Zm22,0h2v-2h-2Zm22,0h2v-2h-2Zm22,0h2v-2h-2Zm22,0h2v-2h-2Zm22,0h2v-2h-2Zm22,0h2v-2h-2Zm22,0h2v-2h-2Zm22,0h2v-2h-2Zm22,0h2v-2h-2Zm22,0h2v-2h-2Zm22,0h2v-2h-2Zm22,0h2v-2h-2Zm22,0h2v-2h-2Zm22,0h2v-2h-2Zm22,0h2v-2h-2Zm22,0h2v-2h-2ZM0-242H2v-2H0Zm22,0h2v-2H22Zm22,0h2v-2H44Zm22,0h2v-2H66Zm22,0h2v-2H88Zm22,0h2v-2h-2Zm22,0h2v-2h-2Zm22,0h2v-2h-2Zm22,0h2v-2h-2Zm22,0h2v-2h-2Zm22,0h2v-2h-2Zm22,0h2v-2h-2Zm22,0h2v-2h-2Zm22,0h2v-2h-2Zm22,0h2v-2h-2Zm22,0h2v-2h-2Zm22,0h2v-2h-2Zm22,0h2v-2h-2Zm22,0h2v-2h-2Zm22,0h2v-2h-2Zm22,0h2v-2h-2Zm22,0h2v-2h-2Zm22,0h2v-2h-2Zm22,0h2v-2h-2Zm22,0h2v-2h-2Zm22,0h2v-2h-2Zm22,0h2v-2h-2Zm22,0h2v-2h-2Zm22,0h2v-2h-2Zm22,0h2v-2h-2Zm22,0h2v-2h-2Zm22,0h2v-2h-2Zm22,0h2v-2h-2Zm22,0h2v-2h-2Zm22,0h2v-2h-2Zm22,0h2v-2h-2Zm22,0h2v-2h-2Zm22,0h2v-2h-2Zm22,0h2v-2h-2Zm22,0h2v-2h-2Zm22,0h2v-2h-2Zm22,0h2v-2h-2Zm22,0h2v-2h-2Zm22,0h2v-2h-2Zm22,0h2v-2h-2Zm22,0h2v-2h-2Zm22,0h2v-2h-2Zm22,0h2v-2h-2Zm22,0h2v-2h-2Zm22,0h2v-2h-2Zm22,0h2v-2h-2Zm22,0h2v-2h-2Zm22,0h2v-2h-2Zm22,0h2v-2h-2Zm22,0h2v-2h-2ZM0-220H2v-2H0Zm22,0h2v-2H22Zm22,0h2v-2H44Zm22,0h2v-2H66Zm22,0h2v-2H88Zm22,0h2v-2h-2Zm22,0h2v-2h-2Zm22,0h2v-2h-2Zm22,0h2v-2h-2Zm22,0h2v-2h-2Zm22,0h2v-2h-2Zm22,0h2v-2h-2Zm22,0h2v-2h-2Zm22,0h2v-2h-2Zm22,0h2v-2h-2Zm22,0h2v-2h-2Zm22,0h2v-2h-2Zm22,0h2v-2h-2Zm22,0h2v-2h-2Zm22,0h2v-2h-2Zm22,0h2v-2h-2Zm22,0h2v-2h-2Zm22,0h2v-2h-2Zm22,0h2v-2h-2Zm22,0h2v-2h-2Zm22,0h2v-2h-2Zm22,0h2v-2h-2Zm22,0h2v-2h-2Zm22,0h2v-2h-2Zm22,0h2v-2h-2Zm22,0h2v-2h-2Zm22,0h2v-2h-2Zm22,0h2v-2h-2Zm22,0h2v-2h-2Zm22,0h2v-2h-2Zm22,0h2v-2h-2Zm22,0h2v-2h-2Zm22,0h2v-2h-2Zm22,0h2v-2h-2Zm22,0h2v-2h-2Zm22,0h2v-2h-2Zm22,0h2v-2h-2Zm22,0h2v-2h-2Zm22,0h2v-2h-2Zm22,0h2v-2h-2Zm22,0h2v-2h-2Zm22,0h2v-2h-2Zm22,0h2v-2h-2Zm22,0h2v-2h-2Zm22,0h2v-2h-2Zm22,0h2v-2h-2Zm22,0h2v-2h-2Zm22,0h2v-2h-2Zm22,0h2v-2h-2Zm22,0h2v-2h-2ZM0-198H2v-2H0Zm22,0h2v-2H22Zm22,0h2v-2H44Zm22,0h2v-2H66Zm22,0h2v-2H88Zm22,0h2v-2h-2Zm22,0h2v-2h-2Zm22,0h2v-2h-2Zm22,0h2v-2h-2Zm22,0h2v-2h-2Zm22,0h2v-2h-2Zm22,0h2v-2h-2Zm22,0h2v-2h-2Zm22,0h2v-2h-2Zm22,0h2v-2h-2Zm22,0h2v-2h-2Zm22,0h2v-2h-2Zm22,0h2v-2h-2Zm22,0h2v-2h-2Zm22,0h2v-2h-2Zm22,0h2v-2h-2Zm22,0h2v-2h-2Zm22,0h2v-2h-2Zm22,0h2v-2h-2Zm22,0h2v-2h-2Zm22,0h2v-2h-2Zm22,0h2v-2h-2Zm22,0h2v-2h-2Zm22,0h2v-2h-2Zm22,0h2v-2h-2Zm22,0h2v-2h-2Zm22,0h2v-2h-2Zm22,0h2v-2h-2Zm22,0h2v-2h-2Zm22,0h2v-2h-2Zm22,0h2v-2h-2Zm22,0h2v-2h-2Zm22,0h2v-2h-2Zm22,0h2v-2h-2Zm22,0h2v-2h-2Zm22,0h2v-2h-2Zm22,0h2v-2h-2Zm22,0h2v-2h-2Zm22,0h2v-2h-2Zm22,0h2v-2h-2Zm22,0h2v-2h-2Zm22,0h2v-2h-2Zm22,0h2v-2h-2Zm22,0h2v-2h-2Zm22,0h2v-2h-2Zm22,0h2v-2h-2Zm22,0h2v-2h-2Zm22,0h2v-2h-2Zm22,0h2v-2h-2Zm22,0h2v-2h-2ZM0-176H2v-2H0Zm22,0h2v-2H22Zm22,0h2v-2H44Zm22,0h2v-2H66Zm22,0h2v-2H88Zm22,0h2v-2h-2Zm22,0h2v-2h-2Zm22,0h2v-2h-2Zm22,0h2v-2h-2Zm22,0h2v-2h-2Zm22,0h2v-2h-2Zm22,0h2v-2h-2Zm22,0h2v-2h-2Zm22,0h2v-2h-2Zm22,0h2v-2h-2Zm22,0h2v-2h-2Zm22,0h2v-2h-2Zm22,0h2v-2h-2Zm22,0h2v-2h-2Zm22,0h2v-2h-2Zm22,0h2v-2h-2Zm22,0h2v-2h-2Zm22,0h2v-2h-2Zm22,0h2v-2h-2Zm22,0h2v-2h-2Zm22,0h2v-2h-2Zm22,0h2v-2h-2Zm22,0h2v-2h-2Zm22,0h2v-2h-2Zm22,0h2v-2h-2Zm22,0h2v-2h-2Zm22,0h2v-2h-2Zm22,0h2v-2h-2Zm22,0h2v-2h-2Zm22,0h2v-2h-2Zm22,0h2v-2h-2Zm22,0h2v-2h-2Zm22,0h2v-2h-2Zm22,0h2v-2h-2Zm22,0h2v-2h-2Zm22,0h2v-2h-2Zm22,0h2v-2h-2Zm22,0h2v-2h-2Zm22,0h2v-2h-2Zm22,0h2v-2h-2Zm22,0h2v-2h-2Zm22,0h2v-2h-2Zm22,0h2v-2h-2Zm22,0h2v-2h-2Zm22,0h2v-2h-2Zm22,0h2v-2h-2Zm22,0h2v-2h-2Zm22,0h2v-2h-2Zm22,0h2v-2h-2Zm22,0h2v-2h-2ZM0-154H2v-2H0Zm22,0h2v-2H22Zm22,0h2v-2H44Zm22,0h2v-2H66Zm22,0h2v-2H88Zm22,0h2v-2h-2Zm22,0h2v-2h-2Zm22,0h2v-2h-2Zm22,0h2v-2h-2Zm22,0h2v-2h-2Zm22,0h2v-2h-2Zm22,0h2v-2h-2Zm22,0h2v-2h-2Zm22,0h2v-2h-2Zm22,0h2v-2h-2Zm22,0h2v-2h-2Zm22,0h2v-2h-2Zm22,0h2v-2h-2Zm22,0h2v-2h-2Zm22,0h2v-2h-2Zm22,0h2v-2h-2Zm22,0h2v-2h-2Zm22,0h2v-2h-2Zm22,0h2v-2h-2Zm22,0h2v-2h-2Zm22,0h2v-2h-2Zm22,0h2v-2h-2Zm22,0h2v-2h-2Zm22,0h2v-2h-2Zm22,0h2v-2h-2Zm22,0h2v-2h-2Zm22,0h2v-2h-2Zm22,0h2v-2h-2Zm22,0h2v-2h-2Zm22,0h2v-2h-2Zm22,0h2v-2h-2Zm22,0h2v-2h-2Zm22,0h2v-2h-2Zm22,0h2v-2h-2Zm22,0h2v-2h-2Zm22,0h2v-2h-2Zm22,0h2v-2h-2Zm22,0h2v-2h-2Zm22,0h2v-2h-2Zm22,0h2v-2h-2Zm22,0h2v-2h-2Zm22,0h2v-2h-2Zm22,0h2v-2h-2Zm22,0h2v-2h-2Zm22,0h2v-2h-2Zm22,0h2v-2h-2Zm22,0h2v-2h-2Zm22,0h2v-2h-2Zm22,0h2v-2h-2Zm22,0h2v-2h-2ZM0-132H2v-2H0Zm22,0h2v-2H22Zm22,0h2v-2H44Zm22,0h2v-2H66Zm22,0h2v-2H88Zm22,0h2v-2h-2Zm22,0h2v-2h-2Zm22,0h2v-2h-2Zm22,0h2v-2h-2Zm22,0h2v-2h-2Zm22,0h2v-2h-2Zm22,0h2v-2h-2Zm22,0h2v-2h-2Zm22,0h2v-2h-2Zm22,0h2v-2h-2Zm22,0h2v-2h-2Zm22,0h2v-2h-2Zm22,0h2v-2h-2Zm22,0h2v-2h-2Zm22,0h2v-2h-2Zm22,0h2v-2h-2Zm22,0h2v-2h-2Zm22,0h2v-2h-2Zm22,0h2v-2h-2Zm22,0h2v-2h-2Zm22,0h2v-2h-2Zm22,0h2v-2h-2Zm22,0h2v-2h-2Zm22,0h2v-2h-2Zm22,0h2v-2h-2Zm22,0h2v-2h-2Zm22,0h2v-2h-2Zm22,0h2v-2h-2Zm22,0h2v-2h-2Zm22,0h2v-2h-2Zm22,0h2v-2h-2Zm22,0h2v-2h-2Zm22,0h2v-2h-2Zm22,0h2v-2h-2Zm22,0h2v-2h-2Zm22,0h2v-2h-2Zm22,0h2v-2h-2Zm22,0h2v-2h-2Zm22,0h2v-2h-2Zm22,0h2v-2h-2Zm22,0h2v-2h-2Zm22,0h2v-2h-2Zm22,0h2v-2h-2Zm22,0h2v-2h-2Zm22,0h2v-2h-2Zm22,0h2v-2h-2Zm22,0h2v-2h-2Zm22,0h2v-2h-2Zm22,0h2v-2h-2Zm22,0h2v-2h-2ZM0-110H2v-2H0Zm22,0h2v-2H22Zm22,0h2v-2H44Zm22,0h2v-2H66Zm22,0h2v-2H88Zm22,0h2v-2h-2Zm22,0h2v-2h-2Zm22,0h2v-2h-2Zm22,0h2v-2h-2Zm22,0h2v-2h-2Zm22,0h2v-2h-2Zm22,0h2v-2h-2Zm22,0h2v-2h-2Zm22,0h2v-2h-2Zm22,0h2v-2h-2Zm22,0h2v-2h-2Zm22,0h2v-2h-2Zm22,0h2v-2h-2Zm22,0h2v-2h-2Zm22,0h2v-2h-2Zm22,0h2v-2h-2Zm22,0h2v-2h-2Zm22,0h2v-2h-2Zm22,0h2v-2h-2Zm22,0h2v-2h-2Zm22,0h2v-2h-2Zm22,0h2v-2h-2Zm22,0h2v-2h-2Zm22,0h2v-2h-2Zm22,0h2v-2h-2Zm22,0h2v-2h-2Zm22,0h2v-2h-2Zm22,0h2v-2h-2Zm22,0h2v-2h-2Zm22,0h2v-2h-2Zm22,0h2v-2h-2Zm22,0h2v-2h-2Zm22,0h2v-2h-2Zm22,0h2v-2h-2Zm22,0h2v-2h-2Zm22,0h2v-2h-2Zm22,0h2v-2h-2Zm22,0h2v-2h-2Zm22,0h2v-2h-2Zm22,0h2v-2h-2Zm22,0h2v-2h-2Zm22,0h2v-2h-2Zm22,0h2v-2h-2Zm22,0h2v-2h-2Zm22,0h2v-2h-2Zm22,0h2v-2h-2Zm22,0h2v-2h-2Zm22,0h2v-2h-2Zm22,0h2v-2h-2Zm22,0h2v-2h-2ZM0-88H2v-2H0Zm22,0h2v-2H22Zm22,0h2v-2H44Zm22,0h2v-2H66Zm22,0h2v-2H88Zm22,0h2v-2h-2Zm22,0h2v-2h-2Zm22,0h2v-2h-2Zm22,0h2v-2h-2Zm22,0h2v-2h-2Zm22,0h2v-2h-2Zm22,0h2v-2h-2Zm22,0h2v-2h-2Zm22,0h2v-2h-2Zm22,0h2v-2h-2Zm22,0h2v-2h-2Zm22,0h2v-2h-2Zm22,0h2v-2h-2Zm22,0h2v-2h-2Zm22,0h2v-2h-2Zm22,0h2v-2h-2Zm22,0h2v-2h-2Zm22,0h2v-2h-2Zm22,0h2v-2h-2Zm22,0h2v-2h-2Zm22,0h2v-2h-2Zm22,0h2v-2h-2Zm22,0h2v-2h-2Zm22,0h2v-2h-2Zm22,0h2v-2h-2Zm22,0h2v-2h-2Zm22,0h2v-2h-2Zm22,0h2v-2h-2Zm22,0h2v-2h-2Zm22,0h2v-2h-2Zm22,0h2v-2h-2Zm22,0h2v-2h-2Zm22,0h2v-2h-2Zm22,0h2v-2h-2Zm22,0h2v-2h-2Zm22,0h2v-2h-2Zm22,0h2v-2h-2Zm22,0h2v-2h-2Zm22,0h2v-2h-2Zm22,0h2v-2h-2Zm22,0h2v-2h-2Zm22,0h2v-2h-2Zm22,0h2v-2h-2Zm22,0h2v-2h-2Zm22,0h2v-2h-2Zm22,0h2v-2h-2Zm22,0h2v-2h-2Zm22,0h2v-2h-2Zm22,0h2v-2h-2Zm22,0h2v-2h-2ZM0-66H2v-2H0Zm22,0h2v-2H22Zm22,0h2v-2H44Zm22,0h2v-2H66Zm22,0h2v-2H88Zm22,0h2v-2h-2Zm22,0h2v-2h-2Zm22,0h2v-2h-2Zm22,0h2v-2h-2Zm22,0h2v-2h-2Zm22,0h2v-2h-2Zm22,0h2v-2h-2Zm22,0h2v-2h-2Zm22,0h2v-2h-2Zm22,0h2v-2h-2Zm22,0h2v-2h-2Zm22,0h2v-2h-2Zm22,0h2v-2h-2Zm22,0h2v-2h-2Zm22,0h2v-2h-2Zm22,0h2v-2h-2Zm22,0h2v-2h-2Zm22,0h2v-2h-2Zm22,0h2v-2h-2Zm22,0h2v-2h-2Zm22,0h2v-2h-2Zm22,0h2v-2h-2Zm22,0h2v-2h-2Zm22,0h2v-2h-2Zm22,0h2v-2h-2Zm22,0h2v-2h-2Zm22,0h2v-2h-2Zm22,0h2v-2h-2Zm22,0h2v-2h-2Zm22,0h2v-2h-2Zm22,0h2v-2h-2Zm22,0h2v-2h-2Zm22,0h2v-2h-2Zm22,0h2v-2h-2Zm22,0h2v-2h-2Zm22,0h2v-2h-2Zm22,0h2v-2h-2Zm22,0h2v-2h-2Zm22,0h2v-2h-2Zm22,0h2v-2h-2Zm22,0h2v-2h-2Zm22,0h2v-2h-2Zm22,0h2v-2h-2Zm22,0h2v-2h-2Zm22,0h2v-2h-2Zm22,0h2v-2h-2Zm22,0h2v-2h-2Zm22,0h2v-2h-2Zm22,0h2v-2h-2Zm22,0h2v-2h-2ZM0-44H2v-2H0Zm22,0h2v-2H22Zm22,0h2v-2H44Zm22,0h2v-2H66Zm22,0h2v-2H88Zm22,0h2v-2h-2Zm22,0h2v-2h-2Zm22,0h2v-2h-2Zm22,0h2v-2h-2Zm22,0h2v-2h-2Zm22,0h2v-2h-2Zm22,0h2v-2h-2Zm22,0h2v-2h-2Zm22,0h2v-2h-2Zm22,0h2v-2h-2Zm22,0h2v-2h-2Zm22,0h2v-2h-2Zm22,0h2v-2h-2Zm22,0h2v-2h-2Zm22,0h2v-2h-2Zm22,0h2v-2h-2Zm22,0h2v-2h-2Zm22,0h2v-2h-2Zm22,0h2v-2h-2Zm22,0h2v-2h-2Zm22,0h2v-2h-2Zm22,0h2v-2h-2Zm22,0h2v-2h-2Zm22,0h2v-2h-2Zm22,0h2v-2h-2Zm22,0h2v-2h-2Zm22,0h2v-2h-2Zm22,0h2v-2h-2Zm22,0h2v-2h-2Zm22,0h2v-2h-2Zm22,0h2v-2h-2Zm22,0h2v-2h-2Zm22,0h2v-2h-2Zm22,0h2v-2h-2Zm22,0h2v-2h-2Zm22,0h2v-2h-2Zm22,0h2v-2h-2Zm22,0h2v-2h-2Zm22,0h2v-2h-2Zm22,0h2v-2h-2Zm22,0h2v-2h-2Zm22,0h2v-2h-2Zm22,0h2v-2h-2Zm22,0h2v-2h-2Zm22,0h2v-2h-2Zm22,0h2v-2h-2Zm22,0h2v-2h-2Zm22,0h2v-2h-2Zm22,0h2v-2h-2Zm22,0h2v-2h-2ZM0-22H2v-2H0Zm22,0h2v-2H22Zm22,0h2v-2H44Zm22,0h2v-2H66Zm22,0h2v-2H88Zm22,0h2v-2h-2Zm22,0h2v-2h-2Zm22,0h2v-2h-2Zm22,0h2v-2h-2Zm22,0h2v-2h-2Zm22,0h2v-2h-2Zm22,0h2v-2h-2Zm22,0h2v-2h-2Zm22,0h2v-2h-2Zm22,0h2v-2h-2Zm22,0h2v-2h-2Zm22,0h2v-2h-2Zm22,0h2v-2h-2Zm22,0h2v-2h-2Zm22,0h2v-2h-2Zm22,0h2v-2h-2Zm22,0h2v-2h-2Zm22,0h2v-2h-2Zm22,0h2v-2h-2Zm22,0h2v-2h-2Zm22,0h2v-2h-2Zm22,0h2v-2h-2Zm22,0h2v-2h-2Zm22,0h2v-2h-2Zm22,0h2v-2h-2Zm22,0h2v-2h-2Zm22,0h2v-2h-2Zm22,0h2v-2h-2Zm22,0h2v-2h-2Zm22,0h2v-2h-2Zm22,0h2v-2h-2Zm22,0h2v-2h-2Zm22,0h2v-2h-2Zm22,0h2v-2h-2Zm22,0h2v-2h-2Zm22,0h2v-2h-2Zm22,0h2v-2h-2Zm22,0h2v-2h-2Zm22,0h2v-2h-2Zm22,0h2v-2h-2Zm22,0h2v-2h-2Zm22,0h2v-2h-2Zm22,0h2v-2h-2Zm22,0h2v-2h-2Zm22,0h2v-2h-2Zm22,0h2v-2h-2Zm22,0h2v-2h-2Zm22,0h2v-2h-2Zm22,0h2v-2h-2Zm22,0h2v-2h-2ZM0,0H2V-2H0ZM22,0h2V-2H22ZM44,0h2V-2H44ZM66,0h2V-2H66ZM88,0h2V-2H88Zm22,0h2V-2h-2Zm22,0h2V-2h-2Zm22,0h2V-2h-2Zm22,0h2V-2h-2Zm22,0h2V-2h-2Zm22,0h2V-2h-2Zm22,0h2V-2h-2Zm22,0h2V-2h-2Zm22,0h2V-2h-2Zm22,0h2V-2h-2Zm22,0h2V-2h-2Zm22,0h2V-2h-2Zm22,0h2V-2h-2Zm22,0h2V-2h-2Zm22,0h2V-2h-2Zm22,0h2V-2h-2Zm22,0h2V-2h-2Zm22,0h2V-2h-2Zm22,0h2V-2h-2Zm22,0h2V-2h-2Zm22,0h2V-2h-2Zm22,0h2V-2h-2Zm22,0h2V-2h-2Zm22,0h2V-2h-2Zm22,0h2V-2h-2Zm22,0h2V-2h-2Zm22,0h2V-2h-2Zm22,0h2V-2h-2Zm22,0h2V-2h-2Zm22,0h2V-2h-2Zm22,0h2V-2h-2Zm22,0h2V-2h-2Zm22,0h2V-2h-2Zm22,0h2V-2h-2Zm22,0h2V-2h-2Zm22,0h2V-2h-2Zm22,0h2V-2h-2Zm22,0h2V-2h-2Zm22,0h2V-2h-2Zm22,0h2V-2h-2Zm22,0h2V-2h-2Zm22,0h2V-2h-2Zm22,0h2V-2h-2Zm22,0h2V-2h-2Zm22,0h2V-2h-2Zm22,0h2V-2h-2Zm22,0h2V-2h-2Zm22,0h2V-2h-2Zm22,0h2V-2h-2Zm22,0h2V-2h-2Z" transform="translate(0 1190)" fill-rule="evenodd" fill="url(#radial-gradient)"/>
</svg>
