<svg xmlns="http://www.w3.org/2000/svg" viewBox="0 0 70 60.582">
  <g id="Polygon_9" data-name="Polygon 9" transform="" fill="none">
    <path d="M43.265,0A16,16,0,0,1,57.12,8l8.256,14.291a16,16,0,0,1,0,16.008L57.12,52.586a16,16,0,0,1-13.854,8H26.735a16,16,0,0,1-13.854-8L4.624,38.295a16,16,0,0,1,0-16.008L12.88,8A16,16,0,0,1,26.735,0Z" stroke="none"/>
    <path d="M 26.73456573486328 1.999996185302734 C 24.28115463256836 1.999996185302734 21.86118698120117 2.648235321044922 19.73629760742188 3.874645233154297 C 17.61140441894531 5.101047515869141 15.83951568603516 6.872177124023438 14.61220550537109 8.996536254882812 L 6.355884552001953 23.28749847412109 C 5.127525329589844 25.41367721557617 4.478248596191406 27.83542633056641 4.478248596191406 30.29094696044922 C 4.478248596191406 32.74645614624023 5.127525329589844 35.16821670532227 6.35589599609375 37.29440689086914 L 14.61220550537109 51.58534622192383 C 15.83951568603516 53.709716796875 17.61139678955078 55.4808464050293 19.73629760742188 56.70724868774414 C 21.86118698120117 57.93364715576172 24.28114700317383 58.58188629150391 26.73456573486328 58.58188629150391 L 43.26546478271484 58.58188629150391 C 45.71868896484375 58.58188629150391 48.13861846923828 57.9336051940918 50.26363372802734 56.70712661743164 C 52.38865661621094 55.48064804077148 54.16056823730469 53.70956802368164 55.38778686523438 51.58534622192383 L 63.64410781860352 37.29440689086914 C 64.87246704101562 35.16821670532227 65.52174377441406 32.74645614624023 65.52174377441406 30.29094696044922 C 65.52174377441406 27.83542633056641 64.87246704101562 25.41367721557617 63.64410781860352 23.2874870300293 L 55.38778686523438 8.996536254882812 C 54.16047668457031 6.872165679931641 52.38859558105469 5.101047515869141 50.26370620727539 3.874645233154297 C 48.13881683349609 2.648235321044922 45.71884536743164 1.999996185302734 43.26543426513672 1.999996185302734 L 26.73456573486328 1.999996185302734 M 26.73456573486328 -3.814697265625e-06 L 43.26543426513672 -3.814697265625e-06 C 48.98005676269531 -3.814697265625e-06 54.26083755493164 3.047855377197266 57.11955642700195 7.996047973632812 L 65.37587738037109 22.2869987487793 C 68.23703765869141 27.23941802978516 68.23703765869141 33.34246826171875 65.37587738037109 38.29489898681641 L 57.11955642700195 52.58583831787109 C 54.26100921630859 57.53373336791992 48.97968292236328 60.58188629150391 43.26546478271484 60.58188629150391 C 43.26511383056641 60.58188629150391 43.26578521728516 60.58188629150391 43.26543426513672 60.58188629150391 L 26.73456573486328 60.58188629150391 C 21.01994705200195 60.5818977355957 15.73915481567383 57.53403854370117 12.88043594360352 52.58583831787109 L 4.624122619628906 38.29489898681641 C 1.762954711914062 33.34246826171875 1.762954711914062 27.23941802978516 4.624122619628906 22.2869987487793 L 12.88043594360352 7.996047973632812 C 15.73916625976562 3.047855377197266 21.01994705200195 -3.814697265625e-06 26.73456573486328 -3.814697265625e-06 Z" stroke="none" fill="#27b9f5"/>
  </g>
</svg>
