<svg xmlns="http://www.w3.org/2000/svg" width="94.029" height="81.103" viewBox="0 0 94.029 81.103">
  <g id="Polygon_13" data-name="Polygon 13" fill="none">
    <path d="M59,0A20,20,0,0,1,76.3,9.97L88.215,30.521a20,20,0,0,1,0,20.061L76.3,71.134A20,20,0,0,1,59,81.1H35.031a20,20,0,0,1-17.3-9.97L5.814,50.582a20,20,0,0,1,0-20.061L17.728,9.97A20,20,0,0,1,35.031,0Z" stroke="none"/>
    <path d="M 35.03091812133789 1 C 31.7061653137207 1 28.42610931396484 1.877357482910156 25.54533386230469 3.537200927734375 C 22.66455841064453 5.197059631347656 20.26050567626953 7.594802856445312 18.59309387207031 10.47119903564453 L 6.679588317871094 31.02283477783203 C 5.003402709960938 33.91437911987305 4.117416381835938 37.20937728881836 4.117416381835938 40.5516242980957 C 4.117416381835938 43.89387130737305 5.003402709960938 47.18886947631836 6.679588317871094 50.08041381835938 L 18.59308624267578 70.63203430175781 C 20.260498046875 73.50844573974609 22.66454315185547 75.90617370605469 25.54531097412109 77.56603240966797 C 28.42608642578125 79.22589111328125 31.70615386962891 80.10324859619141 35.03090667724609 80.10324859619141 L 58.99803924560547 80.10324859619141 C 62.32279205322266 80.10324859619141 65.60285186767578 79.22589111328125 68.48362731933594 77.56603240966797 C 71.36440277099609 75.90617370605469 73.76844787597656 73.50843811035156 75.43585968017578 70.63203430175781 L 87.349365234375 50.08041381835938 C 89.02555847167969 47.18888473510742 89.91152954101562 43.89387130737305 89.91152954101562 40.5516242980957 C 89.91152954101562 37.20937728881836 89.02555847167969 33.91437911987305 87.349365234375 31.02283477783203 L 75.43585968017578 10.47119903564453 C 73.76844787597656 7.594802856445312 71.36440277099609 5.197059631347656 68.48362731933594 3.537200927734375 C 65.60285186767578 1.877357482910156 62.32279205322266 1 58.99803924560547 1 L 35.03091812133789 1 M 35.03091812133789 0 L 58.99803924560547 0 C 66.13083648681641 0 72.72380065917969 3.798751831054688 76.30101013183594 9.969680786132812 L 88.21452331542969 30.52131652832031 C 91.810546875 36.7247314453125 91.810546875 44.3785285949707 88.21452331542969 50.58193206787109 L 76.30101013183594 71.13355255126953 C 72.72380065917969 77.30448150634766 66.13083648681641 81.10324859619141 58.99803924560547 81.10324859619141 L 35.03090667724609 81.10324859619141 C 27.89809417724609 81.10324859619141 21.30514526367188 77.30448150634766 17.72792816162109 71.13355255126953 L 5.814437866210938 50.58193206787109 C 2.218399047851562 44.3785285949707 2.218399047851562 36.7247314453125 5.814437866210938 30.52131652832031 L 17.72794342041016 9.969680786132812 C 21.30515289306641 3.798751831054688 27.89811706542969 0 35.03091812133789 0 Z" stroke="none" fill="rgba(39,185,245,0.5)"/>
  </g>
</svg>
