<?xml version="1.0" encoding="UTF-8"?><svg id="Vrstva_1" xmlns="http://www.w3.org/2000/svg" viewBox="0 0 412.4903 373.939"><g id="Polygon_8"><path d="m275.7321.5c23.8952.0003,45.9817,12.7268,57.965,33.4l69.259,119.467c12.0455,20.7806,12.0455,46.4194,0,67.2l-69.259,119.472c-11.9833,20.6732-34.0698,33.3997-57.965,33.4h-138.976c-23.8952-.0003-45.9817-12.7268-57.965-33.4L9.5341,220.57c-12.0455-20.7806-12.0455-46.4194,0-67.2L78.7891,33.9C90.7728,13.2261,112.8602.4996,136.7561.5h138.976Z" style="fill:none; opacity:.5; stroke:#27b9f5; stroke-miterlimit:10;"/><path d="m136.7539.5h100v3h-100V.5h0Zm270.0165,203.1707l2.8961.7827c-.4743,1.755-1.0209,3.4938-1.6407,5.2145-.0002.0007-.0002.0005-.0004.0012-.0039.0108-.0073.0202-.0112.031-.0002.0007-.0005.0014-.0008.0021-.0039.0108-.0067.0186-.0106.0294-.0006.0017-.0011.0031-.0017.0047-.0034.0095-.0068.0189-.0103.0283-.0004.001-.0007.0018-.001.0028-.0039.0108-.0065.018-.0104.0288-.0006.0017-.0011.0031-.0017.0048-.0034.0094-.0069.019-.0103.0285-.0004.001-.0005.0014-.0009.0024-.0034.0095-.007.0192-.0104.0286-.0007.002-.0014.004-.0022.006-.0034.0095-.0064.0175-.0098.0269-.0006.0017-.0011.003-.0017.0046-.003.0081-.0067.0184-.0096.0265-.001.0027-.0019.0051-.0028.0078-.003.0081-.006.0163-.0089.0244-.001.0027-.002.0056-.003.0082-.003.0081-.0054.0147-.0084.0228-.0012.0033-.0027.0073-.0039.0106-.0025.0067-.0059.016-.0083.0228-.0011.003-.002.0055-.0031.0085-.003.0081-.0053.0145-.0083.0226-.0013.0037-.0026.0071-.0039.0108-.003.0081-.0053.0143-.0082.0224-.0011.003-.0021.0057-.0032.0087-.003.0081-.0055.0149-.0085.023-.0012.0033-.0024.0065-.0036.0098-.003.0081-.0056.0151-.0085.0232-.0011.003-.0021.0057-.0032.0087-.003.0081-.0051.0139-.0081.022-.0015.004-.003.008-.0044.012-.002.0054-.0053.0144-.0074.0198-.0016.0043-.0031.0084-.0047.0128-.002.0054-.0048.0128-.0068.0182-.0017.0047-.0036.0098-.0054.0145-.002.0054-.0049.0133-.0069.0187-.0016.0043-.0032.0086-.0048.0129-.002.0054-.0049.0131-.0069.0185-.0017.0047-.0035.0096-.0053.0142-.002.0054-.0049.013-.0068.0184-.0017.0047-.0033.0089-.0051.0136-.002.0054-.0045.0122-.0066.0176-.0018.005-.0037.0101-.0056.015-.002.0054-.0048.0128-.0068.0182-.0016.0043-.0034.0091-.005.0134-.0025.0067-.0039.0104-.0064.0172-.002.0053-.0042.0112-.0062.0165-.0015.004-.0038.0102-.0053.0142-.0022.006-.0048.0127-.007.0187-.0015.004-.003.0079-.0045.0119-.0025.0066-.0051.0135-.0076.0202-.0015.004-.0035.0093-.005.0133-.0023.006-.0045.0119-.0067.0179-.0015.004-.0039.0105-.0055.0145-.0023.006-.0043.0115-.0066.0174-.002.0054-.0038.0101-.0058.0155-.0021.0056-.004.0106-.0061.0163-.002.0054-.004.0106-.006.016-.002.0053-.004.0106-.006.0159-.002.0054-.0043.0114-.0063.0168-.0019.005-.004.0106-.0059.0156-.002.0054-.0034.0091-.0055.0145-.0023.006-.0047.0125-.007.0184-.0015.004-.0031.0083-.0047.0123-.0025.0066-.0052.0138-.0078.0205-.001.0027-.0027.007-.0037.0097-.0028.0073-.0056.0148-.0084.0221-.0016.004-.0026.0069-.0042.0109-.0028.0073-.0053.0139-.0081.0212-.0016.004-.0021.0056-.0037.0096-.0029.0076-.0058.0151-.0087.0228-.0015.004-.0018.0047-.0033.0088-.0029.0076-.0059.0154-.0088.0231-.001.0027-.0023.0059-.0033.0086-.0029.0076-.006.0158-.0089.0234-.001.0027-.0024.0064-.0035.0091-.0029.0076-.0058.0152-.0087.0228l-.0031.0081c-.0032.0083-.0062.0161-.0093.0244-.001.0027-.0011.0029-.0022.0056-.0034.0089-.0069.0179-.0103.0269-.0005.0013-.0002.0005-.0007.0019-.0038.0099-.0078.0203-.0116.0302h0c-.0041.0107-.008.0209-.0121.0315-.0005.0013-.0005.0012-.001.0025-.0038.0099-.0075.0193-.0113.0293-.0005.0013-.0006.0017-.0012.003-.0037.0096-.0074.0192-.0111.0288l-.001.0025c-1.2087,3.1254-2.6604,6.1813-4.3554,9.1404h0c-.0057.0101-.0114.02-.0172.03l-.0003.0006c-.0056.0097-.0113.0197-.0169.0294l-.0007.0013c-.0056.0097-.011.0191-.0165.0288l-.0006.001c-.0402.0699-.0805.1397-.1209.2095,0,0-.1612.278-.4636.7997l-.0021.0036c-.1419.2447-.3143.5422-.516.8901l-.0006.001c-.0122.0211-.0238.0411-.0362.0625l-.0167.0289c-.0022.0037-.0046.0079-.0067.0116l-.0021.0035c-.003.0052-.0062.0107-.0092.0159l-.0012.0021c-.0022.0038-.0049.0084-.007.0122l-.0053.0092c-.0118.0204-.0239.0412-.0359.0619l-.0075.0129c-.0201.0346-.0406.0701-.0612.1055l-.0003.0005c-.0059.0102-.0118.0204-.0178.0307l-.0135.0234c-.0111.0191-.0231.0398-.0343.0592l-.0012.0021c-.0113.0194-.0225.0387-.0338.0583l-.028.0482-.001.0017-.0071.0122c-.0029.005-.006.0102-.0088.0152l-.0243.0419c-.0034.0059-.0064.011-.0098.0169l-.0785.1355c-.0045.0078-.0089.0153-.0134.0231l-.1672.2885c-.0021.0036-.0042.0072-.0063.0108l-.0105.0182c-.0011.0018-.0016.0028-.0027.0046l-.0071.0123c-.0021.0037-.0044.0076-.0065.0112l-.7204,1.2428c-.0013.0022-.0012.0021-.0025.0043l-39.0041,67.2847-2.5954-1.5045,41.3706-71.3672c2.8015-4.8327,4.9596-10.0123,6.4143-15.3949ZM48.6184,282.0107l32.766,56.5236c2.7961,4.8234,6.2108,9.2627,10.1494,13.1946,3.875,3.8685,8.2402,7.2301,12.9744,9.9914l-1.5115,2.5914c-2.5358-1.4791-4.9747-3.1247-7.2996-4.9271h0c-.0083-.0064-.0164-.0128-.0247-.0192l-.0022-.0017c-.008-.0062-.0157-.0122-.0237-.0184-.0011-.0009-.0019-.0015-.0031-.0023-.0072-.0056-.0148-.0115-.022-.0171-.0022-.0017-.0026-.002-.0049-.0038l-.0207-.0161c-.0022-.0017-.004-.0031-.0062-.0048-.0061-.0047-.0125-.0097-.0186-.0144-.0033-.0026-.0052-.004-.0085-.0067-.0058-.0045-.0114-.0089-.0172-.0134-.0033-.0026-.0064-.005-.0097-.0076-.0052-.0041-.0103-.008-.0155-.0121-.0045-.0035-.0068-.0053-.0112-.0088-.0052-.0041-.0106-.0082-.0158-.0123-.0034-.0026-.0074-.0058-.0108-.0084-.0049-.0039-.0099-.0077-.0148-.0116-.0045-.0035-.0074-.0059-.0119-.0093-.005-.0039-.0104-.0081-.0154-.012-.0045-.0035-.0067-.0052-.0111-.0087-.0047-.0037-.0096-.0075-.0143-.0112-.0045-.0035-.0082-.0064-.0127-.0099-.0049-.0039-.0091-.0072-.0141-.011-.0044-.0035-.0078-.0061-.0122-.0096-.0047-.0037-.0093-.0073-.014-.011-.0044-.0035-.0082-.0064-.0126-.0099-.005-.0039-.0099-.0078-.0148-.0117-.0045-.0035-.0069-.0054-.0114-.0089-.0049-.0039-.0097-.0076-.0146-.0115-.0045-.0035-.0078-.0061-.0122-.0096-.0047-.0037-.0093-.0074-.014-.011-.0045-.0035-.0081-.0064-.0126-.0099-.0047-.0037-.009-.0071-.0136-.0107-.0033-.0026-.0092-.0073-.0126-.0099-.0049-.0039-.0098-.0078-.0148-.0117-.0033-.0026-.0085-.0067-.0118-.0093-.0047-.0037-.009-.0071-.0137-.0108-.0033-.0026-.0097-.0077-.0131-.0103-.0044-.0035-.0092-.0073-.0136-.0107-.0033-.0027-.0096-.0076-.0129-.0102-.0044-.0035-.0083-.0066-.0127-.01-.0056-.0044-.0086-.0068-.0142-.0112-.0041-.0032-.0082-.0065-.0123-.0098-.0055-.0044-.0092-.0073-.0147-.0117-.0033-.0026-.007-.0056-.0103-.0082-.0056-.0044-.0111-.0088-.0166-.0132-.0033-.0026-.0064-.0051-.0097-.0077-.0055-.0044-.0121-.0096-.0176-.0139-.0025-.002-.005-.004-.0075-.006-.0066-.0053-.0123-.0098-.0189-.0151-.0027-.0022-.0055-.0044-.0082-.0065-.0067-.0053-.0118-.0094-.0185-.0147-.0025-.002-.0047-.0037-.0071-.0057-.0066-.0053-.0128-.0102-.0194-.0154-.0024-.002-.005-.004-.0074-.006-.0066-.0053-.0125-.01-.0192-.0153-.0022-.0017-.0045-.0036-.0067-.0054-.0066-.0053-.0125-.0099-.0191-.0152-.0027-.0022-.0059-.0047-.0086-.0069-.0066-.0053-.0107-.0085-.0173-.0139-.003-.0024-.0062-.0049-.0092-.0073-.0066-.0053-.0104-.0083-.017-.0136-.0033-.0026-.0063-.0051-.0096-.0077-.0066-.0053-.0108-.0086-.0174-.0139-.0027-.0022-.0053-.0042-.008-.0064-.0066-.0053-.0113-.009-.0179-.0143-.0033-.0026-.0064-.0051-.0096-.0078-.0066-.0053-.0106-.0085-.0172-.0138-.0025-.002-.0055-.0044-.0079-.0064-.0066-.0053-.0127-.0102-.0193-.0155-.0022-.0018-.0045-.0036-.0067-.0054-.0066-.0053-.0139-.0111-.0205-.0164-.0016-.0013-.0035-.0028-.0051-.0041-.0066-.0053-.0145-.0117-.0211-.017-.0019-.0016-.0038-.0031-.0057-.0046-.0066-.0053-.0149-.012-.0215-.0173-.0014-.0011-.0026-.0021-.004-.0032-.0077-.0062-.0147-.0119-.0224-.0181-.0014-.0011-.0027-.0022-.0041-.0033-.0066-.0053-.0161-.013-.0227-.0183-.0011-.0009-.0022-.0017-.0033-.0026-.0077-.0062-.0144-.0117-.0221-.0179-.0016-.0013-.0036-.0029-.0052-.0042-.0066-.0053-.0144-.0117-.021-.017-.0016-.0013-.0034-.0028-.0051-.0041-.0066-.0053-.0149-.0121-.0215-.0174-.0016-.0013-.0031-.0025-.0047-.0038-.0077-.0062-.016-.0129-.0237-.0192-.0005-.0004-.0009-.0007-.0014-.0011-.0077-.0062-.0159-.0129-.0236-.0192-.0011-.0009-.0026-.0021-.0037-.003-.0088-.0071-.0151-.0123-.0239-.0194-.0005-.0004-.0011-.0009-.0016-.0013-.0088-.0071-.0156-.0127-.0244-.0199-.0005-.0005-.0016-.0013-.0021-.0017-.0088-.0071-.0163-.0133-.0251-.0204-.0003-.0002-.0005-.0004-.0007-.0006-.0077-.0063-.0167-.0135-.0243-.0198-.0008-.0006-.0018-.0014-.0026-.0021-6.17-5.0341-11.4823-11.2005-15.6017-18.3068h0l-32.766-56.5236,2.5955-1.5045ZM136.7539.5v3c-8.2854,0-16.3759,1.5775-24.0468,4.6887-3.7482,1.5202-7.3702,3.4067-10.7653,5.6072-3.4035,2.2059-6.6111,4.7482-9.5337,7.5561l-2.0785-2.1633c2.7767-2.6678,5.7701-5.083,8.9423-7.2236.0012-.0008.0022-.0015.0034-.0023.026-.0175.0516-.0349.0776-.0523.0023-.0016.0045-.0031.0069-.0046.0251-.0169.0504-.0339.0755-.0508.0035-.0023.0042-.0028.0077-.0052.0103-.0069.021-.014.0313-.021.0035-.0023.0041-.0027.0076-.0051.0121-.0081.0239-.016.036-.0241.0023-.0016.0063-.0042.0087-.0058.0101-.0068.0199-.0133.03-.0201.0023-.0016.0061-.0041.0085-.0057.0114-.0076.023-.0153.0344-.0229.0047-.0031.0077-.0051.0124-.0082.008-.0053.016-.0106.024-.0159l.0151-.0101c.0101-.0067.0206-.0137.0308-.0204.0059-.0039.0107-.0071.0166-.011.0063-.0042.0128-.0085.019-.0126.0059-.0039.0112-.0074.0171-.0113.0073-.0049.015-.0099.0223-.0148.0094-.0062.0185-.0123.028-.0185.0047-.0031.0091-.006.0139-.0092.0082-.0055.0139-.0092.0222-.0147.0022-.0014.0047-.0031.0068-.0045.0141-.0093.0307-.0203.0449-.0296.0026-.0017.0054-.0036.008-.0053.0082-.0054.0175-.0115.0258-.017.0002-.0001.0003-.0002.0005-.0004.0189-.0124.0363-.0239.0552-.0363.0004-.0003.0009-.0005.0013-.0009,7.751-5.092,16.5368-8.5623,25.8217-10.1022h0c.0678-.0113.1337-.0221.2016-.0331.001-.0002.0023-.0004.0033-.0005.1809-.0294.3598-.0578.5411-.0857.0005,0,.0009-.0002.0015-.0002.0666-.0103.1339-.0205.2005-.0306.0016-.0002.0036-.0005.0051-.0008.0312-.0047.0661-.0099.0973-.0146.0016-.0002.0023-.0004.0039-.0006.0326-.0049.0657-.0098.0983-.0146.001-.0002.0023-.0004.0034-.0005.034-.005.0666-.0098.1006-.0148h.0004c.0114-.0017.0221-.0033.0335-.0049.0005,0,.0013-.0002.0018-.0003.0341-.0049.0664-.0096.1005-.0146.0005,0,.0006,0,.0012-.0002.0341-.0049.0658-.0095.0999-.0143.0016-.0002.0027-.0004.0042-.0006.0312-.0045.0659-.0094.0972-.0138.0016-.0002.0036-.0005.0052-.0007.0312-.0044.0643-.0091.0956-.0134.0026-.0004.0053-.0007.0079-.0011.0312-.0044.0636-.0089.0949-.0132.0021-.0003.0041-.0006.0062-.0009.0312-.0043.0638-.0088.0951-.013.0021-.0003.0052-.0007.0073-.001.0313-.0043.0641-.0087.0954-.0129.0021-.0003.004-.0005.0061-.0008.0114-.0015.0201-.0027.0315-.0042.0016-.0002.0021-.0003.0037-.0005.0185-.0025.0376-.005.0561-.0075.0042-.0006.0085-.0012.0127-.0017.0085-.0011.0192-.0026.0278-.0037.0037-.0005.007-.0009.0107-.0014.0185-.0025.0366-.0049.0551-.0073.0021-.0003.0045-.0006.0067-.0009.0099-.0013.019-.0025.0289-.0038.0042-.0005.0083-.0011.0125-.0016l.0513-.0067c.0037-.0005.0063-.0009.01-.0013.01-.0013.0173-.0023.0273-.0035.0047-.0006.0095-.0012.0142-.0018.0299-.0039.0584-.0076.0883-.0114.0037-.0005.0087-.0011.0123-.0016.0299-.0038.0597-.0076.0896-.0114.0037-.0005.0082-.001.0119-.0015.0299-.0038.0589-.0074.0889-.0112.0047-.0006.0091-.0011.0138-.0017.01-.0013.018-.0023.028-.0035.0016-.0002.0023-.0003.0039-.0005.0186-.0023.0399-.0049.0584-.0072.0037-.0004.0066-.0008.0103-.0013.01-.0012.019-.0023.0289-.0036.0026-.0003.0055-.0007.0081-.001.0186-.0023.0375-.0046.056-.0069.0026-.0003.006-.0007.0086-.001.0085-.001.0208-.0025.0294-.0036.0031-.0004.0069-.0008.01-.0012.0172-.0021.0363-.0044.0534-.0064.0031-.0004.0062-.0007.0093-.0011.01-.0012.0187-.0023.0287-.0034.0037-.0005.0081-.001.0117-.0014.0171-.002.0342-.0041.0513-.0061l.011-.0013c.01-.0012.0176-.0021.0276-.0033.0042-.0005.0089-.0011.0131-.0016.0171-.002.035-.0041.0521-.0061.0026-.0003.0064-.0007.009-.001.0138-.0016.0282-.0033.042-.0049.0286-.0033.0588-.0068.0874-.0101.0128-.0015.0283-.0032.0411-.0047.001,0,.0028-.0003.0038-.0004.0186-.0021.0383-.0044.0569-.0065.0047-.0005.0092-.001.0139-.0016.01-.0011.0181-.002.0281-.0032.0016-.0002.0028-.0003.0044-.0005.0186-.0021.0373-.0042.0559-.0063.0047-.0005.0089-.001.0136-.0015.01-.0011.0174-.002.0274-.0031.0042-.0005.0074-.0008.0116-.0013.0172-.0019.0325-.0036.0497-.0055.0133-.0014.0277-.0031.0411-.0045.0042-.0005.0083-.0009.0125-.0014.0157-.0017.0322-.0035.0479-.0052.0134-.0015.0272-.003.0405-.0044.0052-.0006.0107-.0012.0159-.0017.0157-.0017.0322-.0034.0479-.0052.0037-.0004.0079-.0008.0116-.0012.01-.0011.0179-.0019.0279-.003.0042-.0005.0089-.0009.0131-.0014.0172-.0018.0352-.0037.0524-.0056.0031-.0003.0054-.0005.0085-.0009.01-.0011.0175-.0019.0275-.0029.0052-.0005.0096-.001.0149-.0016.0172-.0018.0321-.0034.0493-.0052.0123-.0013.0253-.0026.0376-.0039.0138-.0015.0274-.0029.0413-.0043.0074-.0008.0142-.0015.0216-.0022.0129-.0013.0247-.0025.0376-.0038.0155-.0015.0273-.0027.0427-.0043.0074-.0007.0133-.0013.0207-.0021.0143-.0014.0251-.0025.0395-.004.0129-.0013.0284-.0028.0413-.0042.0079-.0008.0163-.0016.0242-.0024.0115-.0011.0238-.0023.0352-.0035.0149-.0015.0292-.0029.0442-.0044.0058-.0006.0103-.001.016-.0016.0143-.0014.0289-.0028.0433-.0042.0143-.0014.028-.0027.0424-.0041.0058-.0005.0115-.0011.0173-.0017.0129-.0013.0274-.0026.0403-.0039.0155-.0015.0284-.0027.0439-.0042.0063-.0006.0128-.0012.0191-.0018.0129-.0012.0259-.0024.0388-.0037.014-.0013.0299-.0028.044-.0041.0068-.0006.013-.0012.0198-.0019.0115-.0011.0236-.0022.0351-.0033.0157-.0015.0311-.0028.0467-.0043.0141-.0013.0294-.0027.0434-.004.0121-.0011.024-.0022.0361-.0033.0149-.0014.0281-.0025.043-.0039.0086-.0008.015-.0013.0236-.0021.0121-.0011.0242-.0022.0363-.0033.014-.0013.0283-.0026.0423-.0038.0157-.0013.0336-.003.0493-.0043.0115-.001.0206-.0018.0321-.0028.0146-.0013.0302-.0026.0447-.0039.0079-.0007.0146-.0013.0225-.002.0129-.0011.0229-.002.0358-.0031.0155-.0014.0284-.0024.0438-.0038.0184-.0016.0396-.0034.058-.0049.0141-.0012.0296-.0025.0436-.0037.0176-.0014.0313-.0026.049-.0041.0177-.0015.035-.0029.0528-.0044.0142-.0011.0307-.0025.0449-.0037.0193-.0016.0374-.0031.0567-.0046.0142-.0011.0294-.0024.0436-.0035.0132-.001.0255-.002.0387-.0031.0142-.0011.0315-.0025.0457-.0036.0183-.0015.0386-.0031.057-.0045.0152-.0011.0291-.0022.0443-.0034.0057-.0005.0134-.001.0192-.0015.0132-.001.0257-.002.0389-.003.0147-.0011.03-.0023.0448-.0034.0072-.0005.0113-.0009.0185-.0014.0132-.001.0268-.002.04-.003.0143-.0011.0294-.0022.0438-.0033.0158-.0012.032-.0024.0478-.0035.0177-.0013.037-.0027.0546-.004.0158-.0011.0329-.0023.0487-.0035.0183-.0013.0358-.0026.0541-.0039.0158-.0011.0326-.0023.0484-.0034.018-.0012.0365-.0026.0546-.0038.0158-.0011.0311-.0021.047-.0033.0058-.0004.0085-.0006.0143-.001.0195-.0013.0374-.0025.057-.0039.0143-.0009.0313-.0022.0457-.0031.0181-.0013.0373-.0026.0553-.0037.0164-.0011.0304-.0021.0467-.0031.0187-.0012.0361-.0024.0546-.0035.0164-.0011.032-.0021.0484-.0031.0181-.0012.0354-.0022.0535-.0034.0149-.001.0338-.0021.0487-.0031.0172-.0011.0352-.0021.0523-.0033.0169-.001.0341-.002.0509-.0031.0166-.001.0321-.002.0486-.0029.0179-.0011.0352-.002.0532-.0032.0146-.0009.0299-.0016.0444-.0026.0187-.0011.0389-.0022.0576-.0034.0155-.0009.0298-.0018.0453-.0026.0196-.0011.0378-.002.0573-.0033.015-.0008.0308-.0018.0458-.0026.019-.0011.0379-.002.0569-.0031.015-.0008.0299-.0016.045-.0024.0186-.001.0369-.002.0555-.003.0111-.0006.0223-.0012.0335-.0018.0058-.0003.0084-.0004.0142-.0007.0187-.001.0367-.0018.0553-.0029.0106-.0005.0214-.0011.032-.0016.0044-.0002.0115-.0006.0158-.0008.0182-.0009.0347-.0018.0528-.0027.0161-.0008.034-.0016.0499-.0025.0174-.0009.036-.0018.0536-.0027.0169-.0008.0325-.0016.0495-.0024.0154-.0007.0325-.0016.048-.0023.0185-.0008.036-.0017.0547-.0026.015-.0007.0297-.0015.0447-.002.0197-.0009.0381-.0016.0577-.0026.0106-.0005.0205-.0009.0312-.0014.0058-.0003.0085-.0004.0143-.0006.0143-.0006.0277-.0012.0421-.0019.0058-.0002.0085-.0004.0143-.0006.0144-.0006.0322-.0014.0468-.002.0182-.0008.0368-.0016.0549-.0023.0155-.0007.0317-.0013.0474-.002.0187-.0008.0369-.0016.0556-.0023.0165-.0006.0313-.0012.0477-.0019.0181-.0008.0355-.0014.0539-.0021.0155-.0006.0333-.0012.0489-.0019.0173-.0006.0333-.0011.0506-.0019.018-.0007.0346-.0013.0527-.002l.0384-.0014c.0014,0,.0061-.0002.0076-.0003.0182-.0006.0373-.0013.0555-.002.0157-.0005.0303-.001.046-.0016.0187-.0006.0382-.0013.057-.0019.0151-.0005.0305-.0009.0457-.0015.0149-.0005.0289-.0009.0438-.0014.0058-.0002.0077-.0002.0135-.0004.0146-.0005.0316-.001.0462-.0015.0187-.0006.0389-.0013.0576-.0018.015-.0005.0309-.0009.0458-.0014.0173-.0005.0364-.0009.0537-.0016.0123-.0003.0241-.0007.0364-.001.0029,0,.0098-.0003.0127-.0004.0174-.0005.0364-.001.0534-.0015.0167-.0005.0331-.0009.0497-.0013.0144-.0004.0299-.0008.0443-.0012.0162-.0005.0295-.0008.0458-.0012.0178-.0003.0361-.0009.0538-.0013.0164-.0004.032-.0008.0482-.0012.0058-.0001.0087-.0002.0145-.0003.0152-.0004.03-.0007.0451-.001.0188-.0004.0391-.0009.0577-.0013.0117-.0002.0238-.0005.0355-.0008.0044,0,.006-.0001.0103-.0002.0188-.0004.0377-.0007.0564-.0012.0146-.0003.032-.0007.0467-.0009.0188-.0003.0372-.0007.056-.0011.0156-.0002.0323-.0005.0479-.0009.0173-.0003.0367-.0008.054-.0009.0157-.0003.0325-.0007.0481-.0008.0184-.0003.0342-.0007.0526-.0009.0177-.0003.0332-.0005.0509-.0008.0155-.0002.0302-.0005.0457-.0007h.0032c.0182-.0003.0358-.0005.054-.0008.0164-.0002.0335-.0003.0497-.0007.0182-.0002.0359-.0004.0543-.0007.0144-.0002.0292-.0003.0436-.0005h.0013c.0199-.0002.0374-.0004.0571-.0006.0139-.0002.0288-.0003.0427-.0004h.0034c.0199-.0002.0374-.0005.0573-.0006.0148-.0001.0315-.0004.0462-.0004.0184-.0002.0377-.0002.056-.0005.0157,0,.0317-.0004.0476-.0003.0193-.0001.0368-.0002.0562-.0004.0152,0,.0317-.0002.047-.0003.0179,0,.0368-.0002.0546-.0002.0158,0,.0337-.0001.0493-.0002.015,0,.0305-.0001.0455-.0002.0015,0,.0058,0,.0072,0,.0178,0,.0327-.0002.0506-.0001.0169,0,.0317-.0002.0491,0,.0179,0,.036,0,.054,0,.0155,0,.0309,0,.0464,0h0Z" style="fill:#27b9f5;"/></g></svg>