<?xml version="1.0" encoding="utf-8"?>
<!-- Generator: Adobe Illustrator 28.2.0, SVG Export Plug-In . SVG Version: 6.00 Build 0)  -->
<svg version="1.1" id="Vrstva_1" xmlns="http://www.w3.org/2000/svg" xmlns:xlink="http://www.w3.org/1999/xlink" x="0px" y="0px"
	 viewBox="0 0 6252 2232" style="enable-background:new 0 0 6252 2232;" xml:space="preserve">
<style type="text/css">
	.st0{fill:#FFFFFF;}
</style>
<g transform="translate(0.000000,2232.000000) scale(0.100000,-0.100000)">
	<path class="st0" d="M27,22293c-4-3-7-5014-7-11135V30l11128,2l11127,3v11130v11130l-11121,3C5038,22299,30,22297,27,22293z
		 M21770,21764c7-16,9-3751,8-10622l-3-10597H11150H525l-3,10603c-1,7298,1,10609,8,10623c11,19,139,19,10621,19h10609L21770,21764z
		"/>
	<path class="st0" d="M7545,17938c-3-7-6-445-8-973l-2-960l-977-3c-1084-2-1008-7-1008,64c0,19-4,42-9,52c-5,9-17,44-27,77
		c-29,94-85,209-122,253c-13,15-30,39-37,53c-28,53-164,153-290,213c-82,40-144,62-230,84c-22,6-58,15-80,21c-85,22-301,53-385,55
		c-60,1-64,0-71-24c-4-14-8-65-9-115c-1-49-7-132-14-183c-6-51-9-96-6-101c6-10,86-23,265-46c62-7,222-47,279-69
		c228-87,302-226,327-611c14-208,25-308,44-395c9-41,20-93,24-115s18-69,29-105c12-36,27-81,33-100s18-51,26-70s18-44,23-55
		c4-11,35-76,68-145c159-324,414-620,715-830c42-30,77-59,77-66c0-6-17-23-37-37c-104-69-202-195-263-336c-45-104-53-152-53-301
		c0-162,16-229,81-355c11-22,28-54,37-72c28-54,132-160,215-218c43-30,81-55,85-55s23-7,43-16c21-9,46-20,57-25c57-25,122-33,265-33
		s206,8,265,33c76,32,147,70,190,99c59,41,171,155,180,182c4,11,10,20,15,20c4,0,27,39,49,88c23,48,46,95,52,104c5,10,9,30,9,45
		c0,16,7,50,15,77c19,63,19,186,0,259c-8,32-15,67-15,78c0,19-2,25-32,86c-9,17-14,34-10,37c3,3,190,6,415,6c385,0,409-1,404-17
		c-3-10-13-38-23-63c-27-71-38-147-37-260c0-121,12-194,43-271c35-85,43-102,67-135c13-17,23-34,23-37c0-9,24-38,80-100
		c40-44,188-157,205-157c4,0,23-7,43-16c21-9,46-20,57-25c57-25,122-33,265-33c169,0,222,9,312,55c10,5,23,9,29,9
		c19,0,152,92,207,145c52,48,162,201,162,224c0,6,4,19,10,29c48,89,72,243,58,392c-11,127-17,150-81,290c-36,78-159,221-232,269
		c-74,48-104,74-98,84c3,5,25,21,49,37c93,58,290,242,394,365c70,84,190,248,190,261c0,4,6,15,14,23c21,23,101,174,138,261
		c50,115,105,274,128,370c16,66,39,185,51,260c7,41,16,79,21,85c4,5,8,97,8,205c0,166-3,204-20,258c-11,35-20,78-20,95
		c0,27-11,73-41,173c-5,17-9,38-9,47c0,15-19,66-41,109c-5,10-9,25-9,33s-4,23-9,33c-5,9-33,67-62,127c-107,226-234,401-436,602
		c-184,183-376,321-608,435c-44,22-101,51-127,64c-27,13-55,24-63,24s-23,4-33,9c-9,5-37,17-62,26c-25,10-54,21-65,25
		c-11,5-31,11-45,13c-14,3-50,13-80,22c-81,25-128,35-198,45c-35,5-68,13-75,17c-22,14-174,24-425,29
		C7598,17951,7549,17949,7545,17938z M8180,17471c36-6,83-16,105-22s58-15,80-21c116-31,237-75,340-124c39-19,73-34,77-34
		c21,0,252-147,302-192c11-10,23-18,28-18c10,0,117-99,209-195c148-154,269-341,344-535c10-25,21-54,25-65c5-11,11-31,15-45
		c3-14,15-58,26-99c10-40,19-82,19-92c0-18-26-19-875-19h-875v733c0,404,3,737,7,741C8016,17493,8088,17488,8180,17471z M9748,15510
		c3-32-17-147-38-210c-4-14-13-45-20-70s-19-63-27-85c-9-22-19-49-23-60c-18-50-118-244-147-287c-18-26-33-50-33-54
		c0-17-140-184-230-274c-106-106-270-232-369-284c-94-49-154-77-226-106c-11-5-45-16-75-26c-30-9-64-20-75-24s-56-16-100-25
		s-99-21-122-26s-284-9-579-9c-535,0-594,3-706,36c-26,8-58,14-72,14s-27,4-30,9s-18,11-33,14c-25,4-51,12-118,37
		c-18,7-120,53-155,70c-53,25-161,89-170,101c-3,3-25,19-50,34s-47,31-50,34s-27,24-55,46c-239,191-467,526-561,825
		c-9,30-20,64-24,75c-14,38-40,153-40,176c0,12-5,38-12,56c-10,29-10,36,2,43c9,6,816,9,2075,7l2060-2L9748,15510z M6720,13493
		c112-41,188-129,220-256c30-116-33-273-140-343c-157-104-331-77-459,73c-22,27-41,55-41,64c0,8-6,21-12,27c-9,9-13,46-13,111
		c0,89,3,103,30,155c37,71,84,117,160,155c50,25,72,30,135,31C6645,13510,6692,13504,6720,13493z M9004,13484
		c297-140,263-544-55-643c-136-42-313,43-385,185c-24,48-28,67-29,143c0,49,5,99,11,112s18,38,25,54c22,47,99,118,159,147
		C8809,13520,8926,13521,9004,13484z"/>
	<path class="st0" d="M11178,11488C8374,8682,6080,6382,6080,6376c0-14,332-346,346-346c8,0,9888,9872,10214,10206
		c6,6-342,354-355,354C16280,16590,13981,14294,11178,11488z"/>
	<path class="st0" d="M15275,8383c-143-11-352-86-491-175c-141-91-255-206-363-365c-35-51-66-93-70-93c-9,0-41,251-42,325
		c0,33-6,89-13,125l-12,65h-300h-299l-3-1455c-1-800,0-1465,3-1477l5-23h335h334l4,783c4,697,6,790,21,857c10,41,20,90,23,108
		s9,35,14,38s9,14,9,24c0,33,126,300,142,300c4,0,8,6,8,13s24,40,52,73c119,134,195,190,333,244c74,29,89,31,205,31
		c129,1,147-3,248-54c100-49,180-183,214-357c8-36,13-400,17-1055l6-1000l333-3c182-1,333-1,334,0c2,2,5,354,9,783
		c6,748,9,832,37,920c5,17,15,50,22,75c11,40,19,60,50,135c29,72,85,173,112,205c9,10,25,31,35,47c52,82,258,253,305,253
		c8,0,18,4,23,9c48,43,318,61,400,26c131-54,170-88,219-190c20-41,36-84,36-94c0-11,4-22,9-25c4-3,11-27,14-53c4-27,11-68,16-93
		c6-28,10-410,11-1022v-978h335h335l-3,1153c-3,783-7,1168-15,1202c-6,28-15,71-21,97s-14,55-19,65c-6,10-14,29-20,43
		c-5,14-15,38-21,54c-20,49-103,166-156,221c-80,81-265,195-319,195c-8,0-17,4-20,9s-23,11-43,14c-21,3-74,11-118,17
		c-88,13-350,7-400-9c-16-6-57-18-90-27c-33-10-67-21-75-25s-42-19-75-34c-148-66-368-248-466-385c-18-25-35-47-39-50s-15-20-24-38
		c-10-18-22-32-29-29c-6,2-25,44-42,93c-64,186-185,322-367,413c-57,28-114,51-125,51c-12,0-24,4-27,9
		C15759,8377,15452,8398,15275,8383z"/>
	<path class="st0" d="M48645,15358c-3-7-4-1604-3-3548l3-3535l456-3l457-2l6,22c3,13,6,134,6,271c0,136,2,247,4,247s41-39,87-86
		c220-226,518-399,824-479c407-106,919-76,1268,75c12,5,46,19,75,30s83,36,120,56c66,36,262,161,272,173c3,3,28,24,55,45
		c78,61,223,212,302,316c151,199,284,475,333,690c53,235,70,389,70,622c0,187-15,351-46,498c-33,154-44,195-73,275
		c-13,33-27,74-34,90c-19,54-116,239-154,297c-98,146-135,192-252,309c-239,238-498,385-826,467c-173,43-286,56-495,55
		c-194-1-298-11-465-43c-115-23-176-38-293-74c-51-16-202-77-232-94c-8-5-55-30-103-56c-121-65-240-152-347-253l-90-85l-2,1864
		l-3,1863l-458,3C48746,15370,48648,15368,48645,15358z M50961,11510c78-10,218-42,264-60c11-4,41-17,67-29s52-21,56-21
		c16,0,178-106,248-162c200-160,353-397,412-640c34-138,42-209,42-353c0-76-5-167-11-204c-49-297-150-506-343-711
		c-57-61-197-180-211-180c-4,0-20-9-37-21c-38-27-150-82-214-104c-124-44-266-65-443-65c-171,0-228,8-426,59c-41,11-150,58-205,88
		c-149,83-323,241-421,383c-58,84-149,256-149,282c0,9-4,20-10,23c-6,4-10,162-10,443c0,491-4,458,81,628c124,249,352,448,644,564
		C50472,11501,50757,11535,50961,11510z"/>
	<path class="st0" d="M36760,13963c-51-4-140-25-146-35c-3-4-12-8-19-8c-29,0-152-88-204-146c-78-86-112-166-118-278
		c-9-156,26-255,130-359c113-115,239-167,399-167c125,0,220,29,322,100c80,55,133,118,173,206c24,54,27,70,27,184
		c1,124,1,125-36,200C37192,13856,36976,13980,36760,13963z"/>
	<path class="st0" d="M46694,13959c-207-26-404-197-450-389c-59-246,87-487,350-575c99-33,242-35,336-4c138,45,262,144,314,252
		c29,59,56,170,56,227c-1,99-53,224-127,309c-46,53-170,141-198,141c-7,0-16,4-19,8C46942,13951,46781,13970,46694,13959z"/>
	<path class="st0" d="M30970,12244c-211-16-418-62-550-121c-182-82-254-125-390-234c-143-113-276-265-378-431c-32-52-52-50-52,6
		c0,24-6,108-14,187s-20,203-26,274c-7,72-13,137-14,145c-1,13-56,15-414,18l-412,2v-1910V8270l458,2l457,3l6,1000
		c4,696,9,1017,17,1055c7,30,16,75,21,100c47,238,185,515,346,695c53,60,195,185,209,185c3,0,31,15,64,34c73,43,220,90,332,106
		c161,23,351-25,477-122c67-51,149-180,174-273c4-16,16-57,25-90c16-55,18-162,23-1375l6-1315h455h455l6,960c6,887,10,1032,34,1125
		c3,14,11,45,17,70c18,79,68,232,94,287c13,30,24,55,24,57c0,4,17,34,92,165c52,92,227,282,313,341c127,88,256,141,383,160
		c37,6,85,13,108,16c40,6,149-7,229-28c127-33,245-121,291-219c61-125,73-162,104-327c6-34,10-510,10-1317c0-695,3-1270,6-1279
		c5-14,55-16,455-16h449v1473c0,1580,1,1535-51,1709c-20,68-47,138-71,182c-157,293-391,482-698,563c-175,46-463,62-630,34
		c-78-13-250-56-285-72c-11-5-57-24-103-43c-96-40-230-118-317-185c-58-44-194-170-260-241c-37-39-165-208-172-227
		c-9-24-22-13-34,30c-51,185-123,310-250,433c-168,162-399,267-664,303C31234,12241,31037,12249,30970,12244z"/>
	<path class="st0" d="M40935,12244c-138-12-250-29-315-46c-41-11-88-23-105-28c-39-10-61-18-112-41c-24-10-45-19-48-19
		c-12,0-128-59-195-100c-199-122-385-307-526-525c-39-59-55-78-62-70c-3,2-8,50-13,107c-4,57-13,157-19,223s-15,166-19,221
		c-5,56-12,107-15,113c-5,8-127,11-417,11h-409v-1910V8270h460h460v938c0,568,4,971,10,1022c36,298,133,565,285,780
		c77,109,301,320,340,320c3,0,23,11,44,25c45,28,211,85,249,85c13,0,52,5,86,11c49,9,79,8,151-4c162-28,229-54,308-120
		c41-34,127-144,127-162c0-3,9-24,19-48c18-40,40-105,57-172c4-16,10-624,13-1350l6-1320l458-3l457-2v897c0,913,5,1041,41,1202
		c26,114,31,137,39,156c4,11,17,51,30,90c24,75,86,207,139,294c101,169,273,346,412,423c88,49,252,108,300,108c15,0,52,5,80,11
		c40,9,74,9,138,0c157-22,268-70,342-148c80-85,147-251,178-444c8-45,11-473,11-1328V8270h450h450l5,23c3,12,4,681,3,1487
		c-4,1554-2,1483-51,1655c-54,189-139,335-275,473c-78,79-105,102-175,146c-129,82-256,131-433,167c-137,27-399,30-541,6
		c-320-55-605-202-847-436c-78-76-198-218-251-298c-15-24-31-41-34-38c-4,2-13,23-21,47c-47,157-86,237-162,336
		c-98,126-260,239-461,321c-51,20-180,52-267,66C41221,12239,41003,12250,40935,12244z"/>
	<path class="st0" d="M55725,12240c-186-14-379-48-506-91c-30-11-61-19-67-19c-7,0-72-26-144-57c-485-207-857-571-1068-1046
		c-45-103-100-284-124-412c-15-77-35-310-36-401c0-148,22-362,51-491c33-150,44-185,101-331c108-278,307-546,558-754
		c140-116,400-262,560-314c25-8,54-19,65-23c160-65,526-121,785-121c282,1,640,61,825,139c11,5,45,19,75,31c207,83,487,273,650,441
		c228,235,398,532,483,844c23,86,30,116,59,280c7,42,12,163,12,305s-5,263-12,305c-7,39-18,97-24,130c-50,280-182,574-366,818
		c-60,81-248,268-338,340c-225,176-484,301-774,371C56289,12233,55955,12257,55725,12240z M56135,11470c168-39,324-107,430-186
		c80-59,186-163,238-233c23-31,45-58,48-61c23-18,126-223,154-305c54-160,70-267,70-475c0-178-7-247-40-375c-55-214-164-403-325-566
		c-156-157-312-246-520-298c-222-55-542-35-715,44c-17,8-44,19-60,25c-129,48-340,219-445,360c-57,76-131,200-149,250
		c-7,19-17,44-21,55c-113,284-117,687-9,975c120,317,341,569,619,704c85,42,219,83,312,96C55803,11491,56070,11485,56135,11470z"/>
	<path class="st0" d="M36315,12078c-3-7-4-866-3-1908l3-1895l458-3l457-2v1910v1910h-455C36420,12090,36318,12087,36315,12078z"/>
	<path class="st0" d="M46277,12083c-9-8-9-3759-1-3790l6-23h454h454l5,23c3,12,4,870,3,1907l-3,1885l-456,3
		C46489,12089,46280,12087,46277,12083z"/>
	<path class="st0" d="M58500,12077c0-7,13-28,28-47c26-31,88-114,149-196c24-32,125-164,243-319c42-55,139-183,216-285
		s187-246,243-320s111-146,121-160s60-79,110-145c51-66,138-181,194-255c55-74,105-138,111-142c11-8-4-38-53-104
		c-21-27-79-107-131-179c-52-71-119-164-149-205s-72-97-92-125c-20-27-61-84-91-125c-31-41-77-104-102-140c-26-36-73-101-105-145
		c-406-559-554-761-599-821c-29-39-53-76-53-82c0-9,111-12,450-12h450l40,53c37,48,88,120,354,502c50,72,94,135,99,140
		c10,12,211,297,339,482c50,73,97,134,103,137c7,2,35-26,63-62c27-37,83-110,123-162s136-178,213-280c76-102,174-230,216-285
		s141-185,219-290c79-104,153-200,164-212l20-23h544c403,0,543,3,543,12c0,10-93,136-379,513c-156,205-143,188-262,345
		c-56,74-164,216-239,315s-228,302-340,450c-111,149-211,279-221,291c-11,11-19,28-19,38s30,60,68,113c37,52,103,146,147,208
		s190,267,325,455s281,393,325,455s115,162,157,221c43,60,108,152,146,204c37,52,82,115,99,139c18,24,30,47,27,52s-207,9-454,9h-450
		l-13-22c-27-45-392-617-530-831c-77-120-147-231-156-246c-52-91-108-170-122-171c-8,0-37,30-64,68c-27,37-52,69-55,72
		s-46,59-96,125c-183,243-349,463-424,560c-42,55-125,165-185,245s-120,157-134,173l-25,27h-553
		C58612,12090,58500,12087,58500,12077z"/>
</g>
</svg>
