<?xml version="1.0" encoding="utf-8"?>
<!-- Generator: Adobe Illustrator 28.1.0, SVG Export Plug-In . SVG Version: 6.00 Build 0)  -->
<svg version="1.0" id="Vrstva_1" xmlns="http://www.w3.org/2000/svg" xmlns:xlink="http://www.w3.org/1999/xlink" x="0px" y="0px"
	 viewBox="0 0 363 85" style="enable-background:new 0 0 363 85;" xml:space="preserve">
<style type="text/css">
	.st0{fill-rule:evenodd;clip-rule:evenodd;fill:#FFFFFF;}
	.st1{fill:#FFFFFF;}
</style>
<path class="st0" d="M92.79,9.97c9.37,9.37,9.37,24.57,0,33.94L57.44,79.27c-5.86,5.86-15.36,5.86-21.21,0L12.89,55.93L58.85,9.97
	C68.22,0.6,83.42,0.6,92.79,9.97z"/>
<path class="st0" d="M24.83,0l4.95,4.95c8.59,8.59,8.59,22.52,0,31.11L11.39,54.45L6.44,49.5c-8.59-8.59-8.59-22.52,0-31.11L24.83,0
	z"/>
<path class="st1" d="M144.22,48.48l14.46-39h-8.03l-10.18,28.99L130.3,9.48H122l14.41,39H144.22z M165.77,17.02
	c2.53,0,4.51-2.04,4.51-4.46c0-2.53-1.98-4.56-4.51-4.56c-2.48,0-4.51,2.03-4.51,4.56C161.26,14.98,163.29,17.02,165.77,17.02z
	 M169.46,48.48V21.42h-7.32v27.06H169.46z M186.6,48.87c2.15,0,3.47-0.39,4.12-0.66v-6.05c-0.38,0.11-1.38,0.22-2.25,0.22
	c-2.09,0-3.19-0.77-3.19-3.13V27.91h5.44v-6.49h-5.44v-8.09h-6.6v3.79c0,2.42-1.32,4.29-4.18,4.29h-1.38v6.49h4.89v12.6
	C178.02,45.73,181.32,48.87,186.6,48.87z M203.76,49.25c4.01,0,6.6-1.87,7.97-4.01c0,1.04,0.11,2.53,0.28,3.24h6.71
	c-0.16-0.94-0.33-2.86-0.33-4.29V30.88c0-5.44-3.19-10.28-11.77-10.28c-7.26,0-11.17,4.68-11.61,8.91l6.49,1.38
	c0.22-2.36,1.98-4.4,5.17-4.4c3.08,0,4.57,1.6,4.57,3.52c0,0.93-0.49,1.7-2.04,1.92l-6.65,0.99c-4.51,0.66-8.08,3.35-8.08,8.19
	C194.46,45.35,197.98,49.25,203.76,49.25z M205.29,43.81c-2.37,0-3.52-1.54-3.52-3.14c0-2.09,1.49-3.13,3.36-3.41l6.1-0.93v1.21
	C211.24,42.32,208.38,43.81,205.29,43.81z M232.07,48.48V8.66h-7.32v39.82H232.07z"/>
<path class="st1" d="M246.32,58.93V45.84c1.32,1.81,4.07,3.3,7.81,3.3c7.64,0,12.76-6.05,12.76-14.24c0-8.03-4.57-14.08-12.49-14.08
	c-4.07,0-7.1,1.81-8.3,3.9v-3.3H239v37.51H246.32z M252.97,42.6c-3.74,0-6.76-2.86-6.76-7.65s3.02-7.59,6.76-7.59
	c3.74,0,6.71,2.81,6.71,7.59C259.68,39.79,256.71,42.6,252.97,42.6z M283.82,49.31c8.08,0,14.19-6.05,14.19-14.35
	c0-8.36-6.11-14.36-14.19-14.36s-14.19,6-14.19,14.36C269.62,43.26,275.73,49.31,283.82,49.31z M283.82,42.65
	c-3.58,0-6.88-2.64-6.88-7.7c0-5.12,3.3-7.7,6.88-7.7s6.88,2.58,6.88,7.7S287.39,42.65,283.82,42.65z M306.41,17.02
	c2.53,0,4.51-2.04,4.51-4.46c0-2.53-1.98-4.56-4.51-4.56c-2.48,0-4.51,2.03-4.51,4.56C301.9,14.98,303.93,17.02,306.41,17.02z
	 M310.1,48.48V21.42h-7.32v27.06H310.1z M324.22,48.48V32.92c0-3.14,1.87-5.61,5.06-5.61c3.52,0,5.01,2.36,5.01,5.39v15.78h7.32
	V31.43c0-5.94-3.08-10.73-9.79-10.73c-2.92,0-6.16,1.26-7.81,4.07v-3.35h-7.1v27.06H324.22z M358.36,48.87
	c2.15,0,3.46-0.39,4.12-0.66v-6.05c-0.38,0.11-1.38,0.22-2.26,0.22c-2.09,0-3.19-0.77-3.19-3.13V27.91h5.44v-6.49h-5.44v-8.09h-6.6
	v3.79c0,2.42-1.32,4.29-4.18,4.29h-1.38v6.49h4.89v12.6C349.79,45.73,353.08,48.87,358.36,48.87z"/>
<path class="st1" d="M134.36,70.48c1.17-1.43,2.44-2.29,3.46-2.29c0.99,0,1.38,0.99,1.38,1.98c0,3.61-3.56,6.66-7.15,6.66
	c-0.57,0-1.09-0.1-1.43-0.29c0.13-0.29,0.75-1.56,1.53-2.78C132.67,72.92,133.24,71.83,134.36,70.48z M126.97,84.44
	c0.26,0,0.39-0.18,0.49-0.42l2.73-6.53c1.2,2.91,2.83,6.79,5.25,6.79c1.59,0,2.81-0.81,4.29-2.26c0.49-0.49,0.99-1.04,1.56-1.66
	c0.05-0.08,0.13-0.23,0.13-0.34c0-0.23-0.13-0.52-0.47-0.52c-0.13,0-0.29,0.05-0.39,0.16c-0.99,1.12-1.72,2.05-2.81,2.81
	c-0.7,0.49-1.46,0.83-2.31,0.83c-1.64,0-3.12-3.28-4.03-5.46c0.18,0.03,0.39,0.03,0.62,0.03c3.82,0,8.16-3.3,8.16-7.64
	c0-1.38-0.68-3.04-2.37-3.04c-1.92,0-3.48,1.59-4.73,3.25c0.26-0.62,0.47-1.25,0.47-1.59c0-1.12-1.01-1.59-2-1.59
	c-0.55,0-1.51,0.18-2.31,0.57c-0.83,0.39-1.51,0.99-1.51,1.79c0,0.26,0.16,0.44,0.49,0.44c0.23,0,0.49-0.18,0.49-0.42
	c0-0.39,0.47-0.73,1.01-0.96c0.65-0.26,1.4-0.42,1.82-0.42s0.99,0.1,0.99,0.6c0,0.18-0.21,0.81-0.55,1.64
	c-0.42,1.04-1.01,2.47-1.61,3.87c-0.23,0.6-0.52,1.2-0.73,1.79l-3.17,7.57c-0.05,0.1-0.05,0.21-0.05,0.26
	C126.45,84.26,126.71,84.44,126.97,84.44z M142.03,84.34c1.2,0,2.31-0.83,3.17-1.77c0.23,0.08,0.47,0.1,0.75,0.1
	c0.83,0,1.64-0.42,2.37-1.04c0.44-0.36,0.86-0.81,1.27-1.27c0.08-0.08,0.13-0.21,0.13-0.34c0-0.23-0.13-0.52-0.47-0.52
	c-0.13,0-0.29,0.05-0.39,0.16c-0.39,0.44-0.73,0.81-1.07,1.09c-0.7,0.62-1.3,0.91-1.9,0.91c0.73-1.12,1.35-2.39,1.35-3.85
	c0-0.75-0.23-2.03-1.33-2.03c-1.61,0-2.47,2.63-2.47,3.95c0,0.99,0.31,1.82,0.83,2.31c-0.57,0.55-1.46,1.27-2.26,1.27
	c-0.65,0-0.96-0.65-0.96-1.35c0-1.51,1.09-3.8,2.96-5.04c0.16-0.13,0.23-0.29,0.23-0.44c0-0.23-0.23-0.49-0.52-0.49
	c-0.08,0-0.21,0.08-0.34,0.13c-2.21,1.46-3.35,4.08-3.35,5.85C140.06,83.12,140.65,84.34,142.03,84.34z M145.93,76.8
	c0.29,0,0.31,0.73,0.31,1.04c0,1.12-0.62,2.42-1.3,3.41c-0.39-0.39-0.47-1.12-0.47-1.51C144.48,78.75,145.07,76.8,145.93,76.8z
	 M154.88,77.76c-0.49,1.04-1.09,2.16-1.82,3.2c-0.65,0.96-1.92,2.37-3.17,2.37c-0.55,0-0.86-0.49-0.86-1.09s0.34-1.56,1.04-2.5
	c1.79-2.39,3.69-2.81,4.58-2.81c0.1,0,0.42,0.03,0.57,0.05L154.88,77.76z M149.89,84.34c1.3,0,2.57-1.07,3.46-2.08
	c-0.03,0.16-0.03,0.36-0.03,0.52c0,0.62,0.31,1.53,1.14,1.53c0.52,0,1.17-0.42,2-1.2c0.73-0.68,1.61-1.61,2.65-2.76
	c0.08-0.08,0.16-0.26,0.16-0.39c0-0.29-0.16-0.49-0.49-0.49c-0.16,0-0.31,0.1-0.39,0.18c-0.73,0.78-1.61,1.77-2.39,2.52
	c-0.68,0.65-1.25,1.12-1.56,1.12c-0.1,0-0.13-0.34-0.13-0.55c0-0.68,0.42-2.29,1.59-4.78c1.17-2.42,1.79-3.98,2.26-5.1l0.34-0.83
	c0.31-0.75,0.62-1.38,0.83-2c0.03-0.08,0.08-0.21,0.08-0.29c0-0.23-0.21-0.49-0.49-0.49c-0.16,0-0.31,0.05-0.47,0.31
	c-0.23,0.42-0.49,1.2-0.81,1.95c-0.55,1.3-1.27,2.99-2,4.6c-0.23-0.21-0.68-0.21-0.99-0.21c-1.12,0-3.33,0.39-5.41,3.2
	c-0.81,1.09-1.22,2.18-1.22,3.15C148.02,83.35,148.67,84.34,149.89,84.34z M159.6,84.39c0.39,0,0.94-0.21,1.38-0.62
	c1.9-1.74,3.15-3.17,3.33-3.38c0.08-0.1,0.18-0.29,0.18-0.39c0-0.21-0.16-0.49-0.49-0.49c-0.16,0-0.29,0.05-0.39,0.16
	c-0.31,0.34-1.74,1.95-3.3,3.38c-0.23,0.21-0.55,0.34-0.68,0.34c-0.1,0-0.1-0.13-0.1-0.34c0-0.68,0.57-2.05,1.04-3.15
	c0.7-1.53,1.43-2.81,1.59-3.07c0.1-0.18,0.1-0.36,0.1-0.44c0-0.23-0.16-0.44-0.49-0.44c-0.16,0-0.29,0.1-0.39,0.21l-2.94,3.43
	c-0.18,0.21-0.18,0.26-0.18,0.42c0,0.23,0.21,0.52,0.49,0.52c0.13,0,0.23-0.05,0.34-0.16c0.1-0.1,0.18-0.16,0.34-0.34
	c-0.47,1.07-0.91,2.26-0.91,3.09C158.51,83.71,158.79,84.39,159.6,84.39z M164.17,73.42c0-0.36-0.21-0.75-0.7-0.75
	c-0.47,0-0.86,0.42-0.86,0.94c0,0.42,0.18,0.78,0.68,0.78C163.63,74.38,164.17,74.2,164.17,73.42z M165.87,84.23
	c0.13,0,0.36-0.03,0.49-0.26l0.39-0.7c0.52-0.94,1.48-2.57,2.44-3.8c1.07-1.33,2.39-2.55,3.54-2.55c0.16,0,0.26,0.03,0.26,0.23
	c0,0.57-0.6,1.9-1.04,2.86c-0.57,1.25-1.12,2.5-1.12,3.17c0,0.52,0.34,1.12,1.12,1.12c0.55,0,1.2-0.36,1.9-0.94
	c1.01-0.81,2.08-2,2.99-3.02c0.05-0.08,0.13-0.23,0.13-0.34c0-0.29-0.16-0.52-0.49-0.52c-0.13,0-0.29,0.08-0.36,0.16
	c-0.86,0.96-1.79,1.98-2.6,2.7c-0.62,0.57-1.17,0.94-1.53,0.94c-0.08,0-0.13-0.05-0.13-0.16c0-0.57,0.55-1.79,1.01-2.7
	c0.36-0.73,1.14-2.39,1.14-3.41c0-0.7-0.55-1.12-1.27-1.12c-1.38,0-2.73,1.04-3.98,2.5c0.16-0.49,0.23-0.96,0.23-1.25
	c0-0.6-0.39-1.3-1.14-1.3c-0.34,0-0.75,0.16-1.14,0.44c-0.34,0.26-0.99,0.94-1.64,1.66c-0.55,0.6-1.09,1.22-1.48,1.69
	c-0.08,0.08-0.16,0.26-0.16,0.36c0,0.26,0.23,0.49,0.52,0.49c0.13,0,0.29-0.05,0.39-0.18l1.48-1.69c0.65-0.73,1.22-1.33,1.48-1.51
	c0.26-0.18,0.44-0.26,0.55-0.26c0.08,0,0.1,0.13,0.1,0.26c0,0.42-0.21,1.07-0.49,1.87c-0.52,1.35-1.3,3.07-1.95,4.24
	c-0.13,0.26-0.16,0.34-0.16,0.47C165.35,84.03,165.5,84.23,165.87,84.23z M178.38,84.23c0.13,0,0.36-0.03,0.49-0.26l0.39-0.7
	c0.52-0.94,1.48-2.57,2.44-3.8c1.07-1.33,2.39-2.55,3.54-2.55c0.16,0,0.26,0.03,0.26,0.23c0,0.57-0.6,1.9-1.04,2.86
	c-0.57,1.25-1.12,2.5-1.12,3.17c0,0.52,0.34,1.12,1.12,1.12c0.55,0,1.2-0.36,1.9-0.94c1.01-0.81,2.08-2,2.99-3.02
	c0.05-0.08,0.13-0.23,0.13-0.34c0-0.29-0.16-0.52-0.49-0.52c-0.13,0-0.29,0.08-0.36,0.16c-0.86,0.96-1.79,1.98-2.6,2.7
	c-0.62,0.57-1.17,0.94-1.53,0.94c-0.08,0-0.13-0.05-0.13-0.16c0-0.57,0.55-1.79,1.01-2.7c0.36-0.73,1.14-2.39,1.14-3.41
	c0-0.7-0.55-1.12-1.27-1.12c-1.38,0-2.73,1.04-3.98,2.5c0.16-0.49,0.23-0.96,0.23-1.25c0-0.6-0.39-1.3-1.14-1.3
	c-0.34,0-0.75,0.16-1.14,0.44c-0.34,0.26-0.99,0.94-1.64,1.66c-0.55,0.6-1.09,1.22-1.48,1.69c-0.08,0.08-0.16,0.26-0.16,0.36
	c0,0.26,0.23,0.49,0.52,0.49c0.13,0,0.29-0.05,0.39-0.18l1.48-1.69c0.65-0.73,1.22-1.33,1.48-1.51c0.26-0.18,0.44-0.26,0.55-0.26
	c0.08,0,0.1,0.13,0.1,0.26c0,0.42-0.21,1.07-0.49,1.87c-0.52,1.35-1.3,3.07-1.95,4.24c-0.13,0.26-0.16,0.34-0.16,0.47
	C177.87,84.03,178.02,84.23,178.38,84.23z M192.62,74.82c0.13,0,0.31-0.13,0.42-0.21l3.07-2.39c0.05-0.05,0.08-0.16,0.08-0.31
	c0-0.26-0.16-0.47-0.49-0.47c-0.13,0-0.21,0-0.31,0.08l-3.07,2.39c-0.1,0.08-0.18,0.29-0.18,0.42
	C192.12,74.59,192.28,74.82,192.62,74.82z M194.18,84.36c0.52,0,1.2-0.39,2-1.12c0.78-0.7,1.69-1.69,2.78-2.89
	c0.08-0.08,0.16-0.26,0.16-0.36c0-0.23-0.21-0.52-0.49-0.52c-0.13,0-0.21,0-0.39,0.18c-0.39,0.44-1.51,1.72-2.52,2.65
	c-0.62,0.6-1.22,1.04-1.53,1.04s-0.49-0.31-0.49-0.68c0-0.47,0.21-1.27,0.52-2.08c0.94-1.51,1.79-3.33,2.03-3.9
	c0.03-0.08,0.08-0.16,0.08-0.26c0-0.18-0.21-0.31-0.34-0.39c-0.1-0.05-0.68-0.29-1.51-0.29c-1.38,0-2.81,0.68-3.98,1.66
	c-1.53,1.3-2.63,3.15-2.63,4.81c0,1.2,0.62,2.13,1.87,2.13c1.14,0,2.16-0.81,2.94-1.69C192.67,83.53,193.14,84.36,194.18,84.36z
	 M194.44,76.77c0.18,0,0.39,0.03,0.55,0.05c-0.42,0.73-1.17,2.05-1.69,3.33c-0.7,1.2-2.21,3.2-3.59,3.2c-0.55,0-0.83-0.52-0.83-1.09
	c0-1.27,0.88-2.83,2.13-3.98C191.99,77.4,193.22,76.77,194.44,76.77z M207.42,84.36c1.09,0,2.57-1.66,3.72-2.96
	c0.36-0.42,0.68-0.78,0.94-1.04c0.08-0.08,0.16-0.23,0.16-0.36c0-0.23-0.16-0.52-0.49-0.52c-0.16,0-0.29,0.08-0.39,0.18
	c-0.29,0.29-0.62,0.68-1.01,1.09c-1.04,1.17-2.31,2.57-2.83,2.57c-0.42,0-0.44-0.34-0.44-0.75c0-0.23,0.08-0.88,0.13-1.12
	c0.26-1.17,0.49-1.77,1.04-3.25c2-2.52,4.91-6.5,5.9-8.53c0.21-0.39,0.29-0.81,0.29-1.17c0-0.62-0.31-1.33-1.09-1.33
	c-0.55,0-1.43,0.36-2.42,2.21c-0.34,0.65-1.74,3.28-3.56,8.29c-1.17,1.46-4.47,5.54-4.71,5.77c-0.08,0.08-0.13,0.21-0.13,0.34
	c0,0.26,0.18,0.49,0.52,0.49c0.26,0,0.42-0.23,0.86-0.78c0.81-0.99,1.46-1.82,2.5-3.07c-0.18,0.65-0.34,1.4-0.34,2.16
	C206.04,83.4,206.4,84.36,207.42,84.36z M213.29,68.19c0.08,0,0.13,0.13,0.13,0.29c0,0.18-0.08,0.49-0.21,0.75
	c-0.62,1.27-2.11,3.46-3.64,5.54c0.65-1.61,1.4-3.48,2.21-4.89c0.39-0.68,0.7-1.12,0.96-1.38
	C212.98,68.27,213.16,68.19,213.29,68.19z M214.2,74.77c0.1,0,0.21-0.05,0.31-0.13l3.17-2.47c0.05-0.05,0.08-0.16,0.08-0.31
	c0-0.26-0.16-0.47-0.49-0.47c-0.13,0-0.21,0-0.31,0.08l-3.07,2.39c-0.1,0.08-0.18,0.29-0.18,0.42
	C213.71,74.54,213.86,74.77,214.2,74.77z M212.95,84.39c0.78,0,1.69-0.34,2.68-0.96c1.12-0.7,2.29-1.74,3.46-3.07
	c0.05-0.08,0.13-0.23,0.13-0.34c0-0.21-0.13-0.52-0.47-0.52c-0.13,0-0.29,0.05-0.39,0.16c-1.14,1.27-2.24,2.21-3.2,2.83
	c-0.91,0.6-1.72,0.88-2.26,0.88c-0.75,0-1.09-0.52-1.09-1.3c0-0.44,0.08-0.86,0.21-1.35c1.82-0.42,3.15-1.12,3.93-1.85
	c0.57-0.55,0.88-1.12,0.88-1.64c0-0.83-0.6-1.35-1.51-1.35c-2.39,0-4.52,3.87-4.52,6.14C210.79,83.27,211.39,84.39,212.95,84.39z
	 M215.32,76.9c0.18,0,0.49,0.08,0.49,0.31c0,0.26-0.16,0.62-0.55,0.99c-0.49,0.49-1.4,0.99-2.81,1.35
	C213,78.44,214.15,76.9,215.32,76.9z M218.58,84.55c0.31,0,0.44-0.23,0.52-0.44l0.44-1.17c0.29-0.7,0.65-1.4,1.04-2.05l0.13,0.36
	c0.26,0.78,0.6,1.69,1.12,2.29c0.39,0.44,0.86,0.75,1.48,0.75c0.68,0,1.3-0.34,2.05-0.96c0.7-0.6,1.51-1.43,2.52-2.52l0.42-0.44
	c0.08-0.08,0.16-0.23,0.16-0.36c0-0.23-0.16-0.49-0.49-0.49c-0.1,0-0.29,0.05-0.39,0.16l-0.75,0.81c-0.75,0.81-1.43,1.51-2,2
	c-0.57,0.49-1.04,0.81-1.4,0.81c-0.34,0-0.65-0.18-0.88-0.47c-0.44-0.52-0.7-1.38-0.83-1.79c1.27-0.21,2.68-0.86,3.56-1.79
	c0.49-0.55,0.83-1.17,0.83-1.85c0-0.78-0.47-1.46-1.4-1.46c-0.47,0-0.99,0.21-1.48,0.52c-0.6,0.39-1.2,0.91-1.69,1.46l0.29-0.68
	c1.3-1.56,2.52-3.04,3.46-4.24c0.75-0.96,1.35-1.79,1.77-2.5c0.49-0.81,0.73-1.43,0.73-1.87c0-0.7-0.42-1.43-1.22-1.43
	c-0.49,0-1.25,0.42-1.82,1.27c-0.75,1.12-2.03,3.95-3.77,8.24c-0.68,0.81-1.46,1.77-2.18,2.55l-0.39,0.42
	c-0.08,0.08-0.13,0.21-0.13,0.34c0,0.23,0.23,0.52,0.52,0.52c0.13,0,0.31-0.1,0.39-0.21l0.55-0.62l-1.09,2.81
	c-0.18,0.44-0.55,1.22-0.55,1.59C218.06,84.29,218.22,84.55,218.58,84.55z M224.72,76.93c0.26,0,0.36,0.16,0.36,0.44
	c0,0.83-0.88,1.59-1.87,2.05c-0.75,0.39-1.48,0.55-2.11,0.65c0.78-1.14,1.66-2.11,2.42-2.65C223.96,77.11,224.38,76.93,224.72,76.93
	z M226.54,68.19c0.16,0,0.21,0.23,0.21,0.44c0,0.26-0.18,0.68-0.49,1.22c-0.65,1.09-1.87,2.68-3.17,4.26c1.4-3.28,2-4.39,2.5-5.12
	C225.94,68.45,226.3,68.19,226.54,68.19z M231.59,74.82c0.13,0,0.31-0.13,0.42-0.21l3.07-2.39c0.05-0.05,0.08-0.16,0.08-0.31
	c0-0.26-0.16-0.47-0.49-0.47c-0.13,0-0.21,0-0.31,0.08l-3.07,2.39c-0.1,0.08-0.18,0.29-0.18,0.42
	C231.1,74.59,231.26,74.82,231.59,74.82z M233.15,84.36c0.52,0,1.2-0.39,2-1.12c0.78-0.7,1.69-1.69,2.78-2.89
	c0.08-0.08,0.16-0.26,0.16-0.36c0-0.23-0.21-0.52-0.49-0.52c-0.13,0-0.21,0-0.39,0.18c-0.39,0.44-1.51,1.72-2.52,2.65
	c-0.62,0.6-1.22,1.04-1.53,1.04s-0.49-0.31-0.49-0.68c0-0.47,0.21-1.27,0.52-2.08c0.94-1.51,1.79-3.33,2.03-3.9
	c0.03-0.08,0.08-0.16,0.08-0.26c0-0.18-0.21-0.31-0.34-0.39c-0.1-0.05-0.68-0.29-1.51-0.29c-1.38,0-2.81,0.68-3.98,1.66
	c-1.53,1.3-2.63,3.15-2.63,4.81c0,1.2,0.62,2.13,1.87,2.13c1.14,0,2.16-0.81,2.94-1.69C231.65,83.53,232.11,84.36,233.15,84.36z
	 M233.41,76.77c0.18,0,0.39,0.03,0.55,0.05c-0.42,0.73-1.17,2.05-1.69,3.33c-0.7,1.2-2.21,3.2-3.59,3.2c-0.55,0-0.83-0.52-0.83-1.09
	c0-1.27,0.88-2.83,2.13-3.98C230.97,77.4,232.19,76.77,233.41,76.77z M240.77,84.36c0.29,0,0.57-0.08,0.81-0.23
	c1.09-0.75,2.5-2.37,3.41-3.35l0.39-0.42c0.08-0.08,0.16-0.23,0.16-0.36c0-0.23-0.29-0.49-0.52-0.49c-0.13,0-0.29,0.08-0.36,0.16
	c-0.29,0.29-0.6,0.65-0.96,1.04c-0.81,0.88-1.77,1.9-2.68,2.57c-0.08,0.05-0.18,0.08-0.23,0.08c-0.13,0-0.23-0.08-0.23-0.23
	c0-0.52,0.57-1.48,1.07-2.31c0.57-0.99,1.35-2.34,1.35-3.02c0-0.55-0.44-0.99-1.04-0.99c-0.18,0-0.42,0.03-0.55,0.03
	c-0.05,0-0.16,0-0.16-0.08c0-0.08,0.08-0.26,0.21-0.47c0.1-0.16,0.16-0.34,0.16-0.47c0-0.21-0.16-0.47-0.52-0.47
	c-0.13,0-0.29,0.08-0.44,0.23c-0.16,0.16-0.16,0.21-0.81,1.01c-0.7,0.86-1.87,2.24-2.65,3.12c-0.08,0.1-0.1,0.21-0.1,0.31
	c0,0.26,0.16,0.49,0.49,0.49c0.13,0,0.29-0.05,0.36-0.16c0.86-0.94,1.77-2.05,2.44-2.89c0.21,0.29,0.52,0.34,0.86,0.34h0.55
	c0.16,0,0.18,0.03,0.18,0.08c0,0.16-0.08,0.34-0.16,0.52c-0.29,0.55-0.94,1.66-0.96,1.72c-0.49,0.81-1.3,2.16-1.3,2.99
	C239.53,83.79,240.05,84.36,240.77,84.36z M246.94,84.23c0.13,0,0.36-0.03,0.49-0.26l0.39-0.7c0.52-0.94,1.48-2.57,2.44-3.8
	c1.07-1.33,2.39-2.55,3.54-2.55c0.16,0,0.26,0.03,0.26,0.23c0,0.57-0.6,1.9-1.04,2.86c-0.57,1.25-1.12,2.5-1.12,3.17
	c0,0.52,0.34,1.12,1.12,1.12c0.55,0,1.2-0.36,1.9-0.94c1.01-0.81,2.08-2,2.99-3.02c0.05-0.08,0.13-0.23,0.13-0.34
	c0-0.29-0.16-0.52-0.49-0.52c-0.13,0-0.29,0.08-0.36,0.16c-0.86,0.96-1.79,1.98-2.6,2.7c-0.62,0.57-1.17,0.94-1.53,0.94
	c-0.08,0-0.13-0.05-0.13-0.16c0-0.57,0.55-1.79,1.01-2.7c0.36-0.73,1.14-2.39,1.14-3.41c0-0.7-0.55-1.12-1.27-1.12
	c-1.38,0-2.73,1.04-3.98,2.5c0.16-0.49,0.23-0.96,0.23-1.25c0-0.6-0.39-1.3-1.14-1.3c-0.34,0-0.75,0.16-1.14,0.44
	c-0.34,0.26-0.99,0.94-1.64,1.66c-0.55,0.6-1.09,1.22-1.48,1.69c-0.08,0.08-0.16,0.26-0.16,0.36c0,0.26,0.23,0.49,0.52,0.49
	c0.13,0,0.29-0.05,0.39-0.18l1.48-1.69c0.65-0.73,1.22-1.33,1.48-1.51c0.26-0.18,0.44-0.26,0.55-0.26c0.08,0,0.1,0.13,0.1,0.26
	c0,0.42-0.21,1.07-0.49,1.87c-0.52,1.35-1.3,3.07-1.95,4.24c-0.13,0.26-0.16,0.34-0.16,0.47C246.42,84.03,246.58,84.23,246.94,84.23
	z M262.73,84.36c0.52,0,1.2-0.39,2-1.12c0.78-0.7,1.69-1.69,2.78-2.89c0.08-0.08,0.16-0.26,0.16-0.36c0-0.23-0.21-0.52-0.49-0.52
	c-0.13,0-0.21,0-0.39,0.18c-0.39,0.44-1.51,1.72-2.52,2.65c-0.62,0.6-1.22,1.04-1.53,1.04s-0.49-0.31-0.49-0.68
	c0-0.47,0.21-1.27,0.52-2.08c0.94-1.51,1.79-3.33,2.03-3.9c0.03-0.08,0.08-0.16,0.08-0.26c0-0.18-0.21-0.31-0.34-0.39
	c-0.1-0.05-0.68-0.29-1.51-0.29c-1.38,0-2.81,0.68-3.98,1.66c-1.53,1.3-2.63,3.15-2.63,4.81c0,1.2,0.62,2.13,1.87,2.13
	c1.14,0,2.16-0.81,2.94-1.69C261.23,83.53,261.69,84.36,262.73,84.36z M262.99,76.77c0.18,0,0.39,0.03,0.55,0.05
	c-0.42,0.73-1.17,2.05-1.69,3.33c-0.7,1.2-2.21,3.2-3.59,3.2c-0.55,0-0.83-0.52-0.83-1.09c0-1.27,0.88-2.83,2.13-3.98
	C260.55,77.4,261.77,76.77,262.99,76.77z"/>
</svg>
